<?xml version="1.0" encoding="UTF-8" standalone="no"?>
<!DOCTYPE svg PUBLIC "-//W3C//DTD SVG 1.1//EN"
 "http://www.w3.org/Graphics/SVG/1.1/DTD/svg11.dtd">
<!-- Generated by graphviz version 2.44.1 (20200629.0846)
 -->
<!-- Title: dependencies Pages: 1 -->
<svg width="504pt" height="284pt"
 viewBox="0.00 0.00 504.00 284.00" xmlns="http://www.w3.org/2000/svg" xmlns:xlink="http://www.w3.org/1999/xlink">
<g id="graph0" class="graph" transform="scale(1 1) rotate(0) translate(4 280)">
<title>dependencies</title>
<polygon fill="white" stroke="transparent" points="-4,4 -4,-280 500,-280 500,4 -4,4"/>
<text text-anchor="start" x="227.01" y="-42.4" font-family="sans-serif" font-weight="bold" font-size="14.00">Legend</text>
<polygon fill="#ffffb3" stroke="transparent" points="14,-10 14,-30 34,-30 34,-10 14,-10"/>
<text text-anchor="start" x="37.63" y="-15.4" font-family="sans-serif" font-size="14.00"> &#160;Declarations</text>
<polygon fill="#8dd3c7" stroke="transparent" points="127,-10 127,-30 147,-30 147,-10 127,-10"/>
<text text-anchor="start" x="150.73" y="-15.4" font-family="sans-serif" font-size="14.00"> &#160;Module</text>
<polygon fill="#80b1d3" stroke="transparent" points="213,-10 213,-30 233,-30 233,-10 213,-10"/>
<text text-anchor="start" x="236.78" y="-15.4" font-family="sans-serif" font-size="14.00"> &#160;Bootstrap</text>
<polygon fill="#fdb462" stroke="transparent" points="310,-10 310,-30 330,-30 330,-10 310,-10"/>
<text text-anchor="start" x="333.67" y="-15.4" font-family="sans-serif" font-size="14.00"> &#160;Providers</text>
<polygon fill="#fb8072" stroke="transparent" points="406,-10 406,-30 426,-30 426,-10 406,-10"/>
<text text-anchor="start" x="429.73" y="-15.4" font-family="sans-serif" font-size="14.00"> &#160;Exports</text>
<g id="clust1" class="cluster">
<title>cluster_AlertsModule</title>
<polygon fill="none" stroke="black" stroke-dasharray="1,5" points="105,-70 105,-268 391,-268 391,-70 105,-70"/>
</g>
<g id="clust2" class="cluster">
<title>cluster_AlertsModule_declarations</title>
<polygon fill="none" stroke="black" points="257,-78 257,-130 383,-130 383,-78 257,-78"/>
</g>
<g id="clust5" class="cluster">
<title>cluster_AlertsModule_exports</title>
<polygon fill="none" stroke="black" points="184,-208 184,-260 314,-260 314,-208 184,-208"/>
</g>
<g id="clust7" class="cluster">
<title>cluster_AlertsModule_providers</title>
<polygon fill="none" stroke="black" points="113,-78 113,-130 249,-130 249,-78 113,-78"/>
</g>
<!-- AlertComponent -->
<g id="node1" class="node">
<title>AlertComponent</title>
<polygon fill="#ffffb3" stroke="black" points="375.1,-122 264.9,-122 264.9,-86 375.1,-86 375.1,-122"/>
<text text-anchor="middle" x="320" y="-99.8" font-family="Times,serif" font-size="14.00">AlertComponent</text>
</g>
<!-- AlertsModule -->
<g id="node2" class="node">
<title>AlertsModule</title>
<polygon fill="#8dd3c7" stroke="black" points="295.76,-187 292.76,-191 271.76,-191 268.76,-187 202.24,-187 202.24,-151 295.76,-151 295.76,-187"/>
<text text-anchor="middle" x="249" y="-164.8" font-family="Times,serif" font-size="14.00">AlertsModule</text>
</g>
<!-- AlertComponent&#45;&gt;AlertsModule -->
<g id="edge1" class="edge">
<title>AlertComponent&#45;&gt;AlertsModule</title>
<path fill="none" stroke="black" d="M280.42,-122.11C280.42,-122.11 280.42,-140.99 280.42,-140.99"/>
<polygon fill="black" stroke="black" points="276.92,-140.99 280.42,-150.99 283.92,-140.99 276.92,-140.99"/>
</g>
<!-- AlertComponent  -->
<g id="node3" class="node">
<title>AlertComponent </title>
<polygon fill="#fb8072" stroke="black" points="305.6,-252 192.4,-252 192.4,-216 305.6,-216 305.6,-252"/>
<text text-anchor="middle" x="249" y="-229.8" font-family="Times,serif" font-size="14.00">AlertComponent </text>
</g>
<!-- AlertsModule&#45;&gt;AlertComponent  -->
<g id="edge2" class="edge">
<title>AlertsModule&#45;&gt;AlertComponent </title>
<path fill="none" stroke="black" stroke-dasharray="5,2" d="M249,-187.11C249,-187.11 249,-205.99 249,-205.99"/>
<polygon fill="black" stroke="black" points="245.5,-205.99 249,-215.99 252.5,-205.99 245.5,-205.99"/>
</g>
<!-- AlertService -->
<g id="node4" class="node">
<title>AlertService</title>
<ellipse fill="#fdb462" stroke="black" cx="181" cy="-104" rx="59.66" ry="18"/>
<text text-anchor="middle" x="181" y="-99.8" font-family="Times,serif" font-size="14.00">AlertService</text>
</g>
<!-- AlertService&#45;&gt;AlertsModule -->
<g id="edge3" class="edge">
<title>AlertService&#45;&gt;AlertsModule</title>
<path fill="none" stroke="black" d="M221.48,-117.47C221.48,-117.47 221.48,-140.86 221.48,-140.86"/>
<polygon fill="black" stroke="black" points="217.98,-140.86 221.48,-150.86 224.98,-140.86 217.98,-140.86"/>
</g>
</g>
</svg>
