<?xml version="1.0" encoding="UTF-8" standalone="no"?>
<!DOCTYPE svg PUBLIC "-//W3C//DTD SVG 1.1//EN"
 "http://www.w3.org/Graphics/SVG/1.1/DTD/svg11.dtd">
<!-- Generated by graphviz version 2.44.1 (20200629.0846)
 -->
<!-- Title: dependencies Pages: 1 -->
<svg width="504pt" height="284pt"
 viewBox="0.00 0.00 504.00 284.00" xmlns="http://www.w3.org/2000/svg" xmlns:xlink="http://www.w3.org/1999/xlink">
<g id="graph0" class="graph" transform="scale(1 1) rotate(0) translate(4 280)">
<title>dependencies</title>
<polygon fill="white" stroke="transparent" points="-4,4 -4,-280 500,-280 500,4 -4,4"/>
<text text-anchor="start" x="227.01" y="-42.4" font-family="sans-serif" font-weight="bold" font-size="14.00">Legend</text>
<polygon fill="#ffffb3" stroke="transparent" points="14,-10 14,-30 34,-30 34,-10 14,-10"/>
<text text-anchor="start" x="37.63" y="-15.4" font-family="sans-serif" font-size="14.00"> &#160;Declarations</text>
<polygon fill="#8dd3c7" stroke="transparent" points="127,-10 127,-30 147,-30 147,-10 127,-10"/>
<text text-anchor="start" x="150.73" y="-15.4" font-family="sans-serif" font-size="14.00"> &#160;Module</text>
<polygon fill="#80b1d3" stroke="transparent" points="213,-10 213,-30 233,-30 233,-10 213,-10"/>
<text text-anchor="start" x="236.78" y="-15.4" font-family="sans-serif" font-size="14.00"> &#160;Bootstrap</text>
<polygon fill="#fdb462" stroke="transparent" points="310,-10 310,-30 330,-30 330,-10 310,-10"/>
<text text-anchor="start" x="333.67" y="-15.4" font-family="sans-serif" font-size="14.00"> &#160;Providers</text>
<polygon fill="#fb8072" stroke="transparent" points="406,-10 406,-30 426,-30 426,-10 406,-10"/>
<text text-anchor="start" x="429.73" y="-15.4" font-family="sans-serif" font-size="14.00"> &#160;Exports</text>
<g id="clust1" class="cluster">
<title>cluster_AlertsModule</title>
<polygon fill="none" stroke="black" stroke-dasharray="1,5" points="105,-70 105,-268 391,-268 391,-70 105,-70"/>
</g>
<g id="clust7" class="cluster">
<title>cluster_AlertsModule_providers</title>
<polygon fill="none" stroke="black" points="247,-78 247,-130 383,-130 383,-78 247,-78"/>
</g>
<g id="clust2" class="cluster">
<title>cluster_AlertsModule_declarations</title>
<polygon fill="none" stroke="black" points="113,-78 113,-130 239,-130 239,-78 113,-78"/>
</g>
<g id="clust5" class="cluster">
<title>cluster_AlertsModule_exports</title>
<polygon fill="none" stroke="black" points="181,-208 181,-260 311,-260 311,-208 181,-208"/>
</g>
<!-- AlertComponent -->
<g id="node1" class="node">
<title>AlertComponent</title>
<polygon fill="#ffffb3" stroke="black" points="231.1,-122 120.9,-122 120.9,-86 231.1,-86 231.1,-122"/>
<text text-anchor="middle" x="176" y="-99.8" font-family="Times,serif" font-size="14.00">AlertComponent</text>
</g>
<!-- AlertsModule -->
<g id="node2" class="node">
<title>AlertsModule</title>
<polygon fill="#8dd3c7" stroke="black" points="292.76,-187 289.76,-191 268.76,-191 265.76,-187 199.24,-187 199.24,-151 292.76,-151 292.76,-187"/>
<text text-anchor="middle" x="246" y="-164.8" font-family="Times,serif" font-size="14.00">AlertsModule</text>
</g>
<!-- AlertComponent&#45;&gt;AlertsModule -->
<g id="edge1" class="edge">
<title>AlertComponent&#45;&gt;AlertsModule</title>
<path fill="none" stroke="black" d="M215.08,-122.11C215.08,-122.11 215.08,-140.99 215.08,-140.99"/>
<polygon fill="black" stroke="black" points="211.58,-140.99 215.08,-150.99 218.58,-140.99 211.58,-140.99"/>
</g>
<!-- AlertComponent  -->
<g id="node3" class="node">
<title>AlertComponent </title>
<polygon fill="#fb8072" stroke="black" points="302.6,-252 189.4,-252 189.4,-216 302.6,-216 302.6,-252"/>
<text text-anchor="middle" x="246" y="-229.8" font-family="Times,serif" font-size="14.00">AlertComponent </text>
</g>
<!-- AlertsModule&#45;&gt;AlertComponent  -->
<g id="edge2" class="edge">
<title>AlertsModule&#45;&gt;AlertComponent </title>
<path fill="none" stroke="black" stroke-dasharray="5,2" d="M246,-187.11C246,-187.11 246,-205.99 246,-205.99"/>
<polygon fill="black" stroke="black" points="242.5,-205.99 246,-215.99 249.5,-205.99 242.5,-205.99"/>
</g>
<!-- AlertService -->
<g id="node4" class="node">
<title>AlertService</title>
<ellipse fill="#fdb462" stroke="black" cx="315" cy="-104" rx="59.66" ry="18"/>
<text text-anchor="middle" x="315" y="-99.8" font-family="Times,serif" font-size="14.00">AlertService</text>
</g>
<!-- AlertService&#45;&gt;AlertsModule -->
<g id="edge3" class="edge">
<title>AlertService&#45;&gt;AlertsModule</title>
<path fill="none" stroke="black" d="M274.02,-117.15C274.02,-117.15 274.02,-140.69 274.02,-140.69"/>
<polygon fill="black" stroke="black" points="270.52,-140.69 274.02,-150.69 277.52,-140.69 270.52,-140.69"/>
</g>
</g>
</svg>
