<?xml version="1.0" encoding="UTF-8" standalone="no"?>
<!DOCTYPE svg PUBLIC "-//W3C//DTD SVG 1.1//EN"
 "http://www.w3.org/Graphics/SVG/1.1/DTD/svg11.dtd">
<!-- Generated by graphviz version 2.40.1 (20161225.0304)
 -->
<!-- Title: dependencies Pages: 1 -->
<svg width="504pt" height="211pt"
 viewBox="0.00 0.00 504.00 211.00" xmlns="http://www.w3.org/2000/svg" xmlns:xlink="http://www.w3.org/1999/xlink">
<g id="graph0" class="graph" transform="scale(1 1) rotate(0) translate(4 207)">
<title>dependencies</title>
<polygon fill="#ffffff" stroke="transparent" points="-4,4 -4,-207 500,-207 500,4 -4,4"/>
<text text-anchor="start" x="227.0091" y="-42.4" font-family="sans-serif" font-weight="bold" font-size="14.00" fill="#000000">Legend</text>
<polygon fill="#ffffb3" stroke="transparent" points="14,-10 14,-30 34,-30 34,-10 14,-10"/>
<text text-anchor="start" x="37.629" y="-15.4" font-family="sans-serif" font-size="14.00" fill="#000000"> &#160;Declarations</text>
<polygon fill="#8dd3c7" stroke="transparent" points="127,-10 127,-30 147,-30 147,-10 127,-10"/>
<text text-anchor="start" x="150.7251" y="-15.4" font-family="sans-serif" font-size="14.00" fill="#000000"> &#160;Module</text>
<polygon fill="#80b1d3" stroke="transparent" points="213,-10 213,-30 233,-30 233,-10 213,-10"/>
<text text-anchor="start" x="236.7812" y="-15.4" font-family="sans-serif" font-size="14.00" fill="#000000"> &#160;Bootstrap</text>
<polygon fill="#fdb462" stroke="transparent" points="310,-10 310,-30 330,-30 330,-10 310,-10"/>
<text text-anchor="start" x="333.6732" y="-15.4" font-family="sans-serif" font-size="14.00" fill="#000000"> &#160;Providers</text>
<polygon fill="#fb8072" stroke="transparent" points="406,-10 406,-30 426,-30 426,-10 406,-10"/>
<text text-anchor="start" x="429.7258" y="-15.4" font-family="sans-serif" font-size="14.00" fill="#000000"> &#160;Exports</text>
<g id="clust1" class="cluster">
<title>cluster_UserModule</title>
<polygon fill="none" stroke="#000000" stroke-dasharray="1,5" points="89,-70 89,-195 407,-195 407,-70 89,-70"/>
</g>
<g id="clust2" class="cluster">
<title>cluster_UserModule_declarations</title>
<polygon fill="none" stroke="#000000" points="227,-78 227,-130 399,-130 399,-78 227,-78"/>
</g>
<g id="clust4" class="cluster">
<title>cluster_UserModule_imports</title>
<polygon fill="none" stroke="#000000" points="97,-78 97,-130 219,-130 219,-78 97,-78"/>
</g>
<!-- UserAccountComponent -->
<g id="node1" class="node">
<title>UserAccountComponent</title>
<polygon fill="#ffffb3" stroke="#000000" points="390.6853,-122 235.3147,-122 235.3147,-86 390.6853,-86 390.6853,-122"/>
<text text-anchor="middle" x="313" y="-99.8" font-family="Times,serif" font-size="14.00" fill="#000000">UserAccountComponent</text>
</g>
<!-- UserModule -->
<g id="node2" class="node">
<title>UserModule</title>
<polygon fill="#8dd3c7" stroke="#000000" points="277.9762,-187 274.9762,-191 253.9762,-191 250.9762,-187 192.0238,-187 192.0238,-151 277.9762,-151 277.9762,-187"/>
<text text-anchor="middle" x="235" y="-164.8" font-family="Times,serif" font-size="14.00" fill="#000000">UserModule</text>
</g>
<!-- UserAccountComponent&#45;&gt;UserModule -->
<g id="edge1" class="edge">
<title>UserAccountComponent&#45;&gt;UserModule</title>
<path fill="none" stroke="#000000" d="M256.6978,-122.1061C256.6978,-122.1061 256.6978,-140.991 256.6978,-140.991"/>
<polygon fill="#000000" stroke="#000000" points="253.1978,-140.9909 256.6978,-150.991 260.1978,-140.991 253.1978,-140.9909"/>
</g>
<!-- WebdavModule -->
<g id="node3" class="node">
<title>WebdavModule</title>
<polygon fill="#8dd3c7" stroke="#000000" points="211.1938,-122 208.1938,-126 187.1938,-126 184.1938,-122 104.8062,-122 104.8062,-86 211.1938,-86 211.1938,-122"/>
<text text-anchor="middle" x="158" y="-99.8" font-family="Times,serif" font-size="14.00" fill="#000000">WebdavModule</text>
</g>
<!-- WebdavModule&#45;&gt;UserModule -->
<g id="edge2" class="edge">
<title>WebdavModule&#45;&gt;UserModule</title>
<path fill="none" stroke="#000000" d="M201.5544,-122.1061C201.5544,-122.1061 201.5544,-140.991 201.5544,-140.991"/>
<polygon fill="#000000" stroke="#000000" points="198.0544,-140.9909 201.5544,-150.991 205.0544,-140.991 198.0544,-140.9909"/>
</g>
</g>
</svg>
