<?xml version="1.0" encoding="UTF-8" standalone="no"?>
<!DOCTYPE svg PUBLIC "-//W3C//DTD SVG 1.1//EN"
 "http://www.w3.org/Graphics/SVG/1.1/DTD/svg11.dtd">
<!-- Generated by graphviz version 2.44.1 (20200629.0846)
 -->
<!-- Title: dependencies Pages: 1 -->
<svg width="504pt" height="211pt"
 viewBox="0.00 0.00 504.00 211.00" xmlns="http://www.w3.org/2000/svg" xmlns:xlink="http://www.w3.org/1999/xlink">
<g id="graph0" class="graph" transform="scale(1 1) rotate(0) translate(4 207)">
<title>dependencies</title>
<polygon fill="white" stroke="transparent" points="-4,4 -4,-207 500,-207 500,4 -4,4"/>
<text text-anchor="start" x="227.01" y="-42.4" font-family="sans-serif" font-weight="bold" font-size="14.00">Legend</text>
<polygon fill="#ffffb3" stroke="transparent" points="14,-10 14,-30 34,-30 34,-10 14,-10"/>
<text text-anchor="start" x="37.63" y="-15.4" font-family="sans-serif" font-size="14.00"> &#160;Declarations</text>
<polygon fill="#8dd3c7" stroke="transparent" points="127,-10 127,-30 147,-30 147,-10 127,-10"/>
<text text-anchor="start" x="150.73" y="-15.4" font-family="sans-serif" font-size="14.00"> &#160;Module</text>
<polygon fill="#80b1d3" stroke="transparent" points="213,-10 213,-30 233,-30 233,-10 213,-10"/>
<text text-anchor="start" x="236.78" y="-15.4" font-family="sans-serif" font-size="14.00"> &#160;Bootstrap</text>
<polygon fill="#fdb462" stroke="transparent" points="310,-10 310,-30 330,-30 330,-10 310,-10"/>
<text text-anchor="start" x="333.67" y="-15.4" font-family="sans-serif" font-size="14.00"> &#160;Providers</text>
<polygon fill="#fb8072" stroke="transparent" points="406,-10 406,-30 426,-30 426,-10 406,-10"/>
<text text-anchor="start" x="429.73" y="-15.4" font-family="sans-serif" font-size="14.00"> &#160;Exports</text>
<g id="clust1" class="cluster">
<title>cluster_UserModule</title>
<polygon fill="none" stroke="black" stroke-dasharray="1,5" points="89,-70 89,-195 407,-195 407,-70 89,-70"/>
</g>
<g id="clust2" class="cluster">
<title>cluster_UserModule_declarations</title>
<polygon fill="none" stroke="black" points="227,-78 227,-130 399,-130 399,-78 227,-78"/>
</g>
<g id="clust4" class="cluster">
<title>cluster_UserModule_imports</title>
<polygon fill="none" stroke="black" points="97,-78 97,-130 219,-130 219,-78 97,-78"/>
</g>
<!-- UserAccountComponent -->
<g id="node1" class="node">
<title>UserAccountComponent</title>
<polygon fill="#ffffb3" stroke="black" points="390.69,-122 235.31,-122 235.31,-86 390.69,-86 390.69,-122"/>
<text text-anchor="middle" x="313" y="-99.8" font-family="Times,serif" font-size="14.00">UserAccountComponent</text>
</g>
<!-- UserModule -->
<g id="node2" class="node">
<title>UserModule</title>
<polygon fill="#8dd3c7" stroke="black" points="277.98,-187 274.98,-191 253.98,-191 250.98,-187 192.02,-187 192.02,-151 277.98,-151 277.98,-187"/>
<text text-anchor="middle" x="235" y="-164.8" font-family="Times,serif" font-size="14.00">UserModule</text>
</g>
<!-- UserAccountComponent&#45;&gt;UserModule -->
<g id="edge1" class="edge">
<title>UserAccountComponent&#45;&gt;UserModule</title>
<path fill="none" stroke="black" d="M256.7,-122.11C256.7,-122.11 256.7,-140.99 256.7,-140.99"/>
<polygon fill="black" stroke="black" points="253.2,-140.99 256.7,-150.99 260.2,-140.99 253.2,-140.99"/>
</g>
<!-- WebdavModule -->
<g id="node3" class="node">
<title>WebdavModule</title>
<polygon fill="#8dd3c7" stroke="black" points="211.19,-122 208.19,-126 187.19,-126 184.19,-122 104.81,-122 104.81,-86 211.19,-86 211.19,-122"/>
<text text-anchor="middle" x="158" y="-99.8" font-family="Times,serif" font-size="14.00">WebdavModule</text>
</g>
<!-- WebdavModule&#45;&gt;UserModule -->
<g id="edge2" class="edge">
<title>WebdavModule&#45;&gt;UserModule</title>
<path fill="none" stroke="black" d="M201.55,-122.11C201.55,-122.11 201.55,-140.99 201.55,-140.99"/>
<polygon fill="black" stroke="black" points="198.05,-140.99 201.55,-150.99 205.05,-140.99 198.05,-140.99"/>
</g>
</g>
</svg>
