<?xml version="1.0" encoding="UTF-8" standalone="no"?>
<!DOCTYPE svg PUBLIC "-//W3C//DTD SVG 1.1//EN"
 "http://www.w3.org/Graphics/SVG/1.1/DTD/svg11.dtd">
<!-- Generated by graphviz version 2.40.1 (20161225.0304)
 -->
<!-- Title: dependencies Pages: 1 -->
<svg width="650pt" height="284pt"
 viewBox="0.00 0.00 650.00 284.00" xmlns="http://www.w3.org/2000/svg" xmlns:xlink="http://www.w3.org/1999/xlink">
<g id="graph0" class="graph" transform="scale(1 1) rotate(0) translate(4 280)">
<title>dependencies</title>
<polygon fill="#ffffff" stroke="transparent" points="-4,4 -4,-280 646,-280 646,4 -4,4"/>
<text text-anchor="start" x="300.0091" y="-42.4" font-family="sans-serif" font-weight="bold" font-size="14.00" fill="#000000">Legend</text>
<polygon fill="#ffffb3" stroke="transparent" points="87,-10 87,-30 107,-30 107,-10 87,-10"/>
<text text-anchor="start" x="110.629" y="-15.4" font-family="sans-serif" font-size="14.00" fill="#000000"> &#160;Declarations</text>
<polygon fill="#8dd3c7" stroke="transparent" points="200,-10 200,-30 220,-30 220,-10 200,-10"/>
<text text-anchor="start" x="223.7251" y="-15.4" font-family="sans-serif" font-size="14.00" fill="#000000"> &#160;Module</text>
<polygon fill="#80b1d3" stroke="transparent" points="286,-10 286,-30 306,-30 306,-10 286,-10"/>
<text text-anchor="start" x="309.7812" y="-15.4" font-family="sans-serif" font-size="14.00" fill="#000000"> &#160;Bootstrap</text>
<polygon fill="#fdb462" stroke="transparent" points="383,-10 383,-30 403,-30 403,-10 383,-10"/>
<text text-anchor="start" x="406.6732" y="-15.4" font-family="sans-serif" font-size="14.00" fill="#000000"> &#160;Providers</text>
<polygon fill="#fb8072" stroke="transparent" points="479,-10 479,-30 499,-30 499,-10 479,-10"/>
<text text-anchor="start" x="502.7258" y="-15.4" font-family="sans-serif" font-size="14.00" fill="#000000"> &#160;Exports</text>
<g id="clust1" class="cluster">
<title>cluster_FormDialogModule</title>
<polygon fill="none" stroke="#000000" stroke-dasharray="1,5" points="8,-70 8,-268 634,-268 634,-70 8,-70"/>
</g>
<g id="clust2" class="cluster">
<title>cluster_FormDialogModule_declarations</title>
<polygon fill="none" stroke="#000000" points="412,-78 412,-130 626,-130 626,-78 412,-78"/>
</g>
<g id="clust4" class="cluster">
<title>cluster_FormDialogModule_imports</title>
<polygon fill="none" stroke="#000000" points="214,-78 214,-130 404,-130 404,-78 214,-78"/>
</g>
<g id="clust5" class="cluster">
<title>cluster_FormDialogModule_exports</title>
<polygon fill="none" stroke="#000000" points="200,-208 200,-260 418,-260 418,-208 200,-208"/>
</g>
<g id="clust7" class="cluster">
<title>cluster_FormDialogModule_providers</title>
<polygon fill="none" stroke="#000000" points="16,-78 16,-130 206,-130 206,-78 16,-78"/>
</g>
<!-- FormDialogWrapperComponent -->
<g id="node1" class="node">
<title>FormDialogWrapperComponent</title>
<polygon fill="#ffffb3" stroke="#000000" points="618.2338,-122 419.7662,-122 419.7662,-86 618.2338,-86 618.2338,-122"/>
<text text-anchor="middle" x="519" y="-99.8" font-family="Times,serif" font-size="14.00" fill="#000000">FormDialogWrapperComponent</text>
</g>
<!-- FormDialogModule -->
<g id="node2" class="node">
<title>FormDialogModule</title>
<polygon fill="#8dd3c7" stroke="#000000" points="372.986,-187 369.986,-191 348.986,-191 345.986,-187 245.014,-187 245.014,-151 372.986,-151 372.986,-187"/>
<text text-anchor="middle" x="309" y="-164.8" font-family="Times,serif" font-size="14.00" fill="#000000">FormDialogModule</text>
</g>
<!-- FormDialogWrapperComponent&#45;&gt;FormDialogModule -->
<g id="edge1" class="edge">
<title>FormDialogWrapperComponent&#45;&gt;FormDialogModule</title>
<path fill="none" stroke="#000000" d="M519,-122.1061C519,-141.3391 519,-169 519,-169 519,-169 383.148,-169 383.148,-169"/>
<polygon fill="#000000" stroke="#000000" points="383.148,-165.5001 373.148,-169 383.148,-172.5001 383.148,-165.5001"/>
</g>
<!-- FormDialogWrapperComponent  -->
<g id="node4" class="node">
<title>FormDialogWrapperComponent </title>
<polygon fill="#fb8072" stroke="#000000" points="410.2337,-252 207.7663,-252 207.7663,-216 410.2337,-216 410.2337,-252"/>
<text text-anchor="middle" x="309" y="-229.8" font-family="Times,serif" font-size="14.00" fill="#000000">FormDialogWrapperComponent </text>
</g>
<!-- FormDialogModule&#45;&gt;FormDialogWrapperComponent  -->
<g id="edge3" class="edge">
<title>FormDialogModule&#45;&gt;FormDialogWrapperComponent </title>
<path fill="none" stroke="#000000" stroke-dasharray="5,2" d="M309,-187.1061C309,-187.1061 309,-205.991 309,-205.991"/>
<polygon fill="#000000" stroke="#000000" points="305.5001,-205.9909 309,-215.991 312.5001,-205.991 305.5001,-205.9909"/>
</g>
<!-- ConfirmationDialogModule -->
<g id="node3" class="node">
<title>ConfirmationDialogModule</title>
<polygon fill="#8dd3c7" stroke="#000000" points="395.587,-122 392.587,-126 371.587,-126 368.587,-122 222.413,-122 222.413,-86 395.587,-86 395.587,-122"/>
<text text-anchor="middle" x="309" y="-99.8" font-family="Times,serif" font-size="14.00" fill="#000000">ConfirmationDialogModule</text>
</g>
<!-- ConfirmationDialogModule&#45;&gt;FormDialogModule -->
<g id="edge2" class="edge">
<title>ConfirmationDialogModule&#45;&gt;FormDialogModule</title>
<path fill="none" stroke="#000000" d="M309,-122.1061C309,-122.1061 309,-140.991 309,-140.991"/>
<polygon fill="#000000" stroke="#000000" points="305.5001,-140.9909 309,-150.991 312.5001,-140.991 305.5001,-140.9909"/>
</g>
<!-- FormDialogService -->
<g id="node5" class="node">
<title>FormDialogService</title>
<ellipse fill="#fdb462" stroke="#000000" cx="111" cy="-104" rx="87.3963" ry="18"/>
<text text-anchor="middle" x="111" y="-99.8" font-family="Times,serif" font-size="14.00" fill="#000000">FormDialogService</text>
</g>
<!-- FormDialogService&#45;&gt;FormDialogModule -->
<g id="edge4" class="edge">
<title>FormDialogService&#45;&gt;FormDialogModule</title>
<path fill="none" stroke="#000000" d="M111,-122.1061C111,-141.3391 111,-169 111,-169 111,-169 234.9885,-169 234.9885,-169"/>
<polygon fill="#000000" stroke="#000000" points="234.9885,-172.5001 244.9885,-169 234.9885,-165.5001 234.9885,-172.5001"/>
</g>
</g>
</svg>
