<?xml version="1.0" encoding="UTF-8" standalone="no"?>
<!DOCTYPE svg PUBLIC "-//W3C//DTD SVG 1.1//EN"
 "http://www.w3.org/Graphics/SVG/1.1/DTD/svg11.dtd">
<!-- Generated by graphviz version 2.44.0 (20200408.0750)
 -->
<!-- Title: dependencies Pages: 1 -->
<svg width="1308pt" height="284pt"
 viewBox="0.00 0.00 1308.00 284.00" xmlns="http://www.w3.org/2000/svg" xmlns:xlink="http://www.w3.org/1999/xlink">
<g id="graph0" class="graph" transform="scale(1 1) rotate(0) translate(4 280)">
<title>dependencies</title>
<polygon fill="white" stroke="transparent" points="-4,4 -4,-280 1304,-280 1304,4 -4,4"/>
<text text-anchor="start" x="629.01" y="-42.4" font-family="sans-serif" font-weight="bold" font-size="14.00">Legend</text>
<polygon fill="#ffffb3" stroke="transparent" points="416,-10 416,-30 436,-30 436,-10 416,-10"/>
<text text-anchor="start" x="439.63" y="-15.4" font-family="sans-serif" font-size="14.00"> &#160;Declarations</text>
<polygon fill="#8dd3c7" stroke="transparent" points="529,-10 529,-30 549,-30 549,-10 529,-10"/>
<text text-anchor="start" x="552.73" y="-15.4" font-family="sans-serif" font-size="14.00"> &#160;Module</text>
<polygon fill="#80b1d3" stroke="transparent" points="615,-10 615,-30 635,-30 635,-10 615,-10"/>
<text text-anchor="start" x="638.78" y="-15.4" font-family="sans-serif" font-size="14.00"> &#160;Bootstrap</text>
<polygon fill="#fdb462" stroke="transparent" points="712,-10 712,-30 732,-30 732,-10 712,-10"/>
<text text-anchor="start" x="735.67" y="-15.4" font-family="sans-serif" font-size="14.00"> &#160;Providers</text>
<polygon fill="#fb8072" stroke="transparent" points="808,-10 808,-30 828,-30 828,-10 808,-10"/>
<text text-anchor="start" x="831.73" y="-15.4" font-family="sans-serif" font-size="14.00"> &#160;Exports</text>
<g id="clust1" class="cluster">
<title>cluster_LatestChangesModule</title>
<polygon fill="none" stroke="black" stroke-dasharray="1,5" points="8,-70 8,-268 1292,-268 1292,-70 8,-70"/>
</g>
<g id="clust6" class="cluster">
<title>cluster_LatestChangesModule_exports</title>
<polygon fill="none" stroke="black" points="496,-208 496,-260 666,-260 666,-208 496,-208"/>
</g>
<g id="clust2" class="cluster">
<title>cluster_LatestChangesModule_declarations</title>
<polygon fill="none" stroke="black" points="958,-78 958,-130 1284,-130 1284,-78 958,-78"/>
</g>
<g id="clust8" class="cluster">
<title>cluster_LatestChangesModule_providers</title>
<polygon fill="none" stroke="black" points="254,-78 254,-130 950,-130 950,-78 254,-78"/>
</g>
<g id="clust5" class="cluster">
<title>cluster_LatestChangesModule_imports</title>
<polygon fill="none" stroke="black" points="16,-78 16,-130 246,-130 246,-78 16,-78"/>
</g>
<!-- AppVersionComponent -->
<g id="node1" class="node">
<title>AppVersionComponent</title>
<polygon fill="#ffffb3" stroke="black" points="1275.76,-122 1126.24,-122 1126.24,-86 1275.76,-86 1275.76,-122"/>
<text text-anchor="middle" x="1201" y="-99.8" font-family="Times,serif" font-size="14.00">AppVersionComponent</text>
</g>
<!-- LatestChangesModule -->
<g id="node3" class="node">
<title>LatestChangesModule</title>
<polygon fill="#8dd3c7" stroke="black" points="651.97,-187 648.97,-191 627.97,-191 624.97,-187 510.03,-187 510.03,-151 651.97,-151 651.97,-187"/>
<text text-anchor="middle" x="581" y="-164.8" font-family="Times,serif" font-size="14.00">LatestChangesModule</text>
</g>
<!-- AppVersionComponent&#45;&gt;LatestChangesModule -->
<g id="edge1" class="edge">
<title>AppVersionComponent&#45;&gt;LatestChangesModule</title>
<path fill="none" stroke="black" d="M1201,-122.29C1201,-144.21 1201,-178 1201,-178 1201,-178 662.12,-178 662.12,-178"/>
<polygon fill="black" stroke="black" points="662.12,-174.5 652.12,-178 662.12,-181.5 662.12,-174.5"/>
</g>
<!-- ChangelogComponent -->
<g id="node2" class="node">
<title>ChangelogComponent</title>
<polygon fill="#ffffb3" stroke="black" points="1107.99,-122 966.01,-122 966.01,-86 1107.99,-86 1107.99,-122"/>
<text text-anchor="middle" x="1037" y="-99.8" font-family="Times,serif" font-size="14.00">ChangelogComponent</text>
</g>
<!-- ChangelogComponent&#45;&gt;LatestChangesModule -->
<g id="edge2" class="edge">
<title>ChangelogComponent&#45;&gt;LatestChangesModule</title>
<path fill="none" stroke="black" d="M1037,-122.11C1037,-141.34 1037,-169 1037,-169 1037,-169 662.25,-169 662.25,-169"/>
<polygon fill="black" stroke="black" points="662.25,-165.5 652.25,-169 662.25,-172.5 662.25,-165.5"/>
</g>
<!-- AppVersionComponent  -->
<g id="node6" class="node">
<title>AppVersionComponent </title>
<polygon fill="#fb8072" stroke="black" points="657.76,-252 504.24,-252 504.24,-216 657.76,-216 657.76,-252"/>
<text text-anchor="middle" x="581" y="-229.8" font-family="Times,serif" font-size="14.00">AppVersionComponent </text>
</g>
<!-- LatestChangesModule&#45;&gt;AppVersionComponent  -->
<g id="edge5" class="edge">
<title>LatestChangesModule&#45;&gt;AppVersionComponent </title>
<path fill="none" stroke="black" stroke-dasharray="5,2" d="M581,-187.11C581,-187.11 581,-205.99 581,-205.99"/>
<polygon fill="black" stroke="black" points="577.5,-205.99 581,-215.99 584.5,-205.99 577.5,-205.99"/>
</g>
<!-- AlertsModule -->
<g id="node4" class="node">
<title>AlertsModule</title>
<polygon fill="#8dd3c7" stroke="black" points="237.76,-122 234.76,-126 213.76,-126 210.76,-122 144.24,-122 144.24,-86 237.76,-86 237.76,-122"/>
<text text-anchor="middle" x="191" y="-99.8" font-family="Times,serif" font-size="14.00">AlertsModule</text>
</g>
<!-- AlertsModule&#45;&gt;LatestChangesModule -->
<g id="edge3" class="edge">
<title>AlertsModule&#45;&gt;LatestChangesModule</title>
<path fill="none" stroke="black" d="M191,-122.11C191,-141.34 191,-169 191,-169 191,-169 499.92,-169 499.92,-169"/>
<polygon fill="black" stroke="black" points="499.92,-172.5 509.92,-169 499.92,-165.5 499.92,-172.5"/>
</g>
<!-- SessionModule -->
<g id="node5" class="node">
<title>SessionModule</title>
<polygon fill="#8dd3c7" stroke="black" points="126.33,-122 123.33,-126 102.33,-126 99.33,-122 23.67,-122 23.67,-86 126.33,-86 126.33,-122"/>
<text text-anchor="middle" x="75" y="-99.8" font-family="Times,serif" font-size="14.00">SessionModule</text>
</g>
<!-- SessionModule&#45;&gt;LatestChangesModule -->
<g id="edge4" class="edge">
<title>SessionModule&#45;&gt;LatestChangesModule</title>
<path fill="none" stroke="black" d="M75,-122.29C75,-144.21 75,-178 75,-178 75,-178 499.84,-178 499.84,-178"/>
<polygon fill="black" stroke="black" points="499.84,-181.5 509.84,-178 499.84,-174.5 499.84,-181.5"/>
</g>
<!-- LatestChangesDialogService -->
<g id="node7" class="node">
<title>LatestChangesDialogService</title>
<ellipse fill="#fdb462" stroke="black" cx="819" cy="-104" rx="123.25" ry="18"/>
<text text-anchor="middle" x="819" y="-99.8" font-family="Times,serif" font-size="14.00">LatestChangesDialogService</text>
</g>
<!-- LatestChangesDialogService&#45;&gt;LatestChangesModule -->
<g id="edge6" class="edge">
<title>LatestChangesDialogService&#45;&gt;LatestChangesModule</title>
<path fill="none" stroke="black" d="M819,-122.03C819,-138.4 819,-160 819,-160 819,-160 662.09,-160 662.09,-160"/>
<polygon fill="black" stroke="black" points="662.09,-156.5 652.09,-160 662.09,-163.5 662.09,-156.5"/>
</g>
<!-- LatestChangesService -->
<g id="node8" class="node">
<title>LatestChangesService</title>
<ellipse fill="#fdb462" stroke="black" cx="581" cy="-104" rx="96.68" ry="18"/>
<text text-anchor="middle" x="581" y="-99.8" font-family="Times,serif" font-size="14.00">LatestChangesService</text>
</g>
<!-- LatestChangesService&#45;&gt;LatestChangesModule -->
<g id="edge7" class="edge">
<title>LatestChangesService&#45;&gt;LatestChangesModule</title>
<path fill="none" stroke="black" d="M581,-122.11C581,-122.11 581,-140.99 581,-140.99"/>
<polygon fill="black" stroke="black" points="577.5,-140.99 581,-150.99 584.5,-140.99 577.5,-140.99"/>
</g>
<!-- UpdateManagerService -->
<g id="node9" class="node">
<title>UpdateManagerService</title>
<ellipse fill="#fdb462" stroke="black" cx="364" cy="-104" rx="102.39" ry="18"/>
<text text-anchor="middle" x="364" y="-99.8" font-family="Times,serif" font-size="14.00">UpdateManagerService</text>
</g>
<!-- UpdateManagerService&#45;&gt;LatestChangesModule -->
<g id="edge8" class="edge">
<title>UpdateManagerService&#45;&gt;LatestChangesModule</title>
<path fill="none" stroke="black" d="M364,-122.03C364,-138.4 364,-160 364,-160 364,-160 499.95,-160 499.95,-160"/>
<polygon fill="black" stroke="black" points="499.95,-163.5 509.95,-160 499.95,-156.5 499.95,-163.5"/>
</g>
</g>
</svg>
