<?xml version="1.0" encoding="UTF-8" standalone="no"?>
<!DOCTYPE svg PUBLIC "-//W3C//DTD SVG 1.1//EN"
 "http://www.w3.org/Graphics/SVG/1.1/DTD/svg11.dtd">
<!-- Generated by graphviz version 2.44.1 (20200629.0846)
 -->
<!-- Title: dependencies Pages: 1 -->
<svg width="1308pt" height="284pt"
 viewBox="0.00 0.00 1308.00 284.00" xmlns="http://www.w3.org/2000/svg" xmlns:xlink="http://www.w3.org/1999/xlink">
<g id="graph0" class="graph" transform="scale(1 1) rotate(0) translate(4 280)">
<title>dependencies</title>
<polygon fill="white" stroke="transparent" points="-4,4 -4,-280 1304,-280 1304,4 -4,4"/>
<text text-anchor="start" x="629.01" y="-42.4" font-family="sans-serif" font-weight="bold" font-size="14.00">Legend</text>
<polygon fill="#ffffb3" stroke="transparent" points="416,-10 416,-30 436,-30 436,-10 416,-10"/>
<text text-anchor="start" x="439.63" y="-15.4" font-family="sans-serif" font-size="14.00"> &#160;Declarations</text>
<polygon fill="#8dd3c7" stroke="transparent" points="529,-10 529,-30 549,-30 549,-10 529,-10"/>
<text text-anchor="start" x="552.73" y="-15.4" font-family="sans-serif" font-size="14.00"> &#160;Module</text>
<polygon fill="#80b1d3" stroke="transparent" points="615,-10 615,-30 635,-30 635,-10 615,-10"/>
<text text-anchor="start" x="638.78" y="-15.4" font-family="sans-serif" font-size="14.00"> &#160;Bootstrap</text>
<polygon fill="#fdb462" stroke="transparent" points="712,-10 712,-30 732,-30 732,-10 712,-10"/>
<text text-anchor="start" x="735.67" y="-15.4" font-family="sans-serif" font-size="14.00"> &#160;Providers</text>
<polygon fill="#fb8072" stroke="transparent" points="808,-10 808,-30 828,-30 828,-10 808,-10"/>
<text text-anchor="start" x="831.73" y="-15.4" font-family="sans-serif" font-size="14.00"> &#160;Exports</text>
<g id="clust1" class="cluster">
<title>cluster_LatestChangesModule</title>
<polygon fill="none" stroke="black" stroke-dasharray="1,5" points="8,-70 8,-268 1292,-268 1292,-70 8,-70"/>
</g>
<g id="clust8" class="cluster">
<title>cluster_LatestChangesModule_providers</title>
<polygon fill="none" stroke="black" points="588,-78 588,-130 1284,-130 1284,-78 588,-78"/>
</g>
<g id="clust5" class="cluster">
<title>cluster_LatestChangesModule_imports</title>
<polygon fill="none" stroke="black" points="350,-78 350,-130 580,-130 580,-78 350,-78"/>
</g>
<g id="clust2" class="cluster">
<title>cluster_LatestChangesModule_declarations</title>
<polygon fill="none" stroke="black" points="16,-78 16,-130 342,-130 342,-78 16,-78"/>
</g>
<g id="clust6" class="cluster">
<title>cluster_LatestChangesModule_exports</title>
<polygon fill="none" stroke="black" points="440,-208 440,-260 610,-260 610,-208 440,-208"/>
</g>
<!-- AppVersionComponent -->
<g id="node1" class="node">
<title>AppVersionComponent</title>
<polygon fill="#ffffb3" stroke="black" points="333.76,-122 184.24,-122 184.24,-86 333.76,-86 333.76,-122"/>
<text text-anchor="middle" x="259" y="-99.8" font-family="Times,serif" font-size="14.00">AppVersionComponent</text>
</g>
<!-- LatestChangesModule -->
<g id="node3" class="node">
<title>LatestChangesModule</title>
<polygon fill="#8dd3c7" stroke="black" points="595.97,-187 592.97,-191 571.97,-191 568.97,-187 454.03,-187 454.03,-151 595.97,-151 595.97,-187"/>
<text text-anchor="middle" x="525" y="-164.8" font-family="Times,serif" font-size="14.00">LatestChangesModule</text>
</g>
<!-- AppVersionComponent&#45;&gt;LatestChangesModule -->
<g id="edge1" class="edge">
<title>AppVersionComponent&#45;&gt;LatestChangesModule</title>
<path fill="none" stroke="black" d="M259,-122.02C259,-139.37 259,-163 259,-163 259,-163 443.72,-163 443.72,-163"/>
<polygon fill="black" stroke="black" points="443.72,-166.5 453.72,-163 443.72,-159.5 443.72,-166.5"/>
</g>
<!-- ChangelogComponent -->
<g id="node2" class="node">
<title>ChangelogComponent</title>
<polygon fill="#ffffb3" stroke="black" points="165.99,-122 24.01,-122 24.01,-86 165.99,-86 165.99,-122"/>
<text text-anchor="middle" x="95" y="-99.8" font-family="Times,serif" font-size="14.00">ChangelogComponent</text>
</g>
<!-- ChangelogComponent&#45;&gt;LatestChangesModule -->
<g id="edge2" class="edge">
<title>ChangelogComponent&#45;&gt;LatestChangesModule</title>
<path fill="none" stroke="black" d="M95,-122.28C95,-143.32 95,-175 95,-175 95,-175 443.99,-175 443.99,-175"/>
<polygon fill="black" stroke="black" points="443.99,-178.5 453.99,-175 443.99,-171.5 443.99,-178.5"/>
</g>
<!-- AppVersionComponent  -->
<g id="node6" class="node">
<title>AppVersionComponent </title>
<polygon fill="#fb8072" stroke="black" points="601.76,-252 448.24,-252 448.24,-216 601.76,-216 601.76,-252"/>
<text text-anchor="middle" x="525" y="-229.8" font-family="Times,serif" font-size="14.00">AppVersionComponent </text>
</g>
<!-- LatestChangesModule&#45;&gt;AppVersionComponent  -->
<g id="edge5" class="edge">
<title>LatestChangesModule&#45;&gt;AppVersionComponent </title>
<path fill="none" stroke="black" stroke-dasharray="5,2" d="M525,-187.11C525,-187.11 525,-205.99 525,-205.99"/>
<polygon fill="black" stroke="black" points="521.5,-205.99 525,-215.99 528.5,-205.99 521.5,-205.99"/>
</g>
<!-- AlertsModule -->
<g id="node4" class="node">
<title>AlertsModule</title>
<polygon fill="#8dd3c7" stroke="black" points="571.76,-122 568.76,-126 547.76,-126 544.76,-122 478.24,-122 478.24,-86 571.76,-86 571.76,-122"/>
<text text-anchor="middle" x="525" y="-99.8" font-family="Times,serif" font-size="14.00">AlertsModule</text>
</g>
<!-- AlertsModule&#45;&gt;LatestChangesModule -->
<g id="edge3" class="edge">
<title>AlertsModule&#45;&gt;LatestChangesModule</title>
<path fill="none" stroke="black" d="M525,-122.11C525,-122.11 525,-140.99 525,-140.99"/>
<polygon fill="black" stroke="black" points="521.5,-140.99 525,-150.99 528.5,-140.99 521.5,-140.99"/>
</g>
<!-- SessionModule -->
<g id="node5" class="node">
<title>SessionModule</title>
<polygon fill="#8dd3c7" stroke="black" points="460.33,-122 457.33,-126 436.33,-126 433.33,-122 357.67,-122 357.67,-86 460.33,-86 460.33,-122"/>
<text text-anchor="middle" x="409" y="-99.8" font-family="Times,serif" font-size="14.00">SessionModule</text>
</g>
<!-- SessionModule&#45;&gt;LatestChangesModule -->
<g id="edge4" class="edge">
<title>SessionModule&#45;&gt;LatestChangesModule</title>
<path fill="none" stroke="black" d="M460.27,-104C465.61,-104 469.14,-104 469.14,-104 469.14,-104 469.14,-140.89 469.14,-140.89"/>
<polygon fill="black" stroke="black" points="465.64,-140.89 469.14,-150.89 472.64,-140.89 465.64,-140.89"/>
</g>
<!-- LatestChangesDialogService -->
<g id="node7" class="node">
<title>LatestChangesDialogService</title>
<ellipse fill="#fdb462" stroke="black" cx="1153" cy="-104" rx="123.25" ry="18"/>
<text text-anchor="middle" x="1153" y="-99.8" font-family="Times,serif" font-size="14.00">LatestChangesDialogService</text>
</g>
<!-- LatestChangesDialogService&#45;&gt;LatestChangesModule -->
<g id="edge6" class="edge">
<title>LatestChangesDialogService&#45;&gt;LatestChangesModule</title>
<path fill="none" stroke="black" d="M1153,-122.28C1153,-143.32 1153,-175 1153,-175 1153,-175 606.12,-175 606.12,-175"/>
<polygon fill="black" stroke="black" points="606.12,-171.5 596.12,-175 606.12,-178.5 606.12,-171.5"/>
</g>
<!-- LatestChangesService -->
<g id="node8" class="node">
<title>LatestChangesService</title>
<ellipse fill="#fdb462" stroke="black" cx="915" cy="-104" rx="96.68" ry="18"/>
<text text-anchor="middle" x="915" y="-99.8" font-family="Times,serif" font-size="14.00">LatestChangesService</text>
</g>
<!-- LatestChangesService&#45;&gt;LatestChangesModule -->
<g id="edge7" class="edge">
<title>LatestChangesService&#45;&gt;LatestChangesModule</title>
<path fill="none" stroke="black" d="M915,-122.02C915,-139.37 915,-163 915,-163 915,-163 606.08,-163 606.08,-163"/>
<polygon fill="black" stroke="black" points="606.08,-159.5 596.08,-163 606.08,-166.5 606.08,-159.5"/>
</g>
<!-- UpdateManagerService -->
<g id="node9" class="node">
<title>UpdateManagerService</title>
<ellipse fill="#fdb462" stroke="black" cx="698" cy="-104" rx="102.39" ry="18"/>
<text text-anchor="middle" x="698" y="-99.8" font-family="Times,serif" font-size="14.00">UpdateManagerService</text>
</g>
<!-- UpdateManagerService&#45;&gt;LatestChangesModule -->
<g id="edge8" class="edge">
<title>UpdateManagerService&#45;&gt;LatestChangesModule</title>
<path fill="none" stroke="black" d="M595.63,-104C588.37,-104 583.84,-104 583.84,-104 583.84,-104 583.84,-140.89 583.84,-140.89"/>
<polygon fill="black" stroke="black" points="580.34,-140.89 583.84,-150.89 587.34,-140.89 580.34,-140.89"/>
</g>
</g>
</svg>
