<?xml version="1.0" encoding="UTF-8" standalone="no"?>
<!DOCTYPE svg PUBLIC "-//W3C//DTD SVG 1.1//EN"
 "http://www.w3.org/Graphics/SVG/1.1/DTD/svg11.dtd">
<!-- Generated by graphviz version 2.40.1 (20161225.0304)
 -->
<!-- Title: dependencies Pages: 1 -->
<svg width="1308pt" height="284pt"
 viewBox="0.00 0.00 1308.00 284.00" xmlns="http://www.w3.org/2000/svg" xmlns:xlink="http://www.w3.org/1999/xlink">
<g id="graph0" class="graph" transform="scale(1 1) rotate(0) translate(4 280)">
<title>dependencies</title>
<polygon fill="#ffffff" stroke="transparent" points="-4,4 -4,-280 1304,-280 1304,4 -4,4"/>
<text text-anchor="start" x="629.0091" y="-42.4" font-family="sans-serif" font-weight="bold" font-size="14.00" fill="#000000">Legend</text>
<polygon fill="#ffffb3" stroke="transparent" points="416,-10 416,-30 436,-30 436,-10 416,-10"/>
<text text-anchor="start" x="439.629" y="-15.4" font-family="sans-serif" font-size="14.00" fill="#000000"> &#160;Declarations</text>
<polygon fill="#8dd3c7" stroke="transparent" points="529,-10 529,-30 549,-30 549,-10 529,-10"/>
<text text-anchor="start" x="552.7251" y="-15.4" font-family="sans-serif" font-size="14.00" fill="#000000"> &#160;Module</text>
<polygon fill="#80b1d3" stroke="transparent" points="615,-10 615,-30 635,-30 635,-10 615,-10"/>
<text text-anchor="start" x="638.7812" y="-15.4" font-family="sans-serif" font-size="14.00" fill="#000000"> &#160;Bootstrap</text>
<polygon fill="#fdb462" stroke="transparent" points="712,-10 712,-30 732,-30 732,-10 712,-10"/>
<text text-anchor="start" x="735.6732" y="-15.4" font-family="sans-serif" font-size="14.00" fill="#000000"> &#160;Providers</text>
<polygon fill="#fb8072" stroke="transparent" points="808,-10 808,-30 828,-30 828,-10 808,-10"/>
<text text-anchor="start" x="831.7258" y="-15.4" font-family="sans-serif" font-size="14.00" fill="#000000"> &#160;Exports</text>
<g id="clust1" class="cluster">
<title>cluster_LatestChangesModule</title>
<polygon fill="none" stroke="#000000" stroke-dasharray="1,5" points="8,-70 8,-268 1292,-268 1292,-70 8,-70"/>
</g>
<g id="clust2" class="cluster">
<title>cluster_LatestChangesModule_declarations</title>
<polygon fill="none" stroke="#000000" points="958,-78 958,-130 1284,-130 1284,-78 958,-78"/>
</g>
<g id="clust5" class="cluster">
<title>cluster_LatestChangesModule_imports</title>
<polygon fill="none" stroke="#000000" points="720,-78 720,-130 950,-130 950,-78 720,-78"/>
</g>
<g id="clust6" class="cluster">
<title>cluster_LatestChangesModule_exports</title>
<polygon fill="none" stroke="#000000" points="694,-208 694,-260 864,-260 864,-208 694,-208"/>
</g>
<g id="clust8" class="cluster">
<title>cluster_LatestChangesModule_providers</title>
<polygon fill="none" stroke="#000000" points="16,-78 16,-130 712,-130 712,-78 16,-78"/>
</g>
<!-- AppVersionComponent -->
<g id="node1" class="node">
<title>AppVersionComponent</title>
<polygon fill="#ffffb3" stroke="#000000" points="1275.7562,-122 1126.2438,-122 1126.2438,-86 1275.7562,-86 1275.7562,-122"/>
<text text-anchor="middle" x="1201" y="-99.8" font-family="Times,serif" font-size="14.00" fill="#000000">AppVersionComponent</text>
</g>
<!-- LatestChangesModule -->
<g id="node3" class="node">
<title>LatestChangesModule</title>
<polygon fill="#8dd3c7" stroke="#000000" points="849.9678,-187 846.9678,-191 825.9678,-191 822.9678,-187 708.0322,-187 708.0322,-151 849.9678,-151 849.9678,-187"/>
<text text-anchor="middle" x="779" y="-164.8" font-family="Times,serif" font-size="14.00" fill="#000000">LatestChangesModule</text>
</g>
<!-- AppVersionComponent&#45;&gt;LatestChangesModule -->
<g id="edge1" class="edge">
<title>AppVersionComponent&#45;&gt;LatestChangesModule</title>
<path fill="none" stroke="#000000" d="M1201,-122.2843C1201,-143.3211 1201,-175 1201,-175 1201,-175 860.1094,-175 860.1094,-175"/>
<polygon fill="#000000" stroke="#000000" points="860.1094,-171.5001 850.1094,-175 860.1093,-178.5001 860.1094,-171.5001"/>
</g>
<!-- ChangelogComponent -->
<g id="node2" class="node">
<title>ChangelogComponent</title>
<polygon fill="#ffffb3" stroke="#000000" points="1107.9888,-122 966.0112,-122 966.0112,-86 1107.9888,-86 1107.9888,-122"/>
<text text-anchor="middle" x="1037" y="-99.8" font-family="Times,serif" font-size="14.00" fill="#000000">ChangelogComponent</text>
</g>
<!-- ChangelogComponent&#45;&gt;LatestChangesModule -->
<g id="edge2" class="edge">
<title>ChangelogComponent&#45;&gt;LatestChangesModule</title>
<path fill="none" stroke="#000000" d="M1037,-122.0225C1037,-139.3734 1037,-163 1037,-163 1037,-163 860.1826,-163 860.1826,-163"/>
<polygon fill="#000000" stroke="#000000" points="860.1826,-159.5001 850.1826,-163 860.1826,-166.5001 860.1826,-159.5001"/>
</g>
<!-- AppVersionComponent  -->
<g id="node6" class="node">
<title>AppVersionComponent </title>
<polygon fill="#fb8072" stroke="#000000" points="855.7562,-252 702.2438,-252 702.2438,-216 855.7562,-216 855.7562,-252"/>
<text text-anchor="middle" x="779" y="-229.8" font-family="Times,serif" font-size="14.00" fill="#000000">AppVersionComponent </text>
</g>
<!-- LatestChangesModule&#45;&gt;AppVersionComponent  -->
<g id="edge5" class="edge">
<title>LatestChangesModule&#45;&gt;AppVersionComponent </title>
<path fill="none" stroke="#000000" stroke-dasharray="5,2" d="M779,-187.1061C779,-187.1061 779,-205.991 779,-205.991"/>
<polygon fill="#000000" stroke="#000000" points="775.5001,-205.9909 779,-215.991 782.5001,-205.991 775.5001,-205.9909"/>
</g>
<!-- AlertsModule -->
<g id="node4" class="node">
<title>AlertsModule</title>
<polygon fill="#8dd3c7" stroke="#000000" points="941.7577,-122 938.7577,-126 917.7577,-126 914.7577,-122 848.2423,-122 848.2423,-86 941.7577,-86 941.7577,-122"/>
<text text-anchor="middle" x="895" y="-99.8" font-family="Times,serif" font-size="14.00" fill="#000000">AlertsModule</text>
</g>
<!-- AlertsModule&#45;&gt;LatestChangesModule -->
<g id="edge3" class="edge">
<title>AlertsModule&#45;&gt;LatestChangesModule</title>
<path fill="none" stroke="#000000" d="M848.1168,-104C842.7434,-104 839.1424,-104 839.1424,-104 839.1424,-104 839.1424,-140.8939 839.1424,-140.8939"/>
<polygon fill="#000000" stroke="#000000" points="835.6424,-140.8938 839.1424,-150.8939 842.6424,-140.8939 835.6424,-140.8938"/>
</g>
<!-- SessionModule -->
<g id="node5" class="node">
<title>SessionModule</title>
<polygon fill="#8dd3c7" stroke="#000000" points="830.3273,-122 827.3273,-126 806.3273,-126 803.3273,-122 727.6727,-122 727.6727,-86 830.3273,-86 830.3273,-122"/>
<text text-anchor="middle" x="779" y="-99.8" font-family="Times,serif" font-size="14.00" fill="#000000">SessionModule</text>
</g>
<!-- SessionModule&#45;&gt;LatestChangesModule -->
<g id="edge4" class="edge">
<title>SessionModule&#45;&gt;LatestChangesModule</title>
<path fill="none" stroke="#000000" d="M779,-122.1061C779,-122.1061 779,-140.991 779,-140.991"/>
<polygon fill="#000000" stroke="#000000" points="775.5001,-140.9909 779,-150.991 782.5001,-140.991 775.5001,-140.9909"/>
</g>
<!-- LatestChangesDialogService -->
<g id="node7" class="node">
<title>LatestChangesDialogService</title>
<ellipse fill="#fdb462" stroke="#000000" cx="581" cy="-104" rx="123.2495" ry="18"/>
<text text-anchor="middle" x="581" y="-99.8" font-family="Times,serif" font-size="14.00" fill="#000000">LatestChangesDialogService</text>
</g>
<!-- LatestChangesDialogService&#45;&gt;LatestChangesModule -->
<g id="edge6" class="edge">
<title>LatestChangesDialogService&#45;&gt;LatestChangesModule</title>
<path fill="none" stroke="#000000" d="M704.2967,-104C712.703,-104 717.9264,-104 717.9264,-104 717.9264,-104 717.9264,-140.8939 717.9264,-140.8939"/>
<polygon fill="#000000" stroke="#000000" points="714.4264,-140.8938 717.9264,-150.8939 721.4264,-140.8939 714.4264,-140.8938"/>
</g>
<!-- LatestChangesService -->
<g id="node8" class="node">
<title>LatestChangesService</title>
<ellipse fill="#fdb462" stroke="#000000" cx="343" cy="-104" rx="96.6849" ry="18"/>
<text text-anchor="middle" x="343" y="-99.8" font-family="Times,serif" font-size="14.00" fill="#000000">LatestChangesService</text>
</g>
<!-- LatestChangesService&#45;&gt;LatestChangesModule -->
<g id="edge7" class="edge">
<title>LatestChangesService&#45;&gt;LatestChangesModule</title>
<path fill="none" stroke="#000000" d="M343,-122.0225C343,-139.3734 343,-163 343,-163 343,-163 697.9787,-163 697.9787,-163"/>
<polygon fill="#000000" stroke="#000000" points="697.9787,-166.5001 707.9787,-163 697.9787,-159.5001 697.9787,-166.5001"/>
</g>
<!-- UpdateManagerService -->
<g id="node9" class="node">
<title>UpdateManagerService</title>
<ellipse fill="#fdb462" stroke="#000000" cx="126" cy="-104" rx="102.3868" ry="18"/>
<text text-anchor="middle" x="126" y="-99.8" font-family="Times,serif" font-size="14.00" fill="#000000">UpdateManagerService</text>
</g>
<!-- UpdateManagerService&#45;&gt;LatestChangesModule -->
<g id="edge8" class="edge">
<title>UpdateManagerService&#45;&gt;LatestChangesModule</title>
<path fill="none" stroke="#000000" d="M126,-122.2843C126,-143.3211 126,-175 126,-175 126,-175 697.8745,-175 697.8745,-175"/>
<polygon fill="#000000" stroke="#000000" points="697.8745,-178.5001 707.8745,-175 697.8745,-171.5001 697.8745,-178.5001"/>
</g>
</g>
</svg>
