<?xml version="1.0" encoding="UTF-8" standalone="no"?>
<!DOCTYPE svg PUBLIC "-//W3C//DTD SVG 1.1//EN"
 "http://www.w3.org/Graphics/SVG/1.1/DTD/svg11.dtd">
<!-- Generated by graphviz version 2.44.0 (20200408.0750)
 -->
<!-- Title: dependencies Pages: 1 -->
<svg width="1395pt" height="284pt"
 viewBox="0.00 0.00 1395.00 284.00" xmlns="http://www.w3.org/2000/svg" xmlns:xlink="http://www.w3.org/1999/xlink">
<g id="graph0" class="graph" transform="scale(1 1) rotate(0) translate(4 280)">
<title>dependencies</title>
<polygon fill="white" stroke="transparent" points="-4,4 -4,-280 1391,-280 1391,4 -4,4"/>
<text text-anchor="start" x="672.51" y="-42.4" font-family="sans-serif" font-weight="bold" font-size="14.00">Legend</text>
<polygon fill="#ffffb3" stroke="transparent" points="459.5,-10 459.5,-30 479.5,-30 479.5,-10 459.5,-10"/>
<text text-anchor="start" x="483.13" y="-15.4" font-family="sans-serif" font-size="14.00"> &#160;Declarations</text>
<polygon fill="#8dd3c7" stroke="transparent" points="572.5,-10 572.5,-30 592.5,-30 592.5,-10 572.5,-10"/>
<text text-anchor="start" x="596.23" y="-15.4" font-family="sans-serif" font-size="14.00"> &#160;Module</text>
<polygon fill="#80b1d3" stroke="transparent" points="658.5,-10 658.5,-30 678.5,-30 678.5,-10 658.5,-10"/>
<text text-anchor="start" x="682.28" y="-15.4" font-family="sans-serif" font-size="14.00"> &#160;Bootstrap</text>
<polygon fill="#fdb462" stroke="transparent" points="755.5,-10 755.5,-30 775.5,-30 775.5,-10 755.5,-10"/>
<text text-anchor="start" x="779.17" y="-15.4" font-family="sans-serif" font-size="14.00"> &#160;Providers</text>
<polygon fill="#fb8072" stroke="transparent" points="851.5,-10 851.5,-30 871.5,-30 871.5,-10 851.5,-10"/>
<text text-anchor="start" x="875.23" y="-15.4" font-family="sans-serif" font-size="14.00"> &#160;Exports</text>
<g id="clust1" class="cluster">
<title>cluster_UiModule</title>
<polygon fill="none" stroke="black" stroke-dasharray="1,5" points="8,-70 8,-268 1379,-268 1379,-70 8,-70"/>
</g>
<g id="clust7" class="cluster">
<title>cluster_UiModule_exports</title>
<polygon fill="none" stroke="black" points="657,-208 657,-260 771,-260 771,-208 657,-208"/>
</g>
<g id="clust6" class="cluster">
<title>cluster_UiModule_imports</title>
<polygon fill="none" stroke="black" points="455,-78 455,-130 1371,-130 1371,-78 455,-78"/>
</g>
<g id="clust2" class="cluster">
<title>cluster_UiModule_declarations</title>
<polygon fill="none" stroke="black" points="16,-78 16,-130 447,-130 447,-78 16,-78"/>
</g>
<!-- PrimaryActionComponent -->
<g id="node1" class="node">
<title>PrimaryActionComponent</title>
<polygon fill="#ffffb3" stroke="black" points="439.04,-122 274.96,-122 274.96,-86 439.04,-86 439.04,-122"/>
<text text-anchor="middle" x="357" y="-99.8" font-family="Times,serif" font-size="14.00">PrimaryActionComponent</text>
</g>
<!-- UiModule -->
<g id="node4" class="node">
<title>UiModule</title>
<polygon fill="#8dd3c7" stroke="black" points="750.55,-187 747.55,-191 726.55,-191 723.55,-187 677.45,-187 677.45,-151 750.55,-151 750.55,-187"/>
<text text-anchor="middle" x="714" y="-164.8" font-family="Times,serif" font-size="14.00">UiModule</text>
</g>
<!-- PrimaryActionComponent&#45;&gt;UiModule -->
<g id="edge1" class="edge">
<title>PrimaryActionComponent&#45;&gt;UiModule</title>
<path fill="none" stroke="black" d="M357,-122.27C357,-140.56 357,-166 357,-166 357,-166 667.14,-166 667.14,-166"/>
<polygon fill="black" stroke="black" points="667.14,-169.5 677.14,-166 667.14,-162.5 667.14,-169.5"/>
</g>
<!-- SearchComponent -->
<g id="node2" class="node">
<title>SearchComponent</title>
<polygon fill="#ffffb3" stroke="black" points="256.92,-122 137.08,-122 137.08,-86 256.92,-86 256.92,-122"/>
<text text-anchor="middle" x="197" y="-99.8" font-family="Times,serif" font-size="14.00">SearchComponent</text>
</g>
<!-- SearchComponent&#45;&gt;UiModule -->
<g id="edge2" class="edge">
<title>SearchComponent&#45;&gt;UiModule</title>
<path fill="none" stroke="black" d="M197,-122.13C197,-142.57 197,-173 197,-173 197,-173 667.23,-173 667.23,-173"/>
<polygon fill="black" stroke="black" points="667.23,-176.5 677.23,-173 667.23,-169.5 667.23,-176.5"/>
</g>
<!-- UiComponent -->
<g id="node3" class="node">
<title>UiComponent</title>
<polygon fill="#ffffb3" stroke="black" points="119.83,-122 24.17,-122 24.17,-86 119.83,-86 119.83,-122"/>
<text text-anchor="middle" x="72" y="-99.8" font-family="Times,serif" font-size="14.00">UiComponent</text>
</g>
<!-- UiComponent&#45;&gt;UiModule -->
<g id="edge3" class="edge">
<title>UiComponent&#45;&gt;UiModule</title>
<path fill="none" stroke="black" d="M72,-122.01C72,-144.49 72,-180 72,-180 72,-180 667.18,-180 667.18,-180"/>
<polygon fill="black" stroke="black" points="667.18,-183.5 677.18,-180 667.18,-176.5 667.18,-183.5"/>
</g>
<!-- UiComponent  -->
<g id="node12" class="node">
<title>UiComponent </title>
<polygon fill="#fb8072" stroke="black" points="763.33,-252 664.67,-252 664.67,-216 763.33,-216 763.33,-252"/>
<text text-anchor="middle" x="714" y="-229.8" font-family="Times,serif" font-size="14.00">UiComponent </text>
</g>
<!-- UiModule&#45;&gt;UiComponent  -->
<g id="edge11" class="edge">
<title>UiModule&#45;&gt;UiComponent </title>
<path fill="none" stroke="black" stroke-dasharray="5,2" d="M714,-187.11C714,-187.11 714,-205.99 714,-205.99"/>
<polygon fill="black" stroke="black" points="710.5,-205.99 714,-215.99 717.5,-205.99 710.5,-205.99"/>
</g>
<!-- ChildrenModule -->
<g id="node5" class="node">
<title>ChildrenModule</title>
<polygon fill="#8dd3c7" stroke="black" points="1363.04,-122 1360.04,-126 1339.04,-126 1336.04,-122 1254.96,-122 1254.96,-86 1363.04,-86 1363.04,-122"/>
<text text-anchor="middle" x="1309" y="-99.8" font-family="Times,serif" font-size="14.00">ChildrenModule</text>
</g>
<!-- ChildrenModule&#45;&gt;UiModule -->
<g id="edge4" class="edge">
<title>ChildrenModule&#45;&gt;UiModule</title>
<path fill="none" stroke="black" d="M1309,-122.01C1309,-144.49 1309,-180 1309,-180 1309,-180 760.77,-180 760.77,-180"/>
<polygon fill="black" stroke="black" points="760.77,-176.5 750.77,-180 760.77,-183.5 760.77,-176.5"/>
</g>
<!-- LatestChangesModule -->
<g id="node6" class="node">
<title>LatestChangesModule</title>
<polygon fill="#8dd3c7" stroke="black" points="1236.97,-122 1233.97,-126 1212.97,-126 1209.97,-122 1095.03,-122 1095.03,-86 1236.97,-86 1236.97,-122"/>
<text text-anchor="middle" x="1166" y="-99.8" font-family="Times,serif" font-size="14.00">LatestChangesModule</text>
</g>
<!-- LatestChangesModule&#45;&gt;UiModule -->
<g id="edge5" class="edge">
<title>LatestChangesModule&#45;&gt;UiModule</title>
<path fill="none" stroke="black" d="M1166,-122.13C1166,-142.57 1166,-173 1166,-173 1166,-173 760.61,-173 760.61,-173"/>
<polygon fill="black" stroke="black" points="760.61,-169.5 750.61,-173 760.61,-176.5 760.61,-169.5"/>
</g>
<!-- NavigationModule -->
<g id="node7" class="node">
<title>NavigationModule</title>
<polygon fill="#8dd3c7" stroke="black" points="1076.76,-122 1073.76,-126 1052.76,-126 1049.76,-122 955.24,-122 955.24,-86 1076.76,-86 1076.76,-122"/>
<text text-anchor="middle" x="1016" y="-99.8" font-family="Times,serif" font-size="14.00">NavigationModule</text>
</g>
<!-- NavigationModule&#45;&gt;UiModule -->
<g id="edge6" class="edge">
<title>NavigationModule&#45;&gt;UiModule</title>
<path fill="none" stroke="black" d="M1016,-122.27C1016,-140.56 1016,-166 1016,-166 1016,-166 760.73,-166 760.73,-166"/>
<polygon fill="black" stroke="black" points="760.73,-162.5 750.73,-166 760.73,-169.5 760.73,-162.5"/>
</g>
<!-- NotesModule -->
<g id="node8" class="node">
<title>NotesModule</title>
<polygon fill="#8dd3c7" stroke="black" points="937.21,-122 934.21,-126 913.21,-126 910.21,-122 844.79,-122 844.79,-86 937.21,-86 937.21,-122"/>
<text text-anchor="middle" x="891" y="-99.8" font-family="Times,serif" font-size="14.00">NotesModule</text>
</g>
<!-- NotesModule&#45;&gt;UiModule -->
<g id="edge7" class="edge">
<title>NotesModule&#45;&gt;UiModule</title>
<path fill="none" stroke="black" d="M891,-122.01C891,-138.05 891,-159 891,-159 891,-159 760.67,-159 760.67,-159"/>
<polygon fill="black" stroke="black" points="760.67,-155.5 750.67,-159 760.67,-162.5 760.67,-155.5"/>
</g>
<!-- SchoolsModule -->
<g id="node9" class="node">
<title>SchoolsModule</title>
<polygon fill="#8dd3c7" stroke="black" points="826.88,-122 823.88,-126 802.88,-126 799.88,-122 723.12,-122 723.12,-86 826.88,-86 826.88,-122"/>
<text text-anchor="middle" x="775" y="-99.8" font-family="Times,serif" font-size="14.00">SchoolsModule</text>
</g>
<!-- SchoolsModule&#45;&gt;UiModule -->
<g id="edge8" class="edge">
<title>SchoolsModule&#45;&gt;UiModule</title>
<path fill="none" stroke="black" d="M736.92,-122.11C736.92,-122.11 736.92,-140.99 736.92,-140.99"/>
<polygon fill="black" stroke="black" points="733.42,-140.99 736.92,-150.99 740.42,-140.99 733.42,-140.99"/>
</g>
<!-- SessionModule -->
<g id="node10" class="node">
<title>SessionModule</title>
<polygon fill="#8dd3c7" stroke="black" points="705.33,-122 702.33,-126 681.33,-126 678.33,-122 602.67,-122 602.67,-86 705.33,-86 705.33,-122"/>
<text text-anchor="middle" x="654" y="-99.8" font-family="Times,serif" font-size="14.00">SessionModule</text>
</g>
<!-- SessionModule&#45;&gt;UiModule -->
<g id="edge9" class="edge">
<title>SessionModule&#45;&gt;UiModule</title>
<path fill="none" stroke="black" d="M691.19,-122.11C691.19,-122.11 691.19,-140.99 691.19,-140.99"/>
<polygon fill="black" stroke="black" points="687.7,-140.99 691.19,-150.99 694.7,-140.99 687.7,-140.99"/>
</g>
<!-- SyncStatusModule -->
<g id="node11" class="node">
<title>SyncStatusModule</title>
<polygon fill="#8dd3c7" stroke="black" points="584.77,-122 581.77,-126 560.77,-126 557.77,-122 463.23,-122 463.23,-86 584.77,-86 584.77,-122"/>
<text text-anchor="middle" x="524" y="-99.8" font-family="Times,serif" font-size="14.00">SyncStatusModule</text>
</g>
<!-- SyncStatusModule&#45;&gt;UiModule -->
<g id="edge10" class="edge">
<title>SyncStatusModule&#45;&gt;UiModule</title>
<path fill="none" stroke="black" d="M524,-122.01C524,-138.05 524,-159 524,-159 524,-159 667.37,-159 667.37,-159"/>
<polygon fill="black" stroke="black" points="667.37,-162.5 677.37,-159 667.37,-155.5 667.37,-162.5"/>
</g>
</g>
</svg>
