<?xml version="1.0" encoding="UTF-8" standalone="no"?>
<!DOCTYPE svg PUBLIC "-//W3C//DTD SVG 1.1//EN"
 "http://www.w3.org/Graphics/SVG/1.1/DTD/svg11.dtd">
<!-- Generated by graphviz version 2.44.1 (20200629.0846)
 -->
<!-- Title: dependencies Pages: 1 -->
<svg width="1395pt" height="284pt"
 viewBox="0.00 0.00 1395.00 284.00" xmlns="http://www.w3.org/2000/svg" xmlns:xlink="http://www.w3.org/1999/xlink">
<g id="graph0" class="graph" transform="scale(1 1) rotate(0) translate(4 280)">
<title>dependencies</title>
<polygon fill="white" stroke="transparent" points="-4,4 -4,-280 1391,-280 1391,4 -4,4"/>
<text text-anchor="start" x="672.51" y="-42.4" font-family="sans-serif" font-weight="bold" font-size="14.00">Legend</text>
<polygon fill="#ffffb3" stroke="transparent" points="459.5,-10 459.5,-30 479.5,-30 479.5,-10 459.5,-10"/>
<text text-anchor="start" x="483.13" y="-15.4" font-family="sans-serif" font-size="14.00"> &#160;Declarations</text>
<polygon fill="#8dd3c7" stroke="transparent" points="572.5,-10 572.5,-30 592.5,-30 592.5,-10 572.5,-10"/>
<text text-anchor="start" x="596.23" y="-15.4" font-family="sans-serif" font-size="14.00"> &#160;Module</text>
<polygon fill="#80b1d3" stroke="transparent" points="658.5,-10 658.5,-30 678.5,-30 678.5,-10 658.5,-10"/>
<text text-anchor="start" x="682.28" y="-15.4" font-family="sans-serif" font-size="14.00"> &#160;Bootstrap</text>
<polygon fill="#fdb462" stroke="transparent" points="755.5,-10 755.5,-30 775.5,-30 775.5,-10 755.5,-10"/>
<text text-anchor="start" x="779.17" y="-15.4" font-family="sans-serif" font-size="14.00"> &#160;Providers</text>
<polygon fill="#fb8072" stroke="transparent" points="851.5,-10 851.5,-30 871.5,-30 871.5,-10 851.5,-10"/>
<text text-anchor="start" x="875.23" y="-15.4" font-family="sans-serif" font-size="14.00"> &#160;Exports</text>
<g id="clust1" class="cluster">
<title>cluster_UiModule</title>
<polygon fill="none" stroke="black" stroke-dasharray="1,5" points="8,-70 8,-268 1379,-268 1379,-70 8,-70"/>
</g>
<g id="clust2" class="cluster">
<title>cluster_UiModule_declarations</title>
<polygon fill="none" stroke="black" points="940,-78 940,-130 1371,-130 1371,-78 940,-78"/>
</g>
<g id="clust7" class="cluster">
<title>cluster_UiModule_exports</title>
<polygon fill="none" stroke="black" points="595,-208 595,-260 709,-260 709,-208 595,-208"/>
</g>
<g id="clust6" class="cluster">
<title>cluster_UiModule_imports</title>
<polygon fill="none" stroke="black" points="16,-78 16,-130 932,-130 932,-78 16,-78"/>
</g>
<!-- PrimaryActionComponent -->
<g id="node1" class="node">
<title>PrimaryActionComponent</title>
<polygon fill="#ffffb3" stroke="black" points="1363.04,-122 1198.96,-122 1198.96,-86 1363.04,-86 1363.04,-122"/>
<text text-anchor="middle" x="1281" y="-99.8" font-family="Times,serif" font-size="14.00">PrimaryActionComponent</text>
</g>
<!-- UiModule -->
<g id="node4" class="node">
<title>UiModule</title>
<polygon fill="#8dd3c7" stroke="black" points="688.55,-187 685.55,-191 664.55,-191 661.55,-187 615.45,-187 615.45,-151 688.55,-151 688.55,-187"/>
<text text-anchor="middle" x="652" y="-164.8" font-family="Times,serif" font-size="14.00">UiModule</text>
</g>
<!-- PrimaryActionComponent&#45;&gt;UiModule -->
<g id="edge1" class="edge">
<title>PrimaryActionComponent&#45;&gt;UiModule</title>
<path fill="none" stroke="black" d="M1281,-122.01C1281,-144.49 1281,-180 1281,-180 1281,-180 699,-180 699,-180"/>
<polygon fill="black" stroke="black" points="699,-176.5 689,-180 699,-183.5 699,-176.5"/>
</g>
<!-- SearchComponent -->
<g id="node2" class="node">
<title>SearchComponent</title>
<polygon fill="#ffffb3" stroke="black" points="1180.92,-122 1061.08,-122 1061.08,-86 1180.92,-86 1180.92,-122"/>
<text text-anchor="middle" x="1121" y="-99.8" font-family="Times,serif" font-size="14.00">SearchComponent</text>
</g>
<!-- SearchComponent&#45;&gt;UiModule -->
<g id="edge2" class="edge">
<title>SearchComponent&#45;&gt;UiModule</title>
<path fill="none" stroke="black" d="M1121,-122.13C1121,-142.57 1121,-173 1121,-173 1121,-173 698.8,-173 698.8,-173"/>
<polygon fill="black" stroke="black" points="698.8,-169.5 688.8,-173 698.8,-176.5 698.8,-169.5"/>
</g>
<!-- UiComponent -->
<g id="node3" class="node">
<title>UiComponent</title>
<polygon fill="#ffffb3" stroke="black" points="1043.83,-122 948.17,-122 948.17,-86 1043.83,-86 1043.83,-122"/>
<text text-anchor="middle" x="996" y="-99.8" font-family="Times,serif" font-size="14.00">UiComponent</text>
</g>
<!-- UiComponent&#45;&gt;UiModule -->
<g id="edge3" class="edge">
<title>UiComponent&#45;&gt;UiModule</title>
<path fill="none" stroke="black" d="M996,-122.27C996,-140.56 996,-166 996,-166 996,-166 698.81,-166 698.81,-166"/>
<polygon fill="black" stroke="black" points="698.81,-162.5 688.81,-166 698.81,-169.5 698.81,-162.5"/>
</g>
<!-- UiComponent  -->
<g id="node12" class="node">
<title>UiComponent </title>
<polygon fill="#fb8072" stroke="black" points="701.33,-252 602.67,-252 602.67,-216 701.33,-216 701.33,-252"/>
<text text-anchor="middle" x="652" y="-229.8" font-family="Times,serif" font-size="14.00">UiComponent </text>
</g>
<!-- UiModule&#45;&gt;UiComponent  -->
<g id="edge11" class="edge">
<title>UiModule&#45;&gt;UiComponent </title>
<path fill="none" stroke="black" stroke-dasharray="5,2" d="M652,-187.11C652,-187.11 652,-205.99 652,-205.99"/>
<polygon fill="black" stroke="black" points="648.5,-205.99 652,-215.99 655.5,-205.99 648.5,-205.99"/>
</g>
<!-- ChildrenModule -->
<g id="node5" class="node">
<title>ChildrenModule</title>
<polygon fill="#8dd3c7" stroke="black" points="924.04,-122 921.04,-126 900.04,-126 897.04,-122 815.96,-122 815.96,-86 924.04,-86 924.04,-122"/>
<text text-anchor="middle" x="870" y="-99.8" font-family="Times,serif" font-size="14.00">ChildrenModule</text>
</g>
<!-- ChildrenModule&#45;&gt;UiModule -->
<g id="edge4" class="edge">
<title>ChildrenModule&#45;&gt;UiModule</title>
<path fill="none" stroke="black" d="M870,-122.01C870,-138.05 870,-159 870,-159 870,-159 698.98,-159 698.98,-159"/>
<polygon fill="black" stroke="black" points="698.98,-155.5 688.98,-159 698.98,-162.5 698.98,-155.5"/>
</g>
<!-- LatestChangesModule -->
<g id="node6" class="node">
<title>LatestChangesModule</title>
<polygon fill="#8dd3c7" stroke="black" points="797.97,-122 794.97,-126 773.97,-126 770.97,-122 656.03,-122 656.03,-86 797.97,-86 797.97,-122"/>
<text text-anchor="middle" x="727" y="-99.8" font-family="Times,serif" font-size="14.00">LatestChangesModule</text>
</g>
<!-- LatestChangesModule&#45;&gt;UiModule -->
<g id="edge5" class="edge">
<title>LatestChangesModule&#45;&gt;UiModule</title>
<path fill="none" stroke="black" d="M672.39,-122.11C672.39,-122.11 672.39,-140.99 672.39,-140.99"/>
<polygon fill="black" stroke="black" points="668.89,-140.99 672.39,-150.99 675.89,-140.99 668.89,-140.99"/>
</g>
<!-- NavigationModule -->
<g id="node7" class="node">
<title>NavigationModule</title>
<polygon fill="#8dd3c7" stroke="black" points="637.76,-122 634.76,-126 613.76,-126 610.76,-122 516.24,-122 516.24,-86 637.76,-86 637.76,-122"/>
<text text-anchor="middle" x="577" y="-99.8" font-family="Times,serif" font-size="14.00">NavigationModule</text>
</g>
<!-- NavigationModule&#45;&gt;UiModule -->
<g id="edge6" class="edge">
<title>NavigationModule&#45;&gt;UiModule</title>
<path fill="none" stroke="black" d="M626.55,-122.11C626.55,-122.11 626.55,-140.99 626.55,-140.99"/>
<polygon fill="black" stroke="black" points="623.05,-140.99 626.55,-150.99 630.05,-140.99 623.05,-140.99"/>
</g>
<!-- NotesModule -->
<g id="node8" class="node">
<title>NotesModule</title>
<polygon fill="#8dd3c7" stroke="black" points="498.21,-122 495.21,-126 474.21,-126 471.21,-122 405.79,-122 405.79,-86 498.21,-86 498.21,-122"/>
<text text-anchor="middle" x="452" y="-99.8" font-family="Times,serif" font-size="14.00">NotesModule</text>
</g>
<!-- NotesModule&#45;&gt;UiModule -->
<g id="edge7" class="edge">
<title>NotesModule&#45;&gt;UiModule</title>
<path fill="none" stroke="black" d="M452,-122.01C452,-138.05 452,-159 452,-159 452,-159 605.32,-159 605.32,-159"/>
<polygon fill="black" stroke="black" points="605.32,-162.5 615.32,-159 605.32,-155.5 605.32,-162.5"/>
</g>
<!-- SchoolsModule -->
<g id="node9" class="node">
<title>SchoolsModule</title>
<polygon fill="#8dd3c7" stroke="black" points="387.88,-122 384.88,-126 363.88,-126 360.88,-122 284.12,-122 284.12,-86 387.88,-86 387.88,-122"/>
<text text-anchor="middle" x="336" y="-99.8" font-family="Times,serif" font-size="14.00">SchoolsModule</text>
</g>
<!-- SchoolsModule&#45;&gt;UiModule -->
<g id="edge8" class="edge">
<title>SchoolsModule&#45;&gt;UiModule</title>
<path fill="none" stroke="black" d="M336,-122.27C336,-140.56 336,-166 336,-166 336,-166 605.44,-166 605.44,-166"/>
<polygon fill="black" stroke="black" points="605.44,-169.5 615.44,-166 605.44,-162.5 605.44,-169.5"/>
</g>
<!-- SessionModule -->
<g id="node10" class="node">
<title>SessionModule</title>
<polygon fill="#8dd3c7" stroke="black" points="266.33,-122 263.33,-126 242.33,-126 239.33,-122 163.67,-122 163.67,-86 266.33,-86 266.33,-122"/>
<text text-anchor="middle" x="215" y="-99.8" font-family="Times,serif" font-size="14.00">SessionModule</text>
</g>
<!-- SessionModule&#45;&gt;UiModule -->
<g id="edge9" class="edge">
<title>SessionModule&#45;&gt;UiModule</title>
<path fill="none" stroke="black" d="M215,-122.13C215,-142.57 215,-173 215,-173 215,-173 605.12,-173 605.12,-173"/>
<polygon fill="black" stroke="black" points="605.12,-176.5 615.12,-173 605.12,-169.5 605.12,-176.5"/>
</g>
<!-- SyncStatusModule -->
<g id="node11" class="node">
<title>SyncStatusModule</title>
<polygon fill="#8dd3c7" stroke="black" points="145.77,-122 142.77,-126 121.77,-126 118.77,-122 24.23,-122 24.23,-86 145.77,-86 145.77,-122"/>
<text text-anchor="middle" x="85" y="-99.8" font-family="Times,serif" font-size="14.00">SyncStatusModule</text>
</g>
<!-- SyncStatusModule&#45;&gt;UiModule -->
<g id="edge10" class="edge">
<title>SyncStatusModule&#45;&gt;UiModule</title>
<path fill="none" stroke="black" d="M85,-122.01C85,-144.49 85,-180 85,-180 85,-180 605.23,-180 605.23,-180"/>
<polygon fill="black" stroke="black" points="605.23,-183.5 615.23,-180 605.23,-176.5 605.23,-183.5"/>
</g>
</g>
</svg>
