<?xml version="1.0" encoding="UTF-8" standalone="no"?>
<!DOCTYPE svg PUBLIC "-//W3C//DTD SVG 1.1//EN"
 "http://www.w3.org/Graphics/SVG/1.1/DTD/svg11.dtd">
<!-- Generated by graphviz version 2.44.1 (20200629.0846)
 -->
<!-- Title: dependencies Pages: 1 -->
<svg width="504pt" height="284pt"
 viewBox="0.00 0.00 504.00 284.00" xmlns="http://www.w3.org/2000/svg" xmlns:xlink="http://www.w3.org/1999/xlink">
<g id="graph0" class="graph" transform="scale(1 1) rotate(0) translate(4 280)">
<title>dependencies</title>
<polygon fill="white" stroke="transparent" points="-4,4 -4,-280 500,-280 500,4 -4,4"/>
<text text-anchor="start" x="227.01" y="-42.4" font-family="sans-serif" font-weight="bold" font-size="14.00">Legend</text>
<polygon fill="#ffffb3" stroke="transparent" points="14,-10 14,-30 34,-30 34,-10 14,-10"/>
<text text-anchor="start" x="37.63" y="-15.4" font-family="sans-serif" font-size="14.00"> &#160;Declarations</text>
<polygon fill="#8dd3c7" stroke="transparent" points="127,-10 127,-30 147,-30 147,-10 127,-10"/>
<text text-anchor="start" x="150.73" y="-15.4" font-family="sans-serif" font-size="14.00"> &#160;Module</text>
<polygon fill="#80b1d3" stroke="transparent" points="213,-10 213,-30 233,-30 233,-10 213,-10"/>
<text text-anchor="start" x="236.78" y="-15.4" font-family="sans-serif" font-size="14.00"> &#160;Bootstrap</text>
<polygon fill="#fdb462" stroke="transparent" points="310,-10 310,-30 330,-30 330,-10 310,-10"/>
<text text-anchor="start" x="333.67" y="-15.4" font-family="sans-serif" font-size="14.00"> &#160;Providers</text>
<polygon fill="#fb8072" stroke="transparent" points="406,-10 406,-30 426,-30 426,-10 406,-10"/>
<text text-anchor="start" x="429.73" y="-15.4" font-family="sans-serif" font-size="14.00"> &#160;Exports</text>
<g id="clust1" class="cluster">
<title>cluster_NavigationModule</title>
<polygon fill="none" stroke="black" stroke-dasharray="1,5" points="39,-70 39,-268 457,-268 457,-70 39,-70"/>
</g>
<g id="clust5" class="cluster">
<title>cluster_NavigationModule_exports</title>
<polygon fill="none" stroke="black" points="192,-208 192,-260 356,-260 356,-208 192,-208"/>
</g>
<g id="clust4" class="cluster">
<title>cluster_NavigationModule_imports</title>
<polygon fill="none" stroke="black" points="215,-78 215,-130 449,-130 449,-78 215,-78"/>
</g>
<g id="clust2" class="cluster">
<title>cluster_NavigationModule_declarations</title>
<polygon fill="none" stroke="black" points="47,-78 47,-130 207,-130 207,-78 47,-78"/>
</g>
<!-- NavigationComponent -->
<g id="node1" class="node">
<title>NavigationComponent</title>
<polygon fill="#ffffb3" stroke="black" points="198.54,-122 55.46,-122 55.46,-86 198.54,-86 198.54,-122"/>
<text text-anchor="middle" x="127" y="-99.8" font-family="Times,serif" font-size="14.00">NavigationComponent</text>
</g>
<!-- NavigationModule -->
<g id="node2" class="node">
<title>NavigationModule</title>
<polygon fill="#8dd3c7" stroke="black" points="334.76,-187 331.76,-191 310.76,-191 307.76,-187 213.24,-187 213.24,-151 334.76,-151 334.76,-187"/>
<text text-anchor="middle" x="274" y="-164.8" font-family="Times,serif" font-size="14.00">NavigationModule</text>
</g>
<!-- NavigationComponent&#45;&gt;NavigationModule -->
<g id="edge1" class="edge">
<title>NavigationComponent&#45;&gt;NavigationModule</title>
<path fill="none" stroke="black" d="M198.68,-104C209.96,-104 217.98,-104 217.98,-104 217.98,-104 217.98,-140.89 217.98,-140.89"/>
<polygon fill="black" stroke="black" points="214.48,-140.89 217.98,-150.89 221.48,-140.89 214.48,-140.89"/>
</g>
<!-- NavigationComponent  -->
<g id="node5" class="node">
<title>NavigationComponent </title>
<polygon fill="#fb8072" stroke="black" points="347.54,-252 200.46,-252 200.46,-216 347.54,-216 347.54,-252"/>
<text text-anchor="middle" x="274" y="-229.8" font-family="Times,serif" font-size="14.00">NavigationComponent </text>
</g>
<!-- NavigationModule&#45;&gt;NavigationComponent  -->
<g id="edge4" class="edge">
<title>NavigationModule&#45;&gt;NavigationComponent </title>
<path fill="none" stroke="black" stroke-dasharray="5,2" d="M274,-187.11C274,-187.11 274,-205.99 274,-205.99"/>
<polygon fill="black" stroke="black" points="270.5,-205.99 274,-215.99 277.5,-205.99 270.5,-205.99"/>
</g>
<!-- ConfigModule -->
<g id="node3" class="node">
<title>ConfigModule</title>
<polygon fill="#8dd3c7" stroke="black" points="441.44,-122 438.44,-126 417.44,-126 414.44,-122 342.56,-122 342.56,-86 441.44,-86 441.44,-122"/>
<text text-anchor="middle" x="392" y="-99.8" font-family="Times,serif" font-size="14.00">ConfigModule</text>
</g>
<!-- ConfigModule&#45;&gt;NavigationModule -->
<g id="edge2" class="edge">
<title>ConfigModule&#45;&gt;NavigationModule</title>
<path fill="none" stroke="black" d="M342.56,-104C335.2,-104 330.02,-104 330.02,-104 330.02,-104 330.02,-140.89 330.02,-140.89"/>
<polygon fill="black" stroke="black" points="326.52,-140.89 330.02,-150.89 333.52,-140.89 326.52,-140.89"/>
</g>
<!-- SessionModule -->
<g id="node4" class="node">
<title>SessionModule</title>
<polygon fill="#8dd3c7" stroke="black" points="325.33,-122 322.33,-126 301.33,-126 298.33,-122 222.67,-122 222.67,-86 325.33,-86 325.33,-122"/>
<text text-anchor="middle" x="274" y="-99.8" font-family="Times,serif" font-size="14.00">SessionModule</text>
</g>
<!-- SessionModule&#45;&gt;NavigationModule -->
<g id="edge3" class="edge">
<title>SessionModule&#45;&gt;NavigationModule</title>
<path fill="none" stroke="black" d="M274,-122.11C274,-122.11 274,-140.99 274,-140.99"/>
<polygon fill="black" stroke="black" points="270.5,-140.99 274,-150.99 277.5,-140.99 270.5,-140.99"/>
</g>
</g>
</svg>
