<?xml version="1.0" encoding="UTF-8" standalone="no"?>
<!DOCTYPE svg PUBLIC "-//W3C//DTD SVG 1.1//EN"
 "http://www.w3.org/Graphics/SVG/1.1/DTD/svg11.dtd">
<!-- Generated by graphviz version 2.44.0 (20200408.0750)
 -->
<!-- Title: dependencies Pages: 1 -->
<svg width="558pt" height="284pt"
 viewBox="0.00 0.00 558.00 284.00" xmlns="http://www.w3.org/2000/svg" xmlns:xlink="http://www.w3.org/1999/xlink">
<g id="graph0" class="graph" transform="scale(1 1) rotate(0) translate(4 280)">
<title>dependencies</title>
<polygon fill="white" stroke="transparent" points="-4,4 -4,-280 554,-280 554,4 -4,4"/>
<text text-anchor="start" x="254.01" y="-42.4" font-family="sans-serif" font-weight="bold" font-size="14.00">Legend</text>
<polygon fill="#ffffb3" stroke="transparent" points="41,-10 41,-30 61,-30 61,-10 41,-10"/>
<text text-anchor="start" x="64.63" y="-15.4" font-family="sans-serif" font-size="14.00"> &#160;Declarations</text>
<polygon fill="#8dd3c7" stroke="transparent" points="154,-10 154,-30 174,-30 174,-10 154,-10"/>
<text text-anchor="start" x="177.73" y="-15.4" font-family="sans-serif" font-size="14.00"> &#160;Module</text>
<polygon fill="#80b1d3" stroke="transparent" points="240,-10 240,-30 260,-30 260,-10 240,-10"/>
<text text-anchor="start" x="263.78" y="-15.4" font-family="sans-serif" font-size="14.00"> &#160;Bootstrap</text>
<polygon fill="#fdb462" stroke="transparent" points="337,-10 337,-30 357,-30 357,-10 337,-10"/>
<text text-anchor="start" x="360.67" y="-15.4" font-family="sans-serif" font-size="14.00"> &#160;Providers</text>
<polygon fill="#fb8072" stroke="transparent" points="433,-10 433,-30 453,-30 453,-10 433,-10"/>
<text text-anchor="start" x="456.73" y="-15.4" font-family="sans-serif" font-size="14.00"> &#160;Exports</text>
<g id="clust1" class="cluster">
<title>cluster_NavigationModule</title>
<polygon fill="none" stroke="black" stroke-dasharray="1,5" points="8,-70 8,-268 542,-268 542,-70 8,-70"/>
</g>
<g id="clust5" class="cluster">
<title>cluster_NavigationModule_exports</title>
<polygon fill="none" stroke="black" points="172,-208 172,-260 336,-260 336,-208 172,-208"/>
</g>
<g id="clust2" class="cluster">
<title>cluster_NavigationModule_declarations</title>
<polygon fill="none" stroke="black" points="374,-78 374,-130 534,-130 534,-78 374,-78"/>
</g>
<g id="clust7" class="cluster">
<title>cluster_NavigationModule_providers</title>
<polygon fill="none" stroke="black" points="142,-78 142,-130 366,-130 366,-78 142,-78"/>
</g>
<g id="clust4" class="cluster">
<title>cluster_NavigationModule_imports</title>
<polygon fill="none" stroke="black" points="16,-78 16,-130 134,-130 134,-78 16,-78"/>
</g>
<!-- NavigationComponent -->
<g id="node1" class="node">
<title>NavigationComponent</title>
<polygon fill="#ffffb3" stroke="black" points="525.54,-122 382.46,-122 382.46,-86 525.54,-86 525.54,-122"/>
<text text-anchor="middle" x="454" y="-99.8" font-family="Times,serif" font-size="14.00">NavigationComponent</text>
</g>
<!-- NavigationModule -->
<g id="node2" class="node">
<title>NavigationModule</title>
<polygon fill="#8dd3c7" stroke="black" points="314.76,-187 311.76,-191 290.76,-191 287.76,-187 193.24,-187 193.24,-151 314.76,-151 314.76,-187"/>
<text text-anchor="middle" x="254" y="-164.8" font-family="Times,serif" font-size="14.00">NavigationModule</text>
</g>
<!-- NavigationComponent&#45;&gt;NavigationModule -->
<g id="edge1" class="edge">
<title>NavigationComponent&#45;&gt;NavigationModule</title>
<path fill="none" stroke="black" d="M454,-122.11C454,-141.34 454,-169 454,-169 454,-169 324.82,-169 324.82,-169"/>
<polygon fill="black" stroke="black" points="324.82,-165.5 314.82,-169 324.82,-172.5 324.82,-165.5"/>
</g>
<!-- NavigationComponent  -->
<g id="node4" class="node">
<title>NavigationComponent </title>
<polygon fill="#fb8072" stroke="black" points="327.54,-252 180.46,-252 180.46,-216 327.54,-216 327.54,-252"/>
<text text-anchor="middle" x="254" y="-229.8" font-family="Times,serif" font-size="14.00">NavigationComponent </text>
</g>
<!-- NavigationModule&#45;&gt;NavigationComponent  -->
<g id="edge3" class="edge">
<title>NavigationModule&#45;&gt;NavigationComponent </title>
<path fill="none" stroke="black" stroke-dasharray="5,2" d="M254,-187.11C254,-187.11 254,-205.99 254,-205.99"/>
<polygon fill="black" stroke="black" points="250.5,-205.99 254,-215.99 257.5,-205.99 250.5,-205.99"/>
</g>
<!-- SessionModule -->
<g id="node3" class="node">
<title>SessionModule</title>
<polygon fill="#8dd3c7" stroke="black" points="126.33,-122 123.33,-126 102.33,-126 99.33,-122 23.67,-122 23.67,-86 126.33,-86 126.33,-122"/>
<text text-anchor="middle" x="75" y="-99.8" font-family="Times,serif" font-size="14.00">SessionModule</text>
</g>
<!-- SessionModule&#45;&gt;NavigationModule -->
<g id="edge2" class="edge">
<title>SessionModule&#45;&gt;NavigationModule</title>
<path fill="none" stroke="black" d="M75,-122.11C75,-141.34 75,-169 75,-169 75,-169 183.15,-169 183.15,-169"/>
<polygon fill="black" stroke="black" points="183.15,-172.5 193.15,-169 183.15,-165.5 183.15,-172.5"/>
</g>
<!-- NavigationItemsService -->
<g id="node5" class="node">
<title>NavigationItemsService</title>
<ellipse fill="#fdb462" stroke="black" cx="254" cy="-104" rx="104.21" ry="18"/>
<text text-anchor="middle" x="254" y="-99.8" font-family="Times,serif" font-size="14.00">NavigationItemsService</text>
</g>
<!-- NavigationItemsService&#45;&gt;NavigationModule -->
<g id="edge4" class="edge">
<title>NavigationItemsService&#45;&gt;NavigationModule</title>
<path fill="none" stroke="black" d="M254,-122.11C254,-122.11 254,-140.99 254,-140.99"/>
<polygon fill="black" stroke="black" points="250.5,-140.99 254,-150.99 257.5,-140.99 250.5,-140.99"/>
</g>
</g>
</svg>
