<?xml version="1.0" encoding="UTF-8" standalone="no"?>
<!DOCTYPE svg PUBLIC "-//W3C//DTD SVG 1.1//EN"
 "http://www.w3.org/Graphics/SVG/1.1/DTD/svg11.dtd">
<!-- Generated by graphviz version 2.40.1 (20161225.0304)
 -->
<!-- Title: dependencies Pages: 1 -->
<svg width="5401pt" height="284pt"
 viewBox="0.00 0.00 5401.00 284.00" xmlns="http://www.w3.org/2000/svg" xmlns:xlink="http://www.w3.org/1999/xlink">
<g id="graph0" class="graph" transform="scale(1 1) rotate(0) translate(4 280)">
<title>dependencies</title>
<polygon fill="#ffffff" stroke="transparent" points="-4,4 -4,-280 5397,-280 5397,4 -4,4"/>
<text text-anchor="start" x="2675.5091" y="-42.4" font-family="sans-serif" font-weight="bold" font-size="14.00" fill="#000000">Legend</text>
<polygon fill="#ffffb3" stroke="transparent" points="2462.5,-10 2462.5,-30 2482.5,-30 2482.5,-10 2462.5,-10"/>
<text text-anchor="start" x="2486.129" y="-15.4" font-family="sans-serif" font-size="14.00" fill="#000000"> &#160;Declarations</text>
<polygon fill="#8dd3c7" stroke="transparent" points="2575.5,-10 2575.5,-30 2595.5,-30 2595.5,-10 2575.5,-10"/>
<text text-anchor="start" x="2599.2251" y="-15.4" font-family="sans-serif" font-size="14.00" fill="#000000"> &#160;Module</text>
<polygon fill="#80b1d3" stroke="transparent" points="2661.5,-10 2661.5,-30 2681.5,-30 2681.5,-10 2661.5,-10"/>
<text text-anchor="start" x="2685.2812" y="-15.4" font-family="sans-serif" font-size="14.00" fill="#000000"> &#160;Bootstrap</text>
<polygon fill="#fdb462" stroke="transparent" points="2758.5,-10 2758.5,-30 2778.5,-30 2778.5,-10 2758.5,-10"/>
<text text-anchor="start" x="2782.1732" y="-15.4" font-family="sans-serif" font-size="14.00" fill="#000000"> &#160;Providers</text>
<polygon fill="#fb8072" stroke="transparent" points="2854.5,-10 2854.5,-30 2874.5,-30 2874.5,-10 2854.5,-10"/>
<text text-anchor="start" x="2878.2258" y="-15.4" font-family="sans-serif" font-size="14.00" fill="#000000"> &#160;Exports</text>
<g id="clust1" class="cluster">
<title>cluster_ChildrenModule</title>
<polygon fill="none" stroke="#000000" stroke-dasharray="1,5" points="8,-70 8,-268 5385,-268 5385,-70 8,-70"/>
</g>
<g id="clust2" class="cluster">
<title>cluster_ChildrenModule_declarations</title>
<polygon fill="none" stroke="#000000" points="446,-78 446,-130 5377,-130 5377,-78 446,-78"/>
</g>
<g id="clust28" class="cluster">
<title>cluster_ChildrenModule_imports</title>
<polygon fill="none" stroke="#000000" points="188,-78 188,-130 438,-130 438,-78 188,-78"/>
</g>
<g id="clust29" class="cluster">
<title>cluster_ChildrenModule_exports</title>
<polygon fill="none" stroke="#000000" points="1616,-208 1616,-260 3207,-260 3207,-208 1616,-208"/>
</g>
<g id="clust31" class="cluster">
<title>cluster_ChildrenModule_providers</title>
<polygon fill="none" stroke="#000000" points="16,-78 16,-130 180,-130 180,-78 16,-78"/>
</g>
<!-- AddDayAttendanceComponent -->
<g id="node1" class="node">
<title>AddDayAttendanceComponent</title>
<polygon fill="#ffffb3" stroke="#000000" points="5369.007,-122 5176.993,-122 5176.993,-86 5369.007,-86 5369.007,-122"/>
<text text-anchor="middle" x="5273" y="-99.8" font-family="Times,serif" font-size="14.00" fill="#000000">AddDayAttendanceComponent</text>
</g>
<!-- ChildrenModule -->
<g id="node26" class="node">
<title>ChildrenModule</title>
<polygon fill="#8dd3c7" stroke="#000000" points="2516.0438,-187 2513.0438,-191 2492.0438,-191 2489.0438,-187 2407.9562,-187 2407.9562,-151 2516.0438,-151 2516.0438,-187"/>
<text text-anchor="middle" x="2462" y="-164.8" font-family="Times,serif" font-size="14.00" fill="#000000">ChildrenModule</text>
</g>
<!-- AddDayAttendanceComponent&#45;&gt;ChildrenModule -->
<g id="edge1" class="edge">
<title>AddDayAttendanceComponent&#45;&gt;ChildrenModule</title>
<path fill="none" stroke="#000000" d="M5273,-122.2479C5273,-145.0179 5273,-181 5273,-181 5273,-181 2526.2652,-181 2526.2652,-181"/>
<polygon fill="#000000" stroke="#000000" points="2526.2652,-177.5001 2516.2652,-181 2526.2652,-184.5001 2526.2652,-177.5001"/>
</g>
<!-- AddMonthAttendanceComponent -->
<g id="node2" class="node">
<title>AddMonthAttendanceComponent</title>
<polygon fill="#ffffb3" stroke="#000000" points="5158.021,-122 4951.979,-122 4951.979,-86 5158.021,-86 5158.021,-122"/>
<text text-anchor="middle" x="5055" y="-99.8" font-family="Times,serif" font-size="14.00" fill="#000000">AddMonthAttendanceComponent</text>
</g>
<!-- AddMonthAttendanceComponent&#45;&gt;ChildrenModule -->
<g id="edge2" class="edge">
<title>AddMonthAttendanceComponent&#45;&gt;ChildrenModule</title>
<path fill="none" stroke="#000000" d="M5055,-122.2921C5055,-144.2057 5055,-178 5055,-178 5055,-178 2526.1585,-178 2526.1585,-178"/>
<polygon fill="#000000" stroke="#000000" points="2526.1585,-174.5001 2516.1585,-178 2526.1585,-181.5001 2526.1585,-174.5001"/>
</g>
<!-- AserComponent -->
<g id="node3" class="node">
<title>AserComponent</title>
<polygon fill="#ffffb3" stroke="#000000" points="4933.7591,-122 4826.2409,-122 4826.2409,-86 4933.7591,-86 4933.7591,-122"/>
<text text-anchor="middle" x="4880" y="-99.8" font-family="Times,serif" font-size="14.00" fill="#000000">AserComponent</text>
</g>
<!-- AserComponent&#45;&gt;ChildrenModule -->
<g id="edge3" class="edge">
<title>AserComponent&#45;&gt;ChildrenModule</title>
<path fill="none" stroke="#000000" d="M4880,-122.1686C4880,-143.498 4880,-176 4880,-176 4880,-176 2526.1807,-176 2526.1807,-176"/>
<polygon fill="#000000" stroke="#000000" points="2526.1808,-172.5001 2516.1807,-176 2526.1807,-179.5001 2526.1808,-172.5001"/>
</g>
<!-- AttendanceAverageDashboardComponent -->
<g id="node4" class="node">
<title>AttendanceAverageDashboardComponent</title>
<polygon fill="#ffffb3" stroke="#000000" points="4808.6306,-122 4555.3694,-122 4555.3694,-86 4808.6306,-86 4808.6306,-122"/>
<text text-anchor="middle" x="4682" y="-99.8" font-family="Times,serif" font-size="14.00" fill="#000000">AttendanceAverageDashboardComponent</text>
</g>
<!-- AttendanceAverageDashboardComponent&#45;&gt;ChildrenModule -->
<g id="edge4" class="edge">
<title>AttendanceAverageDashboardComponent&#45;&gt;ChildrenModule</title>
<path fill="none" stroke="#000000" d="M4682,-122.0267C4682,-142.7672 4682,-174 4682,-174 4682,-174 2526.0507,-174 2526.0507,-174"/>
<polygon fill="#000000" stroke="#000000" points="2526.0508,-170.5001 2516.0507,-174 2526.0507,-177.5001 2526.0508,-170.5001"/>
</g>
<!-- AttendanceBlockComponent -->
<g id="node5" class="node">
<title>AttendanceBlockComponent</title>
<polygon fill="#ffffb3" stroke="#000000" points="4537.021,-122 4358.979,-122 4358.979,-86 4537.021,-86 4537.021,-122"/>
<text text-anchor="middle" x="4448" y="-99.8" font-family="Times,serif" font-size="14.00" fill="#000000">AttendanceBlockComponent</text>
</g>
<!-- AttendanceBlockComponent&#45;&gt;ChildrenModule -->
<g id="edge5" class="edge">
<title>AttendanceBlockComponent&#45;&gt;ChildrenModule</title>
<path fill="none" stroke="#000000" d="M4448,-122.2228C4448,-142.3652 4448,-172 4448,-172 4448,-172 2526.1507,-172 2526.1507,-172"/>
<polygon fill="#000000" stroke="#000000" points="2526.1507,-168.5001 2516.1507,-172 2526.1507,-175.5001 2526.1507,-168.5001"/>
</g>
<!-- AttendanceDayBlockComponent -->
<g id="node6" class="node">
<title>AttendanceDayBlockComponent</title>
<polygon fill="#ffffb3" stroke="#000000" points="4340.8417,-122 4139.1583,-122 4139.1583,-86 4340.8417,-86 4340.8417,-122"/>
<text text-anchor="middle" x="4240" y="-99.8" font-family="Times,serif" font-size="14.00" fill="#000000">AttendanceDayBlockComponent</text>
</g>
<!-- AttendanceDayBlockComponent&#45;&gt;ChildrenModule -->
<g id="edge6" class="edge">
<title>AttendanceDayBlockComponent&#45;&gt;ChildrenModule</title>
<path fill="none" stroke="#000000" d="M4240,-122.1061C4240,-141.3391 4240,-169 4240,-169 4240,-169 2526.1828,-169 2526.1828,-169"/>
<polygon fill="#000000" stroke="#000000" points="2526.1829,-165.5001 2516.1828,-169 2526.1828,-172.5001 2526.1829,-165.5001"/>
</g>
<!-- AttendanceDaysComponent -->
<g id="node7" class="node">
<title>AttendanceDaysComponent</title>
<polygon fill="#ffffb3" stroke="#000000" points="4120.8445,-122 3947.1555,-122 3947.1555,-86 4120.8445,-86 4120.8445,-122"/>
<text text-anchor="middle" x="4034" y="-99.8" font-family="Times,serif" font-size="14.00" fill="#000000">AttendanceDaysComponent</text>
</g>
<!-- AttendanceDaysComponent&#45;&gt;ChildrenModule -->
<g id="edge7" class="edge">
<title>AttendanceDaysComponent&#45;&gt;ChildrenModule</title>
<path fill="none" stroke="#000000" d="M4034,-122.2222C4034,-140.8285 4034,-167 4034,-167 4034,-167 2526.1118,-167 2526.1118,-167"/>
<polygon fill="#000000" stroke="#000000" points="2526.1118,-163.5001 2516.1118,-167 2526.1118,-170.5001 2526.1118,-163.5001"/>
</g>
<!-- AttendanceDetailsComponent -->
<g id="node8" class="node">
<title>AttendanceDetailsComponent</title>
<polygon fill="#ffffb3" stroke="#000000" points="3929.231,-122 3744.769,-122 3744.769,-86 3929.231,-86 3929.231,-122"/>
<text text-anchor="middle" x="3837" y="-99.8" font-family="Times,serif" font-size="14.00" fill="#000000">AttendanceDetailsComponent</text>
</g>
<!-- AttendanceDetailsComponent&#45;&gt;ChildrenModule -->
<g id="edge8" class="edge">
<title>AttendanceDetailsComponent&#45;&gt;ChildrenModule</title>
<path fill="none" stroke="#000000" d="M3837,-122.302C3837,-140.2699 3837,-165 3837,-165 3837,-165 2526.3251,-165 2526.3251,-165"/>
<polygon fill="#000000" stroke="#000000" points="2526.3252,-161.5001 2516.3251,-165 2526.3251,-168.5001 2526.3252,-161.5001"/>
</g>
<!-- AttendanceManagerComponent -->
<g id="node9" class="node">
<title>AttendanceManagerComponent</title>
<polygon fill="#ffffb3" stroke="#000000" points="3726.3277,-122 3531.6723,-122 3531.6723,-86 3726.3277,-86 3726.3277,-122"/>
<text text-anchor="middle" x="3629" y="-99.8" font-family="Times,serif" font-size="14.00" fill="#000000">AttendanceManagerComponent</text>
</g>
<!-- AttendanceManagerComponent&#45;&gt;ChildrenModule -->
<g id="edge9" class="edge">
<title>AttendanceManagerComponent&#45;&gt;ChildrenModule</title>
<path fill="none" stroke="#000000" d="M3629,-122.0225C3629,-139.3734 3629,-163 3629,-163 3629,-163 2526.3333,-163 2526.3333,-163"/>
<polygon fill="#000000" stroke="#000000" points="2526.3334,-159.5001 2516.3333,-163 2526.3333,-166.5001 2526.3334,-159.5001"/>
</g>
<!-- AttendanceWarningsDashboardComponent -->
<g id="node10" class="node">
<title>AttendanceWarningsDashboardComponent</title>
<polygon fill="#ffffb3" stroke="#000000" points="3514.1446,-122 3253.8554,-122 3253.8554,-86 3514.1446,-86 3514.1446,-122"/>
<text text-anchor="middle" x="3384" y="-99.8" font-family="Times,serif" font-size="14.00" fill="#000000">AttendanceWarningsDashboardComponent</text>
</g>
<!-- AttendanceWarningsDashboardComponent&#45;&gt;ChildrenModule -->
<g id="edge10" class="edge">
<title>AttendanceWarningsDashboardComponent&#45;&gt;ChildrenModule</title>
<path fill="none" stroke="#000000" d="M3384,-122.027C3384,-138.3976 3384,-160 3384,-160 3384,-160 2526.2331,-160 2526.2331,-160"/>
<polygon fill="#000000" stroke="#000000" points="2526.2332,-156.5001 2516.2331,-160 2526.2331,-163.5001 2526.2332,-156.5001"/>
</g>
<!-- AttendanceWeekDashboardComponent -->
<g id="node11" class="node">
<title>AttendanceWeekDashboardComponent</title>
<polygon fill="#ffffb3" stroke="#000000" points="3236.3637,-122 2997.6363,-122 2997.6363,-86 3236.3637,-86 3236.3637,-122"/>
<text text-anchor="middle" x="3117" y="-99.8" font-family="Times,serif" font-size="14.00" fill="#000000">AttendanceWeekDashboardComponent</text>
</g>
<!-- AttendanceWeekDashboardComponent&#45;&gt;ChildrenModule -->
<g id="edge11" class="edge">
<title>AttendanceWeekDashboardComponent&#45;&gt;ChildrenModule</title>
<path fill="none" stroke="#000000" d="M3098.5668,-122.2819C3098.5668,-137.9478 3098.5668,-158 3098.5668,-158 3098.5668,-158 2526.2733,-158 2526.2733,-158"/>
<polygon fill="#000000" stroke="#000000" points="2526.2734,-154.5001 2516.2733,-158 2526.2733,-161.5001 2526.2734,-154.5001"/>
</g>
<!-- ChildAttendanceComponent -->
<g id="node12" class="node">
<title>ChildAttendanceComponent</title>
<polygon fill="#ffffb3" stroke="#000000" points="2980.1965,-122 2803.8035,-122 2803.8035,-86 2980.1965,-86 2980.1965,-122"/>
<text text-anchor="middle" x="2892" y="-99.8" font-family="Times,serif" font-size="14.00" fill="#000000">ChildAttendanceComponent</text>
</g>
<!-- ChildAttendanceComponent&#45;&gt;ChildrenModule -->
<g id="edge12" class="edge">
<title>ChildAttendanceComponent&#45;&gt;ChildrenModule</title>
<path fill="none" stroke="#000000" d="M2864.287,-122.1871C2864.287,-137.1824 2864.287,-156 2864.287,-156 2864.287,-156 2526.2542,-156 2526.2542,-156"/>
<polygon fill="#000000" stroke="#000000" points="2526.2542,-152.5001 2516.2542,-156 2526.2542,-159.5001 2526.2542,-152.5001"/>
</g>
<!-- ChildBlockComponent -->
<g id="node13" class="node">
<title>ChildBlockComponent</title>
<polygon fill="#ffffb3" stroke="#000000" points="2785.892,-122 2640.108,-122 2640.108,-86 2785.892,-86 2785.892,-122"/>
<text text-anchor="middle" x="2713" y="-99.8" font-family="Times,serif" font-size="14.00" fill="#000000">ChildBlockComponent</text>
</g>
<!-- ChildBlockComponent&#45;&gt;ChildrenModule -->
<g id="edge13" class="edge">
<title>ChildBlockComponent&#45;&gt;ChildrenModule</title>
<path fill="none" stroke="#000000" d="M2684.9382,-122.0511C2684.9382,-136.373 2684.9382,-154 2684.9382,-154 2684.9382,-154 2526.2517,-154 2526.2517,-154"/>
<polygon fill="#000000" stroke="#000000" points="2526.2518,-150.5001 2516.2517,-154 2526.2517,-157.5001 2526.2518,-150.5001"/>
</g>
<!-- ChildDetailsComponent -->
<g id="node14" class="node">
<title>ChildDetailsComponent</title>
<polygon fill="#ffffb3" stroke="#000000" points="2622.1024,-122 2469.8976,-122 2469.8976,-86 2622.1024,-86 2622.1024,-122"/>
<text text-anchor="middle" x="2546" y="-99.8" font-family="Times,serif" font-size="14.00" fill="#000000">ChildDetailsComponent</text>
</g>
<!-- ChildDetailsComponent&#45;&gt;ChildrenModule -->
<g id="edge14" class="edge">
<title>ChildDetailsComponent&#45;&gt;ChildrenModule</title>
<path fill="none" stroke="#000000" d="M2493.1101,-122.1061C2493.1101,-122.1061 2493.1101,-140.991 2493.1101,-140.991"/>
<polygon fill="#000000" stroke="#000000" points="2489.6102,-140.9909 2493.1101,-150.991 2496.6102,-140.991 2489.6102,-140.9909"/>
</g>
<!-- ChildSelectComponent -->
<g id="node15" class="node">
<title>ChildSelectComponent</title>
<polygon fill="#ffffb3" stroke="#000000" points="2452.1582,-122 2305.8418,-122 2305.8418,-86 2452.1582,-86 2452.1582,-122"/>
<text text-anchor="middle" x="2379" y="-99.8" font-family="Times,serif" font-size="14.00" fill="#000000">ChildSelectComponent</text>
</g>
<!-- ChildSelectComponent&#45;&gt;ChildrenModule -->
<g id="edge15" class="edge">
<title>ChildSelectComponent&#45;&gt;ChildrenModule</title>
<path fill="none" stroke="#000000" d="M2430.0288,-122.1061C2430.0288,-122.1061 2430.0288,-140.991 2430.0288,-140.991"/>
<polygon fill="#000000" stroke="#000000" points="2426.5288,-140.9909 2430.0288,-150.991 2433.5288,-140.991 2426.5288,-140.9909"/>
</g>
<!-- ChildrenCountDashboardComponent -->
<g id="node16" class="node">
<title>ChildrenCountDashboardComponent</title>
<polygon fill="#ffffb3" stroke="#000000" points="2287.6937,-122 2062.3063,-122 2062.3063,-86 2287.6937,-86 2287.6937,-122"/>
<text text-anchor="middle" x="2175" y="-99.8" font-family="Times,serif" font-size="14.00" fill="#000000">ChildrenCountDashboardComponent</text>
</g>
<!-- ChildrenCountDashboardComponent&#45;&gt;ChildrenModule -->
<g id="edge16" class="edge">
<title>ChildrenCountDashboardComponent&#45;&gt;ChildrenModule</title>
<path fill="none" stroke="#000000" d="M2246.8326,-122.0511C2246.8326,-136.373 2246.8326,-154 2246.8326,-154 2246.8326,-154 2397.7042,-154 2397.7042,-154"/>
<polygon fill="#000000" stroke="#000000" points="2397.7042,-157.5001 2407.7042,-154 2397.7041,-150.5001 2397.7042,-157.5001"/>
</g>
<!-- ChildrenListComponent -->
<g id="node17" class="node">
<title>ChildrenListComponent</title>
<polygon fill="#ffffb3" stroke="#000000" points="2044.1038,-122 1891.8962,-122 1891.8962,-86 2044.1038,-86 2044.1038,-122"/>
<text text-anchor="middle" x="1968" y="-99.8" font-family="Times,serif" font-size="14.00" fill="#000000">ChildrenListComponent</text>
</g>
<!-- ChildrenListComponent&#45;&gt;ChildrenModule -->
<g id="edge17" class="edge">
<title>ChildrenListComponent&#45;&gt;ChildrenModule</title>
<path fill="none" stroke="#000000" d="M2029.1915,-122.1871C2029.1915,-137.1824 2029.1915,-156 2029.1915,-156 2029.1915,-156 2397.6227,-156 2397.6227,-156"/>
<polygon fill="#000000" stroke="#000000" points="2397.6228,-159.5001 2407.6227,-156 2397.6227,-152.5001 2397.6228,-159.5001"/>
</g>
<!-- EducationalMaterialComponent -->
<g id="node18" class="node">
<title>EducationalMaterialComponent</title>
<polygon fill="#ffffb3" stroke="#000000" points="1873.6218,-122 1678.3782,-122 1678.3782,-86 1873.6218,-86 1873.6218,-122"/>
<text text-anchor="middle" x="1776" y="-99.8" font-family="Times,serif" font-size="14.00" fill="#000000">EducationalMaterialComponent</text>
</g>
<!-- EducationalMaterialComponent&#45;&gt;ChildrenModule -->
<g id="edge18" class="edge">
<title>EducationalMaterialComponent&#45;&gt;ChildrenModule</title>
<path fill="none" stroke="#000000" d="M1861.134,-122.2819C1861.134,-137.9478 1861.134,-158 1861.134,-158 1861.134,-158 2397.8831,-158 2397.8831,-158"/>
<polygon fill="#000000" stroke="#000000" points="2397.8832,-161.5001 2407.8831,-158 2397.8831,-154.5001 2397.8832,-161.5001"/>
</g>
<!-- HealthCheckupComponent -->
<g id="node19" class="node">
<title>HealthCheckupComponent</title>
<polygon fill="#ffffb3" stroke="#000000" points="1660.4157,-122 1491.5843,-122 1491.5843,-86 1660.4157,-86 1660.4157,-122"/>
<text text-anchor="middle" x="1576" y="-99.8" font-family="Times,serif" font-size="14.00" fill="#000000">HealthCheckupComponent</text>
</g>
<!-- HealthCheckupComponent&#45;&gt;ChildrenModule -->
<g id="edge19" class="edge">
<title>HealthCheckupComponent&#45;&gt;ChildrenModule</title>
<path fill="none" stroke="#000000" d="M1641.9304,-122.027C1641.9304,-138.3976 1641.9304,-160 1641.9304,-160 1641.9304,-160 2397.8758,-160 2397.8758,-160"/>
<polygon fill="#000000" stroke="#000000" points="2397.8758,-163.5001 2407.8758,-160 2397.8758,-156.5001 2397.8758,-163.5001"/>
</g>
<!-- NoteDetailsComponent -->
<g id="node20" class="node">
<title>NoteDetailsComponent</title>
<polygon fill="#ffffb3" stroke="#000000" points="1474.1965,-122 1325.8035,-122 1325.8035,-86 1474.1965,-86 1474.1965,-122"/>
<text text-anchor="middle" x="1400" y="-99.8" font-family="Times,serif" font-size="14.00" fill="#000000">NoteDetailsComponent</text>
</g>
<!-- NoteDetailsComponent&#45;&gt;ChildrenModule -->
<g id="edge20" class="edge">
<title>NoteDetailsComponent&#45;&gt;ChildrenModule</title>
<path fill="none" stroke="#000000" d="M1400,-122.0336C1400,-139.0597 1400,-162 1400,-162 1400,-162 2397.8752,-162 2397.8752,-162"/>
<polygon fill="#000000" stroke="#000000" points="2397.8753,-165.5001 2407.8752,-162 2397.8752,-158.5001 2397.8753,-165.5001"/>
</g>
<!-- NotesComponent -->
<g id="node21" class="node">
<title>NotesComponent</title>
<polygon fill="#ffffb3" stroke="#000000" points="1307.9888,-122 1194.0112,-122 1194.0112,-86 1307.9888,-86 1307.9888,-122"/>
<text text-anchor="middle" x="1251" y="-99.8" font-family="Times,serif" font-size="14.00" fill="#000000">NotesComponent</text>
</g>
<!-- NotesComponent&#45;&gt;ChildrenModule -->
<g id="edge21" class="edge">
<title>NotesComponent&#45;&gt;ChildrenModule</title>
<path fill="none" stroke="#000000" d="M1251,-122.002C1251,-139.6754 1251,-164 1251,-164 1251,-164 2397.6132,-164 2397.6132,-164"/>
<polygon fill="#000000" stroke="#000000" points="2397.6133,-167.5001 2407.6132,-164 2397.6132,-160.5001 2397.6133,-167.5001"/>
</g>
<!-- NotesManagerComponent -->
<g id="node22" class="node">
<title>NotesManagerComponent</title>
<polygon fill="#ffffb3" stroke="#000000" points="1175.738,-122 1012.262,-122 1012.262,-86 1175.738,-86 1175.738,-122"/>
<text text-anchor="middle" x="1094" y="-99.8" font-family="Times,serif" font-size="14.00" fill="#000000">NotesManagerComponent</text>
</g>
<!-- NotesManagerComponent&#45;&gt;ChildrenModule -->
<g id="edge22" class="edge">
<title>NotesManagerComponent&#45;&gt;ChildrenModule</title>
<path fill="none" stroke="#000000" d="M1094,-122.2667C1094,-140.5552 1094,-166 1094,-166 1094,-166 2397.9514,-166 2397.9514,-166"/>
<polygon fill="#000000" stroke="#000000" points="2397.9515,-169.5001 2407.9514,-166 2397.9514,-162.5001 2397.9515,-169.5001"/>
</g>
<!-- PreviousSchoolsComponent -->
<g id="node23" class="node">
<title>PreviousSchoolsComponent</title>
<polygon fill="#ffffb3" stroke="#000000" points="994.1581,-122 819.8419,-122 819.8419,-86 994.1581,-86 994.1581,-122"/>
<text text-anchor="middle" x="907" y="-99.8" font-family="Times,serif" font-size="14.00" fill="#000000">PreviousSchoolsComponent</text>
</g>
<!-- PreviousSchoolsComponent&#45;&gt;ChildrenModule -->
<g id="edge23" class="edge">
<title>PreviousSchoolsComponent&#45;&gt;ChildrenModule</title>
<path fill="none" stroke="#000000" d="M907,-122.1686C907,-141.0898 907,-168 907,-168 907,-168 2397.5685,-168 2397.5685,-168"/>
<polygon fill="#000000" stroke="#000000" points="2397.5685,-171.5001 2407.5685,-168 2397.5685,-164.5001 2397.5685,-171.5001"/>
</g>
<!-- RollCallComponent -->
<g id="node24" class="node">
<title>RollCallComponent</title>
<polygon fill="#ffffb3" stroke="#000000" points="801.2828,-122 672.7172,-122 672.7172,-86 801.2828,-86 801.2828,-122"/>
<text text-anchor="middle" x="737" y="-99.8" font-family="Times,serif" font-size="14.00" fill="#000000">RollCallComponent</text>
</g>
<!-- RollCallComponent&#45;&gt;ChildrenModule -->
<g id="edge24" class="edge">
<title>RollCallComponent&#45;&gt;ChildrenModule</title>
<path fill="none" stroke="#000000" d="M737,-122.308C737,-142.1455 737,-171 737,-171 737,-171 2397.5251,-171 2397.5251,-171"/>
<polygon fill="#000000" stroke="#000000" points="2397.5252,-174.5001 2407.5251,-171 2397.5251,-167.5001 2397.5252,-174.5001"/>
</g>
<!-- SelectGroupChildrenComponent -->
<g id="node25" class="node">
<title>SelectGroupChildrenComponent</title>
<polygon fill="#ffffb3" stroke="#000000" points="654.3004,-122 453.6996,-122 453.6996,-86 654.3004,-86 654.3004,-122"/>
<text text-anchor="middle" x="554" y="-99.8" font-family="Times,serif" font-size="14.00" fill="#000000">SelectGroupChildrenComponent</text>
</g>
<!-- SelectGroupChildrenComponent&#45;&gt;ChildrenModule -->
<g id="edge25" class="edge">
<title>SelectGroupChildrenComponent&#45;&gt;ChildrenModule</title>
<path fill="none" stroke="#000000" d="M554,-122.1289C554,-142.5724 554,-173 554,-173 554,-173 2397.7176,-173 2397.7176,-173"/>
<polygon fill="#000000" stroke="#000000" points="2397.7176,-176.5001 2407.7176,-173 2397.7176,-169.5001 2397.7176,-176.5001"/>
</g>
<!-- AttendanceAverageDashboardComponent  -->
<g id="node29" class="node">
<title>AttendanceAverageDashboardComponent </title>
<polygon fill="#fb8072" stroke="#000000" points="3199.1309,-252 2942.8691,-252 2942.8691,-216 3199.1309,-216 3199.1309,-252"/>
<text text-anchor="middle" x="3071" y="-229.8" font-family="Times,serif" font-size="14.00" fill="#000000">AttendanceAverageDashboardComponent </text>
</g>
<!-- ChildrenModule&#45;&gt;AttendanceAverageDashboardComponent  -->
<g id="edge28" class="edge">
<title>ChildrenModule&#45;&gt;AttendanceAverageDashboardComponent </title>
<path fill="none" stroke="#000000" stroke-dasharray="5,2" d="M2516.3943,-183C2645.8256,-183 2961.3915,-183 2961.3915,-183 2961.3915,-183 2961.3915,-205.8757 2961.3915,-205.8757"/>
<polygon fill="#000000" stroke="#000000" points="2957.8915,-205.8757 2961.3915,-215.8757 2964.8915,-205.8757 2957.8915,-205.8757"/>
</g>
<!-- AttendanceDaysComponent  -->
<g id="node30" class="node">
<title>AttendanceDaysComponent </title>
<polygon fill="#fb8072" stroke="#000000" points="2924.8447,-252 2747.1553,-252 2747.1553,-216 2924.8447,-216 2924.8447,-252"/>
<text text-anchor="middle" x="2836" y="-229.8" font-family="Times,serif" font-size="14.00" fill="#000000">AttendanceDaysComponent </text>
</g>
<!-- ChildrenModule&#45;&gt;AttendanceDaysComponent  -->
<g id="edge29" class="edge">
<title>ChildrenModule&#45;&gt;AttendanceDaysComponent </title>
<path fill="none" stroke="#000000" stroke-dasharray="5,2" d="M2516.1119,-185C2603.6524,-185 2766.6369,-185 2766.6369,-185 2766.6369,-185 2766.6369,-205.7542 2766.6369,-205.7542"/>
<polygon fill="#000000" stroke="#000000" points="2763.137,-205.7542 2766.6369,-215.7542 2770.137,-205.7542 2763.137,-205.7542"/>
</g>
<!-- AttendanceWarningsDashboardComponent  -->
<g id="node31" class="node">
<title>AttendanceWarningsDashboardComponent </title>
<polygon fill="#fb8072" stroke="#000000" points="2729.6448,-252 2466.3552,-252 2466.3552,-216 2729.6448,-216 2729.6448,-252"/>
<text text-anchor="middle" x="2598" y="-229.8" font-family="Times,serif" font-size="14.00" fill="#000000">AttendanceWarningsDashboardComponent </text>
</g>
<!-- ChildrenModule&#45;&gt;AttendanceWarningsDashboardComponent  -->
<g id="edge30" class="edge">
<title>ChildrenModule&#45;&gt;AttendanceWarningsDashboardComponent </title>
<path fill="none" stroke="#000000" stroke-dasharray="5,2" d="M2482.8756,-187.1061C2482.8756,-187.1061 2482.8756,-205.991 2482.8756,-205.991"/>
<polygon fill="#000000" stroke="#000000" points="2479.3757,-205.9909 2482.8756,-215.991 2486.3757,-205.991 2479.3757,-205.9909"/>
</g>
<!-- ChildrenModule&#45;&gt;AttendanceWarningsDashboardComponent  -->
<g id="edge31" class="edge">
<title>ChildrenModule&#45;&gt;AttendanceWarningsDashboardComponent </title>
<path fill="none" stroke="#000000" stroke-dasharray="5,2" d="M2499.5735,-187.1061C2499.5735,-187.1061 2499.5735,-205.991 2499.5735,-205.991"/>
<polygon fill="#000000" stroke="#000000" points="2496.0736,-205.9909 2499.5735,-215.991 2503.0736,-205.991 2496.0736,-205.9909"/>
</g>
<!-- AttendanceWeekDashboardComponent  -->
<g id="node32" class="node">
<title>AttendanceWeekDashboardComponent </title>
<polygon fill="#fb8072" stroke="#000000" points="2447.8634,-252 2206.1366,-252 2206.1366,-216 2447.8634,-216 2447.8634,-252"/>
<text text-anchor="middle" x="2327" y="-229.8" font-family="Times,serif" font-size="14.00" fill="#000000">AttendanceWeekDashboardComponent </text>
</g>
<!-- ChildrenModule&#45;&gt;AttendanceWeekDashboardComponent  -->
<g id="edge32" class="edge">
<title>ChildrenModule&#45;&gt;AttendanceWeekDashboardComponent </title>
<path fill="none" stroke="#000000" stroke-dasharray="5,2" d="M2427.8301,-187.1061C2427.8301,-187.1061 2427.8301,-205.991 2427.8301,-205.991"/>
<polygon fill="#000000" stroke="#000000" points="2424.3302,-205.9909 2427.8301,-215.991 2431.3302,-205.991 2424.3302,-205.9909"/>
</g>
<!-- ChildBlockComponent  -->
<g id="node33" class="node">
<title>ChildBlockComponent </title>
<polygon fill="#fb8072" stroke="#000000" points="2187.8925,-252 2038.1075,-252 2038.1075,-216 2187.8925,-216 2187.8925,-252"/>
<text text-anchor="middle" x="2113" y="-229.8" font-family="Times,serif" font-size="14.00" fill="#000000">ChildBlockComponent </text>
</g>
<!-- ChildrenModule&#45;&gt;ChildBlockComponent  -->
<g id="edge33" class="edge">
<title>ChildrenModule&#45;&gt;ChildBlockComponent </title>
<path fill="none" stroke="#000000" stroke-dasharray="5,2" d="M2407.8631,-185C2312.615,-185 2125.0496,-185 2125.0496,-185 2125.0496,-185 2125.0496,-205.7542 2125.0496,-205.7542"/>
<polygon fill="#000000" stroke="#000000" points="2121.5497,-205.7542 2125.0496,-215.7542 2128.5497,-205.7542 2121.5497,-205.7542"/>
</g>
<!-- ChildSelectComponent  -->
<g id="node34" class="node">
<title>ChildSelectComponent </title>
<polygon fill="#fb8072" stroke="#000000" points="2020.1579,-252 1869.8421,-252 1869.8421,-216 2020.1579,-216 2020.1579,-252"/>
<text text-anchor="middle" x="1945" y="-229.8" font-family="Times,serif" font-size="14.00" fill="#000000">ChildSelectComponent </text>
</g>
<!-- ChildrenModule&#45;&gt;ChildSelectComponent  -->
<g id="edge34" class="edge">
<title>ChildrenModule&#45;&gt;ChildSelectComponent </title>
<path fill="none" stroke="#000000" stroke-dasharray="5,2" d="M2407.8506,-183C2277.3199,-183 1956.0135,-183 1956.0135,-183 1956.0135,-183 1956.0135,-205.8757 1956.0135,-205.8757"/>
<polygon fill="#000000" stroke="#000000" points="1952.5136,-205.8757 1956.0135,-215.8757 1959.5136,-205.8757 1952.5136,-205.8757"/>
</g>
<!-- ChildrenCountDashboardComponent  -->
<g id="node35" class="node">
<title>ChildrenCountDashboardComponent </title>
<polygon fill="#fb8072" stroke="#000000" points="1852.1938,-252 1623.8062,-252 1623.8062,-216 1852.1938,-216 1852.1938,-252"/>
<text text-anchor="middle" x="1738" y="-229.8" font-family="Times,serif" font-size="14.00" fill="#000000">ChildrenCountDashboardComponent </text>
</g>
<!-- ChildrenModule&#45;&gt;ChildrenCountDashboardComponent  -->
<g id="edge35" class="edge">
<title>ChildrenModule&#45;&gt;ChildrenCountDashboardComponent </title>
<path fill="none" stroke="#000000" stroke-dasharray="5,2" d="M2407.9084,-181C2244.2081,-181 1765.2681,-181 1765.2681,-181 1765.2681,-181 1765.2681,-205.7604 1765.2681,-205.7604"/>
<polygon fill="#000000" stroke="#000000" points="1761.7681,-205.7604 1765.2681,-215.7604 1768.7681,-205.7604 1761.7681,-205.7604"/>
</g>
<!-- SchoolsModule -->
<g id="node27" class="node">
<title>SchoolsModule</title>
<polygon fill="#8dd3c7" stroke="#000000" points="429.8823,-122 426.8823,-126 405.8823,-126 402.8823,-122 326.1177,-122 326.1177,-86 429.8823,-86 429.8823,-122"/>
<text text-anchor="middle" x="378" y="-99.8" font-family="Times,serif" font-size="14.00" fill="#000000">SchoolsModule</text>
</g>
<!-- SchoolsModule&#45;&gt;ChildrenModule -->
<g id="edge26" class="edge">
<title>SchoolsModule&#45;&gt;ChildrenModule</title>
<path fill="none" stroke="#000000" d="M378,-122.2843C378,-143.3211 378,-175 378,-175 378,-175 2397.8613,-175 2397.8613,-175"/>
<polygon fill="#000000" stroke="#000000" points="2397.8613,-178.5001 2407.8613,-175 2397.8612,-171.5001 2397.8613,-178.5001"/>
</g>
<!-- UiHelperModule -->
<g id="node28" class="node">
<title>UiHelperModule</title>
<polygon fill="#8dd3c7" stroke="#000000" points="307.6346,-122 304.6346,-126 283.6346,-126 280.6346,-122 196.3654,-122 196.3654,-86 307.6346,-86 307.6346,-122"/>
<text text-anchor="middle" x="252" y="-99.8" font-family="Times,serif" font-size="14.00" fill="#000000">UiHelperModule</text>
</g>
<!-- UiHelperModule&#45;&gt;ChildrenModule -->
<g id="edge27" class="edge">
<title>UiHelperModule&#45;&gt;ChildrenModule</title>
<path fill="none" stroke="#000000" d="M252,-122.0449C252,-143.6623 252,-177 252,-177 252,-177 2397.9193,-177 2397.9193,-177"/>
<polygon fill="#000000" stroke="#000000" points="2397.9193,-180.5001 2407.9193,-177 2397.9193,-173.5001 2397.9193,-180.5001"/>
</g>
<!-- ChildrenService -->
<g id="node36" class="node">
<title>ChildrenService</title>
<ellipse fill="#fdb462" stroke="#000000" cx="98" cy="-104" rx="73.5734" ry="18"/>
<text text-anchor="middle" x="98" y="-99.8" font-family="Times,serif" font-size="14.00" fill="#000000">ChildrenService</text>
</g>
<!-- ChildrenService&#45;&gt;ChildrenModule -->
<g id="edge36" class="edge">
<title>ChildrenService&#45;&gt;ChildrenModule</title>
<path fill="none" stroke="#000000" d="M98,-122.1554C98,-144.3519 98,-179 98,-179 98,-179 2397.8994,-179 2397.8994,-179"/>
<polygon fill="#000000" stroke="#000000" points="2397.8994,-182.5001 2407.8994,-179 2397.8993,-175.5001 2397.8994,-182.5001"/>
</g>
</g>
</svg>
