<?xml version="1.0" encoding="UTF-8" standalone="no"?>
<!DOCTYPE svg PUBLIC "-//W3C//DTD SVG 1.1//EN"
 "http://www.w3.org/Graphics/SVG/1.1/DTD/svg11.dtd">
<!-- Generated by graphviz version 2.40.1 (20161225.0304)
 -->
<!-- Title: dependencies Pages: 1 -->
<svg width="661pt" height="284pt"
 viewBox="0.00 0.00 661.00 284.00" xmlns="http://www.w3.org/2000/svg" xmlns:xlink="http://www.w3.org/1999/xlink">
<g id="graph0" class="graph" transform="scale(1 1) rotate(0) translate(4 280)">
<title>dependencies</title>
<polygon fill="#ffffff" stroke="transparent" points="-4,4 -4,-280 657,-280 657,4 -4,4"/>
<text text-anchor="start" x="305.5091" y="-42.4" font-family="sans-serif" font-weight="bold" font-size="14.00" fill="#000000">Legend</text>
<polygon fill="#ffffb3" stroke="transparent" points="92.5,-10 92.5,-30 112.5,-30 112.5,-10 92.5,-10"/>
<text text-anchor="start" x="116.129" y="-15.4" font-family="sans-serif" font-size="14.00" fill="#000000"> &#160;Declarations</text>
<polygon fill="#8dd3c7" stroke="transparent" points="205.5,-10 205.5,-30 225.5,-30 225.5,-10 205.5,-10"/>
<text text-anchor="start" x="229.2251" y="-15.4" font-family="sans-serif" font-size="14.00" fill="#000000"> &#160;Module</text>
<polygon fill="#80b1d3" stroke="transparent" points="291.5,-10 291.5,-30 311.5,-30 311.5,-10 291.5,-10"/>
<text text-anchor="start" x="315.2812" y="-15.4" font-family="sans-serif" font-size="14.00" fill="#000000"> &#160;Bootstrap</text>
<polygon fill="#fdb462" stroke="transparent" points="388.5,-10 388.5,-30 408.5,-30 408.5,-10 388.5,-10"/>
<text text-anchor="start" x="412.1732" y="-15.4" font-family="sans-serif" font-size="14.00" fill="#000000"> &#160;Providers</text>
<polygon fill="#fb8072" stroke="transparent" points="484.5,-10 484.5,-30 504.5,-30 504.5,-10 484.5,-10"/>
<text text-anchor="start" x="508.2258" y="-15.4" font-family="sans-serif" font-size="14.00" fill="#000000"> &#160;Exports</text>
<g id="clust1" class="cluster">
<title>cluster_EntitySubrecordModule</title>
<polygon fill="none" stroke="#000000" stroke-dasharray="1,5" points="8,-70 8,-268 645,-268 645,-70 8,-70"/>
</g>
<g id="clust2" class="cluster">
<title>cluster_EntitySubrecordModule_declarations</title>
<polygon fill="none" stroke="#000000" points="360,-78 360,-130 637,-130 637,-78 360,-78"/>
</g>
<g id="clust5" class="cluster">
<title>cluster_EntitySubrecordModule_imports</title>
<polygon fill="none" stroke="#000000" points="16,-78 16,-130 352,-130 352,-78 16,-78"/>
</g>
<g id="clust6" class="cluster">
<title>cluster_EntitySubrecordModule_exports</title>
<polygon fill="none" stroke="#000000" points="213,-208 213,-260 497,-260 497,-208 213,-208"/>
</g>
<!-- EntitySubrecordComponent -->
<g id="node1" class="node">
<title>EntitySubrecordComponent</title>
<polygon fill="#ffffb3" stroke="#000000" points="628.5898,-122 455.4102,-122 455.4102,-86 628.5898,-86 628.5898,-122"/>
<text text-anchor="middle" x="542" y="-99.8" font-family="Times,serif" font-size="14.00" fill="#000000">EntitySubrecordComponent</text>
</g>
<!-- EntitySubrecordModule -->
<g id="node3" class="node">
<title>EntitySubrecordModule</title>
<polygon fill="#8dd3c7" stroke="#000000" points="405.8075,-187 402.8075,-191 381.8075,-191 378.8075,-187 254.1925,-187 254.1925,-151 405.8075,-151 405.8075,-187"/>
<text text-anchor="middle" x="330" y="-164.8" font-family="Times,serif" font-size="14.00" fill="#000000">EntitySubrecordModule</text>
</g>
<!-- EntitySubrecordComponent&#45;&gt;EntitySubrecordModule -->
<g id="edge1" class="edge">
<title>EntitySubrecordComponent&#45;&gt;EntitySubrecordModule</title>
<path fill="none" stroke="#000000" d="M472.375,-122.1061C472.375,-141.3391 472.375,-169 472.375,-169 472.375,-169 415.7729,-169 415.7729,-169"/>
<polygon fill="#000000" stroke="#000000" points="415.773,-165.5001 405.7729,-169 415.7729,-172.5001 415.773,-165.5001"/>
</g>
<!-- KeysPipe -->
<g id="node2" class="node">
<title>KeysPipe</title>
<polygon fill="#ffffb3" stroke="#000000" points="437.6545,-122 368.3455,-122 368.3455,-86 437.6545,-86 437.6545,-122"/>
<text text-anchor="middle" x="403" y="-99.8" font-family="Times,serif" font-size="14.00" fill="#000000">KeysPipe</text>
</g>
<!-- KeysPipe&#45;&gt;EntitySubrecordModule -->
<g id="edge2" class="edge">
<title>KeysPipe&#45;&gt;EntitySubrecordModule</title>
<path fill="none" stroke="#000000" d="M386.9134,-122.1061C386.9134,-122.1061 386.9134,-140.991 386.9134,-140.991"/>
<polygon fill="#000000" stroke="#000000" points="383.4135,-140.9909 386.9134,-150.991 390.4135,-140.991 383.4135,-140.9909"/>
</g>
<!-- EntitySubrecordComponent  -->
<g id="node6" class="node">
<title>EntitySubrecordComponent </title>
<polygon fill="#fb8072" stroke="#000000" points="489.0903,-252 312.9097,-252 312.9097,-216 489.0903,-216 489.0903,-252"/>
<text text-anchor="middle" x="401" y="-229.8" font-family="Times,serif" font-size="14.00" fill="#000000">EntitySubrecordComponent </text>
</g>
<!-- EntitySubrecordModule&#45;&gt;EntitySubrecordComponent  -->
<g id="edge5" class="edge">
<title>EntitySubrecordModule&#45;&gt;EntitySubrecordComponent </title>
<path fill="none" stroke="#000000" stroke-dasharray="5,2" d="M359.1794,-187.1061C359.1794,-187.1061 359.1794,-205.991 359.1794,-205.991"/>
<polygon fill="#000000" stroke="#000000" points="355.6794,-205.9909 359.1794,-215.991 362.6794,-205.991 355.6794,-205.9909"/>
</g>
<!-- KeysPipe  -->
<g id="node7" class="node">
<title>KeysPipe </title>
<polygon fill="#fb8072" stroke="#000000" points="294.6538,-252 221.3462,-252 221.3462,-216 294.6538,-216 294.6538,-252"/>
<text text-anchor="middle" x="258" y="-229.8" font-family="Times,serif" font-size="14.00" fill="#000000">KeysPipe </text>
</g>
<!-- EntitySubrecordModule&#45;&gt;KeysPipe  -->
<g id="edge6" class="edge">
<title>EntitySubrecordModule&#45;&gt;KeysPipe </title>
<path fill="none" stroke="#000000" stroke-dasharray="5,2" d="M274.4616,-187.1061C274.4616,-187.1061 274.4616,-205.991 274.4616,-205.991"/>
<polygon fill="#000000" stroke="#000000" points="270.9617,-205.9909 274.4616,-215.991 277.9617,-205.991 270.9617,-205.9909"/>
</g>
<!-- ConfirmationDialogModule -->
<g id="node4" class="node">
<title>ConfirmationDialogModule</title>
<polygon fill="#8dd3c7" stroke="#000000" points="343.587,-122 340.587,-126 319.587,-126 316.587,-122 170.413,-122 170.413,-86 343.587,-86 343.587,-122"/>
<text text-anchor="middle" x="257" y="-99.8" font-family="Times,serif" font-size="14.00" fill="#000000">ConfirmationDialogModule</text>
</g>
<!-- ConfirmationDialogModule&#45;&gt;EntitySubrecordModule -->
<g id="edge3" class="edge">
<title>ConfirmationDialogModule&#45;&gt;EntitySubrecordModule</title>
<path fill="none" stroke="#000000" d="M298.945,-122.1061C298.945,-122.1061 298.945,-140.991 298.945,-140.991"/>
<polygon fill="#000000" stroke="#000000" points="295.445,-140.9909 298.945,-150.991 302.445,-140.991 295.445,-140.9909"/>
</g>
<!-- FormDialogModule -->
<g id="node5" class="node">
<title>FormDialogModule</title>
<polygon fill="#8dd3c7" stroke="#000000" points="151.986,-122 148.986,-126 127.986,-126 124.986,-122 24.014,-122 24.014,-86 151.986,-86 151.986,-122"/>
<text text-anchor="middle" x="88" y="-99.8" font-family="Times,serif" font-size="14.00" fill="#000000">FormDialogModule</text>
</g>
<!-- FormDialogModule&#45;&gt;EntitySubrecordModule -->
<g id="edge4" class="edge">
<title>FormDialogModule&#45;&gt;EntitySubrecordModule</title>
<path fill="none" stroke="#000000" d="M88,-122.1061C88,-141.3391 88,-169 88,-169 88,-169 244.0937,-169 244.0937,-169"/>
<polygon fill="#000000" stroke="#000000" points="244.0937,-172.5001 254.0937,-169 244.0936,-165.5001 244.0937,-172.5001"/>
</g>
</g>
</svg>
