<?xml version="1.0" encoding="UTF-8" standalone="no"?>
<!DOCTYPE svg PUBLIC "-//W3C//DTD SVG 1.1//EN"
 "http://www.w3.org/Graphics/SVG/1.1/DTD/svg11.dtd">
<!-- Generated by graphviz version 2.44.1 (20200629.0846)
 -->
<!-- Title: dependencies Pages: 1 -->
<svg width="675pt" height="211pt"
 viewBox="0.00 0.00 675.00 211.00" xmlns="http://www.w3.org/2000/svg" xmlns:xlink="http://www.w3.org/1999/xlink">
<g id="graph0" class="graph" transform="scale(1 1) rotate(0) translate(4 207)">
<title>dependencies</title>
<polygon fill="white" stroke="transparent" points="-4,4 -4,-207 671,-207 671,4 -4,4"/>
<text text-anchor="start" x="312.51" y="-42.4" font-family="sans-serif" font-weight="bold" font-size="14.00">Legend</text>
<polygon fill="#ffffb3" stroke="transparent" points="99.5,-10 99.5,-30 119.5,-30 119.5,-10 99.5,-10"/>
<text text-anchor="start" x="123.13" y="-15.4" font-family="sans-serif" font-size="14.00"> &#160;Declarations</text>
<polygon fill="#8dd3c7" stroke="transparent" points="212.5,-10 212.5,-30 232.5,-30 232.5,-10 212.5,-10"/>
<text text-anchor="start" x="236.23" y="-15.4" font-family="sans-serif" font-size="14.00"> &#160;Module</text>
<polygon fill="#80b1d3" stroke="transparent" points="298.5,-10 298.5,-30 318.5,-30 318.5,-10 298.5,-10"/>
<text text-anchor="start" x="322.28" y="-15.4" font-family="sans-serif" font-size="14.00"> &#160;Bootstrap</text>
<polygon fill="#fdb462" stroke="transparent" points="395.5,-10 395.5,-30 415.5,-30 415.5,-10 395.5,-10"/>
<text text-anchor="start" x="419.17" y="-15.4" font-family="sans-serif" font-size="14.00"> &#160;Providers</text>
<polygon fill="#fb8072" stroke="transparent" points="491.5,-10 491.5,-30 511.5,-30 511.5,-10 491.5,-10"/>
<text text-anchor="start" x="515.23" y="-15.4" font-family="sans-serif" font-size="14.00"> &#160;Exports</text>
<g id="clust1" class="cluster">
<title>cluster_ConflictResolutionModule</title>
<polygon fill="none" stroke="black" stroke-dasharray="1,5" points="8,-70 8,-195 659,-195 659,-70 8,-70"/>
</g>
<g id="clust2" class="cluster">
<title>cluster_ConflictResolutionModule_declarations</title>
<polygon fill="none" stroke="black" points="252,-78 252,-130 651,-130 651,-78 252,-78"/>
</g>
<g id="clust5" class="cluster">
<title>cluster_ConflictResolutionModule_imports</title>
<polygon fill="none" stroke="black" points="16,-78 16,-130 244,-130 244,-78 16,-78"/>
</g>
<!-- CompareRevComponent -->
<g id="node1" class="node">
<title>CompareRevComponent</title>
<polygon fill="#ffffb3" stroke="black" points="642.7,-122 487.3,-122 487.3,-86 642.7,-86 642.7,-122"/>
<text text-anchor="middle" x="565" y="-99.8" font-family="Times,serif" font-size="14.00">CompareRevComponent</text>
</g>
<!-- ConflictResolutionModule -->
<g id="node3" class="node">
<title>ConflictResolutionModule</title>
<polygon fill="#8dd3c7" stroke="black" points="448.1,-187 445.1,-191 424.1,-191 421.1,-187 281.9,-187 281.9,-151 448.1,-151 448.1,-187"/>
<text text-anchor="middle" x="365" y="-164.8" font-family="Times,serif" font-size="14.00">ConflictResolutionModule</text>
</g>
<!-- CompareRevComponent&#45;&gt;ConflictResolutionModule -->
<g id="edge1" class="edge">
<title>CompareRevComponent&#45;&gt;ConflictResolutionModule</title>
<path fill="none" stroke="black" d="M565,-122.11C565,-141.34 565,-169 565,-169 565,-169 458.08,-169 458.08,-169"/>
<polygon fill="black" stroke="black" points="458.08,-165.5 448.08,-169 458.08,-172.5 458.08,-165.5"/>
</g>
<!-- ConflictResolutionListComponent -->
<g id="node2" class="node">
<title>ConflictResolutionListComponent</title>
<polygon fill="#ffffb3" stroke="black" points="469.66,-122 260.34,-122 260.34,-86 469.66,-86 469.66,-122"/>
<text text-anchor="middle" x="365" y="-99.8" font-family="Times,serif" font-size="14.00">ConflictResolutionListComponent</text>
</g>
<!-- ConflictResolutionListComponent&#45;&gt;ConflictResolutionModule -->
<g id="edge2" class="edge">
<title>ConflictResolutionListComponent&#45;&gt;ConflictResolutionModule</title>
<path fill="none" stroke="black" d="M365,-122.11C365,-122.11 365,-140.99 365,-140.99"/>
<polygon fill="black" stroke="black" points="361.5,-140.99 365,-150.99 368.5,-140.99 361.5,-140.99"/>
</g>
<!-- ConflictResolutionRoutingModule -->
<g id="node4" class="node">
<title>ConflictResolutionRoutingModule</title>
<polygon fill="#8dd3c7" stroke="black" points="235.72,-122 232.72,-126 211.72,-126 208.72,-122 24.28,-122 24.28,-86 235.72,-86 235.72,-122"/>
<text text-anchor="middle" x="130" y="-99.8" font-family="Times,serif" font-size="14.00">ConflictResolutionRoutingModule</text>
</g>
<!-- ConflictResolutionRoutingModule&#45;&gt;ConflictResolutionModule -->
<g id="edge3" class="edge">
<title>ConflictResolutionRoutingModule&#45;&gt;ConflictResolutionModule</title>
<path fill="none" stroke="black" d="M130,-122.11C130,-141.34 130,-169 130,-169 130,-169 271.82,-169 271.82,-169"/>
<polygon fill="black" stroke="black" points="271.82,-172.5 281.82,-169 271.82,-165.5 271.82,-172.5"/>
</g>
</g>
</svg>
