<?xml version="1.0" encoding="UTF-8" standalone="no"?>
<!DOCTYPE svg PUBLIC "-//W3C//DTD SVG 1.1//EN"
 "http://www.w3.org/Graphics/SVG/1.1/DTD/svg11.dtd">
<!-- Generated by graphviz version 2.44.0 (20200408.0750)
 -->
<!-- Title: dependencies Pages: 1 -->
<svg width="504pt" height="211pt"
 viewBox="0.00 0.00 504.00 211.00" xmlns="http://www.w3.org/2000/svg" xmlns:xlink="http://www.w3.org/1999/xlink">
<g id="graph0" class="graph" transform="scale(1 1) rotate(0) translate(4 207)">
<title>dependencies</title>
<polygon fill="white" stroke="transparent" points="-4,4 -4,-207 500,-207 500,4 -4,4"/>
<text text-anchor="start" x="227.01" y="-42.4" font-family="sans-serif" font-weight="bold" font-size="14.00">Legend</text>
<polygon fill="#ffffb3" stroke="transparent" points="14,-10 14,-30 34,-30 34,-10 14,-10"/>
<text text-anchor="start" x="37.63" y="-15.4" font-family="sans-serif" font-size="14.00"> &#160;Declarations</text>
<polygon fill="#8dd3c7" stroke="transparent" points="127,-10 127,-30 147,-30 147,-10 127,-10"/>
<text text-anchor="start" x="150.73" y="-15.4" font-family="sans-serif" font-size="14.00"> &#160;Module</text>
<polygon fill="#80b1d3" stroke="transparent" points="213,-10 213,-30 233,-30 233,-10 213,-10"/>
<text text-anchor="start" x="236.78" y="-15.4" font-family="sans-serif" font-size="14.00"> &#160;Bootstrap</text>
<polygon fill="#fdb462" stroke="transparent" points="310,-10 310,-30 330,-30 330,-10 310,-10"/>
<text text-anchor="start" x="333.67" y="-15.4" font-family="sans-serif" font-size="14.00"> &#160;Providers</text>
<polygon fill="#fb8072" stroke="transparent" points="406,-10 406,-30 426,-30 426,-10 406,-10"/>
<text text-anchor="start" x="429.73" y="-15.4" font-family="sans-serif" font-size="14.00"> &#160;Exports</text>
<g id="clust1" class="cluster">
<title>cluster_EntityModule</title>
<polygon fill="none" stroke="black" stroke-dasharray="1,5" points="35,-70 35,-195 461,-195 461,-70 35,-70"/>
</g>
<g id="clust6" class="cluster">
<title>cluster_EntityModule_providers</title>
<polygon fill="none" stroke="black" points="43,-78 43,-130 453,-130 453,-78 43,-78"/>
</g>
<!-- EntityMapperService -->
<g id="node1" class="node">
<title>EntityMapperService</title>
<ellipse fill="#fdb462" stroke="black" cx="351" cy="-104" rx="93.76" ry="18"/>
<text text-anchor="middle" x="351" y="-99.8" font-family="Times,serif" font-size="14.00">EntityMapperService</text>
</g>
<!-- EntityModule -->
<g id="node3" class="node">
<title>EntityModule</title>
<polygon fill="#8dd3c7" stroke="black" points="294.77,-187 291.77,-191 270.77,-191 267.77,-187 201.23,-187 201.23,-151 294.77,-151 294.77,-187"/>
<text text-anchor="middle" x="248" y="-164.8" font-family="Times,serif" font-size="14.00">EntityModule</text>
</g>
<!-- EntityMapperService&#45;&gt;EntityModule -->
<g id="edge1" class="edge">
<title>EntityMapperService&#45;&gt;EntityModule</title>
<path fill="none" stroke="black" d="M276.13,-115.03C276.13,-115.03 276.13,-140.78 276.13,-140.78"/>
<polygon fill="black" stroke="black" points="272.63,-140.78 276.13,-150.78 279.63,-140.78 272.63,-140.78"/>
</g>
<!-- EntitySchemaService -->
<g id="node2" class="node">
<title>EntitySchemaService</title>
<ellipse fill="#fdb462" stroke="black" cx="145" cy="-104" rx="94.34" ry="18"/>
<text text-anchor="middle" x="145" y="-99.8" font-family="Times,serif" font-size="14.00">EntitySchemaService</text>
</g>
<!-- EntitySchemaService&#45;&gt;EntityModule -->
<g id="edge2" class="edge">
<title>EntitySchemaService&#45;&gt;EntityModule</title>
<path fill="none" stroke="black" d="M220.14,-115.03C220.14,-115.03 220.14,-140.78 220.14,-140.78"/>
<polygon fill="black" stroke="black" points="216.64,-140.78 220.14,-150.78 223.64,-140.78 216.64,-140.78"/>
</g>
</g>
</svg>
