<?xml version="1.0" encoding="UTF-8" standalone="no"?>
<!DOCTYPE svg PUBLIC "-//W3C//DTD SVG 1.1//EN"
 "http://www.w3.org/Graphics/SVG/1.1/DTD/svg11.dtd">
<!-- Generated by graphviz version 2.40.1 (20161225.0304)
 -->
<!-- Title: dependencies Pages: 1 -->
<svg width="504pt" height="211pt"
 viewBox="0.00 0.00 504.00 211.00" xmlns="http://www.w3.org/2000/svg" xmlns:xlink="http://www.w3.org/1999/xlink">
<g id="graph0" class="graph" transform="scale(1 1) rotate(0) translate(4 207)">
<title>dependencies</title>
<polygon fill="#ffffff" stroke="transparent" points="-4,4 -4,-207 500,-207 500,4 -4,4"/>
<text text-anchor="start" x="227.0091" y="-42.4" font-family="sans-serif" font-weight="bold" font-size="14.00" fill="#000000">Legend</text>
<polygon fill="#ffffb3" stroke="transparent" points="14,-10 14,-30 34,-30 34,-10 14,-10"/>
<text text-anchor="start" x="37.629" y="-15.4" font-family="sans-serif" font-size="14.00" fill="#000000"> &#160;Declarations</text>
<polygon fill="#8dd3c7" stroke="transparent" points="127,-10 127,-30 147,-30 147,-10 127,-10"/>
<text text-anchor="start" x="150.7251" y="-15.4" font-family="sans-serif" font-size="14.00" fill="#000000"> &#160;Module</text>
<polygon fill="#80b1d3" stroke="transparent" points="213,-10 213,-30 233,-30 233,-10 213,-10"/>
<text text-anchor="start" x="236.7812" y="-15.4" font-family="sans-serif" font-size="14.00" fill="#000000"> &#160;Bootstrap</text>
<polygon fill="#fdb462" stroke="transparent" points="310,-10 310,-30 330,-30 330,-10 310,-10"/>
<text text-anchor="start" x="333.6732" y="-15.4" font-family="sans-serif" font-size="14.00" fill="#000000"> &#160;Providers</text>
<polygon fill="#fb8072" stroke="transparent" points="406,-10 406,-30 426,-30 426,-10 406,-10"/>
<text text-anchor="start" x="429.7258" y="-15.4" font-family="sans-serif" font-size="14.00" fill="#000000"> &#160;Exports</text>
<g id="clust1" class="cluster">
<title>cluster_EntityModule</title>
<polygon fill="none" stroke="#000000" stroke-dasharray="1,5" points="35,-70 35,-195 461,-195 461,-70 35,-70"/>
</g>
<g id="clust6" class="cluster">
<title>cluster_EntityModule_providers</title>
<polygon fill="none" stroke="#000000" points="43,-78 43,-130 453,-130 453,-78 43,-78"/>
</g>
<!-- EntityMapperService -->
<g id="node1" class="node">
<title>EntityMapperService</title>
<ellipse fill="#fdb462" stroke="#000000" cx="351" cy="-104" rx="93.7572" ry="18"/>
<text text-anchor="middle" x="351" y="-99.8" font-family="Times,serif" font-size="14.00" fill="#000000">EntityMapperService</text>
</g>
<!-- EntityModule -->
<g id="node3" class="node">
<title>EntityModule</title>
<polygon fill="#8dd3c7" stroke="#000000" points="294.7745,-187 291.7745,-191 270.7745,-191 267.7745,-187 201.2255,-187 201.2255,-151 294.7745,-151 294.7745,-187"/>
<text text-anchor="middle" x="248" y="-164.8" font-family="Times,serif" font-size="14.00" fill="#000000">EntityModule</text>
</g>
<!-- EntityMapperService&#45;&gt;EntityModule -->
<g id="edge1" class="edge">
<title>EntityMapperService&#45;&gt;EntityModule</title>
<path fill="none" stroke="#000000" d="M276.1293,-115.0264C276.1293,-115.0264 276.1293,-140.7791 276.1293,-140.7791"/>
<polygon fill="#000000" stroke="#000000" points="272.6294,-140.779 276.1293,-150.7791 279.6294,-140.7791 272.6294,-140.779"/>
</g>
<!-- EntitySchemaService -->
<g id="node2" class="node">
<title>EntitySchemaService</title>
<ellipse fill="#fdb462" stroke="#000000" cx="145" cy="-104" rx="94.3369" ry="18"/>
<text text-anchor="middle" x="145" y="-99.8" font-family="Times,serif" font-size="14.00" fill="#000000">EntitySchemaService</text>
</g>
<!-- EntitySchemaService&#45;&gt;EntityModule -->
<g id="edge2" class="edge">
<title>EntitySchemaService&#45;&gt;EntityModule</title>
<path fill="none" stroke="#000000" d="M220.1406,-115.0264C220.1406,-115.0264 220.1406,-140.7791 220.1406,-140.7791"/>
<polygon fill="#000000" stroke="#000000" points="216.6407,-140.779 220.1406,-150.7791 223.6407,-140.7791 216.6407,-140.779"/>
</g>
</g>
</svg>
