<?xml version="1.0" encoding="UTF-8" standalone="no"?>
<!DOCTYPE svg PUBLIC "-//W3C//DTD SVG 1.1//EN"
 "http://www.w3.org/Graphics/SVG/1.1/DTD/svg11.dtd">
<!-- Generated by graphviz version 2.40.1 (20161225.0304)
 -->
<!-- Title: dependencies Pages: 1 -->
<svg width="896pt" height="284pt"
 viewBox="0.00 0.00 896.00 284.00" xmlns="http://www.w3.org/2000/svg" xmlns:xlink="http://www.w3.org/1999/xlink">
<g id="graph0" class="graph" transform="scale(1 1) rotate(0) translate(4 280)">
<title>dependencies</title>
<polygon fill="#ffffff" stroke="transparent" points="-4,4 -4,-280 892,-280 892,4 -4,4"/>
<text text-anchor="start" x="423.0091" y="-42.4" font-family="sans-serif" font-weight="bold" font-size="14.00" fill="#000000">Legend</text>
<polygon fill="#ffffb3" stroke="transparent" points="210,-10 210,-30 230,-30 230,-10 210,-10"/>
<text text-anchor="start" x="233.629" y="-15.4" font-family="sans-serif" font-size="14.00" fill="#000000"> &#160;Declarations</text>
<polygon fill="#8dd3c7" stroke="transparent" points="323,-10 323,-30 343,-30 343,-10 323,-10"/>
<text text-anchor="start" x="346.7251" y="-15.4" font-family="sans-serif" font-size="14.00" fill="#000000"> &#160;Module</text>
<polygon fill="#80b1d3" stroke="transparent" points="409,-10 409,-30 429,-30 429,-10 409,-10"/>
<text text-anchor="start" x="432.7812" y="-15.4" font-family="sans-serif" font-size="14.00" fill="#000000"> &#160;Bootstrap</text>
<polygon fill="#fdb462" stroke="transparent" points="506,-10 506,-30 526,-30 526,-10 506,-10"/>
<text text-anchor="start" x="529.6732" y="-15.4" font-family="sans-serif" font-size="14.00" fill="#000000"> &#160;Providers</text>
<polygon fill="#fb8072" stroke="transparent" points="602,-10 602,-30 622,-30 622,-10 602,-10"/>
<text text-anchor="start" x="625.7258" y="-15.4" font-family="sans-serif" font-size="14.00" fill="#000000"> &#160;Exports</text>
<g id="clust1" class="cluster">
<title>cluster_SchoolsModule</title>
<polygon fill="none" stroke="#000000" stroke-dasharray="1,5" points="8,-70 8,-268 880,-268 880,-70 8,-70"/>
</g>
<g id="clust2" class="cluster">
<title>cluster_SchoolsModule_declarations</title>
<polygon fill="none" stroke="#000000" points="358,-78 358,-130 872,-130 872,-78 358,-78"/>
</g>
<g id="clust6" class="cluster">
<title>cluster_SchoolsModule_imports</title>
<polygon fill="none" stroke="#000000" points="182,-78 182,-130 350,-130 350,-78 182,-78"/>
</g>
<g id="clust7" class="cluster">
<title>cluster_SchoolsModule_exports</title>
<polygon fill="none" stroke="#000000" points="353,-208 353,-260 527,-260 527,-208 353,-208"/>
</g>
<g id="clust9" class="cluster">
<title>cluster_SchoolsModule_providers</title>
<polygon fill="none" stroke="#000000" points="16,-78 16,-130 174,-130 174,-78 16,-78"/>
</g>
<!-- SchoolBlockComponent -->
<g id="node1" class="node">
<title>SchoolBlockComponent</title>
<polygon fill="#ffffb3" stroke="#000000" points="863.6624,-122 710.3376,-122 710.3376,-86 863.6624,-86 863.6624,-122"/>
<text text-anchor="middle" x="787" y="-99.8" font-family="Times,serif" font-size="14.00" fill="#000000">SchoolBlockComponent</text>
</g>
<!-- SchoolsModule -->
<g id="node4" class="node">
<title>SchoolsModule</title>
<polygon fill="#8dd3c7" stroke="#000000" points="491.8823,-187 488.8823,-191 467.8823,-191 464.8823,-187 388.1177,-187 388.1177,-151 491.8823,-151 491.8823,-187"/>
<text text-anchor="middle" x="440" y="-164.8" font-family="Times,serif" font-size="14.00" fill="#000000">SchoolsModule</text>
</g>
<!-- SchoolBlockComponent&#45;&gt;SchoolsModule -->
<g id="edge1" class="edge">
<title>SchoolBlockComponent&#45;&gt;SchoolsModule</title>
<path fill="none" stroke="#000000" d="M787,-122.2843C787,-143.3211 787,-175 787,-175 787,-175 501.9494,-175 501.9494,-175"/>
<polygon fill="#000000" stroke="#000000" points="501.9494,-171.5001 491.9494,-175 501.9494,-178.5001 501.9494,-171.5001"/>
</g>
<!-- SchoolDetailsComponent -->
<g id="node2" class="node">
<title>SchoolDetailsComponent</title>
<polygon fill="#ffffb3" stroke="#000000" points="691.8725,-122 532.1275,-122 532.1275,-86 691.8725,-86 691.8725,-122"/>
<text text-anchor="middle" x="612" y="-99.8" font-family="Times,serif" font-size="14.00" fill="#000000">SchoolDetailsComponent</text>
</g>
<!-- SchoolDetailsComponent&#45;&gt;SchoolsModule -->
<g id="edge2" class="edge">
<title>SchoolDetailsComponent&#45;&gt;SchoolsModule</title>
<path fill="none" stroke="#000000" d="M612,-122.0225C612,-139.3734 612,-163 612,-163 612,-163 502.0724,-163 502.0724,-163"/>
<polygon fill="#000000" stroke="#000000" points="502.0725,-159.5001 492.0724,-163 502.0724,-166.5001 502.0725,-159.5001"/>
</g>
<!-- SchoolsListComponent -->
<g id="node3" class="node">
<title>SchoolsListComponent</title>
<polygon fill="#ffffb3" stroke="#000000" points="513.9439,-122 366.0561,-122 366.0561,-86 513.9439,-86 513.9439,-122"/>
<text text-anchor="middle" x="440" y="-99.8" font-family="Times,serif" font-size="14.00" fill="#000000">SchoolsListComponent</text>
</g>
<!-- SchoolsListComponent&#45;&gt;SchoolsModule -->
<g id="edge3" class="edge">
<title>SchoolsListComponent&#45;&gt;SchoolsModule</title>
<path fill="none" stroke="#000000" d="M440,-122.1061C440,-122.1061 440,-140.991 440,-140.991"/>
<polygon fill="#000000" stroke="#000000" points="436.5001,-140.9909 440,-150.991 443.5001,-140.991 436.5001,-140.9909"/>
</g>
<!-- SchoolBlockComponent  -->
<g id="node6" class="node">
<title>SchoolBlockComponent </title>
<polygon fill="#fb8072" stroke="#000000" points="518.6621,-252 361.3379,-252 361.3379,-216 518.6621,-216 518.6621,-252"/>
<text text-anchor="middle" x="440" y="-229.8" font-family="Times,serif" font-size="14.00" fill="#000000">SchoolBlockComponent </text>
</g>
<!-- SchoolsModule&#45;&gt;SchoolBlockComponent  -->
<g id="edge5" class="edge">
<title>SchoolsModule&#45;&gt;SchoolBlockComponent </title>
<path fill="none" stroke="#000000" stroke-dasharray="5,2" d="M440,-187.1061C440,-187.1061 440,-205.991 440,-205.991"/>
<polygon fill="#000000" stroke="#000000" points="436.5001,-205.9909 440,-215.991 443.5001,-205.991 436.5001,-205.9909"/>
</g>
<!-- EntitySubrecordModule -->
<g id="node5" class="node">
<title>EntitySubrecordModule</title>
<polygon fill="#8dd3c7" stroke="#000000" points="341.8075,-122 338.8075,-126 317.8075,-126 314.8075,-122 190.1925,-122 190.1925,-86 341.8075,-86 341.8075,-122"/>
<text text-anchor="middle" x="266" y="-99.8" font-family="Times,serif" font-size="14.00" fill="#000000">EntitySubrecordModule</text>
</g>
<!-- EntitySubrecordModule&#45;&gt;SchoolsModule -->
<g id="edge4" class="edge">
<title>EntitySubrecordModule&#45;&gt;SchoolsModule</title>
<path fill="none" stroke="#000000" d="M266,-122.0225C266,-139.3734 266,-163 266,-163 266,-163 377.7943,-163 377.7943,-163"/>
<polygon fill="#000000" stroke="#000000" points="377.7943,-166.5001 387.7943,-163 377.7942,-159.5001 377.7943,-166.5001"/>
</g>
<!-- SchoolsService -->
<g id="node7" class="node">
<title>SchoolsService</title>
<ellipse fill="#fdb462" stroke="#000000" cx="95" cy="-104" rx="70.6432" ry="18"/>
<text text-anchor="middle" x="95" y="-99.8" font-family="Times,serif" font-size="14.00" fill="#000000">SchoolsService</text>
</g>
<!-- SchoolsService&#45;&gt;SchoolsModule -->
<g id="edge6" class="edge">
<title>SchoolsService&#45;&gt;SchoolsModule</title>
<path fill="none" stroke="#000000" d="M95,-122.2843C95,-143.3211 95,-175 95,-175 95,-175 377.9765,-175 377.9765,-175"/>
<polygon fill="#000000" stroke="#000000" points="377.9765,-178.5001 387.9765,-175 377.9764,-171.5001 377.9765,-178.5001"/>
</g>
</g>
</svg>
