<?xml version="1.0" encoding="UTF-8" standalone="no"?>
<!DOCTYPE svg PUBLIC "-//W3C//DTD SVG 1.1//EN"
 "http://www.w3.org/Graphics/SVG/1.1/DTD/svg11.dtd">
<!-- Generated by graphviz version 2.44.1 (20200629.0846)
 -->
<!-- Title: dependencies Pages: 1 -->
<svg width="504pt" height="211pt"
 viewBox="0.00 0.00 504.00 211.00" xmlns="http://www.w3.org/2000/svg" xmlns:xlink="http://www.w3.org/1999/xlink">
<g id="graph0" class="graph" transform="scale(1 1) rotate(0) translate(4 207)">
<title>dependencies</title>
<polygon fill="white" stroke="transparent" points="-4,4 -4,-207 500,-207 500,4 -4,4"/>
<text text-anchor="start" x="227.01" y="-42.4" font-family="sans-serif" font-weight="bold" font-size="14.00">Legend</text>
<polygon fill="#ffffb3" stroke="transparent" points="14,-10 14,-30 34,-30 34,-10 14,-10"/>
<text text-anchor="start" x="37.63" y="-15.4" font-family="sans-serif" font-size="14.00"> &#160;Declarations</text>
<polygon fill="#8dd3c7" stroke="transparent" points="127,-10 127,-30 147,-30 147,-10 127,-10"/>
<text text-anchor="start" x="150.73" y="-15.4" font-family="sans-serif" font-size="14.00"> &#160;Module</text>
<polygon fill="#80b1d3" stroke="transparent" points="213,-10 213,-30 233,-30 233,-10 213,-10"/>
<text text-anchor="start" x="236.78" y="-15.4" font-family="sans-serif" font-size="14.00"> &#160;Bootstrap</text>
<polygon fill="#fdb462" stroke="transparent" points="310,-10 310,-30 330,-30 330,-10 310,-10"/>
<text text-anchor="start" x="333.67" y="-15.4" font-family="sans-serif" font-size="14.00"> &#160;Providers</text>
<polygon fill="#fb8072" stroke="transparent" points="406,-10 406,-30 426,-30 426,-10 406,-10"/>
<text text-anchor="start" x="429.73" y="-15.4" font-family="sans-serif" font-size="14.00"> &#160;Exports</text>
<g id="clust1" class="cluster">
<title>cluster_ProgressDashboardWidgetModule</title>
<polygon fill="none" stroke="black" stroke-dasharray="1,5" points="71,-70 71,-195 425,-195 425,-70 71,-70"/>
</g>
<g id="clust2" class="cluster">
<title>cluster_ProgressDashboardWidgetModule_declarations</title>
<polygon fill="none" stroke="black" points="211,-78 211,-130 417,-130 417,-78 211,-78"/>
</g>
<g id="clust4" class="cluster">
<title>cluster_ProgressDashboardWidgetModule_imports</title>
<polygon fill="none" stroke="black" points="79,-78 79,-130 203,-130 203,-78 79,-78"/>
</g>
<!-- ProgressDashboardComponent -->
<g id="node1" class="node">
<title>ProgressDashboardComponent</title>
<polygon fill="#ffffb3" stroke="black" points="409.18,-122 218.82,-122 218.82,-86 409.18,-86 409.18,-122"/>
<text text-anchor="middle" x="314" y="-99.8" font-family="Times,serif" font-size="14.00">ProgressDashboardComponent</text>
</g>
<!-- ProgressDashboardWidgetModule -->
<g id="node2" class="node">
<title>ProgressDashboardWidgetModule</title>
<polygon fill="#8dd3c7" stroke="black" points="352.61,-187 349.61,-191 328.61,-191 325.61,-187 143.39,-187 143.39,-151 352.61,-151 352.61,-187"/>
<text text-anchor="middle" x="248" y="-164.8" font-family="Times,serif" font-size="14.00">ProgressDashboardWidgetModule</text>
</g>
<!-- ProgressDashboardComponent&#45;&gt;ProgressDashboardWidgetModule -->
<g id="edge1" class="edge">
<title>ProgressDashboardComponent&#45;&gt;ProgressDashboardWidgetModule</title>
<path fill="none" stroke="black" d="M285.86,-122.11C285.86,-122.11 285.86,-140.99 285.86,-140.99"/>
<polygon fill="black" stroke="black" points="282.36,-140.99 285.86,-150.99 289.36,-140.99 282.36,-140.99"/>
</g>
<!-- ChildrenModule -->
<g id="node3" class="node">
<title>ChildrenModule</title>
<polygon fill="#8dd3c7" stroke="black" points="195.04,-122 192.04,-126 171.04,-126 168.04,-122 86.96,-122 86.96,-86 195.04,-86 195.04,-122"/>
<text text-anchor="middle" x="141" y="-99.8" font-family="Times,serif" font-size="14.00">ChildrenModule</text>
</g>
<!-- ChildrenModule&#45;&gt;ProgressDashboardWidgetModule -->
<g id="edge2" class="edge">
<title>ChildrenModule&#45;&gt;ProgressDashboardWidgetModule</title>
<path fill="none" stroke="black" d="M169.23,-122.11C169.23,-122.11 169.23,-140.99 169.23,-140.99"/>
<polygon fill="black" stroke="black" points="165.73,-140.99 169.23,-150.99 172.73,-140.99 165.73,-140.99"/>
</g>
</g>
</svg>
