<?xml version="1.0" encoding="UTF-8" standalone="no"?>
<!DOCTYPE svg PUBLIC "-//W3C//DTD SVG 1.1//EN"
 "http://www.w3.org/Graphics/SVG/1.1/DTD/svg11.dtd">
<!-- Generated by graphviz version 2.44.1 (20200629.0846)
 -->
<!-- Title: dependencies Pages: 1 -->
<svg width="896pt" height="284pt"
 viewBox="0.00 0.00 896.00 284.00" xmlns="http://www.w3.org/2000/svg" xmlns:xlink="http://www.w3.org/1999/xlink">
<g id="graph0" class="graph" transform="scale(1 1) rotate(0) translate(4 280)">
<title>dependencies</title>
<polygon fill="white" stroke="transparent" points="-4,4 -4,-280 892,-280 892,4 -4,4"/>
<text text-anchor="start" x="423.01" y="-42.4" font-family="sans-serif" font-weight="bold" font-size="14.00">Legend</text>
<polygon fill="#ffffb3" stroke="transparent" points="210,-10 210,-30 230,-30 230,-10 210,-10"/>
<text text-anchor="start" x="233.63" y="-15.4" font-family="sans-serif" font-size="14.00"> &#160;Declarations</text>
<polygon fill="#8dd3c7" stroke="transparent" points="323,-10 323,-30 343,-30 343,-10 323,-10"/>
<text text-anchor="start" x="346.73" y="-15.4" font-family="sans-serif" font-size="14.00"> &#160;Module</text>
<polygon fill="#80b1d3" stroke="transparent" points="409,-10 409,-30 429,-30 429,-10 409,-10"/>
<text text-anchor="start" x="432.78" y="-15.4" font-family="sans-serif" font-size="14.00"> &#160;Bootstrap</text>
<polygon fill="#fdb462" stroke="transparent" points="506,-10 506,-30 526,-30 526,-10 506,-10"/>
<text text-anchor="start" x="529.67" y="-15.4" font-family="sans-serif" font-size="14.00"> &#160;Providers</text>
<polygon fill="#fb8072" stroke="transparent" points="602,-10 602,-30 622,-30 622,-10 602,-10"/>
<text text-anchor="start" x="625.73" y="-15.4" font-family="sans-serif" font-size="14.00"> &#160;Exports</text>
<g id="clust1" class="cluster">
<title>cluster_SchoolsModule</title>
<polygon fill="none" stroke="black" stroke-dasharray="1,5" points="8,-70 8,-268 880,-268 880,-70 8,-70"/>
</g>
<g id="clust6" class="cluster">
<title>cluster_SchoolsModule_imports</title>
<polygon fill="none" stroke="black" points="704,-78 704,-130 872,-130 872,-78 704,-78"/>
</g>
<g id="clust9" class="cluster">
<title>cluster_SchoolsModule_providers</title>
<polygon fill="none" stroke="black" points="538,-78 538,-130 696,-130 696,-78 538,-78"/>
</g>
<g id="clust2" class="cluster">
<title>cluster_SchoolsModule_declarations</title>
<polygon fill="none" stroke="black" points="16,-78 16,-130 530,-130 530,-78 16,-78"/>
</g>
<g id="clust7" class="cluster">
<title>cluster_SchoolsModule_exports</title>
<polygon fill="none" stroke="black" points="358,-208 358,-260 532,-260 532,-208 358,-208"/>
</g>
<!-- SchoolBlockComponent -->
<g id="node1" class="node">
<title>SchoolBlockComponent</title>
<polygon fill="#ffffb3" stroke="black" points="521.66,-122 368.34,-122 368.34,-86 521.66,-86 521.66,-122"/>
<text text-anchor="middle" x="445" y="-99.8" font-family="Times,serif" font-size="14.00">SchoolBlockComponent</text>
</g>
<!-- SchoolsModule -->
<g id="node4" class="node">
<title>SchoolsModule</title>
<polygon fill="#8dd3c7" stroke="black" points="496.88,-187 493.88,-191 472.88,-191 469.88,-187 393.12,-187 393.12,-151 496.88,-151 496.88,-187"/>
<text text-anchor="middle" x="445" y="-164.8" font-family="Times,serif" font-size="14.00">SchoolsModule</text>
</g>
<!-- SchoolBlockComponent&#45;&gt;SchoolsModule -->
<g id="edge1" class="edge">
<title>SchoolBlockComponent&#45;&gt;SchoolsModule</title>
<path fill="none" stroke="black" d="M445,-122.11C445,-122.11 445,-140.99 445,-140.99"/>
<polygon fill="black" stroke="black" points="441.5,-140.99 445,-150.99 448.5,-140.99 441.5,-140.99"/>
</g>
<!-- SchoolDetailsComponent -->
<g id="node2" class="node">
<title>SchoolDetailsComponent</title>
<polygon fill="#ffffb3" stroke="black" points="349.87,-122 190.13,-122 190.13,-86 349.87,-86 349.87,-122"/>
<text text-anchor="middle" x="270" y="-99.8" font-family="Times,serif" font-size="14.00">SchoolDetailsComponent</text>
</g>
<!-- SchoolDetailsComponent&#45;&gt;SchoolsModule -->
<g id="edge2" class="edge">
<title>SchoolDetailsComponent&#45;&gt;SchoolsModule</title>
<path fill="none" stroke="black" d="M270,-122.02C270,-139.37 270,-163 270,-163 270,-163 382.97,-163 382.97,-163"/>
<polygon fill="black" stroke="black" points="382.97,-166.5 392.97,-163 382.97,-159.5 382.97,-166.5"/>
</g>
<!-- SchoolsListComponent -->
<g id="node3" class="node">
<title>SchoolsListComponent</title>
<polygon fill="#ffffb3" stroke="black" points="171.94,-122 24.06,-122 24.06,-86 171.94,-86 171.94,-122"/>
<text text-anchor="middle" x="98" y="-99.8" font-family="Times,serif" font-size="14.00">SchoolsListComponent</text>
</g>
<!-- SchoolsListComponent&#45;&gt;SchoolsModule -->
<g id="edge3" class="edge">
<title>SchoolsListComponent&#45;&gt;SchoolsModule</title>
<path fill="none" stroke="black" d="M98,-122.28C98,-143.32 98,-175 98,-175 98,-175 383.05,-175 383.05,-175"/>
<polygon fill="black" stroke="black" points="383.05,-178.5 393.05,-175 383.05,-171.5 383.05,-178.5"/>
</g>
<!-- SchoolBlockComponent  -->
<g id="node6" class="node">
<title>SchoolBlockComponent </title>
<polygon fill="#fb8072" stroke="black" points="523.66,-252 366.34,-252 366.34,-216 523.66,-216 523.66,-252"/>
<text text-anchor="middle" x="445" y="-229.8" font-family="Times,serif" font-size="14.00">SchoolBlockComponent </text>
</g>
<!-- SchoolsModule&#45;&gt;SchoolBlockComponent  -->
<g id="edge5" class="edge">
<title>SchoolsModule&#45;&gt;SchoolBlockComponent </title>
<path fill="none" stroke="black" stroke-dasharray="5,2" d="M445,-187.11C445,-187.11 445,-205.99 445,-205.99"/>
<polygon fill="black" stroke="black" points="441.5,-205.99 445,-215.99 448.5,-205.99 441.5,-205.99"/>
</g>
<!-- EntitySubrecordModule -->
<g id="node5" class="node">
<title>EntitySubrecordModule</title>
<polygon fill="#8dd3c7" stroke="black" points="863.81,-122 860.81,-126 839.81,-126 836.81,-122 712.19,-122 712.19,-86 863.81,-86 863.81,-122"/>
<text text-anchor="middle" x="788" y="-99.8" font-family="Times,serif" font-size="14.00">EntitySubrecordModule</text>
</g>
<!-- EntitySubrecordModule&#45;&gt;SchoolsModule -->
<g id="edge4" class="edge">
<title>EntitySubrecordModule&#45;&gt;SchoolsModule</title>
<path fill="none" stroke="black" d="M788,-122.28C788,-143.32 788,-175 788,-175 788,-175 507.09,-175 507.09,-175"/>
<polygon fill="black" stroke="black" points="507.09,-171.5 497.09,-175 507.09,-178.5 507.09,-171.5"/>
</g>
<!-- SchoolsService -->
<g id="node7" class="node">
<title>SchoolsService</title>
<ellipse fill="#fdb462" stroke="black" cx="617" cy="-104" rx="70.64" ry="18"/>
<text text-anchor="middle" x="617" y="-99.8" font-family="Times,serif" font-size="14.00">SchoolsService</text>
</g>
<!-- SchoolsService&#45;&gt;SchoolsModule -->
<g id="edge6" class="edge">
<title>SchoolsService&#45;&gt;SchoolsModule</title>
<path fill="none" stroke="black" d="M617,-122.02C617,-139.37 617,-163 617,-163 617,-163 507.07,-163 507.07,-163"/>
<polygon fill="black" stroke="black" points="507.07,-159.5 497.07,-163 507.07,-166.5 507.07,-159.5"/>
</g>
</g>
</svg>
