<?xml version="1.0" encoding="UTF-8" standalone="no"?>
<!DOCTYPE svg PUBLIC "-//W3C//DTD SVG 1.1//EN"
 "http://www.w3.org/Graphics/SVG/1.1/DTD/svg11.dtd">
<!-- Generated by graphviz version 2.40.1 (20161225.0304)
 -->
<!-- Title: dependencies Pages: 1 -->
<svg width="2165pt" height="284pt"
 viewBox="0.00 0.00 2165.00 284.00" xmlns="http://www.w3.org/2000/svg" xmlns:xlink="http://www.w3.org/1999/xlink">
<g id="graph0" class="graph" transform="scale(1 1) rotate(0) translate(4 280)">
<title>dependencies</title>
<polygon fill="#ffffff" stroke="transparent" points="-4,4 -4,-280 2161,-280 2161,4 -4,4"/>
<text text-anchor="start" x="1057.5091" y="-42.4" font-family="sans-serif" font-weight="bold" font-size="14.00" fill="#000000">Legend</text>
<polygon fill="#ffffb3" stroke="transparent" points="844.5,-10 844.5,-30 864.5,-30 864.5,-10 844.5,-10"/>
<text text-anchor="start" x="868.129" y="-15.4" font-family="sans-serif" font-size="14.00" fill="#000000"> &#160;Declarations</text>
<polygon fill="#8dd3c7" stroke="transparent" points="957.5,-10 957.5,-30 977.5,-30 977.5,-10 957.5,-10"/>
<text text-anchor="start" x="981.2251" y="-15.4" font-family="sans-serif" font-size="14.00" fill="#000000"> &#160;Module</text>
<polygon fill="#80b1d3" stroke="transparent" points="1043.5,-10 1043.5,-30 1063.5,-30 1063.5,-10 1043.5,-10"/>
<text text-anchor="start" x="1067.2812" y="-15.4" font-family="sans-serif" font-size="14.00" fill="#000000"> &#160;Bootstrap</text>
<polygon fill="#fdb462" stroke="transparent" points="1140.5,-10 1140.5,-30 1160.5,-30 1160.5,-10 1140.5,-10"/>
<text text-anchor="start" x="1164.1732" y="-15.4" font-family="sans-serif" font-size="14.00" fill="#000000"> &#160;Providers</text>
<polygon fill="#fb8072" stroke="transparent" points="1236.5,-10 1236.5,-30 1256.5,-30 1256.5,-10 1236.5,-10"/>
<text text-anchor="start" x="1260.2258" y="-15.4" font-family="sans-serif" font-size="14.00" fill="#000000"> &#160;Exports</text>
<g id="clust1" class="cluster">
<title>cluster_AppModule</title>
<polygon fill="none" stroke="#000000" stroke-dasharray="1,5" points="8,-70 8,-268 2149,-268 2149,-70 8,-70"/>
</g>
<g id="clust2" class="cluster">
<title>cluster_AppModule_declarations</title>
<polygon fill="none" stroke="#000000" points="2019,-78 2019,-130 2141,-130 2141,-78 2019,-78"/>
</g>
<g id="clust4" class="cluster">
<title>cluster_AppModule_imports</title>
<polygon fill="none" stroke="#000000" points="148,-78 148,-130 2011,-130 2011,-78 148,-78"/>
</g>
<g id="clust6" class="cluster">
<title>cluster_AppModule_bootstrap</title>
<polygon fill="none" stroke="#000000" points="1015,-208 1015,-260 1139,-260 1139,-208 1015,-208"/>
</g>
<g id="clust7" class="cluster">
<title>cluster_AppModule_providers</title>
<polygon fill="none" stroke="#000000" points="16,-78 16,-130 140,-130 140,-78 16,-78"/>
</g>
<!-- AppComponent -->
<g id="node1" class="node">
<title>AppComponent</title>
<polygon fill="#ffffb3" stroke="#000000" points="2132.9399,-122 2027.0601,-122 2027.0601,-86 2132.9399,-86 2132.9399,-122"/>
<text text-anchor="middle" x="2080" y="-99.8" font-family="Times,serif" font-size="14.00" fill="#000000">AppComponent</text>
</g>
<!-- AppModule -->
<g id="node2" class="node">
<title>AppModule</title>
<polygon fill="#8dd3c7" stroke="#000000" points="1118.6571,-187 1115.6571,-191 1094.6571,-191 1091.6571,-187 1035.3429,-187 1035.3429,-151 1118.6571,-151 1118.6571,-187"/>
<text text-anchor="middle" x="1077" y="-164.8" font-family="Times,serif" font-size="14.00" fill="#000000">AppModule</text>
</g>
<!-- AppComponent&#45;&gt;AppModule -->
<g id="edge1" class="edge">
<title>AppComponent&#45;&gt;AppModule</title>
<path fill="none" stroke="#000000" d="M2080,-122.3228C2080,-145.6602 2080,-183 2080,-183 2080,-183 1128.8207,-183 1128.8207,-183"/>
<polygon fill="#000000" stroke="#000000" points="1128.8207,-179.5001 1118.8207,-183 1128.8207,-186.5001 1128.8207,-179.5001"/>
</g>
<!-- AppComponent  -->
<g id="node18" class="node">
<title>AppComponent </title>
<polygon fill="#80b1d3" stroke="#000000" points="1131.439,-252 1022.561,-252 1022.561,-216 1131.439,-216 1131.439,-252"/>
<text text-anchor="middle" x="1077" y="-229.8" font-family="Times,serif" font-size="14.00" fill="#000000">AppComponent </text>
</g>
<!-- AppModule&#45;&gt;AppComponent  -->
<g id="edge17" class="edge">
<title>AppModule&#45;&gt;AppComponent </title>
<path fill="none" stroke="#000000" stroke-dasharray="1,5" d="M1077,-187.1061C1077,-187.1061 1077,-205.991 1077,-205.991"/>
<polygon fill="#000000" stroke="#000000" points="1073.5001,-205.9909 1077,-215.991 1080.5001,-205.991 1073.5001,-205.9909"/>
</g>
<!-- AdminModule -->
<g id="node3" class="node">
<title>AdminModule</title>
<polygon fill="#8dd3c7" stroke="#000000" points="2003.4386,-122 2000.4386,-126 1979.4386,-126 1976.4386,-122 1904.5614,-122 1904.5614,-86 2003.4386,-86 2003.4386,-122"/>
<text text-anchor="middle" x="1954" y="-99.8" font-family="Times,serif" font-size="14.00" fill="#000000">AdminModule</text>
</g>
<!-- AdminModule&#45;&gt;AppModule -->
<g id="edge2" class="edge">
<title>AdminModule&#45;&gt;AppModule</title>
<path fill="none" stroke="#000000" d="M1954,-122.1554C1954,-144.3519 1954,-179 1954,-179 1954,-179 1128.7095,-179 1128.7095,-179"/>
<polygon fill="#000000" stroke="#000000" points="1128.7096,-175.5001 1118.7095,-179 1128.7095,-182.5001 1128.7096,-175.5001"/>
</g>
<!-- AlertsModule -->
<g id="node4" class="node">
<title>AlertsModule</title>
<polygon fill="#8dd3c7" stroke="#000000" points="1886.7577,-122 1883.7577,-126 1862.7577,-126 1859.7577,-122 1793.2423,-122 1793.2423,-86 1886.7577,-86 1886.7577,-122"/>
<text text-anchor="middle" x="1840" y="-99.8" font-family="Times,serif" font-size="14.00" fill="#000000">AlertsModule</text>
</g>
<!-- AlertsModule&#45;&gt;AppModule -->
<g id="edge3" class="edge">
<title>AlertsModule&#45;&gt;AppModule</title>
<path fill="none" stroke="#000000" d="M1840,-122.2843C1840,-143.3211 1840,-175 1840,-175 1840,-175 1128.8361,-175 1128.8361,-175"/>
<polygon fill="#000000" stroke="#000000" points="1128.8362,-171.5001 1118.8361,-175 1128.8361,-178.5001 1128.8362,-171.5001"/>
</g>
<!-- AppConfigModule -->
<g id="node5" class="node">
<title>AppConfigModule</title>
<polygon fill="#8dd3c7" stroke="#000000" points="1775.045,-122 1772.045,-126 1751.045,-126 1748.045,-122 1652.955,-122 1652.955,-86 1775.045,-86 1775.045,-122"/>
<text text-anchor="middle" x="1714" y="-99.8" font-family="Times,serif" font-size="14.00" fill="#000000">AppConfigModule</text>
</g>
<!-- AppConfigModule&#45;&gt;AppModule -->
<g id="edge4" class="edge">
<title>AppConfigModule&#45;&gt;AppModule</title>
<path fill="none" stroke="#000000" d="M1714,-122.308C1714,-142.1455 1714,-171 1714,-171 1714,-171 1128.7953,-171 1128.7953,-171"/>
<polygon fill="#000000" stroke="#000000" points="1128.7954,-167.5001 1118.7953,-171 1128.7953,-174.5001 1128.7954,-167.5001"/>
</g>
<!-- ChildrenModule -->
<g id="node6" class="node">
<title>ChildrenModule</title>
<polygon fill="#8dd3c7" stroke="#000000" points="1634.0438,-122 1631.0438,-126 1610.0438,-126 1607.0438,-122 1525.9562,-122 1525.9562,-86 1634.0438,-86 1634.0438,-122"/>
<text text-anchor="middle" x="1580" y="-99.8" font-family="Times,serif" font-size="14.00" fill="#000000">ChildrenModule</text>
</g>
<!-- ChildrenModule&#45;&gt;AppModule -->
<g id="edge5" class="edge">
<title>ChildrenModule&#45;&gt;AppModule</title>
<path fill="none" stroke="#000000" d="M1580,-122.2222C1580,-140.8285 1580,-167 1580,-167 1580,-167 1129.0203,-167 1129.0203,-167"/>
<polygon fill="#000000" stroke="#000000" points="1129.0204,-163.5001 1119.0203,-167 1129.0203,-170.5001 1129.0204,-163.5001"/>
</g>
<!-- DashboardModule -->
<g id="node7" class="node">
<title>DashboardModule</title>
<polygon fill="#8dd3c7" stroke="#000000" points="1508.191,-122 1505.191,-126 1484.191,-126 1481.191,-122 1387.809,-122 1387.809,-86 1508.191,-86 1508.191,-122"/>
<text text-anchor="middle" x="1448" y="-99.8" font-family="Times,serif" font-size="14.00" fill="#000000">DashboardModule</text>
</g>
<!-- DashboardModule&#45;&gt;AppModule -->
<g id="edge6" class="edge">
<title>DashboardModule&#45;&gt;AppModule</title>
<path fill="none" stroke="#000000" d="M1448,-122.0225C1448,-139.3734 1448,-163 1448,-163 1448,-163 1128.8372,-163 1128.8372,-163"/>
<polygon fill="#000000" stroke="#000000" points="1128.8373,-159.5001 1118.8372,-163 1128.8372,-166.5001 1128.8373,-159.5001"/>
</g>
<!-- DemoDataModule -->
<g id="node8" class="node">
<title>DemoDataModule</title>
<polygon fill="#8dd3c7" stroke="#000000" points="1370.1881,-122 1367.1881,-126 1346.1881,-126 1343.1881,-122 1249.8119,-122 1249.8119,-86 1370.1881,-86 1370.1881,-122"/>
<text text-anchor="middle" x="1310" y="-99.8" font-family="Times,serif" font-size="14.00" fill="#000000">DemoDataModule</text>
</g>
<!-- DemoDataModule&#45;&gt;AppModule -->
<g id="edge7" class="edge">
<title>DemoDataModule&#45;&gt;AppModule</title>
<path fill="none" stroke="#000000" d="M1310,-122.0091C1310,-138.0494 1310,-159 1310,-159 1310,-159 1128.9248,-159 1128.9248,-159"/>
<polygon fill="#000000" stroke="#000000" points="1128.9249,-155.5001 1118.9248,-159 1128.9248,-162.5001 1128.9249,-155.5001"/>
</g>
<!-- EntityModule -->
<g id="node9" class="node">
<title>EntityModule</title>
<polygon fill="#8dd3c7" stroke="#000000" points="1231.7745,-122 1228.7745,-126 1207.7745,-126 1204.7745,-122 1138.2255,-122 1138.2255,-86 1231.7745,-86 1231.7745,-122"/>
<text text-anchor="middle" x="1185" y="-99.8" font-family="Times,serif" font-size="14.00" fill="#000000">EntityModule</text>
</g>
<!-- EntityModule&#45;&gt;AppModule -->
<g id="edge8" class="edge">
<title>EntityModule&#45;&gt;AppModule</title>
<path fill="none" stroke="#000000" d="M1185,-122.1243C1185,-136.7832 1185,-155 1185,-155 1185,-155 1128.7556,-155 1128.7556,-155"/>
<polygon fill="#000000" stroke="#000000" points="1128.7557,-151.5001 1118.7556,-155 1128.7556,-158.5001 1128.7557,-151.5001"/>
</g>
<!-- HelpModule -->
<g id="node10" class="node">
<title>HelpModule</title>
<polygon fill="#8dd3c7" stroke="#000000" points="1120.2619,-122 1117.2619,-126 1096.2619,-126 1093.2619,-122 1033.7381,-122 1033.7381,-86 1120.2619,-86 1120.2619,-122"/>
<text text-anchor="middle" x="1077" y="-99.8" font-family="Times,serif" font-size="14.00" fill="#000000">HelpModule</text>
</g>
<!-- HelpModule&#45;&gt;AppModule -->
<g id="edge9" class="edge">
<title>HelpModule&#45;&gt;AppModule</title>
<path fill="none" stroke="#000000" d="M1077,-122.1061C1077,-122.1061 1077,-140.991 1077,-140.991"/>
<polygon fill="#000000" stroke="#000000" points="1073.5001,-140.9909 1077,-150.991 1080.5001,-140.991 1073.5001,-140.9909"/>
</g>
<!-- LatestChangesModule -->
<g id="node11" class="node">
<title>LatestChangesModule</title>
<polygon fill="#8dd3c7" stroke="#000000" points="1015.9678,-122 1012.9678,-126 991.9678,-126 988.9678,-122 874.0322,-122 874.0322,-86 1015.9678,-86 1015.9678,-122"/>
<text text-anchor="middle" x="945" y="-99.8" font-family="Times,serif" font-size="14.00" fill="#000000">LatestChangesModule</text>
</g>
<!-- LatestChangesModule&#45;&gt;AppModule -->
<g id="edge10" class="edge">
<title>LatestChangesModule&#45;&gt;AppModule</title>
<path fill="none" stroke="#000000" d="M945,-122.1243C945,-136.7832 945,-155 945,-155 945,-155 1025.2344,-155 1025.2344,-155"/>
<polygon fill="#000000" stroke="#000000" points="1025.2344,-158.5001 1035.2344,-155 1025.2343,-151.5001 1025.2344,-158.5001"/>
</g>
<!-- NavigationModule -->
<g id="node12" class="node">
<title>NavigationModule</title>
<polygon fill="#8dd3c7" stroke="#000000" points="855.7576,-122 852.7576,-126 831.7576,-126 828.7576,-122 734.2424,-122 734.2424,-86 855.7576,-86 855.7576,-122"/>
<text text-anchor="middle" x="795" y="-99.8" font-family="Times,serif" font-size="14.00" fill="#000000">NavigationModule</text>
</g>
<!-- NavigationModule&#45;&gt;AppModule -->
<g id="edge11" class="edge">
<title>NavigationModule&#45;&gt;AppModule</title>
<path fill="none" stroke="#000000" d="M795,-122.0091C795,-138.0494 795,-159 795,-159 795,-159 1025.0863,-159 1025.0863,-159"/>
<polygon fill="#000000" stroke="#000000" points="1025.0863,-162.5001 1035.0863,-159 1025.0862,-155.5001 1025.0863,-162.5001"/>
</g>
<!-- SchoolsModule -->
<g id="node13" class="node">
<title>SchoolsModule</title>
<polygon fill="#8dd3c7" stroke="#000000" points="715.8823,-122 712.8823,-126 691.8823,-126 688.8823,-122 612.1177,-122 612.1177,-86 715.8823,-86 715.8823,-122"/>
<text text-anchor="middle" x="664" y="-99.8" font-family="Times,serif" font-size="14.00" fill="#000000">SchoolsModule</text>
</g>
<!-- SchoolsModule&#45;&gt;AppModule -->
<g id="edge12" class="edge">
<title>SchoolsModule&#45;&gt;AppModule</title>
<path fill="none" stroke="#000000" d="M664,-122.0225C664,-139.3734 664,-163 664,-163 664,-163 1025.1265,-163 1025.1265,-163"/>
<polygon fill="#000000" stroke="#000000" points="1025.1266,-166.5001 1035.1265,-163 1025.1265,-159.5001 1025.1266,-166.5001"/>
</g>
<!-- SessionModule -->
<g id="node14" class="node">
<title>SessionModule</title>
<polygon fill="#8dd3c7" stroke="#000000" points="594.3273,-122 591.3273,-126 570.3273,-126 567.3273,-122 491.6727,-122 491.6727,-86 594.3273,-86 594.3273,-122"/>
<text text-anchor="middle" x="543" y="-99.8" font-family="Times,serif" font-size="14.00" fill="#000000">SessionModule</text>
</g>
<!-- SessionModule&#45;&gt;AppModule -->
<g id="edge13" class="edge">
<title>SessionModule&#45;&gt;AppModule</title>
<path fill="none" stroke="#000000" d="M543,-122.2222C543,-140.8285 543,-167 543,-167 543,-167 1025.0979,-167 1025.0979,-167"/>
<polygon fill="#000000" stroke="#000000" points="1025.098,-170.5001 1035.0979,-167 1025.0979,-163.5001 1025.098,-170.5001"/>
</g>
<!-- SyncStatusModule -->
<g id="node15" class="node">
<title>SyncStatusModule</title>
<polygon fill="#8dd3c7" stroke="#000000" points="473.7702,-122 470.7702,-126 449.7702,-126 446.7702,-122 352.2298,-122 352.2298,-86 473.7702,-86 473.7702,-122"/>
<text text-anchor="middle" x="413" y="-99.8" font-family="Times,serif" font-size="14.00" fill="#000000">SyncStatusModule</text>
</g>
<!-- SyncStatusModule&#45;&gt;AppModule -->
<g id="edge14" class="edge">
<title>SyncStatusModule&#45;&gt;AppModule</title>
<path fill="none" stroke="#000000" d="M413,-122.308C413,-142.1455 413,-171 413,-171 413,-171 1025.2123,-171 1025.2123,-171"/>
<polygon fill="#000000" stroke="#000000" points="1025.2123,-174.5001 1035.2123,-171 1025.2123,-167.5001 1025.2123,-174.5001"/>
</g>
<!-- UiModule -->
<g id="node16" class="node">
<title>UiModule</title>
<polygon fill="#8dd3c7" stroke="#000000" points="333.5484,-122 330.5484,-126 309.5484,-126 306.5484,-122 260.4516,-122 260.4516,-86 333.5484,-86 333.5484,-122"/>
<text text-anchor="middle" x="297" y="-99.8" font-family="Times,serif" font-size="14.00" fill="#000000">UiModule</text>
</g>
<!-- UiModule&#45;&gt;AppModule -->
<g id="edge15" class="edge">
<title>UiModule&#45;&gt;AppModule</title>
<path fill="none" stroke="#000000" d="M297,-122.2843C297,-143.3211 297,-175 297,-175 297,-175 1025.3396,-175 1025.3396,-175"/>
<polygon fill="#000000" stroke="#000000" points="1025.3396,-178.5001 1035.3396,-175 1025.3395,-171.5001 1025.3396,-178.5001"/>
</g>
<!-- UserModule -->
<g id="node17" class="node">
<title>UserModule</title>
<polygon fill="#8dd3c7" stroke="#000000" points="241.9762,-122 238.9762,-126 217.9762,-126 214.9762,-122 156.0238,-122 156.0238,-86 241.9762,-86 241.9762,-122"/>
<text text-anchor="middle" x="199" y="-99.8" font-family="Times,serif" font-size="14.00" fill="#000000">UserModule</text>
</g>
<!-- UserModule&#45;&gt;AppModule -->
<g id="edge16" class="edge">
<title>UserModule&#45;&gt;AppModule</title>
<path fill="none" stroke="#000000" d="M199,-122.1554C199,-144.3519 199,-179 199,-179 199,-179 1025.2429,-179 1025.2429,-179"/>
<polygon fill="#000000" stroke="#000000" points="1025.2429,-182.5001 1035.2429,-179 1025.2429,-175.5001 1025.2429,-182.5001"/>
</g>
<!-- AppConfig -->
<g id="node19" class="node">
<title>AppConfig</title>
<ellipse fill="#fdb462" stroke="#000000" cx="78" cy="-104" rx="54.4778" ry="18"/>
<text text-anchor="middle" x="78" y="-99.8" font-family="Times,serif" font-size="14.00" fill="#000000">AppConfig</text>
</g>
<!-- AppConfig&#45;&gt;AppModule -->
<g id="edge18" class="edge">
<title>AppConfig&#45;&gt;AppModule</title>
<path fill="none" stroke="#000000" d="M78,-122.3228C78,-145.6602 78,-183 78,-183 78,-183 1025.0297,-183 1025.0297,-183"/>
<polygon fill="#000000" stroke="#000000" points="1025.0298,-186.5001 1035.0297,-183 1025.0297,-179.5001 1025.0298,-186.5001"/>
</g>
</g>
</svg>
