<?xml version="1.0" encoding="UTF-8" standalone="no"?>
<!DOCTYPE svg PUBLIC "-//W3C//DTD SVG 1.1//EN"
 "http://www.w3.org/Graphics/SVG/1.1/DTD/svg11.dtd">
<!-- Generated by graphviz version 2.40.1 (20161225.0304)
 -->
<!-- Title: dependencies Pages: 1 -->
<svg width="510pt" height="211pt"
 viewBox="0.00 0.00 510.00 211.00" xmlns="http://www.w3.org/2000/svg" xmlns:xlink="http://www.w3.org/1999/xlink">
<g id="graph0" class="graph" transform="scale(1 1) rotate(0) translate(4 207)">
<title>dependencies</title>
<polygon fill="#ffffff" stroke="transparent" points="-4,4 -4,-207 506,-207 506,4 -4,4"/>
<text text-anchor="start" x="230.0091" y="-42.4" font-family="sans-serif" font-weight="bold" font-size="14.00" fill="#000000">Legend</text>
<polygon fill="#ffffb3" stroke="transparent" points="17,-10 17,-30 37,-30 37,-10 17,-10"/>
<text text-anchor="start" x="40.629" y="-15.4" font-family="sans-serif" font-size="14.00" fill="#000000"> &#160;Declarations</text>
<polygon fill="#8dd3c7" stroke="transparent" points="130,-10 130,-30 150,-30 150,-10 130,-10"/>
<text text-anchor="start" x="153.7251" y="-15.4" font-family="sans-serif" font-size="14.00" fill="#000000"> &#160;Module</text>
<polygon fill="#80b1d3" stroke="transparent" points="216,-10 216,-30 236,-30 236,-10 216,-10"/>
<text text-anchor="start" x="239.7812" y="-15.4" font-family="sans-serif" font-size="14.00" fill="#000000"> &#160;Bootstrap</text>
<polygon fill="#fdb462" stroke="transparent" points="313,-10 313,-30 333,-30 333,-10 313,-10"/>
<text text-anchor="start" x="336.6732" y="-15.4" font-family="sans-serif" font-size="14.00" fill="#000000"> &#160;Providers</text>
<polygon fill="#fb8072" stroke="transparent" points="409,-10 409,-30 429,-30 429,-10 409,-10"/>
<text text-anchor="start" x="432.7258" y="-15.4" font-family="sans-serif" font-size="14.00" fill="#000000"> &#160;Exports</text>
<g id="clust1" class="cluster">
<title>cluster_ConfirmationDialogModule</title>
<polygon fill="none" stroke="#000000" stroke-dasharray="1,5" points="8,-70 8,-195 494,-195 494,-70 8,-70"/>
</g>
<g id="clust2" class="cluster">
<title>cluster_ConfirmationDialogModule_declarations</title>
<polygon fill="none" stroke="#000000" points="276,-78 276,-130 486,-130 486,-78 276,-78"/>
</g>
<g id="clust7" class="cluster">
<title>cluster_ConfirmationDialogModule_providers</title>
<polygon fill="none" stroke="#000000" points="16,-78 16,-130 268,-130 268,-78 16,-78"/>
</g>
<!-- ConfirmationDialogComponent -->
<g id="node1" class="node">
<title>ConfirmationDialogComponent</title>
<polygon fill="#ffffb3" stroke="#000000" points="478.3696,-122 283.6304,-122 283.6304,-86 478.3696,-86 478.3696,-122"/>
<text text-anchor="middle" x="381" y="-99.8" font-family="Times,serif" font-size="14.00" fill="#000000">ConfirmationDialogComponent</text>
</g>
<!-- ConfirmationDialogModule -->
<g id="node2" class="node">
<title>ConfirmationDialogModule</title>
<polygon fill="#8dd3c7" stroke="#000000" points="347.587,-187 344.587,-191 323.587,-191 320.587,-187 174.413,-187 174.413,-151 347.587,-151 347.587,-187"/>
<text text-anchor="middle" x="261" y="-164.8" font-family="Times,serif" font-size="14.00" fill="#000000">ConfirmationDialogModule</text>
</g>
<!-- ConfirmationDialogComponent&#45;&gt;ConfirmationDialogModule -->
<g id="edge1" class="edge">
<title>ConfirmationDialogComponent&#45;&gt;ConfirmationDialogModule</title>
<path fill="none" stroke="#000000" d="M315.5544,-122.1061C315.5544,-122.1061 315.5544,-140.991 315.5544,-140.991"/>
<polygon fill="#000000" stroke="#000000" points="312.0544,-140.9909 315.5544,-150.991 319.0544,-140.991 312.0544,-140.9909"/>
</g>
<!-- ConfirmationDialogService -->
<g id="node3" class="node">
<title>ConfirmationDialogService</title>
<ellipse fill="#fdb462" stroke="#000000" cx="142" cy="-104" rx="118.1159" ry="18"/>
<text text-anchor="middle" x="142" y="-99.8" font-family="Times,serif" font-size="14.00" fill="#000000">ConfirmationDialogService</text>
</g>
<!-- ConfirmationDialogService&#45;&gt;ConfirmationDialogModule -->
<g id="edge2" class="edge">
<title>ConfirmationDialogService&#45;&gt;ConfirmationDialogModule</title>
<path fill="none" stroke="#000000" d="M217.3821,-118.104C217.3821,-118.104 217.3821,-140.7209 217.3821,-140.7209"/>
<polygon fill="#000000" stroke="#000000" points="213.8822,-140.7209 217.3821,-150.7209 220.8822,-140.7209 213.8822,-140.7209"/>
</g>
</g>
</svg>
