<?xml version="1.0" encoding="UTF-8" standalone="no"?>
<!DOCTYPE svg PUBLIC "-//W3C//DTD SVG 1.1//EN"
 "http://www.w3.org/Graphics/SVG/1.1/DTD/svg11.dtd">
<!-- Generated by graphviz version 2.44.1 (20200629.0846)
 -->
<!-- Title: dependencies Pages: 1 -->
<svg width="650pt" height="284pt"
 viewBox="0.00 0.00 650.00 284.00" xmlns="http://www.w3.org/2000/svg" xmlns:xlink="http://www.w3.org/1999/xlink">
<g id="graph0" class="graph" transform="scale(1 1) rotate(0) translate(4 280)">
<title>dependencies</title>
<polygon fill="white" stroke="transparent" points="-4,4 -4,-280 646,-280 646,4 -4,4"/>
<text text-anchor="start" x="300.01" y="-42.4" font-family="sans-serif" font-weight="bold" font-size="14.00">Legend</text>
<polygon fill="#ffffb3" stroke="transparent" points="87,-10 87,-30 107,-30 107,-10 87,-10"/>
<text text-anchor="start" x="110.63" y="-15.4" font-family="sans-serif" font-size="14.00"> &#160;Declarations</text>
<polygon fill="#8dd3c7" stroke="transparent" points="200,-10 200,-30 220,-30 220,-10 200,-10"/>
<text text-anchor="start" x="223.73" y="-15.4" font-family="sans-serif" font-size="14.00"> &#160;Module</text>
<polygon fill="#80b1d3" stroke="transparent" points="286,-10 286,-30 306,-30 306,-10 286,-10"/>
<text text-anchor="start" x="309.78" y="-15.4" font-family="sans-serif" font-size="14.00"> &#160;Bootstrap</text>
<polygon fill="#fdb462" stroke="transparent" points="383,-10 383,-30 403,-30 403,-10 383,-10"/>
<text text-anchor="start" x="406.67" y="-15.4" font-family="sans-serif" font-size="14.00"> &#160;Providers</text>
<polygon fill="#fb8072" stroke="transparent" points="479,-10 479,-30 499,-30 499,-10 479,-10"/>
<text text-anchor="start" x="502.73" y="-15.4" font-family="sans-serif" font-size="14.00"> &#160;Exports</text>
<g id="clust1" class="cluster">
<title>cluster_FormDialogModule</title>
<polygon fill="none" stroke="black" stroke-dasharray="1,5" points="8,-70 8,-268 634,-268 634,-70 8,-70"/>
</g>
<g id="clust5" class="cluster">
<title>cluster_FormDialogModule_exports</title>
<polygon fill="none" stroke="black" points="212,-208 212,-260 430,-260 430,-208 212,-208"/>
</g>
<g id="clust7" class="cluster">
<title>cluster_FormDialogModule_providers</title>
<polygon fill="none" stroke="black" points="436,-78 436,-130 626,-130 626,-78 436,-78"/>
</g>
<g id="clust2" class="cluster">
<title>cluster_FormDialogModule_declarations</title>
<polygon fill="none" stroke="black" points="214,-78 214,-130 428,-130 428,-78 214,-78"/>
</g>
<g id="clust4" class="cluster">
<title>cluster_FormDialogModule_imports</title>
<polygon fill="none" stroke="black" points="16,-78 16,-130 206,-130 206,-78 16,-78"/>
</g>
<!-- FormDialogWrapperComponent -->
<g id="node1" class="node">
<title>FormDialogWrapperComponent</title>
<polygon fill="#ffffb3" stroke="black" points="420.23,-122 221.77,-122 221.77,-86 420.23,-86 420.23,-122"/>
<text text-anchor="middle" x="321" y="-99.8" font-family="Times,serif" font-size="14.00">FormDialogWrapperComponent</text>
</g>
<!-- FormDialogModule -->
<g id="node2" class="node">
<title>FormDialogModule</title>
<polygon fill="#8dd3c7" stroke="black" points="384.99,-187 381.99,-191 360.99,-191 357.99,-187 257.01,-187 257.01,-151 384.99,-151 384.99,-187"/>
<text text-anchor="middle" x="321" y="-164.8" font-family="Times,serif" font-size="14.00">FormDialogModule</text>
</g>
<!-- FormDialogWrapperComponent&#45;&gt;FormDialogModule -->
<g id="edge1" class="edge">
<title>FormDialogWrapperComponent&#45;&gt;FormDialogModule</title>
<path fill="none" stroke="black" d="M321,-122.11C321,-122.11 321,-140.99 321,-140.99"/>
<polygon fill="black" stroke="black" points="317.5,-140.99 321,-150.99 324.5,-140.99 317.5,-140.99"/>
</g>
<!-- FormDialogWrapperComponent  -->
<g id="node4" class="node">
<title>FormDialogWrapperComponent </title>
<polygon fill="#fb8072" stroke="black" points="422.23,-252 219.77,-252 219.77,-216 422.23,-216 422.23,-252"/>
<text text-anchor="middle" x="321" y="-229.8" font-family="Times,serif" font-size="14.00">FormDialogWrapperComponent </text>
</g>
<!-- FormDialogModule&#45;&gt;FormDialogWrapperComponent  -->
<g id="edge3" class="edge">
<title>FormDialogModule&#45;&gt;FormDialogWrapperComponent </title>
<path fill="none" stroke="black" stroke-dasharray="5,2" d="M321,-187.11C321,-187.11 321,-205.99 321,-205.99"/>
<polygon fill="black" stroke="black" points="317.5,-205.99 321,-215.99 324.5,-205.99 317.5,-205.99"/>
</g>
<!-- ConfirmationDialogModule -->
<g id="node3" class="node">
<title>ConfirmationDialogModule</title>
<polygon fill="#8dd3c7" stroke="black" points="197.59,-122 194.59,-126 173.59,-126 170.59,-122 24.41,-122 24.41,-86 197.59,-86 197.59,-122"/>
<text text-anchor="middle" x="111" y="-99.8" font-family="Times,serif" font-size="14.00">ConfirmationDialogModule</text>
</g>
<!-- ConfirmationDialogModule&#45;&gt;FormDialogModule -->
<g id="edge2" class="edge">
<title>ConfirmationDialogModule&#45;&gt;FormDialogModule</title>
<path fill="none" stroke="black" d="M111,-122.11C111,-141.34 111,-169 111,-169 111,-169 246.85,-169 246.85,-169"/>
<polygon fill="black" stroke="black" points="246.85,-172.5 256.85,-169 246.85,-165.5 246.85,-172.5"/>
</g>
<!-- FormDialogService -->
<g id="node5" class="node">
<title>FormDialogService</title>
<ellipse fill="#fdb462" stroke="black" cx="531" cy="-104" rx="87.4" ry="18"/>
<text text-anchor="middle" x="531" y="-99.8" font-family="Times,serif" font-size="14.00">FormDialogService</text>
</g>
<!-- FormDialogService&#45;&gt;FormDialogModule -->
<g id="edge4" class="edge">
<title>FormDialogService&#45;&gt;FormDialogModule</title>
<path fill="none" stroke="black" d="M531,-122.11C531,-141.34 531,-169 531,-169 531,-169 395.15,-169 395.15,-169"/>
<polygon fill="black" stroke="black" points="395.15,-165.5 385.15,-169 395.15,-172.5 395.15,-165.5"/>
</g>
</g>
</svg>
