<?xml version="1.0" encoding="UTF-8" standalone="no"?>
<!DOCTYPE svg PUBLIC "-//W3C//DTD SVG 1.1//EN"
 "http://www.w3.org/Graphics/SVG/1.1/DTD/svg11.dtd">
<!-- Generated by graphviz version 2.44.1 (20200629.0846)
 -->
<!-- Title: dependencies Pages: 1 -->
<svg width="1292pt" height="284pt"
 viewBox="0.00 0.00 1292.00 284.00" xmlns="http://www.w3.org/2000/svg" xmlns:xlink="http://www.w3.org/1999/xlink">
<g id="graph0" class="graph" transform="scale(1 1) rotate(0) translate(4 280)">
<title>dependencies</title>
<polygon fill="white" stroke="transparent" points="-4,4 -4,-280 1288,-280 1288,4 -4,4"/>
<text text-anchor="start" x="621.01" y="-42.4" font-family="sans-serif" font-weight="bold" font-size="14.00">Legend</text>
<polygon fill="#ffffb3" stroke="transparent" points="408,-10 408,-30 428,-30 428,-10 408,-10"/>
<text text-anchor="start" x="431.63" y="-15.4" font-family="sans-serif" font-size="14.00"> &#160;Declarations</text>
<polygon fill="#8dd3c7" stroke="transparent" points="521,-10 521,-30 541,-30 541,-10 521,-10"/>
<text text-anchor="start" x="544.73" y="-15.4" font-family="sans-serif" font-size="14.00"> &#160;Module</text>
<polygon fill="#80b1d3" stroke="transparent" points="607,-10 607,-30 627,-30 627,-10 607,-10"/>
<text text-anchor="start" x="630.78" y="-15.4" font-family="sans-serif" font-size="14.00"> &#160;Bootstrap</text>
<polygon fill="#fdb462" stroke="transparent" points="704,-10 704,-30 724,-30 724,-10 704,-10"/>
<text text-anchor="start" x="727.67" y="-15.4" font-family="sans-serif" font-size="14.00"> &#160;Providers</text>
<polygon fill="#fb8072" stroke="transparent" points="800,-10 800,-30 820,-30 820,-10 800,-10"/>
<text text-anchor="start" x="823.73" y="-15.4" font-family="sans-serif" font-size="14.00"> &#160;Exports</text>
<g id="clust1" class="cluster">
<title>cluster_AdminModule</title>
<polygon fill="none" stroke="black" stroke-dasharray="1,5" points="8,-70 8,-268 1276,-268 1276,-70 8,-70"/>
</g>
<g id="clust6" class="cluster">
<title>cluster_AdminModule_imports</title>
<polygon fill="none" stroke="black" points="876,-78 876,-130 1268,-130 1268,-78 876,-78"/>
</g>
<g id="clust2" class="cluster">
<title>cluster_AdminModule_declarations</title>
<polygon fill="none" stroke="black" points="420,-78 420,-130 868,-130 868,-78 420,-78"/>
</g>
<g id="clust9" class="cluster">
<title>cluster_AdminModule_providers</title>
<polygon fill="none" stroke="black" points="16,-78 16,-130 412,-130 412,-78 16,-78"/>
</g>
<g id="clust7" class="cluster">
<title>cluster_AdminModule_exports</title>
<polygon fill="none" stroke="black" points="641,-208 641,-260 807,-260 807,-208 641,-208"/>
</g>
<!-- AdminComponent -->
<g id="node1" class="node">
<title>AdminComponent</title>
<polygon fill="#ffffb3" stroke="black" points="860.22,-122 739.78,-122 739.78,-86 860.22,-86 860.22,-122"/>
<text text-anchor="middle" x="800" y="-99.8" font-family="Times,serif" font-size="14.00">AdminComponent</text>
</g>
<!-- AdminModule -->
<g id="node4" class="node">
<title>AdminModule</title>
<polygon fill="#8dd3c7" stroke="black" points="773.44,-187 770.44,-191 749.44,-191 746.44,-187 674.56,-187 674.56,-151 773.44,-151 773.44,-187"/>
<text text-anchor="middle" x="724" y="-164.8" font-family="Times,serif" font-size="14.00">AdminModule</text>
</g>
<!-- AdminComponent&#45;&gt;AdminModule -->
<g id="edge1" class="edge">
<title>AdminComponent&#45;&gt;AdminModule</title>
<path fill="none" stroke="black" d="M756.55,-122.11C756.55,-122.11 756.55,-140.99 756.55,-140.99"/>
<polygon fill="black" stroke="black" points="753.05,-140.99 756.55,-150.99 760.05,-140.99 753.05,-140.99"/>
</g>
<!-- ExportDataComponent -->
<g id="node2" class="node">
<title>ExportDataComponent</title>
<polygon fill="#ffffb3" stroke="black" points="721.86,-122 576.14,-122 576.14,-86 721.86,-86 721.86,-122"/>
<text text-anchor="middle" x="649" y="-99.8" font-family="Times,serif" font-size="14.00">ExportDataComponent</text>
</g>
<!-- ExportDataComponent&#45;&gt;AdminModule -->
<g id="edge2" class="edge">
<title>ExportDataComponent&#45;&gt;AdminModule</title>
<path fill="none" stroke="black" d="M698.36,-122.11C698.36,-122.11 698.36,-140.99 698.36,-140.99"/>
<polygon fill="black" stroke="black" points="694.86,-140.99 698.36,-150.99 701.86,-140.99 694.86,-140.99"/>
</g>
<!-- UserListComponent -->
<g id="node3" class="node">
<title>UserListComponent</title>
<polygon fill="#ffffb3" stroke="black" points="557.54,-122 428.46,-122 428.46,-86 557.54,-86 557.54,-122"/>
<text text-anchor="middle" x="493" y="-99.8" font-family="Times,serif" font-size="14.00">UserListComponent</text>
</g>
<!-- UserListComponent&#45;&gt;AdminModule -->
<g id="edge3" class="edge">
<title>UserListComponent&#45;&gt;AdminModule</title>
<path fill="none" stroke="black" d="M493,-122.03C493,-138.4 493,-160 493,-160 493,-160 664.73,-160 664.73,-160"/>
<polygon fill="black" stroke="black" points="664.73,-163.5 674.73,-160 664.73,-156.5 664.73,-163.5"/>
</g>
<!-- ExportDataComponent  -->
<g id="node8" class="node">
<title>ExportDataComponent </title>
<polygon fill="#fb8072" stroke="black" points="798.86,-252 649.14,-252 649.14,-216 798.86,-216 798.86,-252"/>
<text text-anchor="middle" x="724" y="-229.8" font-family="Times,serif" font-size="14.00">ExportDataComponent </text>
</g>
<!-- AdminModule&#45;&gt;ExportDataComponent  -->
<g id="edge7" class="edge">
<title>AdminModule&#45;&gt;ExportDataComponent </title>
<path fill="none" stroke="black" stroke-dasharray="5,2" d="M724,-187.11C724,-187.11 724,-205.99 724,-205.99"/>
<polygon fill="black" stroke="black" points="720.5,-205.99 724,-215.99 727.5,-205.99 720.5,-205.99"/>
</g>
<!-- AlertsModule -->
<g id="node5" class="node">
<title>AlertsModule</title>
<polygon fill="#8dd3c7" stroke="black" points="1259.76,-122 1256.76,-126 1235.76,-126 1232.76,-122 1166.24,-122 1166.24,-86 1259.76,-86 1259.76,-122"/>
<text text-anchor="middle" x="1213" y="-99.8" font-family="Times,serif" font-size="14.00">AlertsModule</text>
</g>
<!-- AlertsModule&#45;&gt;AdminModule -->
<g id="edge4" class="edge">
<title>AlertsModule&#45;&gt;AdminModule</title>
<path fill="none" stroke="black" d="M1213,-122.29C1213,-144.21 1213,-178 1213,-178 1213,-178 783.58,-178 783.58,-178"/>
<polygon fill="black" stroke="black" points="783.58,-174.5 773.58,-178 783.58,-181.5 783.58,-174.5"/>
</g>
<!-- EntityModule -->
<g id="node6" class="node">
<title>EntityModule</title>
<polygon fill="#8dd3c7" stroke="black" points="1147.77,-122 1144.77,-126 1123.77,-126 1120.77,-122 1054.23,-122 1054.23,-86 1147.77,-86 1147.77,-122"/>
<text text-anchor="middle" x="1101" y="-99.8" font-family="Times,serif" font-size="14.00">EntityModule</text>
</g>
<!-- EntityModule&#45;&gt;AdminModule -->
<g id="edge5" class="edge">
<title>EntityModule&#45;&gt;AdminModule</title>
<path fill="none" stroke="black" d="M1101,-122.11C1101,-141.34 1101,-169 1101,-169 1101,-169 783.29,-169 783.29,-169"/>
<polygon fill="black" stroke="black" points="783.29,-165.5 773.29,-169 783.29,-172.5 783.29,-165.5"/>
</g>
<!-- EntitySubrecordModule -->
<g id="node7" class="node">
<title>EntitySubrecordModule</title>
<polygon fill="#8dd3c7" stroke="black" points="1035.81,-122 1032.81,-126 1011.81,-126 1008.81,-122 884.19,-122 884.19,-86 1035.81,-86 1035.81,-122"/>
<text text-anchor="middle" x="960" y="-99.8" font-family="Times,serif" font-size="14.00">EntitySubrecordModule</text>
</g>
<!-- EntitySubrecordModule&#45;&gt;AdminModule -->
<g id="edge6" class="edge">
<title>EntitySubrecordModule&#45;&gt;AdminModule</title>
<path fill="none" stroke="black" d="M960,-122.03C960,-138.4 960,-160 960,-160 960,-160 783.47,-160 783.47,-160"/>
<polygon fill="black" stroke="black" points="783.47,-156.5 773.47,-160 783.47,-163.5 783.47,-156.5"/>
</g>
<!-- BackupService -->
<g id="node9" class="node">
<title>BackupService</title>
<ellipse fill="#fdb462" stroke="black" cx="335" cy="-104" rx="69.48" ry="18"/>
<text text-anchor="middle" x="335" y="-99.8" font-family="Times,serif" font-size="14.00">BackupService</text>
</g>
<!-- BackupService&#45;&gt;AdminModule -->
<g id="edge8" class="edge">
<title>BackupService&#45;&gt;AdminModule</title>
<path fill="none" stroke="black" d="M335,-122.11C335,-141.34 335,-169 335,-169 335,-169 664.73,-169 664.73,-169"/>
<polygon fill="black" stroke="black" points="664.73,-172.5 674.73,-169 664.73,-165.5 664.73,-172.5"/>
</g>
<!-- ChildPhotoUpdateService -->
<g id="node10" class="node">
<title>ChildPhotoUpdateService</title>
<ellipse fill="#fdb462" stroke="black" cx="136" cy="-104" rx="111.76" ry="18"/>
<text text-anchor="middle" x="136" y="-99.8" font-family="Times,serif" font-size="14.00">ChildPhotoUpdateService</text>
</g>
<!-- ChildPhotoUpdateService&#45;&gt;AdminModule -->
<g id="edge9" class="edge">
<title>ChildPhotoUpdateService&#45;&gt;AdminModule</title>
<path fill="none" stroke="black" d="M136,-122.29C136,-144.21 136,-178 136,-178 136,-178 664.63,-178 664.63,-178"/>
<polygon fill="black" stroke="black" points="664.63,-181.5 674.63,-178 664.63,-174.5 664.63,-181.5"/>
</g>
</g>
</svg>
