<?xml version="1.0" encoding="UTF-8" standalone="no"?>
<!DOCTYPE svg PUBLIC "-//W3C//DTD SVG 1.1//EN"
 "http://www.w3.org/Graphics/SVG/1.1/DTD/svg11.dtd">
<!-- Generated by graphviz version 2.40.1 (20161225.0304)
 -->
<!-- Title: dependencies Pages: 1 -->
<svg width="1292pt" height="284pt"
 viewBox="0.00 0.00 1292.00 284.00" xmlns="http://www.w3.org/2000/svg" xmlns:xlink="http://www.w3.org/1999/xlink">
<g id="graph0" class="graph" transform="scale(1 1) rotate(0) translate(4 280)">
<title>dependencies</title>
<polygon fill="#ffffff" stroke="transparent" points="-4,4 -4,-280 1288,-280 1288,4 -4,4"/>
<text text-anchor="start" x="621.0091" y="-42.4" font-family="sans-serif" font-weight="bold" font-size="14.00" fill="#000000">Legend</text>
<polygon fill="#ffffb3" stroke="transparent" points="408,-10 408,-30 428,-30 428,-10 408,-10"/>
<text text-anchor="start" x="431.629" y="-15.4" font-family="sans-serif" font-size="14.00" fill="#000000"> &#160;Declarations</text>
<polygon fill="#8dd3c7" stroke="transparent" points="521,-10 521,-30 541,-30 541,-10 521,-10"/>
<text text-anchor="start" x="544.7251" y="-15.4" font-family="sans-serif" font-size="14.00" fill="#000000"> &#160;Module</text>
<polygon fill="#80b1d3" stroke="transparent" points="607,-10 607,-30 627,-30 627,-10 607,-10"/>
<text text-anchor="start" x="630.7812" y="-15.4" font-family="sans-serif" font-size="14.00" fill="#000000"> &#160;Bootstrap</text>
<polygon fill="#fdb462" stroke="transparent" points="704,-10 704,-30 724,-30 724,-10 704,-10"/>
<text text-anchor="start" x="727.6732" y="-15.4" font-family="sans-serif" font-size="14.00" fill="#000000"> &#160;Providers</text>
<polygon fill="#fb8072" stroke="transparent" points="800,-10 800,-30 820,-30 820,-10 800,-10"/>
<text text-anchor="start" x="823.7258" y="-15.4" font-family="sans-serif" font-size="14.00" fill="#000000"> &#160;Exports</text>
<g id="clust1" class="cluster">
<title>cluster_AdminModule</title>
<polygon fill="none" stroke="#000000" stroke-dasharray="1,5" points="8,-70 8,-268 1276,-268 1276,-70 8,-70"/>
</g>
<g id="clust2" class="cluster">
<title>cluster_AdminModule_declarations</title>
<polygon fill="none" stroke="#000000" points="820,-78 820,-130 1268,-130 1268,-78 820,-78"/>
</g>
<g id="clust6" class="cluster">
<title>cluster_AdminModule_imports</title>
<polygon fill="none" stroke="#000000" points="420,-78 420,-130 812,-130 812,-78 420,-78"/>
</g>
<g id="clust7" class="cluster">
<title>cluster_AdminModule_exports</title>
<polygon fill="none" stroke="#000000" points="618,-208 618,-260 784,-260 784,-208 618,-208"/>
</g>
<g id="clust9" class="cluster">
<title>cluster_AdminModule_providers</title>
<polygon fill="none" stroke="#000000" points="16,-78 16,-130 412,-130 412,-78 16,-78"/>
</g>
<!-- AdminComponent -->
<g id="node1" class="node">
<title>AdminComponent</title>
<polygon fill="#ffffb3" stroke="#000000" points="1260.2204,-122 1139.7796,-122 1139.7796,-86 1260.2204,-86 1260.2204,-122"/>
<text text-anchor="middle" x="1200" y="-99.8" font-family="Times,serif" font-size="14.00" fill="#000000">AdminComponent</text>
</g>
<!-- AdminModule -->
<g id="node4" class="node">
<title>AdminModule</title>
<polygon fill="#8dd3c7" stroke="#000000" points="750.4386,-187 747.4386,-191 726.4386,-191 723.4386,-187 651.5614,-187 651.5614,-151 750.4386,-151 750.4386,-187"/>
<text text-anchor="middle" x="701" y="-164.8" font-family="Times,serif" font-size="14.00" fill="#000000">AdminModule</text>
</g>
<!-- AdminComponent&#45;&gt;AdminModule -->
<g id="edge1" class="edge">
<title>AdminComponent&#45;&gt;AdminModule</title>
<path fill="none" stroke="#000000" d="M1200,-122.2921C1200,-144.2057 1200,-178 1200,-178 1200,-178 760.6703,-178 760.6703,-178"/>
<polygon fill="#000000" stroke="#000000" points="760.6704,-174.5001 750.6703,-178 760.6703,-181.5001 760.6704,-174.5001"/>
</g>
<!-- ExportDataComponent -->
<g id="node2" class="node">
<title>ExportDataComponent</title>
<polygon fill="#ffffb3" stroke="#000000" points="1121.8627,-122 976.1373,-122 976.1373,-86 1121.8627,-86 1121.8627,-122"/>
<text text-anchor="middle" x="1049" y="-99.8" font-family="Times,serif" font-size="14.00" fill="#000000">ExportDataComponent</text>
</g>
<!-- ExportDataComponent&#45;&gt;AdminModule -->
<g id="edge2" class="edge">
<title>ExportDataComponent&#45;&gt;AdminModule</title>
<path fill="none" stroke="#000000" d="M1049,-122.1061C1049,-141.3391 1049,-169 1049,-169 1049,-169 760.4903,-169 760.4903,-169"/>
<polygon fill="#000000" stroke="#000000" points="760.4904,-165.5001 750.4903,-169 760.4903,-172.5001 760.4904,-165.5001"/>
</g>
<!-- UserListComponent -->
<g id="node3" class="node">
<title>UserListComponent</title>
<polygon fill="#ffffb3" stroke="#000000" points="957.538,-122 828.462,-122 828.462,-86 957.538,-86 957.538,-122"/>
<text text-anchor="middle" x="893" y="-99.8" font-family="Times,serif" font-size="14.00" fill="#000000">UserListComponent</text>
</g>
<!-- UserListComponent&#45;&gt;AdminModule -->
<g id="edge3" class="edge">
<title>UserListComponent&#45;&gt;AdminModule</title>
<path fill="none" stroke="#000000" d="M893,-122.027C893,-138.3976 893,-160 893,-160 893,-160 760.4448,-160 760.4448,-160"/>
<polygon fill="#000000" stroke="#000000" points="760.4448,-156.5001 750.4448,-160 760.4447,-163.5001 760.4448,-156.5001"/>
</g>
<!-- ExportDataComponent  -->
<g id="node8" class="node">
<title>ExportDataComponent </title>
<polygon fill="#fb8072" stroke="#000000" points="775.863,-252 626.137,-252 626.137,-216 775.863,-216 775.863,-252"/>
<text text-anchor="middle" x="701" y="-229.8" font-family="Times,serif" font-size="14.00" fill="#000000">ExportDataComponent </text>
</g>
<!-- AdminModule&#45;&gt;ExportDataComponent  -->
<g id="edge7" class="edge">
<title>AdminModule&#45;&gt;ExportDataComponent </title>
<path fill="none" stroke="#000000" stroke-dasharray="5,2" d="M701,-187.1061C701,-187.1061 701,-205.991 701,-205.991"/>
<polygon fill="#000000" stroke="#000000" points="697.5001,-205.9909 701,-215.991 704.5001,-205.991 697.5001,-205.9909"/>
</g>
<!-- AlertsModule -->
<g id="node5" class="node">
<title>AlertsModule</title>
<polygon fill="#8dd3c7" stroke="#000000" points="803.7577,-122 800.7577,-126 779.7577,-126 776.7577,-122 710.2423,-122 710.2423,-86 803.7577,-86 803.7577,-122"/>
<text text-anchor="middle" x="757" y="-99.8" font-family="Times,serif" font-size="14.00" fill="#000000">AlertsModule</text>
</g>
<!-- AlertsModule&#45;&gt;AdminModule -->
<g id="edge4" class="edge">
<title>AlertsModule&#45;&gt;AdminModule</title>
<path fill="none" stroke="#000000" d="M730.17,-122.1061C730.17,-122.1061 730.17,-140.991 730.17,-140.991"/>
<polygon fill="#000000" stroke="#000000" points="726.6701,-140.9909 730.17,-150.991 733.6701,-140.991 726.6701,-140.9909"/>
</g>
<!-- EntityModule -->
<g id="node6" class="node">
<title>EntityModule</title>
<polygon fill="#8dd3c7" stroke="#000000" points="691.7745,-122 688.7745,-126 667.7745,-126 664.7745,-122 598.2255,-122 598.2255,-86 691.7745,-86 691.7745,-122"/>
<text text-anchor="middle" x="645" y="-99.8" font-family="Times,serif" font-size="14.00" fill="#000000">EntityModule</text>
</g>
<!-- EntityModule&#45;&gt;AdminModule -->
<g id="edge5" class="edge">
<title>EntityModule&#45;&gt;AdminModule</title>
<path fill="none" stroke="#000000" d="M671.8342,-122.1061C671.8342,-122.1061 671.8342,-140.991 671.8342,-140.991"/>
<polygon fill="#000000" stroke="#000000" points="668.3342,-140.9909 671.8342,-150.991 675.3342,-140.991 668.3342,-140.9909"/>
</g>
<!-- EntitySubrecordModule -->
<g id="node7" class="node">
<title>EntitySubrecordModule</title>
<polygon fill="#8dd3c7" stroke="#000000" points="579.8075,-122 576.8075,-126 555.8075,-126 552.8075,-122 428.1925,-122 428.1925,-86 579.8075,-86 579.8075,-122"/>
<text text-anchor="middle" x="504" y="-99.8" font-family="Times,serif" font-size="14.00" fill="#000000">EntitySubrecordModule</text>
</g>
<!-- EntitySubrecordModule&#45;&gt;AdminModule -->
<g id="edge6" class="edge">
<title>EntitySubrecordModule&#45;&gt;AdminModule</title>
<path fill="none" stroke="#000000" d="M504,-122.027C504,-138.3976 504,-160 504,-160 504,-160 641.5429,-160 641.5429,-160"/>
<polygon fill="#000000" stroke="#000000" points="641.5429,-163.5001 651.5429,-160 641.5428,-156.5001 641.5429,-163.5001"/>
</g>
<!-- BackupService -->
<g id="node9" class="node">
<title>BackupService</title>
<ellipse fill="#fdb462" stroke="#000000" cx="335" cy="-104" rx="69.4819" ry="18"/>
<text text-anchor="middle" x="335" y="-99.8" font-family="Times,serif" font-size="14.00" fill="#000000">BackupService</text>
</g>
<!-- BackupService&#45;&gt;AdminModule -->
<g id="edge8" class="edge">
<title>BackupService&#45;&gt;AdminModule</title>
<path fill="none" stroke="#000000" d="M335,-122.1061C335,-141.3391 335,-169 335,-169 335,-169 641.6396,-169 641.6396,-169"/>
<polygon fill="#000000" stroke="#000000" points="641.6396,-172.5001 651.6396,-169 641.6396,-165.5001 641.6396,-172.5001"/>
</g>
<!-- ChildPhotoUpdateService -->
<g id="node10" class="node">
<title>ChildPhotoUpdateService</title>
<ellipse fill="#fdb462" stroke="#000000" cx="136" cy="-104" rx="111.7584" ry="18"/>
<text text-anchor="middle" x="136" y="-99.8" font-family="Times,serif" font-size="14.00" fill="#000000">ChildPhotoUpdateService</text>
</g>
<!-- ChildPhotoUpdateService&#45;&gt;AdminModule -->
<g id="edge9" class="edge">
<title>ChildPhotoUpdateService&#45;&gt;AdminModule</title>
<path fill="none" stroke="#000000" d="M136,-122.2921C136,-144.2057 136,-178 136,-178 136,-178 641.3552,-178 641.3552,-178"/>
<polygon fill="#000000" stroke="#000000" points="641.3552,-181.5001 651.3552,-178 641.3552,-174.5001 641.3552,-181.5001"/>
</g>
</g>
</svg>
