<?xml version="1.0" encoding="UTF-8" standalone="no"?>
<!DOCTYPE svg PUBLIC "-//W3C//DTD SVG 1.1//EN"
 "http://www.w3.org/Graphics/SVG/1.1/DTD/svg11.dtd">
<!-- Generated by graphviz version 2.44.1 (20200629.0846)
 -->
<!-- Title: dependencies Pages: 1 -->
<svg width="1292pt" height="284pt"
 viewBox="0.00 0.00 1292.00 284.00" xmlns="http://www.w3.org/2000/svg" xmlns:xlink="http://www.w3.org/1999/xlink">
<g id="graph0" class="graph" transform="scale(1 1) rotate(0) translate(4 280)">
<title>dependencies</title>
<polygon fill="white" stroke="transparent" points="-4,4 -4,-280 1288,-280 1288,4 -4,4"/>
<text text-anchor="start" x="621.01" y="-42.4" font-family="sans-serif" font-weight="bold" font-size="14.00">Legend</text>
<polygon fill="#ffffb3" stroke="transparent" points="408,-10 408,-30 428,-30 428,-10 408,-10"/>
<text text-anchor="start" x="431.63" y="-15.4" font-family="sans-serif" font-size="14.00"> &#160;Declarations</text>
<polygon fill="#8dd3c7" stroke="transparent" points="521,-10 521,-30 541,-30 541,-10 521,-10"/>
<text text-anchor="start" x="544.73" y="-15.4" font-family="sans-serif" font-size="14.00"> &#160;Module</text>
<polygon fill="#80b1d3" stroke="transparent" points="607,-10 607,-30 627,-30 627,-10 607,-10"/>
<text text-anchor="start" x="630.78" y="-15.4" font-family="sans-serif" font-size="14.00"> &#160;Bootstrap</text>
<polygon fill="#fdb462" stroke="transparent" points="704,-10 704,-30 724,-30 724,-10 704,-10"/>
<text text-anchor="start" x="727.67" y="-15.4" font-family="sans-serif" font-size="14.00"> &#160;Providers</text>
<polygon fill="#fb8072" stroke="transparent" points="800,-10 800,-30 820,-30 820,-10 800,-10"/>
<text text-anchor="start" x="823.73" y="-15.4" font-family="sans-serif" font-size="14.00"> &#160;Exports</text>
<g id="clust1" class="cluster">
<title>cluster_AdminModule</title>
<polygon fill="none" stroke="black" stroke-dasharray="1,5" points="8,-70 8,-268 1276,-268 1276,-70 8,-70"/>
</g>
<g id="clust7" class="cluster">
<title>cluster_AdminModule_exports</title>
<polygon fill="none" stroke="black" points="618,-208 618,-260 784,-260 784,-208 618,-208"/>
</g>
<g id="clust2" class="cluster">
<title>cluster_AdminModule_declarations</title>
<polygon fill="none" stroke="black" points="820,-78 820,-130 1268,-130 1268,-78 820,-78"/>
</g>
<g id="clust6" class="cluster">
<title>cluster_AdminModule_imports</title>
<polygon fill="none" stroke="black" points="420,-78 420,-130 812,-130 812,-78 420,-78"/>
</g>
<g id="clust9" class="cluster">
<title>cluster_AdminModule_providers</title>
<polygon fill="none" stroke="black" points="16,-78 16,-130 412,-130 412,-78 16,-78"/>
</g>
<!-- AdminComponent -->
<g id="node1" class="node">
<title>AdminComponent</title>
<polygon fill="#ffffb3" stroke="black" points="1260.22,-122 1139.78,-122 1139.78,-86 1260.22,-86 1260.22,-122"/>
<text text-anchor="middle" x="1200" y="-99.8" font-family="Times,serif" font-size="14.00">AdminComponent</text>
</g>
<!-- AdminModule -->
<g id="node4" class="node">
<title>AdminModule</title>
<polygon fill="#8dd3c7" stroke="black" points="750.44,-187 747.44,-191 726.44,-191 723.44,-187 651.56,-187 651.56,-151 750.44,-151 750.44,-187"/>
<text text-anchor="middle" x="701" y="-164.8" font-family="Times,serif" font-size="14.00">AdminModule</text>
</g>
<!-- AdminComponent&#45;&gt;AdminModule -->
<g id="edge1" class="edge">
<title>AdminComponent&#45;&gt;AdminModule</title>
<path fill="none" stroke="black" d="M1200,-122.29C1200,-144.21 1200,-178 1200,-178 1200,-178 760.67,-178 760.67,-178"/>
<polygon fill="black" stroke="black" points="760.67,-174.5 750.67,-178 760.67,-181.5 760.67,-174.5"/>
</g>
<!-- ExportDataComponent -->
<g id="node2" class="node">
<title>ExportDataComponent</title>
<polygon fill="#ffffb3" stroke="black" points="1121.86,-122 976.14,-122 976.14,-86 1121.86,-86 1121.86,-122"/>
<text text-anchor="middle" x="1049" y="-99.8" font-family="Times,serif" font-size="14.00">ExportDataComponent</text>
</g>
<!-- ExportDataComponent&#45;&gt;AdminModule -->
<g id="edge2" class="edge">
<title>ExportDataComponent&#45;&gt;AdminModule</title>
<path fill="none" stroke="black" d="M1049,-122.11C1049,-141.34 1049,-169 1049,-169 1049,-169 760.49,-169 760.49,-169"/>
<polygon fill="black" stroke="black" points="760.49,-165.5 750.49,-169 760.49,-172.5 760.49,-165.5"/>
</g>
<!-- UserListComponent -->
<g id="node3" class="node">
<title>UserListComponent</title>
<polygon fill="#ffffb3" stroke="black" points="957.54,-122 828.46,-122 828.46,-86 957.54,-86 957.54,-122"/>
<text text-anchor="middle" x="893" y="-99.8" font-family="Times,serif" font-size="14.00">UserListComponent</text>
</g>
<!-- UserListComponent&#45;&gt;AdminModule -->
<g id="edge3" class="edge">
<title>UserListComponent&#45;&gt;AdminModule</title>
<path fill="none" stroke="black" d="M893,-122.03C893,-138.4 893,-160 893,-160 893,-160 760.44,-160 760.44,-160"/>
<polygon fill="black" stroke="black" points="760.44,-156.5 750.44,-160 760.44,-163.5 760.44,-156.5"/>
</g>
<!-- ExportDataComponent  -->
<g id="node8" class="node">
<title>ExportDataComponent </title>
<polygon fill="#fb8072" stroke="black" points="775.86,-252 626.14,-252 626.14,-216 775.86,-216 775.86,-252"/>
<text text-anchor="middle" x="701" y="-229.8" font-family="Times,serif" font-size="14.00">ExportDataComponent </text>
</g>
<!-- AdminModule&#45;&gt;ExportDataComponent  -->
<g id="edge7" class="edge">
<title>AdminModule&#45;&gt;ExportDataComponent </title>
<path fill="none" stroke="black" stroke-dasharray="5,2" d="M701,-187.11C701,-187.11 701,-205.99 701,-205.99"/>
<polygon fill="black" stroke="black" points="697.5,-205.99 701,-215.99 704.5,-205.99 697.5,-205.99"/>
</g>
<!-- AlertsModule -->
<g id="node5" class="node">
<title>AlertsModule</title>
<polygon fill="#8dd3c7" stroke="black" points="803.76,-122 800.76,-126 779.76,-126 776.76,-122 710.24,-122 710.24,-86 803.76,-86 803.76,-122"/>
<text text-anchor="middle" x="757" y="-99.8" font-family="Times,serif" font-size="14.00">AlertsModule</text>
</g>
<!-- AlertsModule&#45;&gt;AdminModule -->
<g id="edge4" class="edge">
<title>AlertsModule&#45;&gt;AdminModule</title>
<path fill="none" stroke="black" d="M730.17,-122.11C730.17,-122.11 730.17,-140.99 730.17,-140.99"/>
<polygon fill="black" stroke="black" points="726.67,-140.99 730.17,-150.99 733.67,-140.99 726.67,-140.99"/>
</g>
<!-- EntityModule -->
<g id="node6" class="node">
<title>EntityModule</title>
<polygon fill="#8dd3c7" stroke="black" points="691.77,-122 688.77,-126 667.77,-126 664.77,-122 598.23,-122 598.23,-86 691.77,-86 691.77,-122"/>
<text text-anchor="middle" x="645" y="-99.8" font-family="Times,serif" font-size="14.00">EntityModule</text>
</g>
<!-- EntityModule&#45;&gt;AdminModule -->
<g id="edge5" class="edge">
<title>EntityModule&#45;&gt;AdminModule</title>
<path fill="none" stroke="black" d="M671.83,-122.11C671.83,-122.11 671.83,-140.99 671.83,-140.99"/>
<polygon fill="black" stroke="black" points="668.33,-140.99 671.83,-150.99 675.33,-140.99 668.33,-140.99"/>
</g>
<!-- EntitySubrecordModule -->
<g id="node7" class="node">
<title>EntitySubrecordModule</title>
<polygon fill="#8dd3c7" stroke="black" points="579.81,-122 576.81,-126 555.81,-126 552.81,-122 428.19,-122 428.19,-86 579.81,-86 579.81,-122"/>
<text text-anchor="middle" x="504" y="-99.8" font-family="Times,serif" font-size="14.00">EntitySubrecordModule</text>
</g>
<!-- EntitySubrecordModule&#45;&gt;AdminModule -->
<g id="edge6" class="edge">
<title>EntitySubrecordModule&#45;&gt;AdminModule</title>
<path fill="none" stroke="black" d="M504,-122.03C504,-138.4 504,-160 504,-160 504,-160 641.54,-160 641.54,-160"/>
<polygon fill="black" stroke="black" points="641.54,-163.5 651.54,-160 641.54,-156.5 641.54,-163.5"/>
</g>
<!-- BackupService -->
<g id="node9" class="node">
<title>BackupService</title>
<ellipse fill="#fdb462" stroke="black" cx="335" cy="-104" rx="69.48" ry="18"/>
<text text-anchor="middle" x="335" y="-99.8" font-family="Times,serif" font-size="14.00">BackupService</text>
</g>
<!-- BackupService&#45;&gt;AdminModule -->
<g id="edge8" class="edge">
<title>BackupService&#45;&gt;AdminModule</title>
<path fill="none" stroke="black" d="M335,-122.11C335,-141.34 335,-169 335,-169 335,-169 641.64,-169 641.64,-169"/>
<polygon fill="black" stroke="black" points="641.64,-172.5 651.64,-169 641.64,-165.5 641.64,-172.5"/>
</g>
<!-- ChildPhotoUpdateService -->
<g id="node10" class="node">
<title>ChildPhotoUpdateService</title>
<ellipse fill="#fdb462" stroke="black" cx="136" cy="-104" rx="111.76" ry="18"/>
<text text-anchor="middle" x="136" y="-99.8" font-family="Times,serif" font-size="14.00">ChildPhotoUpdateService</text>
</g>
<!-- ChildPhotoUpdateService&#45;&gt;AdminModule -->
<g id="edge9" class="edge">
<title>ChildPhotoUpdateService&#45;&gt;AdminModule</title>
<path fill="none" stroke="black" d="M136,-122.29C136,-144.21 136,-178 136,-178 136,-178 641.36,-178 641.36,-178"/>
<polygon fill="black" stroke="black" points="641.36,-181.5 651.36,-178 641.36,-174.5 641.36,-181.5"/>
</g>
</g>
</svg>
