<?xml version="1.0" encoding="UTF-8" standalone="no"?>
<!DOCTYPE svg PUBLIC "-//W3C//DTD SVG 1.1//EN"
 "http://www.w3.org/Graphics/SVG/1.1/DTD/svg11.dtd">
<!-- Generated by graphviz version 2.44.1 (20200629.0846)
 -->
<!-- Title: dependencies Pages: 1 -->
<svg width="1292pt" height="284pt"
 viewBox="0.00 0.00 1292.00 284.00" xmlns="http://www.w3.org/2000/svg" xmlns:xlink="http://www.w3.org/1999/xlink">
<g id="graph0" class="graph" transform="scale(1 1) rotate(0) translate(4 280)">
<title>dependencies</title>
<polygon fill="white" stroke="transparent" points="-4,4 -4,-280 1288,-280 1288,4 -4,4"/>
<text text-anchor="start" x="621.01" y="-42.4" font-family="sans-serif" font-weight="bold" font-size="14.00">Legend</text>
<polygon fill="#ffffb3" stroke="transparent" points="408,-10 408,-30 428,-30 428,-10 408,-10"/>
<text text-anchor="start" x="431.63" y="-15.4" font-family="sans-serif" font-size="14.00"> &#160;Declarations</text>
<polygon fill="#8dd3c7" stroke="transparent" points="521,-10 521,-30 541,-30 541,-10 521,-10"/>
<text text-anchor="start" x="544.73" y="-15.4" font-family="sans-serif" font-size="14.00"> &#160;Module</text>
<polygon fill="#80b1d3" stroke="transparent" points="607,-10 607,-30 627,-30 627,-10 607,-10"/>
<text text-anchor="start" x="630.78" y="-15.4" font-family="sans-serif" font-size="14.00"> &#160;Bootstrap</text>
<polygon fill="#fdb462" stroke="transparent" points="704,-10 704,-30 724,-30 724,-10 704,-10"/>
<text text-anchor="start" x="727.67" y="-15.4" font-family="sans-serif" font-size="14.00"> &#160;Providers</text>
<polygon fill="#fb8072" stroke="transparent" points="800,-10 800,-30 820,-30 820,-10 800,-10"/>
<text text-anchor="start" x="823.73" y="-15.4" font-family="sans-serif" font-size="14.00"> &#160;Exports</text>
<g id="clust1" class="cluster">
<title>cluster_AdminModule</title>
<polygon fill="none" stroke="black" stroke-dasharray="1,5" points="8,-70 8,-268 1276,-268 1276,-70 8,-70"/>
</g>
<g id="clust2" class="cluster">
<title>cluster_AdminModule_declarations</title>
<polygon fill="none" stroke="black" points="820,-78 820,-130 1268,-130 1268,-78 820,-78"/>
</g>
<g id="clust7" class="cluster">
<title>cluster_AdminModule_exports</title>
<polygon fill="none" stroke="black" points="552,-208 552,-260 718,-260 718,-208 552,-208"/>
</g>
<g id="clust9" class="cluster">
<title>cluster_AdminModule_providers</title>
<polygon fill="none" stroke="black" points="416,-78 416,-130 812,-130 812,-78 416,-78"/>
</g>
<g id="clust6" class="cluster">
<title>cluster_AdminModule_imports</title>
<polygon fill="none" stroke="black" points="16,-78 16,-130 408,-130 408,-78 16,-78"/>
</g>
<!-- AdminComponent -->
<g id="node1" class="node">
<title>AdminComponent</title>
<polygon fill="#ffffb3" stroke="black" points="1260.22,-122 1139.78,-122 1139.78,-86 1260.22,-86 1260.22,-122"/>
<text text-anchor="middle" x="1200" y="-99.8" font-family="Times,serif" font-size="14.00">AdminComponent</text>
</g>
<!-- AdminModule -->
<g id="node4" class="node">
<title>AdminModule</title>
<polygon fill="#8dd3c7" stroke="black" points="684.44,-187 681.44,-191 660.44,-191 657.44,-187 585.56,-187 585.56,-151 684.44,-151 684.44,-187"/>
<text text-anchor="middle" x="635" y="-164.8" font-family="Times,serif" font-size="14.00">AdminModule</text>
</g>
<!-- AdminComponent&#45;&gt;AdminModule -->
<g id="edge1" class="edge">
<title>AdminComponent&#45;&gt;AdminModule</title>
<path fill="none" stroke="black" d="M1200,-122.29C1200,-144.21 1200,-178 1200,-178 1200,-178 694.64,-178 694.64,-178"/>
<polygon fill="black" stroke="black" points="694.64,-174.5 684.64,-178 694.64,-181.5 694.64,-174.5"/>
</g>
<!-- ExportDataComponent -->
<g id="node2" class="node">
<title>ExportDataComponent</title>
<polygon fill="#ffffb3" stroke="black" points="1121.86,-122 976.14,-122 976.14,-86 1121.86,-86 1121.86,-122"/>
<text text-anchor="middle" x="1049" y="-99.8" font-family="Times,serif" font-size="14.00">ExportDataComponent</text>
</g>
<!-- ExportDataComponent&#45;&gt;AdminModule -->
<g id="edge2" class="edge">
<title>ExportDataComponent&#45;&gt;AdminModule</title>
<path fill="none" stroke="black" d="M1049,-122.11C1049,-141.34 1049,-169 1049,-169 1049,-169 694.53,-169 694.53,-169"/>
<polygon fill="black" stroke="black" points="694.53,-165.5 684.53,-169 694.53,-172.5 694.53,-165.5"/>
</g>
<!-- UserListComponent -->
<g id="node3" class="node">
<title>UserListComponent</title>
<polygon fill="#ffffb3" stroke="black" points="957.54,-122 828.46,-122 828.46,-86 957.54,-86 957.54,-122"/>
<text text-anchor="middle" x="893" y="-99.8" font-family="Times,serif" font-size="14.00">UserListComponent</text>
</g>
<!-- UserListComponent&#45;&gt;AdminModule -->
<g id="edge3" class="edge">
<title>UserListComponent&#45;&gt;AdminModule</title>
<path fill="none" stroke="black" d="M893,-122.03C893,-138.4 893,-160 893,-160 893,-160 694.44,-160 694.44,-160"/>
<polygon fill="black" stroke="black" points="694.44,-156.5 684.44,-160 694.44,-163.5 694.44,-156.5"/>
</g>
<!-- ExportDataComponent  -->
<g id="node8" class="node">
<title>ExportDataComponent </title>
<polygon fill="#fb8072" stroke="black" points="709.86,-252 560.14,-252 560.14,-216 709.86,-216 709.86,-252"/>
<text text-anchor="middle" x="635" y="-229.8" font-family="Times,serif" font-size="14.00">ExportDataComponent </text>
</g>
<!-- AdminModule&#45;&gt;ExportDataComponent  -->
<g id="edge7" class="edge">
<title>AdminModule&#45;&gt;ExportDataComponent </title>
<path fill="none" stroke="black" stroke-dasharray="5,2" d="M635,-187.11C635,-187.11 635,-205.99 635,-205.99"/>
<polygon fill="black" stroke="black" points="631.5,-205.99 635,-215.99 638.5,-205.99 631.5,-205.99"/>
</g>
<!-- AlertsModule -->
<g id="node5" class="node">
<title>AlertsModule</title>
<polygon fill="#8dd3c7" stroke="black" points="399.76,-122 396.76,-126 375.76,-126 372.76,-122 306.24,-122 306.24,-86 399.76,-86 399.76,-122"/>
<text text-anchor="middle" x="353" y="-99.8" font-family="Times,serif" font-size="14.00">AlertsModule</text>
</g>
<!-- AlertsModule&#45;&gt;AdminModule -->
<g id="edge4" class="edge">
<title>AlertsModule&#45;&gt;AdminModule</title>
<path fill="none" stroke="black" d="M353,-122.03C353,-138.4 353,-160 353,-160 353,-160 575.56,-160 575.56,-160"/>
<polygon fill="black" stroke="black" points="575.56,-163.5 585.56,-160 575.56,-156.5 575.56,-163.5"/>
</g>
<!-- EntityModule -->
<g id="node6" class="node">
<title>EntityModule</title>
<polygon fill="#8dd3c7" stroke="black" points="287.77,-122 284.77,-126 263.77,-126 260.77,-122 194.23,-122 194.23,-86 287.77,-86 287.77,-122"/>
<text text-anchor="middle" x="241" y="-99.8" font-family="Times,serif" font-size="14.00">EntityModule</text>
</g>
<!-- EntityModule&#45;&gt;AdminModule -->
<g id="edge5" class="edge">
<title>EntityModule&#45;&gt;AdminModule</title>
<path fill="none" stroke="black" d="M241,-122.11C241,-141.34 241,-169 241,-169 241,-169 575.5,-169 575.5,-169"/>
<polygon fill="black" stroke="black" points="575.5,-172.5 585.5,-169 575.5,-165.5 575.5,-172.5"/>
</g>
<!-- EntitySubrecordModule -->
<g id="node7" class="node">
<title>EntitySubrecordModule</title>
<polygon fill="#8dd3c7" stroke="black" points="175.81,-122 172.81,-126 151.81,-126 148.81,-122 24.19,-122 24.19,-86 175.81,-86 175.81,-122"/>
<text text-anchor="middle" x="100" y="-99.8" font-family="Times,serif" font-size="14.00">EntitySubrecordModule</text>
</g>
<!-- EntitySubrecordModule&#45;&gt;AdminModule -->
<g id="edge6" class="edge">
<title>EntitySubrecordModule&#45;&gt;AdminModule</title>
<path fill="none" stroke="black" d="M100,-122.29C100,-144.21 100,-178 100,-178 100,-178 575.63,-178 575.63,-178"/>
<polygon fill="black" stroke="black" points="575.63,-181.5 585.63,-178 575.63,-174.5 575.63,-181.5"/>
</g>
<!-- BackupService -->
<g id="node9" class="node">
<title>BackupService</title>
<ellipse fill="#fdb462" stroke="black" cx="735" cy="-104" rx="69.48" ry="18"/>
<text text-anchor="middle" x="735" y="-99.8" font-family="Times,serif" font-size="14.00">BackupService</text>
</g>
<!-- BackupService&#45;&gt;AdminModule -->
<g id="edge8" class="edge">
<title>BackupService&#45;&gt;AdminModule</title>
<path fill="none" stroke="black" d="M674.86,-113.04C674.86,-113.04 674.86,-140.96 674.86,-140.96"/>
<polygon fill="black" stroke="black" points="671.36,-140.96 674.86,-150.96 678.36,-140.96 671.36,-140.96"/>
</g>
<!-- ChildPhotoUpdateService -->
<g id="node10" class="node">
<title>ChildPhotoUpdateService</title>
<ellipse fill="#fdb462" stroke="black" cx="536" cy="-104" rx="111.76" ry="18"/>
<text text-anchor="middle" x="536" y="-99.8" font-family="Times,serif" font-size="14.00">ChildPhotoUpdateService</text>
</g>
<!-- ChildPhotoUpdateService&#45;&gt;AdminModule -->
<g id="edge9" class="edge">
<title>ChildPhotoUpdateService&#45;&gt;AdminModule</title>
<path fill="none" stroke="black" d="M616.83,-116.53C616.83,-116.53 616.83,-140.85 616.83,-140.85"/>
<polygon fill="black" stroke="black" points="613.33,-140.85 616.83,-150.85 620.33,-140.85 613.33,-140.85"/>
</g>
</g>
</svg>
