<?xml version="1.0" encoding="UTF-8" standalone="no"?>
<!DOCTYPE svg PUBLIC "-//W3C//DTD SVG 1.1//EN"
 "http://www.w3.org/Graphics/SVG/1.1/DTD/svg11.dtd">
<!-- Generated by graphviz version 2.40.1 (20161225.0304)
 -->
<!-- Title: dependencies Pages: 1 -->
<svg width="915pt" height="284pt"
 viewBox="0.00 0.00 915.00 284.00" xmlns="http://www.w3.org/2000/svg" xmlns:xlink="http://www.w3.org/1999/xlink">
<g id="graph0" class="graph" transform="scale(1 1) rotate(0) translate(4 280)">
<title>dependencies</title>
<polygon fill="#ffffff" stroke="transparent" points="-4,4 -4,-280 911,-280 911,4 -4,4"/>
<text text-anchor="start" x="432.5091" y="-42.4" font-family="sans-serif" font-weight="bold" font-size="14.00" fill="#000000">Legend</text>
<polygon fill="#ffffb3" stroke="transparent" points="219.5,-10 219.5,-30 239.5,-30 239.5,-10 219.5,-10"/>
<text text-anchor="start" x="243.129" y="-15.4" font-family="sans-serif" font-size="14.00" fill="#000000"> &#160;Declarations</text>
<polygon fill="#8dd3c7" stroke="transparent" points="332.5,-10 332.5,-30 352.5,-30 352.5,-10 332.5,-10"/>
<text text-anchor="start" x="356.2251" y="-15.4" font-family="sans-serif" font-size="14.00" fill="#000000"> &#160;Module</text>
<polygon fill="#80b1d3" stroke="transparent" points="418.5,-10 418.5,-30 438.5,-30 438.5,-10 418.5,-10"/>
<text text-anchor="start" x="442.2812" y="-15.4" font-family="sans-serif" font-size="14.00" fill="#000000"> &#160;Bootstrap</text>
<polygon fill="#fdb462" stroke="transparent" points="515.5,-10 515.5,-30 535.5,-30 535.5,-10 515.5,-10"/>
<text text-anchor="start" x="539.1732" y="-15.4" font-family="sans-serif" font-size="14.00" fill="#000000"> &#160;Providers</text>
<polygon fill="#fb8072" stroke="transparent" points="611.5,-10 611.5,-30 631.5,-30 631.5,-10 611.5,-10"/>
<text text-anchor="start" x="635.2258" y="-15.4" font-family="sans-serif" font-size="14.00" fill="#000000"> &#160;Exports</text>
<g id="clust1" class="cluster">
<title>cluster_SyncStatusModule</title>
<polygon fill="none" stroke="#000000" stroke-dasharray="1,5" points="8,-70 8,-268 899,-268 899,-70 8,-70"/>
</g>
<g id="clust2" class="cluster">
<title>cluster_SyncStatusModule_declarations</title>
<polygon fill="none" stroke="#000000" points="254,-78 254,-130 891,-130 891,-78 254,-78"/>
</g>
<g id="clust6" class="cluster">
<title>cluster_SyncStatusModule_imports</title>
<polygon fill="none" stroke="#000000" points="16,-78 16,-130 246,-130 246,-78 16,-78"/>
</g>
<g id="clust7" class="cluster">
<title>cluster_SyncStatusModule_exports</title>
<polygon fill="none" stroke="#000000" points="252,-208 252,-260 416,-260 416,-208 252,-208"/>
</g>
<!-- BackgroundProcessingIndicatorComponent -->
<g id="node1" class="node">
<title>BackgroundProcessingIndicatorComponent</title>
<polygon fill="#ffffb3" stroke="#000000" points="883.4426,-122 622.5574,-122 622.5574,-86 883.4426,-86 883.4426,-122"/>
<text text-anchor="middle" x="753" y="-99.8" font-family="Times,serif" font-size="14.00" fill="#000000">BackgroundProcessingIndicatorComponent</text>
</g>
<!-- SyncStatusModule -->
<g id="node4" class="node">
<title>SyncStatusModule</title>
<polygon fill="#8dd3c7" stroke="#000000" points="394.7702,-187 391.7702,-191 370.7702,-191 367.7702,-187 273.2298,-187 273.2298,-151 394.7702,-151 394.7702,-187"/>
<text text-anchor="middle" x="334" y="-164.8" font-family="Times,serif" font-size="14.00" fill="#000000">SyncStatusModule</text>
</g>
<!-- BackgroundProcessingIndicatorComponent&#45;&gt;SyncStatusModule -->
<g id="edge1" class="edge">
<title>BackgroundProcessingIndicatorComponent&#45;&gt;SyncStatusModule</title>
<path fill="none" stroke="#000000" d="M753,-122.2843C753,-143.3211 753,-175 753,-175 753,-175 404.9262,-175 404.9262,-175"/>
<polygon fill="#000000" stroke="#000000" points="404.9262,-171.5001 394.9262,-175 404.9262,-178.5001 404.9262,-171.5001"/>
</g>
<!-- InitialSyncDialogComponent -->
<g id="node2" class="node">
<title>InitialSyncDialogComponent</title>
<polygon fill="#ffffb3" stroke="#000000" points="604.3696,-122 423.6304,-122 423.6304,-86 604.3696,-86 604.3696,-122"/>
<text text-anchor="middle" x="514" y="-99.8" font-family="Times,serif" font-size="14.00" fill="#000000">InitialSyncDialogComponent</text>
</g>
<!-- InitialSyncDialogComponent&#45;&gt;SyncStatusModule -->
<g id="edge2" class="edge">
<title>InitialSyncDialogComponent&#45;&gt;SyncStatusModule</title>
<path fill="none" stroke="#000000" d="M514,-122.0225C514,-139.3734 514,-163 514,-163 514,-163 404.9398,-163 404.9398,-163"/>
<polygon fill="#000000" stroke="#000000" points="404.9398,-159.5001 394.9398,-163 404.9398,-166.5001 404.9398,-159.5001"/>
</g>
<!-- SyncStatusComponent -->
<g id="node3" class="node">
<title>SyncStatusComponent</title>
<polygon fill="#ffffb3" stroke="#000000" points="405.5533,-122 262.4467,-122 262.4467,-86 405.5533,-86 405.5533,-122"/>
<text text-anchor="middle" x="334" y="-99.8" font-family="Times,serif" font-size="14.00" fill="#000000">SyncStatusComponent</text>
</g>
<!-- SyncStatusComponent&#45;&gt;SyncStatusModule -->
<g id="edge3" class="edge">
<title>SyncStatusComponent&#45;&gt;SyncStatusModule</title>
<path fill="none" stroke="#000000" d="M334,-122.1061C334,-122.1061 334,-140.991 334,-140.991"/>
<polygon fill="#000000" stroke="#000000" points="330.5001,-140.9909 334,-150.991 337.5001,-140.991 330.5001,-140.9909"/>
</g>
<!-- SyncStatusComponent  -->
<g id="node7" class="node">
<title>SyncStatusComponent </title>
<polygon fill="#fb8072" stroke="#000000" points="407.5526,-252 260.4474,-252 260.4474,-216 407.5526,-216 407.5526,-252"/>
<text text-anchor="middle" x="334" y="-229.8" font-family="Times,serif" font-size="14.00" fill="#000000">SyncStatusComponent </text>
</g>
<!-- SyncStatusModule&#45;&gt;SyncStatusComponent  -->
<g id="edge6" class="edge">
<title>SyncStatusModule&#45;&gt;SyncStatusComponent </title>
<path fill="none" stroke="#000000" stroke-dasharray="5,2" d="M334,-187.1061C334,-187.1061 334,-205.991 334,-205.991"/>
<polygon fill="#000000" stroke="#000000" points="330.5001,-205.9909 334,-215.991 337.5001,-205.991 330.5001,-205.9909"/>
</g>
<!-- AlertsModule -->
<g id="node5" class="node">
<title>AlertsModule</title>
<polygon fill="#8dd3c7" stroke="#000000" points="237.7577,-122 234.7577,-126 213.7577,-126 210.7577,-122 144.2423,-122 144.2423,-86 237.7577,-86 237.7577,-122"/>
<text text-anchor="middle" x="191" y="-99.8" font-family="Times,serif" font-size="14.00" fill="#000000">AlertsModule</text>
</g>
<!-- AlertsModule&#45;&gt;SyncStatusModule -->
<g id="edge4" class="edge">
<title>AlertsModule&#45;&gt;SyncStatusModule</title>
<path fill="none" stroke="#000000" d="M191,-122.0225C191,-139.3734 191,-163 191,-163 191,-163 262.9403,-163 262.9403,-163"/>
<polygon fill="#000000" stroke="#000000" points="262.9404,-166.5001 272.9403,-163 262.9403,-159.5001 262.9404,-166.5001"/>
</g>
<!-- SessionModule -->
<g id="node6" class="node">
<title>SessionModule</title>
<polygon fill="#8dd3c7" stroke="#000000" points="126.3273,-122 123.3273,-126 102.3273,-126 99.3273,-122 23.6727,-122 23.6727,-86 126.3273,-86 126.3273,-122"/>
<text text-anchor="middle" x="75" y="-99.8" font-family="Times,serif" font-size="14.00" fill="#000000">SessionModule</text>
</g>
<!-- SessionModule&#45;&gt;SyncStatusModule -->
<g id="edge5" class="edge">
<title>SessionModule&#45;&gt;SyncStatusModule</title>
<path fill="none" stroke="#000000" d="M75,-122.2843C75,-143.3211 75,-175 75,-175 75,-175 262.9486,-175 262.9486,-175"/>
<polygon fill="#000000" stroke="#000000" points="262.9486,-178.5001 272.9486,-175 262.9485,-171.5001 262.9486,-178.5001"/>
</g>
</g>
</svg>
