<?xml version="1.0" encoding="UTF-8" standalone="no"?>
<!DOCTYPE svg PUBLIC "-//W3C//DTD SVG 1.1//EN"
 "http://www.w3.org/Graphics/SVG/1.1/DTD/svg11.dtd">
<!-- Generated by graphviz version 2.44.1 (20200629.0846)
 -->
<!-- Title: dependencies Pages: 1 -->
<svg width="915pt" height="284pt"
 viewBox="0.00 0.00 915.00 284.00" xmlns="http://www.w3.org/2000/svg" xmlns:xlink="http://www.w3.org/1999/xlink">
<g id="graph0" class="graph" transform="scale(1 1) rotate(0) translate(4 280)">
<title>dependencies</title>
<polygon fill="white" stroke="transparent" points="-4,4 -4,-280 911,-280 911,4 -4,4"/>
<text text-anchor="start" x="432.51" y="-42.4" font-family="sans-serif" font-weight="bold" font-size="14.00">Legend</text>
<polygon fill="#ffffb3" stroke="transparent" points="219.5,-10 219.5,-30 239.5,-30 239.5,-10 219.5,-10"/>
<text text-anchor="start" x="243.13" y="-15.4" font-family="sans-serif" font-size="14.00"> &#160;Declarations</text>
<polygon fill="#8dd3c7" stroke="transparent" points="332.5,-10 332.5,-30 352.5,-30 352.5,-10 332.5,-10"/>
<text text-anchor="start" x="356.23" y="-15.4" font-family="sans-serif" font-size="14.00"> &#160;Module</text>
<polygon fill="#80b1d3" stroke="transparent" points="418.5,-10 418.5,-30 438.5,-30 438.5,-10 418.5,-10"/>
<text text-anchor="start" x="442.28" y="-15.4" font-family="sans-serif" font-size="14.00"> &#160;Bootstrap</text>
<polygon fill="#fdb462" stroke="transparent" points="515.5,-10 515.5,-30 535.5,-30 535.5,-10 515.5,-10"/>
<text text-anchor="start" x="539.17" y="-15.4" font-family="sans-serif" font-size="14.00"> &#160;Providers</text>
<polygon fill="#fb8072" stroke="transparent" points="611.5,-10 611.5,-30 631.5,-30 631.5,-10 611.5,-10"/>
<text text-anchor="start" x="635.23" y="-15.4" font-family="sans-serif" font-size="14.00"> &#160;Exports</text>
<g id="clust1" class="cluster">
<title>cluster_SyncStatusModule</title>
<polygon fill="none" stroke="black" stroke-dasharray="1,5" points="8,-70 8,-268 899,-268 899,-70 8,-70"/>
</g>
<g id="clust6" class="cluster">
<title>cluster_SyncStatusModule_imports</title>
<polygon fill="none" stroke="black" points="661,-78 661,-130 891,-130 891,-78 661,-78"/>
</g>
<g id="clust7" class="cluster">
<title>cluster_SyncStatusModule_exports</title>
<polygon fill="none" stroke="black" points="433,-208 433,-260 597,-260 597,-208 433,-208"/>
</g>
<g id="clust2" class="cluster">
<title>cluster_SyncStatusModule_declarations</title>
<polygon fill="none" stroke="black" points="16,-78 16,-130 653,-130 653,-78 16,-78"/>
</g>
<!-- BackgroundProcessingIndicatorComponent -->
<g id="node1" class="node">
<title>BackgroundProcessingIndicatorComponent</title>
<polygon fill="#ffffb3" stroke="black" points="645.44,-122 384.56,-122 384.56,-86 645.44,-86 645.44,-122"/>
<text text-anchor="middle" x="515" y="-99.8" font-family="Times,serif" font-size="14.00">BackgroundProcessingIndicatorComponent</text>
</g>
<!-- SyncStatusModule -->
<g id="node4" class="node">
<title>SyncStatusModule</title>
<polygon fill="#8dd3c7" stroke="black" points="575.77,-187 572.77,-191 551.77,-191 548.77,-187 454.23,-187 454.23,-151 575.77,-151 575.77,-187"/>
<text text-anchor="middle" x="515" y="-164.8" font-family="Times,serif" font-size="14.00">SyncStatusModule</text>
</g>
<!-- BackgroundProcessingIndicatorComponent&#45;&gt;SyncStatusModule -->
<g id="edge1" class="edge">
<title>BackgroundProcessingIndicatorComponent&#45;&gt;SyncStatusModule</title>
<path fill="none" stroke="black" d="M515,-122.11C515,-122.11 515,-140.99 515,-140.99"/>
<polygon fill="black" stroke="black" points="511.5,-140.99 515,-150.99 518.5,-140.99 511.5,-140.99"/>
</g>
<!-- InitialSyncDialogComponent -->
<g id="node2" class="node">
<title>InitialSyncDialogComponent</title>
<polygon fill="#ffffb3" stroke="black" points="366.37,-122 185.63,-122 185.63,-86 366.37,-86 366.37,-122"/>
<text text-anchor="middle" x="276" y="-99.8" font-family="Times,serif" font-size="14.00">InitialSyncDialogComponent</text>
</g>
<!-- InitialSyncDialogComponent&#45;&gt;SyncStatusModule -->
<g id="edge2" class="edge">
<title>InitialSyncDialogComponent&#45;&gt;SyncStatusModule</title>
<path fill="none" stroke="black" d="M276,-122.02C276,-139.37 276,-163 276,-163 276,-163 444.07,-163 444.07,-163"/>
<polygon fill="black" stroke="black" points="444.07,-166.5 454.07,-163 444.07,-159.5 444.07,-166.5"/>
</g>
<!-- SyncStatusComponent -->
<g id="node3" class="node">
<title>SyncStatusComponent</title>
<polygon fill="#ffffb3" stroke="black" points="167.55,-122 24.45,-122 24.45,-86 167.55,-86 167.55,-122"/>
<text text-anchor="middle" x="96" y="-99.8" font-family="Times,serif" font-size="14.00">SyncStatusComponent</text>
</g>
<!-- SyncStatusComponent&#45;&gt;SyncStatusModule -->
<g id="edge3" class="edge">
<title>SyncStatusComponent&#45;&gt;SyncStatusModule</title>
<path fill="none" stroke="black" d="M96,-122.28C96,-143.32 96,-175 96,-175 96,-175 444.07,-175 444.07,-175"/>
<polygon fill="black" stroke="black" points="444.07,-178.5 454.07,-175 444.07,-171.5 444.07,-178.5"/>
</g>
<!-- SyncStatusComponent  -->
<g id="node7" class="node">
<title>SyncStatusComponent </title>
<polygon fill="#fb8072" stroke="black" points="588.55,-252 441.45,-252 441.45,-216 588.55,-216 588.55,-252"/>
<text text-anchor="middle" x="515" y="-229.8" font-family="Times,serif" font-size="14.00">SyncStatusComponent </text>
</g>
<!-- SyncStatusModule&#45;&gt;SyncStatusComponent  -->
<g id="edge6" class="edge">
<title>SyncStatusModule&#45;&gt;SyncStatusComponent </title>
<path fill="none" stroke="black" stroke-dasharray="5,2" d="M515,-187.11C515,-187.11 515,-205.99 515,-205.99"/>
<polygon fill="black" stroke="black" points="511.5,-205.99 515,-215.99 518.5,-205.99 511.5,-205.99"/>
</g>
<!-- AlertsModule -->
<g id="node5" class="node">
<title>AlertsModule</title>
<polygon fill="#8dd3c7" stroke="black" points="882.76,-122 879.76,-126 858.76,-126 855.76,-122 789.24,-122 789.24,-86 882.76,-86 882.76,-122"/>
<text text-anchor="middle" x="836" y="-99.8" font-family="Times,serif" font-size="14.00">AlertsModule</text>
</g>
<!-- AlertsModule&#45;&gt;SyncStatusModule -->
<g id="edge4" class="edge">
<title>AlertsModule&#45;&gt;SyncStatusModule</title>
<path fill="none" stroke="black" d="M836,-122.28C836,-143.32 836,-175 836,-175 836,-175 586.13,-175 586.13,-175"/>
<polygon fill="black" stroke="black" points="586.13,-171.5 576.13,-175 586.13,-178.5 586.13,-171.5"/>
</g>
<!-- SessionModule -->
<g id="node6" class="node">
<title>SessionModule</title>
<polygon fill="#8dd3c7" stroke="black" points="771.33,-122 768.33,-126 747.33,-126 744.33,-122 668.67,-122 668.67,-86 771.33,-86 771.33,-122"/>
<text text-anchor="middle" x="720" y="-99.8" font-family="Times,serif" font-size="14.00">SessionModule</text>
</g>
<!-- SessionModule&#45;&gt;SyncStatusModule -->
<g id="edge5" class="edge">
<title>SessionModule&#45;&gt;SyncStatusModule</title>
<path fill="none" stroke="black" d="M720,-122.02C720,-139.37 720,-163 720,-163 720,-163 585.95,-163 585.95,-163"/>
<polygon fill="black" stroke="black" points="585.95,-159.5 575.95,-163 585.95,-166.5 585.95,-159.5"/>
</g>
</g>
</svg>
