<?xml version="1.0" encoding="UTF-8" standalone="no"?>
<!DOCTYPE svg PUBLIC "-//W3C//DTD SVG 1.1//EN"
 "http://www.w3.org/Graphics/SVG/1.1/DTD/svg11.dtd">
<!-- Generated by graphviz version 2.44.1 (20200629.0846)
 -->
<!-- Title: dependencies Pages: 1 -->
<svg width="661pt" height="284pt"
 viewBox="0.00 0.00 661.00 284.00" xmlns="http://www.w3.org/2000/svg" xmlns:xlink="http://www.w3.org/1999/xlink">
<g id="graph0" class="graph" transform="scale(1 1) rotate(0) translate(4 280)">
<title>dependencies</title>
<polygon fill="white" stroke="transparent" points="-4,4 -4,-280 657,-280 657,4 -4,4"/>
<text text-anchor="start" x="305.51" y="-42.4" font-family="sans-serif" font-weight="bold" font-size="14.00">Legend</text>
<polygon fill="#ffffb3" stroke="transparent" points="92.5,-10 92.5,-30 112.5,-30 112.5,-10 92.5,-10"/>
<text text-anchor="start" x="116.13" y="-15.4" font-family="sans-serif" font-size="14.00"> &#160;Declarations</text>
<polygon fill="#8dd3c7" stroke="transparent" points="205.5,-10 205.5,-30 225.5,-30 225.5,-10 205.5,-10"/>
<text text-anchor="start" x="229.23" y="-15.4" font-family="sans-serif" font-size="14.00"> &#160;Module</text>
<polygon fill="#80b1d3" stroke="transparent" points="291.5,-10 291.5,-30 311.5,-30 311.5,-10 291.5,-10"/>
<text text-anchor="start" x="315.28" y="-15.4" font-family="sans-serif" font-size="14.00"> &#160;Bootstrap</text>
<polygon fill="#fdb462" stroke="transparent" points="388.5,-10 388.5,-30 408.5,-30 408.5,-10 388.5,-10"/>
<text text-anchor="start" x="412.17" y="-15.4" font-family="sans-serif" font-size="14.00"> &#160;Providers</text>
<polygon fill="#fb8072" stroke="transparent" points="484.5,-10 484.5,-30 504.5,-30 504.5,-10 484.5,-10"/>
<text text-anchor="start" x="508.23" y="-15.4" font-family="sans-serif" font-size="14.00"> &#160;Exports</text>
<g id="clust1" class="cluster">
<title>cluster_EntitySubrecordModule</title>
<polygon fill="none" stroke="black" stroke-dasharray="1,5" points="8,-70 8,-268 645,-268 645,-70 8,-70"/>
</g>
<g id="clust5" class="cluster">
<title>cluster_EntitySubrecordModule_imports</title>
<polygon fill="none" stroke="black" points="301,-78 301,-130 637,-130 637,-78 301,-78"/>
</g>
<g id="clust2" class="cluster">
<title>cluster_EntitySubrecordModule_declarations</title>
<polygon fill="none" stroke="black" points="16,-78 16,-130 293,-130 293,-78 16,-78"/>
</g>
<g id="clust6" class="cluster">
<title>cluster_EntitySubrecordModule_exports</title>
<polygon fill="none" stroke="black" points="84,-208 84,-260 368,-260 368,-208 84,-208"/>
</g>
<!-- EntitySubrecordComponent -->
<g id="node1" class="node">
<title>EntitySubrecordComponent</title>
<polygon fill="#ffffb3" stroke="black" points="284.59,-122 111.41,-122 111.41,-86 284.59,-86 284.59,-122"/>
<text text-anchor="middle" x="198" y="-99.8" font-family="Times,serif" font-size="14.00">EntitySubrecordComponent</text>
</g>
<!-- EntitySubrecordModule -->
<g id="node3" class="node">
<title>EntitySubrecordModule</title>
<polygon fill="#8dd3c7" stroke="black" points="310.81,-187 307.81,-191 286.81,-191 283.81,-187 159.19,-187 159.19,-151 310.81,-151 310.81,-187"/>
<text text-anchor="middle" x="235" y="-164.8" font-family="Times,serif" font-size="14.00">EntitySubrecordModule</text>
</g>
<!-- EntitySubrecordComponent&#45;&gt;EntitySubrecordModule -->
<g id="edge1" class="edge">
<title>EntitySubrecordComponent&#45;&gt;EntitySubrecordModule</title>
<path fill="none" stroke="black" d="M221.95,-122.11C221.95,-122.11 221.95,-140.99 221.95,-140.99"/>
<polygon fill="black" stroke="black" points="218.45,-140.99 221.95,-150.99 225.45,-140.99 218.45,-140.99"/>
</g>
<!-- KeysPipe -->
<g id="node2" class="node">
<title>KeysPipe</title>
<polygon fill="#ffffb3" stroke="black" points="93.65,-122 24.35,-122 24.35,-86 93.65,-86 93.65,-122"/>
<text text-anchor="middle" x="59" y="-99.8" font-family="Times,serif" font-size="14.00">KeysPipe</text>
</g>
<!-- KeysPipe&#45;&gt;EntitySubrecordModule -->
<g id="edge2" class="edge">
<title>KeysPipe&#45;&gt;EntitySubrecordModule</title>
<path fill="none" stroke="black" d="M58.3,-122.11C58.3,-141.34 58.3,-169 58.3,-169 58.3,-169 149.29,-169 149.29,-169"/>
<polygon fill="black" stroke="black" points="149.29,-172.5 159.29,-169 149.29,-165.5 149.29,-172.5"/>
</g>
<!-- EntitySubrecordComponent  -->
<g id="node6" class="node">
<title>EntitySubrecordComponent </title>
<polygon fill="#fb8072" stroke="black" points="360.09,-252 183.91,-252 183.91,-216 360.09,-216 360.09,-252"/>
<text text-anchor="middle" x="272" y="-229.8" font-family="Times,serif" font-size="14.00">EntitySubrecordComponent </text>
</g>
<!-- EntitySubrecordModule&#45;&gt;EntitySubrecordComponent  -->
<g id="edge5" class="edge">
<title>EntitySubrecordModule&#45;&gt;EntitySubrecordComponent </title>
<path fill="none" stroke="black" stroke-dasharray="5,2" d="M247.18,-187.11C247.18,-187.11 247.18,-205.99 247.18,-205.99"/>
<polygon fill="black" stroke="black" points="243.68,-205.99 247.18,-215.99 250.68,-205.99 243.68,-205.99"/>
</g>
<!-- KeysPipe  -->
<g id="node7" class="node">
<title>KeysPipe </title>
<polygon fill="#fb8072" stroke="black" points="165.65,-252 92.35,-252 92.35,-216 165.65,-216 165.65,-252"/>
<text text-anchor="middle" x="129" y="-229.8" font-family="Times,serif" font-size="14.00">KeysPipe </text>
</g>
<!-- EntitySubrecordModule&#45;&gt;KeysPipe  -->
<g id="edge6" class="edge">
<title>EntitySubrecordModule&#45;&gt;KeysPipe </title>
<path fill="none" stroke="black" stroke-dasharray="5,2" d="M174.64,-187.11C174.64,-206.34 174.64,-234 174.64,-234 174.64,-234 173.76,-234 173.76,-234"/>
<polygon fill="black" stroke="black" points="175.84,-230.5 165.84,-234 175.84,-237.5 175.84,-230.5"/>
</g>
<!-- ConfirmationDialogModule -->
<g id="node4" class="node">
<title>ConfirmationDialogModule</title>
<polygon fill="#8dd3c7" stroke="black" points="628.59,-122 625.59,-126 604.59,-126 601.59,-122 455.41,-122 455.41,-86 628.59,-86 628.59,-122"/>
<text text-anchor="middle" x="542" y="-99.8" font-family="Times,serif" font-size="14.00">ConfirmationDialogModule</text>
</g>
<!-- ConfirmationDialogModule&#45;&gt;EntitySubrecordModule -->
<g id="edge3" class="edge">
<title>ConfirmationDialogModule&#45;&gt;EntitySubrecordModule</title>
<path fill="none" stroke="black" d="M542,-122.11C542,-141.34 542,-169 542,-169 542,-169 320.89,-169 320.89,-169"/>
<polygon fill="black" stroke="black" points="320.89,-165.5 310.89,-169 320.89,-172.5 320.89,-165.5"/>
</g>
<!-- FormDialogModule -->
<g id="node5" class="node">
<title>FormDialogModule</title>
<polygon fill="#8dd3c7" stroke="black" points="436.99,-122 433.99,-126 412.99,-126 409.99,-122 309.01,-122 309.01,-86 436.99,-86 436.99,-122"/>
<text text-anchor="middle" x="373" y="-99.8" font-family="Times,serif" font-size="14.00">FormDialogModule</text>
</g>
<!-- FormDialogModule&#45;&gt;EntitySubrecordModule -->
<g id="edge4" class="edge">
<title>FormDialogModule&#45;&gt;EntitySubrecordModule</title>
<path fill="none" stroke="black" d="M308.69,-104C301.54,-104 296.78,-104 296.78,-104 296.78,-104 296.78,-140.89 296.78,-140.89"/>
<polygon fill="black" stroke="black" points="293.28,-140.89 296.78,-150.89 300.28,-140.89 293.28,-140.89"/>
</g>
</g>
</svg>
