<?xml version="1.0" encoding="UTF-8" standalone="no"?>
<!DOCTYPE svg PUBLIC "-//W3C//DTD SVG 1.1//EN"
 "http://www.w3.org/Graphics/SVG/1.1/DTD/svg11.dtd">
<!-- Generated by graphviz version 2.44.1 (20200629.0846)
 -->
<!-- Title: dependencies Pages: 1 -->
<svg width="661pt" height="284pt"
 viewBox="0.00 0.00 661.00 284.00" xmlns="http://www.w3.org/2000/svg" xmlns:xlink="http://www.w3.org/1999/xlink">
<g id="graph0" class="graph" transform="scale(1 1) rotate(0) translate(4 280)">
<title>dependencies</title>
<polygon fill="white" stroke="transparent" points="-4,4 -4,-280 657,-280 657,4 -4,4"/>
<text text-anchor="start" x="305.51" y="-42.4" font-family="sans-serif" font-weight="bold" font-size="14.00">Legend</text>
<polygon fill="#ffffb3" stroke="transparent" points="92.5,-10 92.5,-30 112.5,-30 112.5,-10 92.5,-10"/>
<text text-anchor="start" x="116.13" y="-15.4" font-family="sans-serif" font-size="14.00"> &#160;Declarations</text>
<polygon fill="#8dd3c7" stroke="transparent" points="205.5,-10 205.5,-30 225.5,-30 225.5,-10 205.5,-10"/>
<text text-anchor="start" x="229.23" y="-15.4" font-family="sans-serif" font-size="14.00"> &#160;Module</text>
<polygon fill="#80b1d3" stroke="transparent" points="291.5,-10 291.5,-30 311.5,-30 311.5,-10 291.5,-10"/>
<text text-anchor="start" x="315.28" y="-15.4" font-family="sans-serif" font-size="14.00"> &#160;Bootstrap</text>
<polygon fill="#fdb462" stroke="transparent" points="388.5,-10 388.5,-30 408.5,-30 408.5,-10 388.5,-10"/>
<text text-anchor="start" x="412.17" y="-15.4" font-family="sans-serif" font-size="14.00"> &#160;Providers</text>
<polygon fill="#fb8072" stroke="transparent" points="484.5,-10 484.5,-30 504.5,-30 504.5,-10 484.5,-10"/>
<text text-anchor="start" x="508.23" y="-15.4" font-family="sans-serif" font-size="14.00"> &#160;Exports</text>
<g id="clust1" class="cluster">
<title>cluster_EntitySubrecordModule</title>
<polygon fill="none" stroke="black" stroke-dasharray="1,5" points="8,-70 8,-268 645,-268 645,-70 8,-70"/>
</g>
<g id="clust2" class="cluster">
<title>cluster_EntitySubrecordModule_declarations</title>
<polygon fill="none" stroke="black" points="360,-78 360,-130 637,-130 637,-78 360,-78"/>
</g>
<g id="clust6" class="cluster">
<title>cluster_EntitySubrecordModule_exports</title>
<polygon fill="none" stroke="black" points="213,-208 213,-260 497,-260 497,-208 213,-208"/>
</g>
<g id="clust5" class="cluster">
<title>cluster_EntitySubrecordModule_imports</title>
<polygon fill="none" stroke="black" points="16,-78 16,-130 352,-130 352,-78 16,-78"/>
</g>
<!-- EntitySubrecordComponent -->
<g id="node1" class="node">
<title>EntitySubrecordComponent</title>
<polygon fill="#ffffb3" stroke="black" points="628.59,-122 455.41,-122 455.41,-86 628.59,-86 628.59,-122"/>
<text text-anchor="middle" x="542" y="-99.8" font-family="Times,serif" font-size="14.00">EntitySubrecordComponent</text>
</g>
<!-- EntitySubrecordModule -->
<g id="node3" class="node">
<title>EntitySubrecordModule</title>
<polygon fill="#8dd3c7" stroke="black" points="405.81,-187 402.81,-191 381.81,-191 378.81,-187 254.19,-187 254.19,-151 405.81,-151 405.81,-187"/>
<text text-anchor="middle" x="330" y="-164.8" font-family="Times,serif" font-size="14.00">EntitySubrecordModule</text>
</g>
<!-- EntitySubrecordComponent&#45;&gt;EntitySubrecordModule -->
<g id="edge1" class="edge">
<title>EntitySubrecordComponent&#45;&gt;EntitySubrecordModule</title>
<path fill="none" stroke="black" d="M472.38,-122.11C472.38,-141.34 472.38,-169 472.38,-169 472.38,-169 415.77,-169 415.77,-169"/>
<polygon fill="black" stroke="black" points="415.77,-165.5 405.77,-169 415.77,-172.5 415.77,-165.5"/>
</g>
<!-- KeysPipe -->
<g id="node2" class="node">
<title>KeysPipe</title>
<polygon fill="#ffffb3" stroke="black" points="437.65,-122 368.35,-122 368.35,-86 437.65,-86 437.65,-122"/>
<text text-anchor="middle" x="403" y="-99.8" font-family="Times,serif" font-size="14.00">KeysPipe</text>
</g>
<!-- KeysPipe&#45;&gt;EntitySubrecordModule -->
<g id="edge2" class="edge">
<title>KeysPipe&#45;&gt;EntitySubrecordModule</title>
<path fill="none" stroke="black" d="M386.91,-122.11C386.91,-122.11 386.91,-140.99 386.91,-140.99"/>
<polygon fill="black" stroke="black" points="383.41,-140.99 386.91,-150.99 390.41,-140.99 383.41,-140.99"/>
</g>
<!-- EntitySubrecordComponent  -->
<g id="node6" class="node">
<title>EntitySubrecordComponent </title>
<polygon fill="#fb8072" stroke="black" points="489.09,-252 312.91,-252 312.91,-216 489.09,-216 489.09,-252"/>
<text text-anchor="middle" x="401" y="-229.8" font-family="Times,serif" font-size="14.00">EntitySubrecordComponent </text>
</g>
<!-- EntitySubrecordModule&#45;&gt;EntitySubrecordComponent  -->
<g id="edge5" class="edge">
<title>EntitySubrecordModule&#45;&gt;EntitySubrecordComponent </title>
<path fill="none" stroke="black" stroke-dasharray="5,2" d="M359.18,-187.11C359.18,-187.11 359.18,-205.99 359.18,-205.99"/>
<polygon fill="black" stroke="black" points="355.68,-205.99 359.18,-215.99 362.68,-205.99 355.68,-205.99"/>
</g>
<!-- KeysPipe  -->
<g id="node7" class="node">
<title>KeysPipe </title>
<polygon fill="#fb8072" stroke="black" points="294.65,-252 221.35,-252 221.35,-216 294.65,-216 294.65,-252"/>
<text text-anchor="middle" x="258" y="-229.8" font-family="Times,serif" font-size="14.00">KeysPipe </text>
</g>
<!-- EntitySubrecordModule&#45;&gt;KeysPipe  -->
<g id="edge6" class="edge">
<title>EntitySubrecordModule&#45;&gt;KeysPipe </title>
<path fill="none" stroke="black" stroke-dasharray="5,2" d="M274.46,-187.11C274.46,-187.11 274.46,-205.99 274.46,-205.99"/>
<polygon fill="black" stroke="black" points="270.96,-205.99 274.46,-215.99 277.96,-205.99 270.96,-205.99"/>
</g>
<!-- ConfirmationDialogModule -->
<g id="node4" class="node">
<title>ConfirmationDialogModule</title>
<polygon fill="#8dd3c7" stroke="black" points="343.59,-122 340.59,-126 319.59,-126 316.59,-122 170.41,-122 170.41,-86 343.59,-86 343.59,-122"/>
<text text-anchor="middle" x="257" y="-99.8" font-family="Times,serif" font-size="14.00">ConfirmationDialogModule</text>
</g>
<!-- ConfirmationDialogModule&#45;&gt;EntitySubrecordModule -->
<g id="edge3" class="edge">
<title>ConfirmationDialogModule&#45;&gt;EntitySubrecordModule</title>
<path fill="none" stroke="black" d="M298.94,-122.11C298.94,-122.11 298.94,-140.99 298.94,-140.99"/>
<polygon fill="black" stroke="black" points="295.45,-140.99 298.94,-150.99 302.45,-140.99 295.45,-140.99"/>
</g>
<!-- FormDialogModule -->
<g id="node5" class="node">
<title>FormDialogModule</title>
<polygon fill="#8dd3c7" stroke="black" points="151.99,-122 148.99,-126 127.99,-126 124.99,-122 24.01,-122 24.01,-86 151.99,-86 151.99,-122"/>
<text text-anchor="middle" x="88" y="-99.8" font-family="Times,serif" font-size="14.00">FormDialogModule</text>
</g>
<!-- FormDialogModule&#45;&gt;EntitySubrecordModule -->
<g id="edge4" class="edge">
<title>FormDialogModule&#45;&gt;EntitySubrecordModule</title>
<path fill="none" stroke="black" d="M88,-122.11C88,-141.34 88,-169 88,-169 88,-169 244.09,-169 244.09,-169"/>
<polygon fill="black" stroke="black" points="244.09,-172.5 254.09,-169 244.09,-165.5 244.09,-172.5"/>
</g>
</g>
</svg>
