<?xml version="1.0" encoding="UTF-8" standalone="no"?>
<!DOCTYPE svg PUBLIC "-//W3C//DTD SVG 1.1//EN"
 "http://www.w3.org/Graphics/SVG/1.1/DTD/svg11.dtd">
<!-- Generated by graphviz version 2.44.1 (20200629.0846)
 -->
<!-- Title: dependencies Pages: 1 -->
<svg width="1863pt" height="211pt"
 viewBox="0.00 0.00 1863.00 211.00" xmlns="http://www.w3.org/2000/svg" xmlns:xlink="http://www.w3.org/1999/xlink">
<g id="graph0" class="graph" transform="scale(1 1) rotate(0) translate(4 207)">
<title>dependencies</title>
<polygon fill="white" stroke="transparent" points="-4,4 -4,-207 1859,-207 1859,4 -4,4"/>
<text text-anchor="start" x="906.51" y="-42.4" font-family="sans-serif" font-weight="bold" font-size="14.00">Legend</text>
<polygon fill="#ffffb3" stroke="transparent" points="693.5,-10 693.5,-30 713.5,-30 713.5,-10 693.5,-10"/>
<text text-anchor="start" x="717.13" y="-15.4" font-family="sans-serif" font-size="14.00"> &#160;Declarations</text>
<polygon fill="#8dd3c7" stroke="transparent" points="806.5,-10 806.5,-30 826.5,-30 826.5,-10 806.5,-10"/>
<text text-anchor="start" x="830.23" y="-15.4" font-family="sans-serif" font-size="14.00"> &#160;Module</text>
<polygon fill="#80b1d3" stroke="transparent" points="892.5,-10 892.5,-30 912.5,-30 912.5,-10 892.5,-10"/>
<text text-anchor="start" x="916.28" y="-15.4" font-family="sans-serif" font-size="14.00"> &#160;Bootstrap</text>
<polygon fill="#fdb462" stroke="transparent" points="989.5,-10 989.5,-30 1009.5,-30 1009.5,-10 989.5,-10"/>
<text text-anchor="start" x="1013.17" y="-15.4" font-family="sans-serif" font-size="14.00"> &#160;Providers</text>
<polygon fill="#fb8072" stroke="transparent" points="1085.5,-10 1085.5,-30 1105.5,-30 1105.5,-10 1085.5,-10"/>
<text text-anchor="start" x="1109.23" y="-15.4" font-family="sans-serif" font-size="14.00"> &#160;Exports</text>
<g id="clust1" class="cluster">
<title>cluster_NotesModule</title>
<polygon fill="none" stroke="black" stroke-dasharray="1,5" points="8,-70 8,-195 1847,-195 1847,-70 8,-70"/>
</g>
<g id="clust2" class="cluster">
<title>cluster_NotesModule_declarations</title>
<polygon fill="none" stroke="black" points="1027,-78 1027,-130 1839,-130 1839,-78 1027,-78"/>
</g>
<g id="clust10" class="cluster">
<title>cluster_NotesModule_providers</title>
<polygon fill="none" stroke="black" points="777,-78 777,-130 1019,-130 1019,-78 777,-78"/>
</g>
<g id="clust7" class="cluster">
<title>cluster_NotesModule_imports</title>
<polygon fill="none" stroke="black" points="16,-78 16,-130 769,-130 769,-78 16,-78"/>
</g>
<!-- ChildMeetingNoteAttendanceComponent -->
<g id="node1" class="node">
<title>ChildMeetingNoteAttendanceComponent</title>
<polygon fill="#ffffb3" stroke="black" points="1831.06,-122 1580.94,-122 1580.94,-86 1831.06,-86 1831.06,-122"/>
<text text-anchor="middle" x="1706" y="-99.8" font-family="Times,serif" font-size="14.00">ChildMeetingNoteAttendanceComponent</text>
</g>
<!-- NotesModule -->
<g id="node5" class="node">
<title>NotesModule</title>
<polygon fill="#8dd3c7" stroke="black" points="848.21,-187 845.21,-191 824.21,-191 821.21,-187 755.79,-187 755.79,-151 848.21,-151 848.21,-187"/>
<text text-anchor="middle" x="802" y="-164.8" font-family="Times,serif" font-size="14.00">NotesModule</text>
</g>
<!-- ChildMeetingNoteAttendanceComponent&#45;&gt;NotesModule -->
<g id="edge1" class="edge">
<title>ChildMeetingNoteAttendanceComponent&#45;&gt;NotesModule</title>
<path fill="none" stroke="black" d="M1706,-122.01C1706,-144.49 1706,-180 1706,-180 1706,-180 858.39,-180 858.39,-180"/>
<polygon fill="black" stroke="black" points="858.39,-176.5 848.39,-180 858.39,-183.5 858.39,-176.5"/>
</g>
<!-- NoteDetailsComponent -->
<g id="node2" class="node">
<title>NoteDetailsComponent</title>
<polygon fill="#ffffb3" stroke="black" points="1563.2,-122 1414.8,-122 1414.8,-86 1563.2,-86 1563.2,-122"/>
<text text-anchor="middle" x="1489" y="-99.8" font-family="Times,serif" font-size="14.00">NoteDetailsComponent</text>
</g>
<!-- NoteDetailsComponent&#45;&gt;NotesModule -->
<g id="edge2" class="edge">
<title>NoteDetailsComponent&#45;&gt;NotesModule</title>
<path fill="none" stroke="black" d="M1489,-122.13C1489,-142.57 1489,-173 1489,-173 1489,-173 858.14,-173 858.14,-173"/>
<polygon fill="black" stroke="black" points="858.14,-169.5 848.14,-173 858.14,-176.5 858.14,-169.5"/>
</g>
<!-- NotePresenceListComponent -->
<g id="node3" class="node">
<title>NotePresenceListComponent</title>
<polygon fill="#ffffb3" stroke="black" points="1397.07,-122 1216.93,-122 1216.93,-86 1397.07,-86 1397.07,-122"/>
<text text-anchor="middle" x="1307" y="-99.8" font-family="Times,serif" font-size="14.00">NotePresenceListComponent</text>
</g>
<!-- NotePresenceListComponent&#45;&gt;NotesModule -->
<g id="edge3" class="edge">
<title>NotePresenceListComponent&#45;&gt;NotesModule</title>
<path fill="none" stroke="black" d="M1307,-122.27C1307,-140.56 1307,-166 1307,-166 1307,-166 858.15,-166 858.15,-166"/>
<polygon fill="black" stroke="black" points="858.15,-162.5 848.15,-166 858.15,-169.5 858.15,-162.5"/>
</g>
<!-- NotesManagerComponent -->
<g id="node4" class="node">
<title>NotesManagerComponent</title>
<polygon fill="#ffffb3" stroke="black" points="1198.74,-122 1035.26,-122 1035.26,-86 1198.74,-86 1198.74,-122"/>
<text text-anchor="middle" x="1117" y="-99.8" font-family="Times,serif" font-size="14.00">NotesManagerComponent</text>
</g>
<!-- NotesManagerComponent&#45;&gt;NotesModule -->
<g id="edge4" class="edge">
<title>NotesManagerComponent&#45;&gt;NotesModule</title>
<path fill="none" stroke="black" d="M1117,-122.01C1117,-138.05 1117,-159 1117,-159 1117,-159 858.14,-159 858.14,-159"/>
<polygon fill="black" stroke="black" points="858.14,-155.5 848.14,-159 858.14,-162.5 858.14,-155.5"/>
</g>
<!-- ChildrenModule -->
<g id="node6" class="node">
<title>ChildrenModule</title>
<polygon fill="#8dd3c7" stroke="black" points="761.04,-122 758.04,-126 737.04,-126 734.04,-122 652.96,-122 652.96,-86 761.04,-86 761.04,-122"/>
<text text-anchor="middle" x="707" y="-99.8" font-family="Times,serif" font-size="14.00">ChildrenModule</text>
</g>
<!-- ChildrenModule&#45;&gt;NotesModule -->
<g id="edge5" class="edge">
<title>ChildrenModule&#45;&gt;NotesModule</title>
<path fill="none" stroke="black" d="M761.34,-104C768.36,-104 773.17,-104 773.17,-104 773.17,-104 773.17,-140.89 773.17,-140.89"/>
<polygon fill="black" stroke="black" points="769.67,-140.89 773.17,-150.89 776.67,-140.89 769.67,-140.89"/>
</g>
<!-- ConfirmationDialogModule -->
<g id="node7" class="node">
<title>ConfirmationDialogModule</title>
<polygon fill="#8dd3c7" stroke="black" points="634.59,-122 631.59,-126 610.59,-126 607.59,-122 461.41,-122 461.41,-86 634.59,-86 634.59,-122"/>
<text text-anchor="middle" x="548" y="-99.8" font-family="Times,serif" font-size="14.00">ConfirmationDialogModule</text>
</g>
<!-- ConfirmationDialogModule&#45;&gt;NotesModule -->
<g id="edge6" class="edge">
<title>ConfirmationDialogModule&#45;&gt;NotesModule</title>
<path fill="none" stroke="black" d="M548,-122.01C548,-138.05 548,-159 548,-159 548,-159 745.71,-159 745.71,-159"/>
<polygon fill="black" stroke="black" points="745.71,-162.5 755.71,-159 745.71,-155.5 745.71,-162.5"/>
</g>
<!-- EntitySubrecordModule -->
<g id="node8" class="node">
<title>EntitySubrecordModule</title>
<polygon fill="#8dd3c7" stroke="black" points="443.81,-122 440.81,-126 419.81,-126 416.81,-122 292.19,-122 292.19,-86 443.81,-86 443.81,-122"/>
<text text-anchor="middle" x="368" y="-99.8" font-family="Times,serif" font-size="14.00">EntitySubrecordModule</text>
</g>
<!-- EntitySubrecordModule&#45;&gt;NotesModule -->
<g id="edge7" class="edge">
<title>EntitySubrecordModule&#45;&gt;NotesModule</title>
<path fill="none" stroke="black" d="M368,-122.27C368,-140.56 368,-166 368,-166 368,-166 745.55,-166 745.55,-166"/>
<polygon fill="black" stroke="black" points="745.55,-169.5 755.55,-166 745.55,-162.5 745.55,-169.5"/>
</g>
<!-- FormDialogModule -->
<g id="node9" class="node">
<title>FormDialogModule</title>
<polygon fill="#8dd3c7" stroke="black" points="273.99,-122 270.99,-126 249.99,-126 246.99,-122 146.01,-122 146.01,-86 273.99,-86 273.99,-122"/>
<text text-anchor="middle" x="210" y="-99.8" font-family="Times,serif" font-size="14.00">FormDialogModule</text>
</g>
<!-- FormDialogModule&#45;&gt;NotesModule -->
<g id="edge8" class="edge">
<title>FormDialogModule&#45;&gt;NotesModule</title>
<path fill="none" stroke="black" d="M210,-122.13C210,-142.57 210,-173 210,-173 210,-173 745.55,-173 745.55,-173"/>
<polygon fill="black" stroke="black" points="745.55,-176.5 755.55,-173 745.55,-169.5 745.55,-176.5"/>
</g>
<!-- SchoolsModule -->
<g id="node10" class="node">
<title>SchoolsModule</title>
<polygon fill="#8dd3c7" stroke="black" points="127.88,-122 124.88,-126 103.88,-126 100.88,-122 24.12,-122 24.12,-86 127.88,-86 127.88,-122"/>
<text text-anchor="middle" x="76" y="-99.8" font-family="Times,serif" font-size="14.00">SchoolsModule</text>
</g>
<!-- SchoolsModule&#45;&gt;NotesModule -->
<g id="edge9" class="edge">
<title>SchoolsModule&#45;&gt;NotesModule</title>
<path fill="none" stroke="black" d="M76,-122.01C76,-144.49 76,-180 76,-180 76,-180 745.76,-180 745.76,-180"/>
<polygon fill="black" stroke="black" points="745.76,-183.5 755.76,-180 745.76,-176.5 745.76,-183.5"/>
</g>
<!-- NoteConfigLoaderService -->
<g id="node11" class="node">
<title>NoteConfigLoaderService</title>
<ellipse fill="#fdb462" stroke="black" cx="898" cy="-104" rx="112.86" ry="18"/>
<text text-anchor="middle" x="898" y="-99.8" font-family="Times,serif" font-size="14.00">NoteConfigLoaderService</text>
</g>
<!-- NoteConfigLoaderService&#45;&gt;NotesModule -->
<g id="edge10" class="edge">
<title>NoteConfigLoaderService&#45;&gt;NotesModule</title>
<path fill="none" stroke="black" d="M816.59,-116.53C816.59,-116.53 816.59,-140.85 816.59,-140.85"/>
<polygon fill="black" stroke="black" points="813.09,-140.85 816.59,-150.85 820.09,-140.85 813.09,-140.85"/>
</g>
</g>
</svg>
