<?xml version="1.0" encoding="UTF-8" standalone="no"?>
<!DOCTYPE svg PUBLIC "-//W3C//DTD SVG 1.1//EN"
 "http://www.w3.org/Graphics/SVG/1.1/DTD/svg11.dtd">
<!-- Generated by graphviz version 2.44.1 (20200629.0846)
 -->
<!-- Title: dependencies Pages: 1 -->
<svg width="1613pt" height="211pt"
 viewBox="0.00 0.00 1613.00 211.00" xmlns="http://www.w3.org/2000/svg" xmlns:xlink="http://www.w3.org/1999/xlink">
<g id="graph0" class="graph" transform="scale(1 1) rotate(0) translate(4 207)">
<title>dependencies</title>
<polygon fill="white" stroke="transparent" points="-4,4 -4,-207 1609,-207 1609,4 -4,4"/>
<text text-anchor="start" x="781.51" y="-42.4" font-family="sans-serif" font-weight="bold" font-size="14.00">Legend</text>
<polygon fill="#ffffb3" stroke="transparent" points="568.5,-10 568.5,-30 588.5,-30 588.5,-10 568.5,-10"/>
<text text-anchor="start" x="592.13" y="-15.4" font-family="sans-serif" font-size="14.00"> &#160;Declarations</text>
<polygon fill="#8dd3c7" stroke="transparent" points="681.5,-10 681.5,-30 701.5,-30 701.5,-10 681.5,-10"/>
<text text-anchor="start" x="705.23" y="-15.4" font-family="sans-serif" font-size="14.00"> &#160;Module</text>
<polygon fill="#80b1d3" stroke="transparent" points="767.5,-10 767.5,-30 787.5,-30 787.5,-10 767.5,-10"/>
<text text-anchor="start" x="791.28" y="-15.4" font-family="sans-serif" font-size="14.00"> &#160;Bootstrap</text>
<polygon fill="#fdb462" stroke="transparent" points="864.5,-10 864.5,-30 884.5,-30 884.5,-10 864.5,-10"/>
<text text-anchor="start" x="888.17" y="-15.4" font-family="sans-serif" font-size="14.00"> &#160;Providers</text>
<polygon fill="#fb8072" stroke="transparent" points="960.5,-10 960.5,-30 980.5,-30 980.5,-10 960.5,-10"/>
<text text-anchor="start" x="984.23" y="-15.4" font-family="sans-serif" font-size="14.00"> &#160;Exports</text>
<g id="clust1" class="cluster">
<title>cluster_NotesModule</title>
<polygon fill="none" stroke="black" stroke-dasharray="1,5" points="8,-70 8,-195 1597,-195 1597,-70 8,-70"/>
</g>
<g id="clust2" class="cluster">
<title>cluster_NotesModule_declarations</title>
<polygon fill="none" stroke="black" points="777,-78 777,-130 1589,-130 1589,-78 777,-78"/>
</g>
<g id="clust7" class="cluster">
<title>cluster_NotesModule_imports</title>
<polygon fill="none" stroke="black" points="16,-78 16,-130 769,-130 769,-78 16,-78"/>
</g>
<!-- ChildMeetingNoteAttendanceComponent -->
<g id="node1" class="node">
<title>ChildMeetingNoteAttendanceComponent</title>
<polygon fill="#ffffb3" stroke="black" points="1581.06,-122 1330.94,-122 1330.94,-86 1581.06,-86 1581.06,-122"/>
<text text-anchor="middle" x="1456" y="-99.8" font-family="Times,serif" font-size="14.00">ChildMeetingNoteAttendanceComponent</text>
</g>
<!-- NotesModule -->
<g id="node5" class="node">
<title>NotesModule</title>
<polygon fill="#8dd3c7" stroke="black" points="753.21,-187 750.21,-191 729.21,-191 726.21,-187 660.79,-187 660.79,-151 753.21,-151 753.21,-187"/>
<text text-anchor="middle" x="707" y="-164.8" font-family="Times,serif" font-size="14.00">NotesModule</text>
</g>
<!-- ChildMeetingNoteAttendanceComponent&#45;&gt;NotesModule -->
<g id="edge1" class="edge">
<title>ChildMeetingNoteAttendanceComponent&#45;&gt;NotesModule</title>
<path fill="none" stroke="black" d="M1456,-122.01C1456,-144.49 1456,-180 1456,-180 1456,-180 763.29,-180 763.29,-180"/>
<polygon fill="black" stroke="black" points="763.29,-176.5 753.29,-180 763.29,-183.5 763.29,-176.5"/>
</g>
<!-- NoteDetailsComponent -->
<g id="node2" class="node">
<title>NoteDetailsComponent</title>
<polygon fill="#ffffb3" stroke="black" points="1313.2,-122 1164.8,-122 1164.8,-86 1313.2,-86 1313.2,-122"/>
<text text-anchor="middle" x="1239" y="-99.8" font-family="Times,serif" font-size="14.00">NoteDetailsComponent</text>
</g>
<!-- NoteDetailsComponent&#45;&gt;NotesModule -->
<g id="edge2" class="edge">
<title>NoteDetailsComponent&#45;&gt;NotesModule</title>
<path fill="none" stroke="black" d="M1239,-122.13C1239,-142.57 1239,-173 1239,-173 1239,-173 763.28,-173 763.28,-173"/>
<polygon fill="black" stroke="black" points="763.28,-169.5 753.28,-173 763.28,-176.5 763.28,-169.5"/>
</g>
<!-- NotePresenceListComponent -->
<g id="node3" class="node">
<title>NotePresenceListComponent</title>
<polygon fill="#ffffb3" stroke="black" points="1147.07,-122 966.93,-122 966.93,-86 1147.07,-86 1147.07,-122"/>
<text text-anchor="middle" x="1057" y="-99.8" font-family="Times,serif" font-size="14.00">NotePresenceListComponent</text>
</g>
<!-- NotePresenceListComponent&#45;&gt;NotesModule -->
<g id="edge3" class="edge">
<title>NotePresenceListComponent&#45;&gt;NotesModule</title>
<path fill="none" stroke="black" d="M1057,-122.27C1057,-140.56 1057,-166 1057,-166 1057,-166 763.12,-166 763.12,-166"/>
<polygon fill="black" stroke="black" points="763.12,-162.5 753.12,-166 763.12,-169.5 763.12,-162.5"/>
</g>
<!-- NotesManagerComponent -->
<g id="node4" class="node">
<title>NotesManagerComponent</title>
<polygon fill="#ffffb3" stroke="black" points="948.74,-122 785.26,-122 785.26,-86 948.74,-86 948.74,-122"/>
<text text-anchor="middle" x="867" y="-99.8" font-family="Times,serif" font-size="14.00">NotesManagerComponent</text>
</g>
<!-- NotesManagerComponent&#45;&gt;NotesModule -->
<g id="edge4" class="edge">
<title>NotesManagerComponent&#45;&gt;NotesModule</title>
<path fill="none" stroke="black" d="M867,-122.01C867,-138.05 867,-159 867,-159 867,-159 763.28,-159 763.28,-159"/>
<polygon fill="black" stroke="black" points="763.28,-155.5 753.28,-159 763.28,-162.5 763.28,-155.5"/>
</g>
<!-- ChildrenModule -->
<g id="node6" class="node">
<title>ChildrenModule</title>
<polygon fill="#8dd3c7" stroke="black" points="761.04,-122 758.04,-126 737.04,-126 734.04,-122 652.96,-122 652.96,-86 761.04,-86 761.04,-122"/>
<text text-anchor="middle" x="707" y="-99.8" font-family="Times,serif" font-size="14.00">ChildrenModule</text>
</g>
<!-- ChildrenModule&#45;&gt;NotesModule -->
<g id="edge5" class="edge">
<title>ChildrenModule&#45;&gt;NotesModule</title>
<path fill="none" stroke="black" d="M707,-122.11C707,-122.11 707,-140.99 707,-140.99"/>
<polygon fill="black" stroke="black" points="703.5,-140.99 707,-150.99 710.5,-140.99 703.5,-140.99"/>
</g>
<!-- ConfirmationDialogModule -->
<g id="node7" class="node">
<title>ConfirmationDialogModule</title>
<polygon fill="#8dd3c7" stroke="black" points="634.59,-122 631.59,-126 610.59,-126 607.59,-122 461.41,-122 461.41,-86 634.59,-86 634.59,-122"/>
<text text-anchor="middle" x="548" y="-99.8" font-family="Times,serif" font-size="14.00">ConfirmationDialogModule</text>
</g>
<!-- ConfirmationDialogModule&#45;&gt;NotesModule -->
<g id="edge6" class="edge">
<title>ConfirmationDialogModule&#45;&gt;NotesModule</title>
<path fill="none" stroke="black" d="M548,-122.01C548,-138.05 548,-159 548,-159 548,-159 650.58,-159 650.58,-159"/>
<polygon fill="black" stroke="black" points="650.58,-162.5 660.58,-159 650.58,-155.5 650.58,-162.5"/>
</g>
<!-- EntitySubrecordModule -->
<g id="node8" class="node">
<title>EntitySubrecordModule</title>
<polygon fill="#8dd3c7" stroke="black" points="443.81,-122 440.81,-126 419.81,-126 416.81,-122 292.19,-122 292.19,-86 443.81,-86 443.81,-122"/>
<text text-anchor="middle" x="368" y="-99.8" font-family="Times,serif" font-size="14.00">EntitySubrecordModule</text>
</g>
<!-- EntitySubrecordModule&#45;&gt;NotesModule -->
<g id="edge7" class="edge">
<title>EntitySubrecordModule&#45;&gt;NotesModule</title>
<path fill="none" stroke="black" d="M368,-122.27C368,-140.56 368,-166 368,-166 368,-166 650.57,-166 650.57,-166"/>
<polygon fill="black" stroke="black" points="650.57,-169.5 660.57,-166 650.57,-162.5 650.57,-169.5"/>
</g>
<!-- FormDialogModule -->
<g id="node9" class="node">
<title>FormDialogModule</title>
<polygon fill="#8dd3c7" stroke="black" points="273.99,-122 270.99,-126 249.99,-126 246.99,-122 146.01,-122 146.01,-86 273.99,-86 273.99,-122"/>
<text text-anchor="middle" x="210" y="-99.8" font-family="Times,serif" font-size="14.00">FormDialogModule</text>
</g>
<!-- FormDialogModule&#45;&gt;NotesModule -->
<g id="edge8" class="edge">
<title>FormDialogModule&#45;&gt;NotesModule</title>
<path fill="none" stroke="black" d="M210,-122.13C210,-142.57 210,-173 210,-173 210,-173 650.69,-173 650.69,-173"/>
<polygon fill="black" stroke="black" points="650.69,-176.5 660.69,-173 650.69,-169.5 650.69,-176.5"/>
</g>
<!-- SchoolsModule -->
<g id="node10" class="node">
<title>SchoolsModule</title>
<polygon fill="#8dd3c7" stroke="black" points="127.88,-122 124.88,-126 103.88,-126 100.88,-122 24.12,-122 24.12,-86 127.88,-86 127.88,-122"/>
<text text-anchor="middle" x="76" y="-99.8" font-family="Times,serif" font-size="14.00">SchoolsModule</text>
</g>
<!-- SchoolsModule&#45;&gt;NotesModule -->
<g id="edge9" class="edge">
<title>SchoolsModule&#45;&gt;NotesModule</title>
<path fill="none" stroke="black" d="M76,-122.01C76,-144.49 76,-180 76,-180 76,-180 650.86,-180 650.86,-180"/>
<polygon fill="black" stroke="black" points="650.86,-183.5 660.86,-180 650.86,-176.5 650.86,-183.5"/>
</g>
</g>
</svg>
