<?xml version="1.0" encoding="UTF-8" standalone="no"?>
<!DOCTYPE svg PUBLIC "-//W3C//DTD SVG 1.1//EN"
 "http://www.w3.org/Graphics/SVG/1.1/DTD/svg11.dtd">
<!-- Generated by graphviz version 2.44.1 (20200629.0846)
 -->
<!-- Title: dependencies Pages: 1 -->
<svg width="1863pt" height="211pt"
 viewBox="0.00 0.00 1863.00 211.00" xmlns="http://www.w3.org/2000/svg" xmlns:xlink="http://www.w3.org/1999/xlink">
<g id="graph0" class="graph" transform="scale(1 1) rotate(0) translate(4 207)">
<title>dependencies</title>
<polygon fill="white" stroke="transparent" points="-4,4 -4,-207 1859,-207 1859,4 -4,4"/>
<text text-anchor="start" x="906.51" y="-42.4" font-family="sans-serif" font-weight="bold" font-size="14.00">Legend</text>
<polygon fill="#ffffb3" stroke="transparent" points="693.5,-10 693.5,-30 713.5,-30 713.5,-10 693.5,-10"/>
<text text-anchor="start" x="717.13" y="-15.4" font-family="sans-serif" font-size="14.00"> &#160;Declarations</text>
<polygon fill="#8dd3c7" stroke="transparent" points="806.5,-10 806.5,-30 826.5,-30 826.5,-10 806.5,-10"/>
<text text-anchor="start" x="830.23" y="-15.4" font-family="sans-serif" font-size="14.00"> &#160;Module</text>
<polygon fill="#80b1d3" stroke="transparent" points="892.5,-10 892.5,-30 912.5,-30 912.5,-10 892.5,-10"/>
<text text-anchor="start" x="916.28" y="-15.4" font-family="sans-serif" font-size="14.00"> &#160;Bootstrap</text>
<polygon fill="#fdb462" stroke="transparent" points="989.5,-10 989.5,-30 1009.5,-30 1009.5,-10 989.5,-10"/>
<text text-anchor="start" x="1013.17" y="-15.4" font-family="sans-serif" font-size="14.00"> &#160;Providers</text>
<polygon fill="#fb8072" stroke="transparent" points="1085.5,-10 1085.5,-30 1105.5,-30 1105.5,-10 1085.5,-10"/>
<text text-anchor="start" x="1109.23" y="-15.4" font-family="sans-serif" font-size="14.00"> &#160;Exports</text>
<g id="clust1" class="cluster">
<title>cluster_NotesModule</title>
<polygon fill="none" stroke="black" stroke-dasharray="1,5" points="8,-70 8,-195 1847,-195 1847,-70 8,-70"/>
</g>
<g id="clust7" class="cluster">
<title>cluster_NotesModule_imports</title>
<polygon fill="none" stroke="black" points="1086,-78 1086,-130 1839,-130 1839,-78 1086,-78"/>
</g>
<g id="clust10" class="cluster">
<title>cluster_NotesModule_providers</title>
<polygon fill="none" stroke="black" points="836,-78 836,-130 1078,-130 1078,-78 836,-78"/>
</g>
<g id="clust2" class="cluster">
<title>cluster_NotesModule_declarations</title>
<polygon fill="none" stroke="black" points="16,-78 16,-130 828,-130 828,-78 16,-78"/>
</g>
<!-- ChildMeetingNoteAttendanceComponent -->
<g id="node1" class="node">
<title>ChildMeetingNoteAttendanceComponent</title>
<polygon fill="#ffffb3" stroke="black" points="820.06,-122 569.94,-122 569.94,-86 820.06,-86 820.06,-122"/>
<text text-anchor="middle" x="695" y="-99.8" font-family="Times,serif" font-size="14.00">ChildMeetingNoteAttendanceComponent</text>
</g>
<!-- NotesModule -->
<g id="node5" class="node">
<title>NotesModule</title>
<polygon fill="#8dd3c7" stroke="black" points="1097.21,-187 1094.21,-191 1073.21,-191 1070.21,-187 1004.79,-187 1004.79,-151 1097.21,-151 1097.21,-187"/>
<text text-anchor="middle" x="1051" y="-164.8" font-family="Times,serif" font-size="14.00">NotesModule</text>
</g>
<!-- ChildMeetingNoteAttendanceComponent&#45;&gt;NotesModule -->
<g id="edge1" class="edge">
<title>ChildMeetingNoteAttendanceComponent&#45;&gt;NotesModule</title>
<path fill="none" stroke="black" d="M695,-122.01C695,-138.05 695,-159 695,-159 695,-159 994.82,-159 994.82,-159"/>
<polygon fill="black" stroke="black" points="994.82,-162.5 1004.82,-159 994.82,-155.5 994.82,-162.5"/>
</g>
<!-- NoteDetailsComponent -->
<g id="node2" class="node">
<title>NoteDetailsComponent</title>
<polygon fill="#ffffb3" stroke="black" points="552.2,-122 403.8,-122 403.8,-86 552.2,-86 552.2,-122"/>
<text text-anchor="middle" x="478" y="-99.8" font-family="Times,serif" font-size="14.00">NoteDetailsComponent</text>
</g>
<!-- NoteDetailsComponent&#45;&gt;NotesModule -->
<g id="edge2" class="edge">
<title>NoteDetailsComponent&#45;&gt;NotesModule</title>
<path fill="none" stroke="black" d="M478,-122.27C478,-140.56 478,-166 478,-166 478,-166 994.59,-166 994.59,-166"/>
<polygon fill="black" stroke="black" points="994.59,-169.5 1004.59,-166 994.59,-162.5 994.59,-169.5"/>
</g>
<!-- NotePresenceListComponent -->
<g id="node3" class="node">
<title>NotePresenceListComponent</title>
<polygon fill="#ffffb3" stroke="black" points="386.07,-122 205.93,-122 205.93,-86 386.07,-86 386.07,-122"/>
<text text-anchor="middle" x="296" y="-99.8" font-family="Times,serif" font-size="14.00">NotePresenceListComponent</text>
</g>
<!-- NotePresenceListComponent&#45;&gt;NotesModule -->
<g id="edge3" class="edge">
<title>NotePresenceListComponent&#45;&gt;NotesModule</title>
<path fill="none" stroke="black" d="M296,-122.13C296,-142.57 296,-173 296,-173 296,-173 994.62,-173 994.62,-173"/>
<polygon fill="black" stroke="black" points="994.62,-176.5 1004.62,-173 994.62,-169.5 994.62,-176.5"/>
</g>
<!-- NotesManagerComponent -->
<g id="node4" class="node">
<title>NotesManagerComponent</title>
<polygon fill="#ffffb3" stroke="black" points="187.74,-122 24.26,-122 24.26,-86 187.74,-86 187.74,-122"/>
<text text-anchor="middle" x="106" y="-99.8" font-family="Times,serif" font-size="14.00">NotesManagerComponent</text>
</g>
<!-- NotesManagerComponent&#45;&gt;NotesModule -->
<g id="edge4" class="edge">
<title>NotesManagerComponent&#45;&gt;NotesModule</title>
<path fill="none" stroke="black" d="M106,-122.01C106,-144.49 106,-180 106,-180 106,-180 994.78,-180 994.78,-180"/>
<polygon fill="black" stroke="black" points="994.78,-183.5 1004.78,-180 994.78,-176.5 994.78,-183.5"/>
</g>
<!-- ChildrenModule -->
<g id="node6" class="node">
<title>ChildrenModule</title>
<polygon fill="#8dd3c7" stroke="black" points="1831.04,-122 1828.04,-126 1807.04,-126 1804.04,-122 1722.96,-122 1722.96,-86 1831.04,-86 1831.04,-122"/>
<text text-anchor="middle" x="1777" y="-99.8" font-family="Times,serif" font-size="14.00">ChildrenModule</text>
</g>
<!-- ChildrenModule&#45;&gt;NotesModule -->
<g id="edge5" class="edge">
<title>ChildrenModule&#45;&gt;NotesModule</title>
<path fill="none" stroke="black" d="M1777,-122.01C1777,-144.49 1777,-180 1777,-180 1777,-180 1107.24,-180 1107.24,-180"/>
<polygon fill="black" stroke="black" points="1107.24,-176.5 1097.24,-180 1107.24,-183.5 1107.24,-176.5"/>
</g>
<!-- ConfirmationDialogModule -->
<g id="node7" class="node">
<title>ConfirmationDialogModule</title>
<polygon fill="#8dd3c7" stroke="black" points="1704.59,-122 1701.59,-126 1680.59,-126 1677.59,-122 1531.41,-122 1531.41,-86 1704.59,-86 1704.59,-122"/>
<text text-anchor="middle" x="1618" y="-99.8" font-family="Times,serif" font-size="14.00">ConfirmationDialogModule</text>
</g>
<!-- ConfirmationDialogModule&#45;&gt;NotesModule -->
<g id="edge6" class="edge">
<title>ConfirmationDialogModule&#45;&gt;NotesModule</title>
<path fill="none" stroke="black" d="M1618,-122.13C1618,-142.57 1618,-173 1618,-173 1618,-173 1107.4,-173 1107.4,-173"/>
<polygon fill="black" stroke="black" points="1107.4,-169.5 1097.4,-173 1107.4,-176.5 1107.4,-169.5"/>
</g>
<!-- EntitySubrecordModule -->
<g id="node8" class="node">
<title>EntitySubrecordModule</title>
<polygon fill="#8dd3c7" stroke="black" points="1513.81,-122 1510.81,-126 1489.81,-126 1486.81,-122 1362.19,-122 1362.19,-86 1513.81,-86 1513.81,-122"/>
<text text-anchor="middle" x="1438" y="-99.8" font-family="Times,serif" font-size="14.00">EntitySubrecordModule</text>
</g>
<!-- EntitySubrecordModule&#45;&gt;NotesModule -->
<g id="edge7" class="edge">
<title>EntitySubrecordModule&#45;&gt;NotesModule</title>
<path fill="none" stroke="black" d="M1438,-122.27C1438,-140.56 1438,-166 1438,-166 1438,-166 1107.3,-166 1107.3,-166"/>
<polygon fill="black" stroke="black" points="1107.3,-162.5 1097.3,-166 1107.3,-169.5 1107.3,-162.5"/>
</g>
<!-- FormDialogModule -->
<g id="node9" class="node">
<title>FormDialogModule</title>
<polygon fill="#8dd3c7" stroke="black" points="1343.99,-122 1340.99,-126 1319.99,-126 1316.99,-122 1216.01,-122 1216.01,-86 1343.99,-86 1343.99,-122"/>
<text text-anchor="middle" x="1280" y="-99.8" font-family="Times,serif" font-size="14.00">FormDialogModule</text>
</g>
<!-- FormDialogModule&#45;&gt;NotesModule -->
<g id="edge8" class="edge">
<title>FormDialogModule&#45;&gt;NotesModule</title>
<path fill="none" stroke="black" d="M1280,-122.01C1280,-138.05 1280,-159 1280,-159 1280,-159 1107.34,-159 1107.34,-159"/>
<polygon fill="black" stroke="black" points="1107.34,-155.5 1097.34,-159 1107.34,-162.5 1107.34,-155.5"/>
</g>
<!-- SchoolsModule -->
<g id="node10" class="node">
<title>SchoolsModule</title>
<polygon fill="#8dd3c7" stroke="black" points="1197.88,-122 1194.88,-126 1173.88,-126 1170.88,-122 1094.12,-122 1094.12,-86 1197.88,-86 1197.88,-122"/>
<text text-anchor="middle" x="1146" y="-99.8" font-family="Times,serif" font-size="14.00">SchoolsModule</text>
</g>
<!-- SchoolsModule&#45;&gt;NotesModule -->
<g id="edge9" class="edge">
<title>SchoolsModule&#45;&gt;NotesModule</title>
<path fill="none" stroke="black" d="M1094.03,-104C1086.92,-104 1081.99,-104 1081.99,-104 1081.99,-104 1081.99,-140.89 1081.99,-140.89"/>
<polygon fill="black" stroke="black" points="1078.49,-140.89 1081.99,-150.89 1085.49,-140.89 1078.49,-140.89"/>
</g>
<!-- NoteConfigLoaderService -->
<g id="node11" class="node">
<title>NoteConfigLoaderService</title>
<ellipse fill="#fdb462" stroke="black" cx="957" cy="-104" rx="112.86" ry="18"/>
<text text-anchor="middle" x="957" y="-99.8" font-family="Times,serif" font-size="14.00">NoteConfigLoaderService</text>
</g>
<!-- NoteConfigLoaderService&#45;&gt;NotesModule -->
<g id="edge10" class="edge">
<title>NoteConfigLoaderService&#45;&gt;NotesModule</title>
<path fill="none" stroke="black" d="M1037.41,-116.84C1037.41,-116.84 1037.41,-140.52 1037.41,-140.52"/>
<polygon fill="black" stroke="black" points="1033.91,-140.52 1037.41,-150.52 1040.91,-140.52 1033.91,-140.52"/>
</g>
</g>
</svg>
