<?xml version="1.0" encoding="UTF-8" standalone="no"?>
<!DOCTYPE svg PUBLIC "-//W3C//DTD SVG 1.1//EN"
 "http://www.w3.org/Graphics/SVG/1.1/DTD/svg11.dtd">
<!-- Generated by graphviz version 2.44.1 (20200629.0846)
 -->
<!-- Title: dependencies Pages: 1 -->
<svg width="1863pt" height="211pt"
 viewBox="0.00 0.00 1863.00 211.00" xmlns="http://www.w3.org/2000/svg" xmlns:xlink="http://www.w3.org/1999/xlink">
<g id="graph0" class="graph" transform="scale(1 1) rotate(0) translate(4 207)">
<title>dependencies</title>
<polygon fill="white" stroke="transparent" points="-4,4 -4,-207 1859,-207 1859,4 -4,4"/>
<text text-anchor="start" x="906.51" y="-42.4" font-family="sans-serif" font-weight="bold" font-size="14.00">Legend</text>
<polygon fill="#ffffb3" stroke="transparent" points="693.5,-10 693.5,-30 713.5,-30 713.5,-10 693.5,-10"/>
<text text-anchor="start" x="717.13" y="-15.4" font-family="sans-serif" font-size="14.00"> &#160;Declarations</text>
<polygon fill="#8dd3c7" stroke="transparent" points="806.5,-10 806.5,-30 826.5,-30 826.5,-10 806.5,-10"/>
<text text-anchor="start" x="830.23" y="-15.4" font-family="sans-serif" font-size="14.00"> &#160;Module</text>
<polygon fill="#80b1d3" stroke="transparent" points="892.5,-10 892.5,-30 912.5,-30 912.5,-10 892.5,-10"/>
<text text-anchor="start" x="916.28" y="-15.4" font-family="sans-serif" font-size="14.00"> &#160;Bootstrap</text>
<polygon fill="#fdb462" stroke="transparent" points="989.5,-10 989.5,-30 1009.5,-30 1009.5,-10 989.5,-10"/>
<text text-anchor="start" x="1013.17" y="-15.4" font-family="sans-serif" font-size="14.00"> &#160;Providers</text>
<polygon fill="#fb8072" stroke="transparent" points="1085.5,-10 1085.5,-30 1105.5,-30 1105.5,-10 1085.5,-10"/>
<text text-anchor="start" x="1109.23" y="-15.4" font-family="sans-serif" font-size="14.00"> &#160;Exports</text>
<g id="clust1" class="cluster">
<title>cluster_NotesModule</title>
<polygon fill="none" stroke="black" stroke-dasharray="1,5" points="8,-70 8,-195 1847,-195 1847,-70 8,-70"/>
</g>
<g id="clust10" class="cluster">
<title>cluster_NotesModule_providers</title>
<polygon fill="none" stroke="black" points="1597,-78 1597,-130 1839,-130 1839,-78 1597,-78"/>
</g>
<g id="clust2" class="cluster">
<title>cluster_NotesModule_declarations</title>
<polygon fill="none" stroke="black" points="777,-78 777,-130 1589,-130 1589,-78 777,-78"/>
</g>
<g id="clust7" class="cluster">
<title>cluster_NotesModule_imports</title>
<polygon fill="none" stroke="black" points="16,-78 16,-130 769,-130 769,-78 16,-78"/>
</g>
<!-- ChildMeetingNoteAttendanceComponent -->
<g id="node1" class="node">
<title>ChildMeetingNoteAttendanceComponent</title>
<polygon fill="#ffffb3" stroke="black" points="1581.06,-122 1330.94,-122 1330.94,-86 1581.06,-86 1581.06,-122"/>
<text text-anchor="middle" x="1456" y="-99.8" font-family="Times,serif" font-size="14.00">ChildMeetingNoteAttendanceComponent</text>
</g>
<!-- NotesModule -->
<g id="node5" class="node">
<title>NotesModule</title>
<polygon fill="#8dd3c7" stroke="black" points="833.21,-187 830.21,-191 809.21,-191 806.21,-187 740.79,-187 740.79,-151 833.21,-151 833.21,-187"/>
<text text-anchor="middle" x="787" y="-164.8" font-family="Times,serif" font-size="14.00">NotesModule</text>
</g>
<!-- ChildMeetingNoteAttendanceComponent&#45;&gt;NotesModule -->
<g id="edge1" class="edge">
<title>ChildMeetingNoteAttendanceComponent&#45;&gt;NotesModule</title>
<path fill="none" stroke="black" d="M1456,-122.13C1456,-142.57 1456,-173 1456,-173 1456,-173 843.25,-173 843.25,-173"/>
<polygon fill="black" stroke="black" points="843.25,-169.5 833.25,-173 843.25,-176.5 843.25,-169.5"/>
</g>
<!-- NoteDetailsComponent -->
<g id="node2" class="node">
<title>NoteDetailsComponent</title>
<polygon fill="#ffffb3" stroke="black" points="1313.2,-122 1164.8,-122 1164.8,-86 1313.2,-86 1313.2,-122"/>
<text text-anchor="middle" x="1239" y="-99.8" font-family="Times,serif" font-size="14.00">NoteDetailsComponent</text>
</g>
<!-- NoteDetailsComponent&#45;&gt;NotesModule -->
<g id="edge2" class="edge">
<title>NoteDetailsComponent&#45;&gt;NotesModule</title>
<path fill="none" stroke="black" d="M1239,-122.27C1239,-140.56 1239,-166 1239,-166 1239,-166 843.25,-166 843.25,-166"/>
<polygon fill="black" stroke="black" points="843.25,-162.5 833.25,-166 843.25,-169.5 843.25,-162.5"/>
</g>
<!-- NotePresenceListComponent -->
<g id="node3" class="node">
<title>NotePresenceListComponent</title>
<polygon fill="#ffffb3" stroke="black" points="1147.07,-122 966.93,-122 966.93,-86 1147.07,-86 1147.07,-122"/>
<text text-anchor="middle" x="1057" y="-99.8" font-family="Times,serif" font-size="14.00">NotePresenceListComponent</text>
</g>
<!-- NotePresenceListComponent&#45;&gt;NotesModule -->
<g id="edge3" class="edge">
<title>NotePresenceListComponent&#45;&gt;NotesModule</title>
<path fill="none" stroke="black" d="M1057,-122.01C1057,-138.05 1057,-159 1057,-159 1057,-159 843.11,-159 843.11,-159"/>
<polygon fill="black" stroke="black" points="843.11,-155.5 833.11,-159 843.11,-162.5 843.11,-155.5"/>
</g>
<!-- NotesManagerComponent -->
<g id="node4" class="node">
<title>NotesManagerComponent</title>
<polygon fill="#ffffb3" stroke="black" points="948.74,-122 785.26,-122 785.26,-86 948.74,-86 948.74,-122"/>
<text text-anchor="middle" x="867" y="-99.8" font-family="Times,serif" font-size="14.00">NotesManagerComponent</text>
</g>
<!-- NotesManagerComponent&#45;&gt;NotesModule -->
<g id="edge4" class="edge">
<title>NotesManagerComponent&#45;&gt;NotesModule</title>
<path fill="none" stroke="black" d="M809.12,-122.11C809.12,-122.11 809.12,-140.99 809.12,-140.99"/>
<polygon fill="black" stroke="black" points="805.62,-140.99 809.12,-150.99 812.62,-140.99 805.62,-140.99"/>
</g>
<!-- ChildrenModule -->
<g id="node6" class="node">
<title>ChildrenModule</title>
<polygon fill="#8dd3c7" stroke="black" points="761.04,-122 758.04,-126 737.04,-126 734.04,-122 652.96,-122 652.96,-86 761.04,-86 761.04,-122"/>
<text text-anchor="middle" x="707" y="-99.8" font-family="Times,serif" font-size="14.00">ChildrenModule</text>
</g>
<!-- ChildrenModule&#45;&gt;NotesModule -->
<g id="edge5" class="edge">
<title>ChildrenModule&#45;&gt;NotesModule</title>
<path fill="none" stroke="black" d="M751.08,-122.11C751.08,-122.11 751.08,-140.99 751.08,-140.99"/>
<polygon fill="black" stroke="black" points="747.58,-140.99 751.08,-150.99 754.58,-140.99 747.58,-140.99"/>
</g>
<!-- ConfirmationDialogModule -->
<g id="node7" class="node">
<title>ConfirmationDialogModule</title>
<polygon fill="#8dd3c7" stroke="black" points="634.59,-122 631.59,-126 610.59,-126 607.59,-122 461.41,-122 461.41,-86 634.59,-86 634.59,-122"/>
<text text-anchor="middle" x="548" y="-99.8" font-family="Times,serif" font-size="14.00">ConfirmationDialogModule</text>
</g>
<!-- ConfirmationDialogModule&#45;&gt;NotesModule -->
<g id="edge6" class="edge">
<title>ConfirmationDialogModule&#45;&gt;NotesModule</title>
<path fill="none" stroke="black" d="M548,-122.01C548,-138.05 548,-159 548,-159 548,-159 730.64,-159 730.64,-159"/>
<polygon fill="black" stroke="black" points="730.64,-162.5 740.64,-159 730.63,-155.5 730.64,-162.5"/>
</g>
<!-- EntitySubrecordModule -->
<g id="node8" class="node">
<title>EntitySubrecordModule</title>
<polygon fill="#8dd3c7" stroke="black" points="443.81,-122 440.81,-126 419.81,-126 416.81,-122 292.19,-122 292.19,-86 443.81,-86 443.81,-122"/>
<text text-anchor="middle" x="368" y="-99.8" font-family="Times,serif" font-size="14.00">EntitySubrecordModule</text>
</g>
<!-- EntitySubrecordModule&#45;&gt;NotesModule -->
<g id="edge7" class="edge">
<title>EntitySubrecordModule&#45;&gt;NotesModule</title>
<path fill="none" stroke="black" d="M368,-122.27C368,-140.56 368,-166 368,-166 368,-166 730.56,-166 730.56,-166"/>
<polygon fill="black" stroke="black" points="730.56,-169.5 740.56,-166 730.56,-162.5 730.56,-169.5"/>
</g>
<!-- FormDialogModule -->
<g id="node9" class="node">
<title>FormDialogModule</title>
<polygon fill="#8dd3c7" stroke="black" points="273.99,-122 270.99,-126 249.99,-126 246.99,-122 146.01,-122 146.01,-86 273.99,-86 273.99,-122"/>
<text text-anchor="middle" x="210" y="-99.8" font-family="Times,serif" font-size="14.00">FormDialogModule</text>
</g>
<!-- FormDialogModule&#45;&gt;NotesModule -->
<g id="edge8" class="edge">
<title>FormDialogModule&#45;&gt;NotesModule</title>
<path fill="none" stroke="black" d="M210,-122.13C210,-142.57 210,-173 210,-173 210,-173 730.76,-173 730.76,-173"/>
<polygon fill="black" stroke="black" points="730.76,-176.5 740.76,-173 730.76,-169.5 730.76,-176.5"/>
</g>
<!-- SchoolsModule -->
<g id="node10" class="node">
<title>SchoolsModule</title>
<polygon fill="#8dd3c7" stroke="black" points="127.88,-122 124.88,-126 103.88,-126 100.88,-122 24.12,-122 24.12,-86 127.88,-86 127.88,-122"/>
<text text-anchor="middle" x="76" y="-99.8" font-family="Times,serif" font-size="14.00">SchoolsModule</text>
</g>
<!-- SchoolsModule&#45;&gt;NotesModule -->
<g id="edge9" class="edge">
<title>SchoolsModule&#45;&gt;NotesModule</title>
<path fill="none" stroke="black" d="M76,-122.01C76,-144.49 76,-180 76,-180 76,-180 730.62,-180 730.62,-180"/>
<polygon fill="black" stroke="black" points="730.62,-183.5 740.62,-180 730.62,-176.5 730.62,-183.5"/>
</g>
<!-- NoteConfigLoaderService -->
<g id="node11" class="node">
<title>NoteConfigLoaderService</title>
<ellipse fill="#fdb462" stroke="black" cx="1718" cy="-104" rx="112.86" ry="18"/>
<text text-anchor="middle" x="1718" y="-99.8" font-family="Times,serif" font-size="14.00">NoteConfigLoaderService</text>
</g>
<!-- NoteConfigLoaderService&#45;&gt;NotesModule -->
<g id="edge10" class="edge">
<title>NoteConfigLoaderService&#45;&gt;NotesModule</title>
<path fill="none" stroke="black" d="M1718,-122.01C1718,-144.49 1718,-180 1718,-180 1718,-180 843.17,-180 843.17,-180"/>
<polygon fill="black" stroke="black" points="843.17,-176.5 833.17,-180 843.17,-183.5 843.17,-176.5"/>
</g>
</g>
</svg>
