<?xml version="1.0" encoding="UTF-8" standalone="no"?>
<!DOCTYPE svg PUBLIC "-//W3C//DTD SVG 1.1//EN"
 "http://www.w3.org/Graphics/SVG/1.1/DTD/svg11.dtd">
<!-- Generated by graphviz version 2.44.1 (20200629.0846)
 -->
<!-- Title: dependencies Pages: 1 -->
<svg width="3037pt" height="284pt"
 viewBox="0.00 0.00 3037.00 284.00" xmlns="http://www.w3.org/2000/svg" xmlns:xlink="http://www.w3.org/1999/xlink">
<g id="graph0" class="graph" transform="scale(1 1) rotate(0) translate(4 280)">
<title>dependencies</title>
<polygon fill="white" stroke="transparent" points="-4,4 -4,-280 3033,-280 3033,4 -4,4"/>
<text text-anchor="start" x="1493.51" y="-42.4" font-family="sans-serif" font-weight="bold" font-size="14.00">Legend</text>
<polygon fill="#ffffb3" stroke="transparent" points="1280.5,-10 1280.5,-30 1300.5,-30 1300.5,-10 1280.5,-10"/>
<text text-anchor="start" x="1304.13" y="-15.4" font-family="sans-serif" font-size="14.00"> &#160;Declarations</text>
<polygon fill="#8dd3c7" stroke="transparent" points="1393.5,-10 1393.5,-30 1413.5,-30 1413.5,-10 1393.5,-10"/>
<text text-anchor="start" x="1417.23" y="-15.4" font-family="sans-serif" font-size="14.00"> &#160;Module</text>
<polygon fill="#80b1d3" stroke="transparent" points="1479.5,-10 1479.5,-30 1499.5,-30 1499.5,-10 1479.5,-10"/>
<text text-anchor="start" x="1503.28" y="-15.4" font-family="sans-serif" font-size="14.00"> &#160;Bootstrap</text>
<polygon fill="#fdb462" stroke="transparent" points="1576.5,-10 1576.5,-30 1596.5,-30 1596.5,-10 1576.5,-10"/>
<text text-anchor="start" x="1600.17" y="-15.4" font-family="sans-serif" font-size="14.00"> &#160;Providers</text>
<polygon fill="#fb8072" stroke="transparent" points="1672.5,-10 1672.5,-30 1692.5,-30 1692.5,-10 1672.5,-10"/>
<text text-anchor="start" x="1696.23" y="-15.4" font-family="sans-serif" font-size="14.00"> &#160;Exports</text>
<g id="clust1" class="cluster">
<title>cluster_AppModule</title>
<polygon fill="none" stroke="black" stroke-dasharray="1,5" points="8,-70 8,-268 3021,-268 3021,-70 8,-70"/>
</g>
<g id="clust7" class="cluster">
<title>cluster_AppModule_providers</title>
<polygon fill="none" stroke="black" points="2691,-78 2691,-130 3013,-130 3013,-78 2691,-78"/>
</g>
<g id="clust6" class="cluster">
<title>cluster_AppModule_bootstrap</title>
<polygon fill="none" stroke="black" points="1408,-208 1408,-260 1532,-260 1532,-208 1408,-208"/>
</g>
<g id="clust2" class="cluster">
<title>cluster_AppModule_declarations</title>
<polygon fill="none" stroke="black" points="2561,-78 2561,-130 2683,-130 2683,-78 2561,-78"/>
</g>
<g id="clust4" class="cluster">
<title>cluster_AppModule_imports</title>
<polygon fill="none" stroke="black" points="16,-78 16,-130 2553,-130 2553,-78 16,-78"/>
</g>
<!-- AppComponent -->
<g id="node1" class="node">
<title>AppComponent</title>
<polygon fill="#ffffb3" stroke="black" points="2674.94,-122 2569.06,-122 2569.06,-86 2674.94,-86 2674.94,-122"/>
<text text-anchor="middle" x="2622" y="-99.8" font-family="Times,serif" font-size="14.00">AppComponent</text>
</g>
<!-- AppModule -->
<g id="node2" class="node">
<title>AppModule</title>
<polygon fill="#8dd3c7" stroke="black" points="1511.66,-187 1508.66,-191 1487.66,-191 1484.66,-187 1428.34,-187 1428.34,-151 1511.66,-151 1511.66,-187"/>
<text text-anchor="middle" x="1470" y="-164.8" font-family="Times,serif" font-size="14.00">AppModule</text>
</g>
<!-- AppComponent&#45;&gt;AppModule -->
<g id="edge1" class="edge">
<title>AppComponent&#45;&gt;AppModule</title>
<path fill="none" stroke="black" d="M2622,-122.29C2622,-144.21 2622,-178 2622,-178 2622,-178 1521.68,-178 1521.68,-178"/>
<polygon fill="black" stroke="black" points="1521.68,-174.5 1511.68,-178 1521.68,-181.5 1521.68,-174.5"/>
</g>
<!-- AppComponent  -->
<g id="node22" class="node">
<title>AppComponent </title>
<polygon fill="#80b1d3" stroke="black" points="1524.44,-252 1415.56,-252 1415.56,-216 1524.44,-216 1524.44,-252"/>
<text text-anchor="middle" x="1470" y="-229.8" font-family="Times,serif" font-size="14.00">AppComponent </text>
</g>
<!-- AppModule&#45;&gt;AppComponent  -->
<g id="edge21" class="edge">
<title>AppModule&#45;&gt;AppComponent </title>
<path fill="none" stroke="black" stroke-dasharray="1,5" d="M1470,-187.11C1470,-187.11 1470,-205.99 1470,-205.99"/>
<polygon fill="black" stroke="black" points="1466.5,-205.99 1470,-215.99 1473.5,-205.99 1466.5,-205.99"/>
</g>
<!-- AdminModule -->
<g id="node3" class="node">
<title>AdminModule</title>
<polygon fill="#8dd3c7" stroke="black" points="2545.44,-122 2542.44,-126 2521.44,-126 2518.44,-122 2446.56,-122 2446.56,-86 2545.44,-86 2545.44,-122"/>
<text text-anchor="middle" x="2496" y="-99.8" font-family="Times,serif" font-size="14.00">AdminModule</text>
</g>
<!-- AdminModule&#45;&gt;AppModule -->
<g id="edge2" class="edge">
<title>AdminModule&#45;&gt;AppModule</title>
<path fill="none" stroke="black" d="M2496,-122.03C2496,-142.77 2496,-174 2496,-174 2496,-174 1521.81,-174 1521.81,-174"/>
<polygon fill="black" stroke="black" points="1521.81,-170.5 1511.81,-174 1521.81,-177.5 1521.81,-170.5"/>
</g>
<!-- AlertsModule -->
<g id="node4" class="node">
<title>AlertsModule</title>
<polygon fill="#8dd3c7" stroke="black" points="2428.76,-122 2425.76,-126 2404.76,-126 2401.76,-122 2335.24,-122 2335.24,-86 2428.76,-86 2428.76,-122"/>
<text text-anchor="middle" x="2382" y="-99.8" font-family="Times,serif" font-size="14.00">AlertsModule</text>
</g>
<!-- AlertsModule&#45;&gt;AppModule -->
<g id="edge3" class="edge">
<title>AlertsModule&#45;&gt;AppModule</title>
<path fill="none" stroke="black" d="M2382,-122.31C2382,-142.15 2382,-171 2382,-171 2382,-171 1521.86,-171 1521.86,-171"/>
<polygon fill="black" stroke="black" points="1521.86,-167.5 1511.86,-171 1521.86,-174.5 1521.86,-167.5"/>
</g>
<!-- AppConfigModule -->
<g id="node5" class="node">
<title>AppConfigModule</title>
<polygon fill="#8dd3c7" stroke="black" points="2317.05,-122 2314.05,-126 2293.05,-126 2290.05,-122 2194.95,-122 2194.95,-86 2317.05,-86 2317.05,-122"/>
<text text-anchor="middle" x="2256" y="-99.8" font-family="Times,serif" font-size="14.00">AppConfigModule</text>
</g>
<!-- AppConfigModule&#45;&gt;AppModule -->
<g id="edge4" class="edge">
<title>AppConfigModule&#45;&gt;AppModule</title>
<path fill="none" stroke="black" d="M2256,-122.17C2256,-141.09 2256,-168 2256,-168 2256,-168 1521.7,-168 1521.7,-168"/>
<polygon fill="black" stroke="black" points="1521.7,-164.5 1511.7,-168 1521.7,-171.5 1521.7,-164.5"/>
</g>
<!-- ChildrenModule -->
<g id="node6" class="node">
<title>ChildrenModule</title>
<polygon fill="#8dd3c7" stroke="black" points="2176.04,-122 2173.04,-126 2152.04,-126 2149.04,-122 2067.96,-122 2067.96,-86 2176.04,-86 2176.04,-122"/>
<text text-anchor="middle" x="2122" y="-99.8" font-family="Times,serif" font-size="14.00">ChildrenModule</text>
</g>
<!-- ChildrenModule&#45;&gt;AppModule -->
<g id="edge5" class="edge">
<title>ChildrenModule&#45;&gt;AppModule</title>
<path fill="none" stroke="black" d="M2122,-122.3C2122,-140.27 2122,-165 2122,-165 2122,-165 1521.78,-165 1521.78,-165"/>
<polygon fill="black" stroke="black" points="1521.78,-161.5 1511.78,-165 1521.78,-168.5 1521.78,-161.5"/>
</g>
<!-- ConfirmationDialogModule -->
<g id="node7" class="node">
<title>ConfirmationDialogModule</title>
<polygon fill="#8dd3c7" stroke="black" points="2049.59,-122 2046.59,-126 2025.59,-126 2022.59,-122 1876.41,-122 1876.41,-86 2049.59,-86 2049.59,-122"/>
<text text-anchor="middle" x="1963" y="-99.8" font-family="Times,serif" font-size="14.00">ConfirmationDialogModule</text>
</g>
<!-- ConfirmationDialogModule&#45;&gt;AppModule -->
<g id="edge6" class="edge">
<title>ConfirmationDialogModule&#45;&gt;AppModule</title>
<path fill="none" stroke="black" d="M1963,-122.04C1963,-138.73 1963,-161 1963,-161 1963,-161 1522.03,-161 1522.03,-161"/>
<polygon fill="black" stroke="black" points="1522.03,-157.5 1512.03,-161 1522.03,-164.5 1522.03,-157.5"/>
</g>
<!-- DashboardModule -->
<g id="node8" class="node">
<title>DashboardModule</title>
<polygon fill="#8dd3c7" stroke="black" points="1858.19,-122 1855.19,-126 1834.19,-126 1831.19,-122 1737.81,-122 1737.81,-86 1858.19,-86 1858.19,-122"/>
<text text-anchor="middle" x="1798" y="-99.8" font-family="Times,serif" font-size="14.00">DashboardModule</text>
</g>
<!-- DashboardModule&#45;&gt;AppModule -->
<g id="edge7" class="edge">
<title>DashboardModule&#45;&gt;AppModule</title>
<path fill="none" stroke="black" d="M1798,-122.28C1798,-137.95 1798,-158 1798,-158 1798,-158 1521.87,-158 1521.87,-158"/>
<polygon fill="black" stroke="black" points="1521.87,-154.5 1511.87,-158 1521.87,-161.5 1521.87,-154.5"/>
</g>
<!-- DemoDataModule -->
<g id="node9" class="node">
<title>DemoDataModule</title>
<polygon fill="#8dd3c7" stroke="black" points="1720.19,-122 1717.19,-126 1696.19,-126 1693.19,-122 1599.81,-122 1599.81,-86 1720.19,-86 1720.19,-122"/>
<text text-anchor="middle" x="1660" y="-99.8" font-family="Times,serif" font-size="14.00">DemoDataModule</text>
</g>
<!-- DemoDataModule&#45;&gt;AppModule -->
<g id="edge8" class="edge">
<title>DemoDataModule&#45;&gt;AppModule</title>
<path fill="none" stroke="black" d="M1660,-122.12C1660,-136.78 1660,-155 1660,-155 1660,-155 1521.7,-155 1521.7,-155"/>
<polygon fill="black" stroke="black" points="1521.7,-151.5 1511.7,-155 1521.7,-158.5 1521.7,-151.5"/>
</g>
<!-- EntityModule -->
<g id="node10" class="node">
<title>EntityModule</title>
<polygon fill="#8dd3c7" stroke="black" points="1581.77,-122 1578.77,-126 1557.77,-126 1554.77,-122 1488.23,-122 1488.23,-86 1581.77,-86 1581.77,-122"/>
<text text-anchor="middle" x="1535" y="-99.8" font-family="Times,serif" font-size="14.00">EntityModule</text>
</g>
<!-- EntityModule&#45;&gt;AppModule -->
<g id="edge9" class="edge">
<title>EntityModule&#45;&gt;AppModule</title>
<path fill="none" stroke="black" d="M1499.97,-122.11C1499.97,-122.11 1499.97,-140.99 1499.97,-140.99"/>
<polygon fill="black" stroke="black" points="1496.47,-140.99 1499.97,-150.99 1503.47,-140.99 1496.47,-140.99"/>
</g>
<!-- FormDialogModule -->
<g id="node11" class="node">
<title>FormDialogModule</title>
<polygon fill="#8dd3c7" stroke="black" points="1469.99,-122 1466.99,-126 1445.99,-126 1442.99,-122 1342.01,-122 1342.01,-86 1469.99,-86 1469.99,-122"/>
<text text-anchor="middle" x="1406" y="-99.8" font-family="Times,serif" font-size="14.00">FormDialogModule</text>
</g>
<!-- FormDialogModule&#45;&gt;AppModule -->
<g id="edge10" class="edge">
<title>FormDialogModule&#45;&gt;AppModule</title>
<path fill="none" stroke="black" d="M1449.08,-122.11C1449.08,-122.11 1449.08,-140.99 1449.08,-140.99"/>
<polygon fill="black" stroke="black" points="1445.58,-140.99 1449.08,-150.99 1452.58,-140.99 1445.58,-140.99"/>
</g>
<!-- HelpModule -->
<g id="node12" class="node">
<title>HelpModule</title>
<polygon fill="#8dd3c7" stroke="black" points="1324.26,-122 1321.26,-126 1300.26,-126 1297.26,-122 1237.74,-122 1237.74,-86 1324.26,-86 1324.26,-122"/>
<text text-anchor="middle" x="1281" y="-99.8" font-family="Times,serif" font-size="14.00">HelpModule</text>
</g>
<!-- HelpModule&#45;&gt;AppModule -->
<g id="edge11" class="edge">
<title>HelpModule&#45;&gt;AppModule</title>
<path fill="none" stroke="black" d="M1281,-122.12C1281,-136.78 1281,-155 1281,-155 1281,-155 1418.05,-155 1418.05,-155"/>
<polygon fill="black" stroke="black" points="1418.05,-158.5 1428.05,-155 1418.05,-151.5 1418.05,-158.5"/>
</g>
<!-- LatestChangesModule -->
<g id="node13" class="node">
<title>LatestChangesModule</title>
<polygon fill="#8dd3c7" stroke="black" points="1219.97,-122 1216.97,-126 1195.97,-126 1192.97,-122 1078.03,-122 1078.03,-86 1219.97,-86 1219.97,-122"/>
<text text-anchor="middle" x="1149" y="-99.8" font-family="Times,serif" font-size="14.00">LatestChangesModule</text>
</g>
<!-- LatestChangesModule&#45;&gt;AppModule -->
<g id="edge12" class="edge">
<title>LatestChangesModule&#45;&gt;AppModule</title>
<path fill="none" stroke="black" d="M1149,-122.28C1149,-137.95 1149,-158 1149,-158 1149,-158 1418.03,-158 1418.03,-158"/>
<polygon fill="black" stroke="black" points="1418.03,-161.5 1428.03,-158 1418.03,-154.5 1418.03,-161.5"/>
</g>
<!-- NavigationModule -->
<g id="node14" class="node">
<title>NavigationModule</title>
<polygon fill="#8dd3c7" stroke="black" points="1059.76,-122 1056.76,-126 1035.76,-126 1032.76,-122 938.24,-122 938.24,-86 1059.76,-86 1059.76,-122"/>
<text text-anchor="middle" x="999" y="-99.8" font-family="Times,serif" font-size="14.00">NavigationModule</text>
</g>
<!-- NavigationModule&#45;&gt;AppModule -->
<g id="edge13" class="edge">
<title>NavigationModule&#45;&gt;AppModule</title>
<path fill="none" stroke="black" d="M999,-122.04C999,-138.73 999,-161 999,-161 999,-161 1418.2,-161 1418.2,-161"/>
<polygon fill="black" stroke="black" points="1418.2,-164.5 1428.2,-161 1418.2,-157.5 1418.2,-164.5"/>
</g>
<!-- ProgressDashboardWidgetModule -->
<g id="node15" class="node">
<title>ProgressDashboardWidgetModule</title>
<polygon fill="#8dd3c7" stroke="black" points="919.61,-122 916.61,-126 895.61,-126 892.61,-122 710.39,-122 710.39,-86 919.61,-86 919.61,-122"/>
<text text-anchor="middle" x="815" y="-99.8" font-family="Times,serif" font-size="14.00">ProgressDashboardWidgetModule</text>
</g>
<!-- ProgressDashboardWidgetModule&#45;&gt;AppModule -->
<g id="edge14" class="edge">
<title>ProgressDashboardWidgetModule&#45;&gt;AppModule</title>
<path fill="none" stroke="black" d="M815,-122.3C815,-140.27 815,-165 815,-165 815,-165 1418.03,-165 1418.03,-165"/>
<polygon fill="black" stroke="black" points="1418.03,-168.5 1428.03,-165 1418.03,-161.5 1418.03,-168.5"/>
</g>
<!-- SchoolsModule -->
<g id="node16" class="node">
<title>SchoolsModule</title>
<polygon fill="#8dd3c7" stroke="black" points="691.88,-122 688.88,-126 667.88,-126 664.88,-122 588.12,-122 588.12,-86 691.88,-86 691.88,-122"/>
<text text-anchor="middle" x="640" y="-99.8" font-family="Times,serif" font-size="14.00">SchoolsModule</text>
</g>
<!-- SchoolsModule&#45;&gt;AppModule -->
<g id="edge15" class="edge">
<title>SchoolsModule&#45;&gt;AppModule</title>
<path fill="none" stroke="black" d="M640,-122.17C640,-141.09 640,-168 640,-168 640,-168 1418.27,-168 1418.27,-168"/>
<polygon fill="black" stroke="black" points="1418.27,-171.5 1428.27,-168 1418.27,-164.5 1418.27,-171.5"/>
</g>
<!-- SessionModule -->
<g id="node17" class="node">
<title>SessionModule</title>
<polygon fill="#8dd3c7" stroke="black" points="570.33,-122 567.33,-126 546.33,-126 543.33,-122 467.67,-122 467.67,-86 570.33,-86 570.33,-122"/>
<text text-anchor="middle" x="519" y="-99.8" font-family="Times,serif" font-size="14.00">SessionModule</text>
</g>
<!-- SessionModule&#45;&gt;AppModule -->
<g id="edge16" class="edge">
<title>SessionModule&#45;&gt;AppModule</title>
<path fill="none" stroke="black" d="M519,-122.31C519,-142.15 519,-171 519,-171 519,-171 1418.22,-171 1418.22,-171"/>
<polygon fill="black" stroke="black" points="1418.22,-174.5 1428.22,-171 1418.22,-167.5 1418.22,-174.5"/>
</g>
<!-- SyncStatusModule -->
<g id="node18" class="node">
<title>SyncStatusModule</title>
<polygon fill="#8dd3c7" stroke="black" points="449.77,-122 446.77,-126 425.77,-126 422.77,-122 328.23,-122 328.23,-86 449.77,-86 449.77,-122"/>
<text text-anchor="middle" x="389" y="-99.8" font-family="Times,serif" font-size="14.00">SyncStatusModule</text>
</g>
<!-- SyncStatusModule&#45;&gt;AppModule -->
<g id="edge17" class="edge">
<title>SyncStatusModule&#45;&gt;AppModule</title>
<path fill="none" stroke="black" d="M389,-122.03C389,-142.77 389,-174 389,-174 389,-174 1418.29,-174 1418.29,-174"/>
<polygon fill="black" stroke="black" points="1418.29,-177.5 1428.29,-174 1418.29,-170.5 1418.29,-177.5"/>
</g>
<!-- UiModule -->
<g id="node19" class="node">
<title>UiModule</title>
<polygon fill="#8dd3c7" stroke="black" points="309.55,-122 306.55,-126 285.55,-126 282.55,-122 236.45,-122 236.45,-86 309.55,-86 309.55,-122"/>
<text text-anchor="middle" x="273" y="-99.8" font-family="Times,serif" font-size="14.00">UiModule</text>
</g>
<!-- UiModule&#45;&gt;AppModule -->
<g id="edge18" class="edge">
<title>UiModule&#45;&gt;AppModule</title>
<path fill="none" stroke="black" d="M273,-122.29C273,-144.21 273,-178 273,-178 273,-178 1418.1,-178 1418.1,-178"/>
<polygon fill="black" stroke="black" points="1418.1,-181.5 1428.1,-178 1418.1,-174.5 1418.1,-181.5"/>
</g>
<!-- UserModule -->
<g id="node20" class="node">
<title>UserModule</title>
<polygon fill="#8dd3c7" stroke="black" points="217.98,-122 214.98,-126 193.98,-126 190.98,-122 132.02,-122 132.02,-86 217.98,-86 217.98,-122"/>
<text text-anchor="middle" x="175" y="-99.8" font-family="Times,serif" font-size="14.00">UserModule</text>
</g>
<!-- UserModule&#45;&gt;AppModule -->
<g id="edge19" class="edge">
<title>UserModule&#45;&gt;AppModule</title>
<path fill="none" stroke="black" d="M175,-122.25C175,-145.02 175,-181 175,-181 175,-181 1418.02,-181 1418.02,-181"/>
<polygon fill="black" stroke="black" points="1418.02,-184.5 1428.02,-181 1418.02,-177.5 1418.02,-184.5"/>
</g>
<!-- ViewModule -->
<g id="node21" class="node">
<title>ViewModule</title>
<polygon fill="#8dd3c7" stroke="black" points="113.87,-122 110.87,-126 89.87,-126 86.87,-122 24.13,-122 24.13,-86 113.87,-86 113.87,-122"/>
<text text-anchor="middle" x="69" y="-99.8" font-family="Times,serif" font-size="14.00">ViewModule</text>
</g>
<!-- ViewModule&#45;&gt;AppModule -->
<g id="edge20" class="edge">
<title>ViewModule&#45;&gt;AppModule</title>
<path fill="none" stroke="black" d="M69,-122.15C69,-145.76 69,-184 69,-184 69,-184 1418.07,-184 1418.07,-184"/>
<polygon fill="black" stroke="black" points="1418.07,-187.5 1428.07,-184 1418.07,-180.5 1418.07,-187.5"/>
</g>
<!-- AnalyticsService -->
<g id="node23" class="node">
<title>AnalyticsService</title>
<ellipse fill="#fdb462" stroke="black" cx="2928" cy="-104" rx="77" ry="18"/>
<text text-anchor="middle" x="2928" y="-99.8" font-family="Times,serif" font-size="14.00">AnalyticsService</text>
</g>
<!-- AnalyticsService&#45;&gt;AppModule -->
<g id="edge22" class="edge">
<title>AnalyticsService&#45;&gt;AppModule</title>
<path fill="none" stroke="black" d="M2928,-122.15C2928,-145.76 2928,-184 2928,-184 2928,-184 1521.67,-184 1521.67,-184"/>
<polygon fill="black" stroke="black" points="1521.67,-180.5 1511.67,-184 1521.67,-187.5 1521.67,-180.5"/>
</g>
<!-- ConfigService -->
<g id="node24" class="node">
<title>ConfigService</title>
<ellipse fill="#fdb462" stroke="black" cx="2766" cy="-104" rx="66.63" ry="18"/>
<text text-anchor="middle" x="2766" y="-99.8" font-family="Times,serif" font-size="14.00">ConfigService</text>
</g>
<!-- ConfigService&#45;&gt;AppModule -->
<g id="edge23" class="edge">
<title>ConfigService&#45;&gt;AppModule</title>
<path fill="none" stroke="black" d="M2766,-122.25C2766,-145.02 2766,-181 2766,-181 2766,-181 1522.02,-181 1522.02,-181"/>
<polygon fill="black" stroke="black" points="1522.02,-177.5 1512.02,-181 1522.02,-184.5 1522.02,-177.5"/>
</g>
</g>
</svg>
