<?xml version="1.0" encoding="UTF-8" standalone="no"?>
<!DOCTYPE svg PUBLIC "-//W3C//DTD SVG 1.1//EN"
 "http://www.w3.org/Graphics/SVG/1.1/DTD/svg11.dtd">
<!-- Generated by graphviz version 2.44.0 (20200408.0750)
 -->
<!-- Title: dependencies Pages: 1 -->
<svg width="2549pt" height="284pt"
 viewBox="0.00 0.00 2549.00 284.00" xmlns="http://www.w3.org/2000/svg" xmlns:xlink="http://www.w3.org/1999/xlink">
<g id="graph0" class="graph" transform="scale(1 1) rotate(0) translate(4 280)">
<title>dependencies</title>
<polygon fill="white" stroke="transparent" points="-4,4 -4,-280 2545,-280 2545,4 -4,4"/>
<text text-anchor="start" x="1249.51" y="-42.4" font-family="sans-serif" font-weight="bold" font-size="14.00">Legend</text>
<polygon fill="#ffffb3" stroke="transparent" points="1036.5,-10 1036.5,-30 1056.5,-30 1056.5,-10 1036.5,-10"/>
<text text-anchor="start" x="1060.13" y="-15.4" font-family="sans-serif" font-size="14.00"> &#160;Declarations</text>
<polygon fill="#8dd3c7" stroke="transparent" points="1149.5,-10 1149.5,-30 1169.5,-30 1169.5,-10 1149.5,-10"/>
<text text-anchor="start" x="1173.23" y="-15.4" font-family="sans-serif" font-size="14.00"> &#160;Module</text>
<polygon fill="#80b1d3" stroke="transparent" points="1235.5,-10 1235.5,-30 1255.5,-30 1255.5,-10 1235.5,-10"/>
<text text-anchor="start" x="1259.28" y="-15.4" font-family="sans-serif" font-size="14.00"> &#160;Bootstrap</text>
<polygon fill="#fdb462" stroke="transparent" points="1332.5,-10 1332.5,-30 1352.5,-30 1352.5,-10 1332.5,-10"/>
<text text-anchor="start" x="1356.17" y="-15.4" font-family="sans-serif" font-size="14.00"> &#160;Providers</text>
<polygon fill="#fb8072" stroke="transparent" points="1428.5,-10 1428.5,-30 1448.5,-30 1448.5,-10 1428.5,-10"/>
<text text-anchor="start" x="1452.23" y="-15.4" font-family="sans-serif" font-size="14.00"> &#160;Exports</text>
<g id="clust1" class="cluster">
<title>cluster_AppModule</title>
<polygon fill="none" stroke="black" stroke-dasharray="1,5" points="8,-70 8,-268 2533,-268 2533,-70 8,-70"/>
</g>
<g id="clust7" class="cluster">
<title>cluster_AppModule_providers</title>
<polygon fill="none" stroke="black" points="2355,-78 2355,-130 2525,-130 2525,-78 2355,-78"/>
</g>
<g id="clust6" class="cluster">
<title>cluster_AppModule_bootstrap</title>
<polygon fill="none" stroke="black" points="1137,-208 1137,-260 1261,-260 1261,-208 1137,-208"/>
</g>
<g id="clust2" class="cluster">
<title>cluster_AppModule_declarations</title>
<polygon fill="none" stroke="black" points="2225,-78 2225,-130 2347,-130 2347,-78 2225,-78"/>
</g>
<g id="clust4" class="cluster">
<title>cluster_AppModule_imports</title>
<polygon fill="none" stroke="black" points="16,-78 16,-130 2217,-130 2217,-78 16,-78"/>
</g>
<!-- AppComponent -->
<g id="node1" class="node">
<title>AppComponent</title>
<polygon fill="#ffffb3" stroke="black" points="2338.94,-122 2233.06,-122 2233.06,-86 2338.94,-86 2338.94,-122"/>
<text text-anchor="middle" x="2286" y="-99.8" font-family="Times,serif" font-size="14.00">AppComponent</text>
</g>
<!-- AppModule -->
<g id="node2" class="node">
<title>AppModule</title>
<polygon fill="#8dd3c7" stroke="black" points="1240.66,-187 1237.66,-191 1216.66,-191 1213.66,-187 1157.34,-187 1157.34,-151 1240.66,-151 1240.66,-187"/>
<text text-anchor="middle" x="1199" y="-164.8" font-family="Times,serif" font-size="14.00">AppModule</text>
</g>
<!-- AppComponent&#45;&gt;AppModule -->
<g id="edge1" class="edge">
<title>AppComponent&#45;&gt;AppModule</title>
<path fill="none" stroke="black" d="M2286,-122.01C2286,-144.49 2286,-180 2286,-180 2286,-180 1250.95,-180 1250.95,-180"/>
<polygon fill="black" stroke="black" points="1250.95,-176.5 1240.95,-180 1250.95,-183.5 1250.95,-176.5"/>
</g>
<!-- AppComponent  -->
<g id="node20" class="node">
<title>AppComponent </title>
<polygon fill="#80b1d3" stroke="black" points="1253.44,-252 1144.56,-252 1144.56,-216 1253.44,-216 1253.44,-252"/>
<text text-anchor="middle" x="1199" y="-229.8" font-family="Times,serif" font-size="14.00">AppComponent </text>
</g>
<!-- AppModule&#45;&gt;AppComponent  -->
<g id="edge19" class="edge">
<title>AppModule&#45;&gt;AppComponent </title>
<path fill="none" stroke="black" stroke-dasharray="1,5" d="M1199,-187.11C1199,-187.11 1199,-205.99 1199,-205.99"/>
<polygon fill="black" stroke="black" points="1195.5,-205.99 1199,-215.99 1202.5,-205.99 1195.5,-205.99"/>
</g>
<!-- AdminModule -->
<g id="node3" class="node">
<title>AdminModule</title>
<polygon fill="#8dd3c7" stroke="black" points="2209.44,-122 2206.44,-126 2185.44,-126 2182.44,-122 2110.56,-122 2110.56,-86 2209.44,-86 2209.44,-122"/>
<text text-anchor="middle" x="2160" y="-99.8" font-family="Times,serif" font-size="14.00">AdminModule</text>
</g>
<!-- AdminModule&#45;&gt;AppModule -->
<g id="edge2" class="edge">
<title>AdminModule&#45;&gt;AppModule</title>
<path fill="none" stroke="black" d="M2160,-122.04C2160,-143.66 2160,-177 2160,-177 2160,-177 1250.91,-177 1250.91,-177"/>
<polygon fill="black" stroke="black" points="1250.91,-173.5 1240.91,-177 1250.91,-180.5 1250.91,-173.5"/>
</g>
<!-- AlertsModule -->
<g id="node4" class="node">
<title>AlertsModule</title>
<polygon fill="#8dd3c7" stroke="black" points="2092.76,-122 2089.76,-126 2068.76,-126 2065.76,-122 1999.24,-122 1999.24,-86 2092.76,-86 2092.76,-122"/>
<text text-anchor="middle" x="2046" y="-99.8" font-family="Times,serif" font-size="14.00">AlertsModule</text>
</g>
<!-- AlertsModule&#45;&gt;AppModule -->
<g id="edge3" class="edge">
<title>AlertsModule&#45;&gt;AppModule</title>
<path fill="none" stroke="black" d="M2046,-122.13C2046,-142.57 2046,-173 2046,-173 2046,-173 1250.71,-173 1250.71,-173"/>
<polygon fill="black" stroke="black" points="1250.71,-169.5 1240.71,-173 1250.71,-176.5 1250.71,-169.5"/>
</g>
<!-- AppConfigModule -->
<g id="node5" class="node">
<title>AppConfigModule</title>
<polygon fill="#8dd3c7" stroke="black" points="1981.05,-122 1978.05,-126 1957.05,-126 1954.05,-122 1858.95,-122 1858.95,-86 1981.05,-86 1981.05,-122"/>
<text text-anchor="middle" x="1920" y="-99.8" font-family="Times,serif" font-size="14.00">AppConfigModule</text>
</g>
<!-- AppConfigModule&#45;&gt;AppModule -->
<g id="edge4" class="edge">
<title>AppConfigModule&#45;&gt;AppModule</title>
<path fill="none" stroke="black" d="M1920,-122.11C1920,-141.34 1920,-169 1920,-169 1920,-169 1250.88,-169 1250.88,-169"/>
<polygon fill="black" stroke="black" points="1250.88,-165.5 1240.88,-169 1250.88,-172.5 1250.88,-165.5"/>
</g>
<!-- ChildrenModule -->
<g id="node6" class="node">
<title>ChildrenModule</title>
<polygon fill="#8dd3c7" stroke="black" points="1840.04,-122 1837.04,-126 1816.04,-126 1813.04,-122 1731.96,-122 1731.96,-86 1840.04,-86 1840.04,-122"/>
<text text-anchor="middle" x="1786" y="-99.8" font-family="Times,serif" font-size="14.00">ChildrenModule</text>
</g>
<!-- ChildrenModule&#45;&gt;AppModule -->
<g id="edge5" class="edge">
<title>ChildrenModule&#45;&gt;AppModule</title>
<path fill="none" stroke="black" d="M1786,-122.27C1786,-140.56 1786,-166 1786,-166 1786,-166 1250.75,-166 1250.75,-166"/>
<polygon fill="black" stroke="black" points="1250.75,-162.5 1240.75,-166 1250.74,-169.5 1250.75,-162.5"/>
</g>
<!-- ConfirmationDialogModule -->
<g id="node7" class="node">
<title>ConfirmationDialogModule</title>
<polygon fill="#8dd3c7" stroke="black" points="1713.59,-122 1710.59,-126 1689.59,-126 1686.59,-122 1540.41,-122 1540.41,-86 1713.59,-86 1713.59,-122"/>
<text text-anchor="middle" x="1627" y="-99.8" font-family="Times,serif" font-size="14.00">ConfirmationDialogModule</text>
</g>
<!-- ConfirmationDialogModule&#45;&gt;AppModule -->
<g id="edge6" class="edge">
<title>ConfirmationDialogModule&#45;&gt;AppModule</title>
<path fill="none" stroke="black" d="M1627,-122.03C1627,-139.06 1627,-162 1627,-162 1627,-162 1250.82,-162 1250.82,-162"/>
<polygon fill="black" stroke="black" points="1250.82,-158.5 1240.82,-162 1250.82,-165.5 1250.82,-158.5"/>
</g>
<!-- DashboardModule -->
<g id="node8" class="node">
<title>DashboardModule</title>
<polygon fill="#8dd3c7" stroke="black" points="1522.19,-122 1519.19,-126 1498.19,-126 1495.19,-122 1401.81,-122 1401.81,-86 1522.19,-86 1522.19,-122"/>
<text text-anchor="middle" x="1462" y="-99.8" font-family="Times,serif" font-size="14.00">DashboardModule</text>
</g>
<!-- DashboardModule&#45;&gt;AppModule -->
<g id="edge7" class="edge">
<title>DashboardModule&#45;&gt;AppModule</title>
<path fill="none" stroke="black" d="M1462,-122.01C1462,-138.05 1462,-159 1462,-159 1462,-159 1250.67,-159 1250.67,-159"/>
<polygon fill="black" stroke="black" points="1250.67,-155.5 1240.67,-159 1250.67,-162.5 1250.67,-155.5"/>
</g>
<!-- DemoDataModule -->
<g id="node9" class="node">
<title>DemoDataModule</title>
<polygon fill="#8dd3c7" stroke="black" points="1384.19,-122 1381.19,-126 1360.19,-126 1357.19,-122 1263.81,-122 1263.81,-86 1384.19,-86 1384.19,-122"/>
<text text-anchor="middle" x="1324" y="-99.8" font-family="Times,serif" font-size="14.00">DemoDataModule</text>
</g>
<!-- DemoDataModule&#45;&gt;AppModule -->
<g id="edge8" class="edge">
<title>DemoDataModule&#45;&gt;AppModule</title>
<path fill="none" stroke="black" d="M1324,-122.12C1324,-136.78 1324,-155 1324,-155 1324,-155 1250.97,-155 1250.97,-155"/>
<polygon fill="black" stroke="black" points="1250.97,-151.5 1240.97,-155 1250.97,-158.5 1250.97,-151.5"/>
</g>
<!-- EntityModule -->
<g id="node10" class="node">
<title>EntityModule</title>
<polygon fill="#8dd3c7" stroke="black" points="1245.77,-122 1242.77,-126 1221.77,-126 1218.77,-122 1152.23,-122 1152.23,-86 1245.77,-86 1245.77,-122"/>
<text text-anchor="middle" x="1199" y="-99.8" font-family="Times,serif" font-size="14.00">EntityModule</text>
</g>
<!-- EntityModule&#45;&gt;AppModule -->
<g id="edge9" class="edge">
<title>EntityModule&#45;&gt;AppModule</title>
<path fill="none" stroke="black" d="M1199,-122.11C1199,-122.11 1199,-140.99 1199,-140.99"/>
<polygon fill="black" stroke="black" points="1195.5,-140.99 1199,-150.99 1202.5,-140.99 1195.5,-140.99"/>
</g>
<!-- FormDialogModule -->
<g id="node11" class="node">
<title>FormDialogModule</title>
<polygon fill="#8dd3c7" stroke="black" points="1133.99,-122 1130.99,-126 1109.99,-126 1106.99,-122 1006.01,-122 1006.01,-86 1133.99,-86 1133.99,-122"/>
<text text-anchor="middle" x="1070" y="-99.8" font-family="Times,serif" font-size="14.00">FormDialogModule</text>
</g>
<!-- FormDialogModule&#45;&gt;AppModule -->
<g id="edge10" class="edge">
<title>FormDialogModule&#45;&gt;AppModule</title>
<path fill="none" stroke="black" d="M1070,-122.12C1070,-136.78 1070,-155 1070,-155 1070,-155 1147.12,-155 1147.12,-155"/>
<polygon fill="black" stroke="black" points="1147.12,-158.5 1157.12,-155 1147.12,-151.5 1147.12,-158.5"/>
</g>
<!-- HelpModule -->
<g id="node12" class="node">
<title>HelpModule</title>
<polygon fill="#8dd3c7" stroke="black" points="988.26,-122 985.26,-126 964.26,-126 961.26,-122 901.74,-122 901.74,-86 988.26,-86 988.26,-122"/>
<text text-anchor="middle" x="945" y="-99.8" font-family="Times,serif" font-size="14.00">HelpModule</text>
</g>
<!-- HelpModule&#45;&gt;AppModule -->
<g id="edge11" class="edge">
<title>HelpModule&#45;&gt;AppModule</title>
<path fill="none" stroke="black" d="M945,-122.01C945,-138.05 945,-159 945,-159 945,-159 1147.34,-159 1147.34,-159"/>
<polygon fill="black" stroke="black" points="1147.34,-162.5 1157.34,-159 1147.34,-155.5 1147.34,-162.5"/>
</g>
<!-- LatestChangesModule -->
<g id="node13" class="node">
<title>LatestChangesModule</title>
<polygon fill="#8dd3c7" stroke="black" points="883.97,-122 880.97,-126 859.97,-126 856.97,-122 742.03,-122 742.03,-86 883.97,-86 883.97,-122"/>
<text text-anchor="middle" x="813" y="-99.8" font-family="Times,serif" font-size="14.00">LatestChangesModule</text>
</g>
<!-- LatestChangesModule&#45;&gt;AppModule -->
<g id="edge12" class="edge">
<title>LatestChangesModule&#45;&gt;AppModule</title>
<path fill="none" stroke="black" d="M813,-122.03C813,-139.06 813,-162 813,-162 813,-162 1147.32,-162 1147.32,-162"/>
<polygon fill="black" stroke="black" points="1147.32,-165.5 1157.32,-162 1147.32,-158.5 1147.32,-165.5"/>
</g>
<!-- NavigationModule -->
<g id="node14" class="node">
<title>NavigationModule</title>
<polygon fill="#8dd3c7" stroke="black" points="723.76,-122 720.76,-126 699.76,-126 696.76,-122 602.24,-122 602.24,-86 723.76,-86 723.76,-122"/>
<text text-anchor="middle" x="663" y="-99.8" font-family="Times,serif" font-size="14.00">NavigationModule</text>
</g>
<!-- NavigationModule&#45;&gt;AppModule -->
<g id="edge13" class="edge">
<title>NavigationModule&#45;&gt;AppModule</title>
<path fill="none" stroke="black" d="M663,-122.27C663,-140.56 663,-166 663,-166 663,-166 1146.94,-166 1146.94,-166"/>
<polygon fill="black" stroke="black" points="1146.94,-169.5 1156.94,-166 1146.94,-162.5 1146.94,-169.5"/>
</g>
<!-- SchoolsModule -->
<g id="node15" class="node">
<title>SchoolsModule</title>
<polygon fill="#8dd3c7" stroke="black" points="583.88,-122 580.88,-126 559.88,-126 556.88,-122 480.12,-122 480.12,-86 583.88,-86 583.88,-122"/>
<text text-anchor="middle" x="532" y="-99.8" font-family="Times,serif" font-size="14.00">SchoolsModule</text>
</g>
<!-- SchoolsModule&#45;&gt;AppModule -->
<g id="edge14" class="edge">
<title>SchoolsModule&#45;&gt;AppModule</title>
<path fill="none" stroke="black" d="M532,-122.11C532,-141.34 532,-169 532,-169 532,-169 1147.28,-169 1147.28,-169"/>
<polygon fill="black" stroke="black" points="1147.28,-172.5 1157.28,-169 1147.28,-165.5 1147.28,-172.5"/>
</g>
<!-- SessionModule -->
<g id="node16" class="node">
<title>SessionModule</title>
<polygon fill="#8dd3c7" stroke="black" points="462.33,-122 459.33,-126 438.33,-126 435.33,-122 359.67,-122 359.67,-86 462.33,-86 462.33,-122"/>
<text text-anchor="middle" x="411" y="-99.8" font-family="Times,serif" font-size="14.00">SessionModule</text>
</g>
<!-- SessionModule&#45;&gt;AppModule -->
<g id="edge15" class="edge">
<title>SessionModule&#45;&gt;AppModule</title>
<path fill="none" stroke="black" d="M411,-122.13C411,-142.57 411,-173 411,-173 411,-173 1147.19,-173 1147.19,-173"/>
<polygon fill="black" stroke="black" points="1147.19,-176.5 1157.19,-173 1147.19,-169.5 1147.19,-176.5"/>
</g>
<!-- SyncStatusModule -->
<g id="node17" class="node">
<title>SyncStatusModule</title>
<polygon fill="#8dd3c7" stroke="black" points="341.77,-122 338.77,-126 317.77,-126 314.77,-122 220.23,-122 220.23,-86 341.77,-86 341.77,-122"/>
<text text-anchor="middle" x="281" y="-99.8" font-family="Times,serif" font-size="14.00">SyncStatusModule</text>
</g>
<!-- SyncStatusModule&#45;&gt;AppModule -->
<g id="edge16" class="edge">
<title>SyncStatusModule&#45;&gt;AppModule</title>
<path fill="none" stroke="black" d="M281,-122.04C281,-143.66 281,-177 281,-177 281,-177 1147.17,-177 1147.17,-177"/>
<polygon fill="black" stroke="black" points="1147.17,-180.5 1157.17,-177 1147.17,-173.5 1147.17,-180.5"/>
</g>
<!-- UiModule -->
<g id="node18" class="node">
<title>UiModule</title>
<polygon fill="#8dd3c7" stroke="black" points="201.55,-122 198.55,-126 177.55,-126 174.55,-122 128.45,-122 128.45,-86 201.55,-86 201.55,-122"/>
<text text-anchor="middle" x="165" y="-99.8" font-family="Times,serif" font-size="14.00">UiModule</text>
</g>
<!-- UiModule&#45;&gt;AppModule -->
<g id="edge17" class="edge">
<title>UiModule&#45;&gt;AppModule</title>
<path fill="none" stroke="black" d="M165,-122.01C165,-144.49 165,-180 165,-180 165,-180 1147.19,-180 1147.19,-180"/>
<polygon fill="black" stroke="black" points="1147.19,-183.5 1157.19,-180 1147.19,-176.5 1147.19,-183.5"/>
</g>
<!-- UserModule -->
<g id="node19" class="node">
<title>UserModule</title>
<polygon fill="#8dd3c7" stroke="black" points="109.98,-122 106.98,-126 85.98,-126 82.98,-122 24.02,-122 24.02,-86 109.98,-86 109.98,-122"/>
<text text-anchor="middle" x="67" y="-99.8" font-family="Times,serif" font-size="14.00">UserModule</text>
</g>
<!-- UserModule&#45;&gt;AppModule -->
<g id="edge18" class="edge">
<title>UserModule&#45;&gt;AppModule</title>
<path fill="none" stroke="black" d="M67,-122.15C67,-145.76 67,-184 67,-184 67,-184 1147.03,-184 1147.03,-184"/>
<polygon fill="black" stroke="black" points="1147.03,-187.5 1157.03,-184 1147.03,-180.5 1147.03,-187.5"/>
</g>
<!-- AnalyticsService -->
<g id="node21" class="node">
<title>AnalyticsService</title>
<ellipse fill="#fdb462" stroke="black" cx="2440" cy="-104" rx="77" ry="18"/>
<text text-anchor="middle" x="2440" y="-99.8" font-family="Times,serif" font-size="14.00">AnalyticsService</text>
</g>
<!-- AnalyticsService&#45;&gt;AppModule -->
<g id="edge20" class="edge">
<title>AnalyticsService&#45;&gt;AppModule</title>
<path fill="none" stroke="black" d="M2440,-122.15C2440,-145.76 2440,-184 2440,-184 2440,-184 1251,-184 1251,-184"/>
<polygon fill="black" stroke="black" points="1251,-180.5 1241,-184 1251,-187.5 1251,-180.5"/>
</g>
</g>
</svg>
