<?xml version="1.0" encoding="UTF-8" standalone="no"?>
<!DOCTYPE svg PUBLIC "-//W3C//DTD SVG 1.1//EN"
 "http://www.w3.org/Graphics/SVG/1.1/DTD/svg11.dtd">
<!-- Generated by graphviz version 2.44.1 (20200629.0846)
 -->
<!-- Title: dependencies Pages: 1 -->
<svg width="3037pt" height="284pt"
 viewBox="0.00 0.00 3037.00 284.00" xmlns="http://www.w3.org/2000/svg" xmlns:xlink="http://www.w3.org/1999/xlink">
<g id="graph0" class="graph" transform="scale(1 1) rotate(0) translate(4 280)">
<title>dependencies</title>
<polygon fill="white" stroke="transparent" points="-4,4 -4,-280 3033,-280 3033,4 -4,4"/>
<text text-anchor="start" x="1493.51" y="-42.4" font-family="sans-serif" font-weight="bold" font-size="14.00">Legend</text>
<polygon fill="#ffffb3" stroke="transparent" points="1280.5,-10 1280.5,-30 1300.5,-30 1300.5,-10 1280.5,-10"/>
<text text-anchor="start" x="1304.13" y="-15.4" font-family="sans-serif" font-size="14.00"> &#160;Declarations</text>
<polygon fill="#8dd3c7" stroke="transparent" points="1393.5,-10 1393.5,-30 1413.5,-30 1413.5,-10 1393.5,-10"/>
<text text-anchor="start" x="1417.23" y="-15.4" font-family="sans-serif" font-size="14.00"> &#160;Module</text>
<polygon fill="#80b1d3" stroke="transparent" points="1479.5,-10 1479.5,-30 1499.5,-30 1499.5,-10 1479.5,-10"/>
<text text-anchor="start" x="1503.28" y="-15.4" font-family="sans-serif" font-size="14.00"> &#160;Bootstrap</text>
<polygon fill="#fdb462" stroke="transparent" points="1576.5,-10 1576.5,-30 1596.5,-30 1596.5,-10 1576.5,-10"/>
<text text-anchor="start" x="1600.17" y="-15.4" font-family="sans-serif" font-size="14.00"> &#160;Providers</text>
<polygon fill="#fb8072" stroke="transparent" points="1672.5,-10 1672.5,-30 1692.5,-30 1692.5,-10 1672.5,-10"/>
<text text-anchor="start" x="1696.23" y="-15.4" font-family="sans-serif" font-size="14.00"> &#160;Exports</text>
<g id="clust1" class="cluster">
<title>cluster_AppModule</title>
<polygon fill="none" stroke="black" stroke-dasharray="1,5" points="8,-70 8,-268 3021,-268 3021,-70 8,-70"/>
</g>
<g id="clust6" class="cluster">
<title>cluster_AppModule_bootstrap</title>
<polygon fill="none" stroke="black" points="1483,-208 1483,-260 1607,-260 1607,-208 1483,-208"/>
</g>
<g id="clust2" class="cluster">
<title>cluster_AppModule_declarations</title>
<polygon fill="none" stroke="black" points="2891,-78 2891,-130 3013,-130 3013,-78 2891,-78"/>
</g>
<g id="clust4" class="cluster">
<title>cluster_AppModule_imports</title>
<polygon fill="none" stroke="black" points="346,-78 346,-130 2883,-130 2883,-78 346,-78"/>
</g>
<g id="clust7" class="cluster">
<title>cluster_AppModule_providers</title>
<polygon fill="none" stroke="black" points="16,-78 16,-130 338,-130 338,-78 16,-78"/>
</g>
<!-- AppComponent -->
<g id="node1" class="node">
<title>AppComponent</title>
<polygon fill="#ffffb3" stroke="black" points="3004.94,-122 2899.06,-122 2899.06,-86 3004.94,-86 3004.94,-122"/>
<text text-anchor="middle" x="2952" y="-99.8" font-family="Times,serif" font-size="14.00">AppComponent</text>
</g>
<!-- AppModule -->
<g id="node2" class="node">
<title>AppModule</title>
<polygon fill="#8dd3c7" stroke="black" points="1586.66,-187 1583.66,-191 1562.66,-191 1559.66,-187 1503.34,-187 1503.34,-151 1586.66,-151 1586.66,-187"/>
<text text-anchor="middle" x="1545" y="-164.8" font-family="Times,serif" font-size="14.00">AppModule</text>
</g>
<!-- AppComponent&#45;&gt;AppModule -->
<g id="edge1" class="edge">
<title>AppComponent&#45;&gt;AppModule</title>
<path fill="none" stroke="black" d="M2952,-122.15C2952,-145.76 2952,-184 2952,-184 2952,-184 1596.73,-184 1596.73,-184"/>
<polygon fill="black" stroke="black" points="1596.73,-180.5 1586.73,-184 1596.73,-187.5 1596.73,-180.5"/>
</g>
<!-- AppComponent  -->
<g id="node22" class="node">
<title>AppComponent </title>
<polygon fill="#80b1d3" stroke="black" points="1599.44,-252 1490.56,-252 1490.56,-216 1599.44,-216 1599.44,-252"/>
<text text-anchor="middle" x="1545" y="-229.8" font-family="Times,serif" font-size="14.00">AppComponent </text>
</g>
<!-- AppModule&#45;&gt;AppComponent  -->
<g id="edge21" class="edge">
<title>AppModule&#45;&gt;AppComponent </title>
<path fill="none" stroke="black" stroke-dasharray="1,5" d="M1545,-187.11C1545,-187.11 1545,-205.99 1545,-205.99"/>
<polygon fill="black" stroke="black" points="1541.5,-205.99 1545,-215.99 1548.5,-205.99 1541.5,-205.99"/>
</g>
<!-- AdminModule -->
<g id="node3" class="node">
<title>AdminModule</title>
<polygon fill="#8dd3c7" stroke="black" points="2875.44,-122 2872.44,-126 2851.44,-126 2848.44,-122 2776.56,-122 2776.56,-86 2875.44,-86 2875.44,-122"/>
<text text-anchor="middle" x="2826" y="-99.8" font-family="Times,serif" font-size="14.00">AdminModule</text>
</g>
<!-- AdminModule&#45;&gt;AppModule -->
<g id="edge2" class="edge">
<title>AdminModule&#45;&gt;AppModule</title>
<path fill="none" stroke="black" d="M2826,-122.25C2826,-145.02 2826,-181 2826,-181 2826,-181 1596.89,-181 1596.89,-181"/>
<polygon fill="black" stroke="black" points="1596.89,-177.5 1586.89,-181 1596.89,-184.5 1596.89,-177.5"/>
</g>
<!-- AlertsModule -->
<g id="node4" class="node">
<title>AlertsModule</title>
<polygon fill="#8dd3c7" stroke="black" points="2758.76,-122 2755.76,-126 2734.76,-126 2731.76,-122 2665.24,-122 2665.24,-86 2758.76,-86 2758.76,-122"/>
<text text-anchor="middle" x="2712" y="-99.8" font-family="Times,serif" font-size="14.00">AlertsModule</text>
</g>
<!-- AlertsModule&#45;&gt;AppModule -->
<g id="edge3" class="edge">
<title>AlertsModule&#45;&gt;AppModule</title>
<path fill="none" stroke="black" d="M2712,-122.29C2712,-144.21 2712,-178 2712,-178 2712,-178 1596.88,-178 1596.88,-178"/>
<polygon fill="black" stroke="black" points="1596.88,-174.5 1586.88,-178 1596.88,-181.5 1596.88,-174.5"/>
</g>
<!-- AppConfigModule -->
<g id="node5" class="node">
<title>AppConfigModule</title>
<polygon fill="#8dd3c7" stroke="black" points="2647.05,-122 2644.05,-126 2623.05,-126 2620.05,-122 2524.95,-122 2524.95,-86 2647.05,-86 2647.05,-122"/>
<text text-anchor="middle" x="2586" y="-99.8" font-family="Times,serif" font-size="14.00">AppConfigModule</text>
</g>
<!-- AppConfigModule&#45;&gt;AppModule -->
<g id="edge4" class="edge">
<title>AppConfigModule&#45;&gt;AppModule</title>
<path fill="none" stroke="black" d="M2586,-122.03C2586,-142.77 2586,-174 2586,-174 2586,-174 1596.77,-174 1596.77,-174"/>
<polygon fill="black" stroke="black" points="1596.77,-170.5 1586.77,-174 1596.77,-177.5 1596.77,-170.5"/>
</g>
<!-- ChildrenModule -->
<g id="node6" class="node">
<title>ChildrenModule</title>
<polygon fill="#8dd3c7" stroke="black" points="2506.04,-122 2503.04,-126 2482.04,-126 2479.04,-122 2397.96,-122 2397.96,-86 2506.04,-86 2506.04,-122"/>
<text text-anchor="middle" x="2452" y="-99.8" font-family="Times,serif" font-size="14.00">ChildrenModule</text>
</g>
<!-- ChildrenModule&#45;&gt;AppModule -->
<g id="edge5" class="edge">
<title>ChildrenModule&#45;&gt;AppModule</title>
<path fill="none" stroke="black" d="M2452,-122.31C2452,-142.15 2452,-171 2452,-171 2452,-171 1596.93,-171 1596.93,-171"/>
<polygon fill="black" stroke="black" points="1596.93,-167.5 1586.93,-171 1596.93,-174.5 1596.93,-167.5"/>
</g>
<!-- ConfirmationDialogModule -->
<g id="node7" class="node">
<title>ConfirmationDialogModule</title>
<polygon fill="#8dd3c7" stroke="black" points="2379.59,-122 2376.59,-126 2355.59,-126 2352.59,-122 2206.41,-122 2206.41,-86 2379.59,-86 2379.59,-122"/>
<text text-anchor="middle" x="2293" y="-99.8" font-family="Times,serif" font-size="14.00">ConfirmationDialogModule</text>
</g>
<!-- ConfirmationDialogModule&#45;&gt;AppModule -->
<g id="edge6" class="edge">
<title>ConfirmationDialogModule&#45;&gt;AppModule</title>
<path fill="none" stroke="black" d="M2293,-122.17C2293,-141.09 2293,-168 2293,-168 2293,-168 1596.82,-168 1596.82,-168"/>
<polygon fill="black" stroke="black" points="1596.82,-164.5 1586.82,-168 1596.82,-171.5 1596.82,-164.5"/>
</g>
<!-- DashboardModule -->
<g id="node8" class="node">
<title>DashboardModule</title>
<polygon fill="#8dd3c7" stroke="black" points="2188.19,-122 2185.19,-126 2164.19,-126 2161.19,-122 2067.81,-122 2067.81,-86 2188.19,-86 2188.19,-122"/>
<text text-anchor="middle" x="2128" y="-99.8" font-family="Times,serif" font-size="14.00">DashboardModule</text>
</g>
<!-- DashboardModule&#45;&gt;AppModule -->
<g id="edge7" class="edge">
<title>DashboardModule&#45;&gt;AppModule</title>
<path fill="none" stroke="black" d="M2128,-122.3C2128,-140.27 2128,-165 2128,-165 2128,-165 1596.93,-165 1596.93,-165"/>
<polygon fill="black" stroke="black" points="1596.93,-161.5 1586.93,-165 1596.93,-168.5 1596.93,-161.5"/>
</g>
<!-- DemoDataModule -->
<g id="node9" class="node">
<title>DemoDataModule</title>
<polygon fill="#8dd3c7" stroke="black" points="2050.19,-122 2047.19,-126 2026.19,-126 2023.19,-122 1929.81,-122 1929.81,-86 2050.19,-86 2050.19,-122"/>
<text text-anchor="middle" x="1990" y="-99.8" font-family="Times,serif" font-size="14.00">DemoDataModule</text>
</g>
<!-- DemoDataModule&#45;&gt;AppModule -->
<g id="edge8" class="edge">
<title>DemoDataModule&#45;&gt;AppModule</title>
<path fill="none" stroke="black" d="M1990,-122.04C1990,-138.73 1990,-161 1990,-161 1990,-161 1596.86,-161 1596.86,-161"/>
<polygon fill="black" stroke="black" points="1596.86,-157.5 1586.86,-161 1596.86,-164.5 1596.86,-157.5"/>
</g>
<!-- EntityModule -->
<g id="node10" class="node">
<title>EntityModule</title>
<polygon fill="#8dd3c7" stroke="black" points="1911.77,-122 1908.77,-126 1887.77,-126 1884.77,-122 1818.23,-122 1818.23,-86 1911.77,-86 1911.77,-122"/>
<text text-anchor="middle" x="1865" y="-99.8" font-family="Times,serif" font-size="14.00">EntityModule</text>
</g>
<!-- EntityModule&#45;&gt;AppModule -->
<g id="edge9" class="edge">
<title>EntityModule&#45;&gt;AppModule</title>
<path fill="none" stroke="black" d="M1865,-122.28C1865,-137.95 1865,-158 1865,-158 1865,-158 1596.83,-158 1596.83,-158"/>
<polygon fill="black" stroke="black" points="1596.83,-154.5 1586.83,-158 1596.83,-161.5 1596.83,-154.5"/>
</g>
<!-- FormDialogModule -->
<g id="node11" class="node">
<title>FormDialogModule</title>
<polygon fill="#8dd3c7" stroke="black" points="1799.99,-122 1796.99,-126 1775.99,-126 1772.99,-122 1672.01,-122 1672.01,-86 1799.99,-86 1799.99,-122"/>
<text text-anchor="middle" x="1736" y="-99.8" font-family="Times,serif" font-size="14.00">FormDialogModule</text>
</g>
<!-- FormDialogModule&#45;&gt;AppModule -->
<g id="edge10" class="edge">
<title>FormDialogModule&#45;&gt;AppModule</title>
<path fill="none" stroke="black" d="M1736,-122.12C1736,-136.78 1736,-155 1736,-155 1736,-155 1596.92,-155 1596.92,-155"/>
<polygon fill="black" stroke="black" points="1596.92,-151.5 1586.92,-155 1596.92,-158.5 1596.92,-151.5"/>
</g>
<!-- HelpModule -->
<g id="node12" class="node">
<title>HelpModule</title>
<polygon fill="#8dd3c7" stroke="black" points="1654.26,-122 1651.26,-126 1630.26,-126 1627.26,-122 1567.74,-122 1567.74,-86 1654.26,-86 1654.26,-122"/>
<text text-anchor="middle" x="1611" y="-99.8" font-family="Times,serif" font-size="14.00">HelpModule</text>
</g>
<!-- HelpModule&#45;&gt;AppModule -->
<g id="edge11" class="edge">
<title>HelpModule&#45;&gt;AppModule</title>
<path fill="none" stroke="black" d="M1577.22,-122.11C1577.22,-122.11 1577.22,-140.99 1577.22,-140.99"/>
<polygon fill="black" stroke="black" points="1573.72,-140.99 1577.22,-150.99 1580.72,-140.99 1573.72,-140.99"/>
</g>
<!-- LatestChangesModule -->
<g id="node13" class="node">
<title>LatestChangesModule</title>
<polygon fill="#8dd3c7" stroke="black" points="1549.97,-122 1546.97,-126 1525.97,-126 1522.97,-122 1408.03,-122 1408.03,-86 1549.97,-86 1549.97,-122"/>
<text text-anchor="middle" x="1479" y="-99.8" font-family="Times,serif" font-size="14.00">LatestChangesModule</text>
</g>
<!-- LatestChangesModule&#45;&gt;AppModule -->
<g id="edge12" class="edge">
<title>LatestChangesModule&#45;&gt;AppModule</title>
<path fill="none" stroke="black" d="M1526.58,-122.11C1526.58,-122.11 1526.58,-140.99 1526.58,-140.99"/>
<polygon fill="black" stroke="black" points="1523.08,-140.99 1526.58,-150.99 1530.08,-140.99 1523.08,-140.99"/>
</g>
<!-- NavigationModule -->
<g id="node14" class="node">
<title>NavigationModule</title>
<polygon fill="#8dd3c7" stroke="black" points="1389.76,-122 1386.76,-126 1365.76,-126 1362.76,-122 1268.24,-122 1268.24,-86 1389.76,-86 1389.76,-122"/>
<text text-anchor="middle" x="1329" y="-99.8" font-family="Times,serif" font-size="14.00">NavigationModule</text>
</g>
<!-- NavigationModule&#45;&gt;AppModule -->
<g id="edge13" class="edge">
<title>NavigationModule&#45;&gt;AppModule</title>
<path fill="none" stroke="black" d="M1329,-122.12C1329,-136.78 1329,-155 1329,-155 1329,-155 1493.1,-155 1493.1,-155"/>
<polygon fill="black" stroke="black" points="1493.1,-158.5 1503.1,-155 1493.1,-151.5 1493.1,-158.5"/>
</g>
<!-- ProgressDashboardWidgetModule -->
<g id="node15" class="node">
<title>ProgressDashboardWidgetModule</title>
<polygon fill="#8dd3c7" stroke="black" points="1249.61,-122 1246.61,-126 1225.61,-126 1222.61,-122 1040.39,-122 1040.39,-86 1249.61,-86 1249.61,-122"/>
<text text-anchor="middle" x="1145" y="-99.8" font-family="Times,serif" font-size="14.00">ProgressDashboardWidgetModule</text>
</g>
<!-- ProgressDashboardWidgetModule&#45;&gt;AppModule -->
<g id="edge14" class="edge">
<title>ProgressDashboardWidgetModule&#45;&gt;AppModule</title>
<path fill="none" stroke="black" d="M1145,-122.28C1145,-137.95 1145,-158 1145,-158 1145,-158 1493.32,-158 1493.32,-158"/>
<polygon fill="black" stroke="black" points="1493.33,-161.5 1503.32,-158 1493.32,-154.5 1493.33,-161.5"/>
</g>
<!-- SchoolsModule -->
<g id="node16" class="node">
<title>SchoolsModule</title>
<polygon fill="#8dd3c7" stroke="black" points="1021.88,-122 1018.88,-126 997.88,-126 994.88,-122 918.12,-122 918.12,-86 1021.88,-86 1021.88,-122"/>
<text text-anchor="middle" x="970" y="-99.8" font-family="Times,serif" font-size="14.00">SchoolsModule</text>
</g>
<!-- SchoolsModule&#45;&gt;AppModule -->
<g id="edge15" class="edge">
<title>SchoolsModule&#45;&gt;AppModule</title>
<path fill="none" stroke="black" d="M970,-122.04C970,-138.73 970,-161 970,-161 970,-161 1493.18,-161 1493.18,-161"/>
<polygon fill="black" stroke="black" points="1493.18,-164.5 1503.18,-161 1493.18,-157.5 1493.18,-164.5"/>
</g>
<!-- SessionModule -->
<g id="node17" class="node">
<title>SessionModule</title>
<polygon fill="#8dd3c7" stroke="black" points="900.33,-122 897.33,-126 876.33,-126 873.33,-122 797.67,-122 797.67,-86 900.33,-86 900.33,-122"/>
<text text-anchor="middle" x="849" y="-99.8" font-family="Times,serif" font-size="14.00">SessionModule</text>
</g>
<!-- SessionModule&#45;&gt;AppModule -->
<g id="edge16" class="edge">
<title>SessionModule&#45;&gt;AppModule</title>
<path fill="none" stroke="black" d="M849,-122.3C849,-140.27 849,-165 849,-165 849,-165 1493.29,-165 1493.29,-165"/>
<polygon fill="black" stroke="black" points="1493.29,-168.5 1503.29,-165 1493.29,-161.5 1493.29,-168.5"/>
</g>
<!-- SyncStatusModule -->
<g id="node18" class="node">
<title>SyncStatusModule</title>
<polygon fill="#8dd3c7" stroke="black" points="779.77,-122 776.77,-126 755.77,-126 752.77,-122 658.23,-122 658.23,-86 779.77,-86 779.77,-122"/>
<text text-anchor="middle" x="719" y="-99.8" font-family="Times,serif" font-size="14.00">SyncStatusModule</text>
</g>
<!-- SyncStatusModule&#45;&gt;AppModule -->
<g id="edge17" class="edge">
<title>SyncStatusModule&#45;&gt;AppModule</title>
<path fill="none" stroke="black" d="M719,-122.17C719,-141.09 719,-168 719,-168 719,-168 1493.19,-168 1493.19,-168"/>
<polygon fill="black" stroke="black" points="1493.19,-171.5 1503.19,-168 1493.19,-164.5 1493.19,-171.5"/>
</g>
<!-- UiModule -->
<g id="node19" class="node">
<title>UiModule</title>
<polygon fill="#8dd3c7" stroke="black" points="639.55,-122 636.55,-126 615.55,-126 612.55,-122 566.45,-122 566.45,-86 639.55,-86 639.55,-122"/>
<text text-anchor="middle" x="603" y="-99.8" font-family="Times,serif" font-size="14.00">UiModule</text>
</g>
<!-- UiModule&#45;&gt;AppModule -->
<g id="edge18" class="edge">
<title>UiModule&#45;&gt;AppModule</title>
<path fill="none" stroke="black" d="M603,-122.31C603,-142.15 603,-171 603,-171 603,-171 1493.31,-171 1493.31,-171"/>
<polygon fill="black" stroke="black" points="1493.31,-174.5 1503.31,-171 1493.31,-167.5 1493.31,-174.5"/>
</g>
<!-- UserModule -->
<g id="node20" class="node">
<title>UserModule</title>
<polygon fill="#8dd3c7" stroke="black" points="547.98,-122 544.98,-126 523.98,-126 520.98,-122 462.02,-122 462.02,-86 547.98,-86 547.98,-122"/>
<text text-anchor="middle" x="505" y="-99.8" font-family="Times,serif" font-size="14.00">UserModule</text>
</g>
<!-- UserModule&#45;&gt;AppModule -->
<g id="edge19" class="edge">
<title>UserModule&#45;&gt;AppModule</title>
<path fill="none" stroke="black" d="M505,-122.03C505,-142.77 505,-174 505,-174 505,-174 1493.27,-174 1493.27,-174"/>
<polygon fill="black" stroke="black" points="1493.27,-177.5 1503.27,-174 1493.27,-170.5 1493.27,-177.5"/>
</g>
<!-- ViewModule -->
<g id="node21" class="node">
<title>ViewModule</title>
<polygon fill="#8dd3c7" stroke="black" points="443.87,-122 440.87,-126 419.87,-126 416.87,-122 354.13,-122 354.13,-86 443.87,-86 443.87,-122"/>
<text text-anchor="middle" x="399" y="-99.8" font-family="Times,serif" font-size="14.00">ViewModule</text>
</g>
<!-- ViewModule&#45;&gt;AppModule -->
<g id="edge20" class="edge">
<title>ViewModule&#45;&gt;AppModule</title>
<path fill="none" stroke="black" d="M399,-122.29C399,-144.21 399,-178 399,-178 399,-178 1493.2,-178 1493.2,-178"/>
<polygon fill="black" stroke="black" points="1493.2,-181.5 1503.2,-178 1493.2,-174.5 1493.2,-181.5"/>
</g>
<!-- AnalyticsService -->
<g id="node23" class="node">
<title>AnalyticsService</title>
<ellipse fill="#fdb462" stroke="black" cx="253" cy="-104" rx="77" ry="18"/>
<text text-anchor="middle" x="253" y="-99.8" font-family="Times,serif" font-size="14.00">AnalyticsService</text>
</g>
<!-- AnalyticsService&#45;&gt;AppModule -->
<g id="edge22" class="edge">
<title>AnalyticsService&#45;&gt;AppModule</title>
<path fill="none" stroke="black" d="M253,-122.25C253,-145.02 253,-181 253,-181 253,-181 1493.11,-181 1493.11,-181"/>
<polygon fill="black" stroke="black" points="1493.11,-184.5 1503.11,-181 1493.11,-177.5 1493.11,-184.5"/>
</g>
<!-- ConfigService -->
<g id="node24" class="node">
<title>ConfigService</title>
<ellipse fill="#fdb462" stroke="black" cx="91" cy="-104" rx="66.63" ry="18"/>
<text text-anchor="middle" x="91" y="-99.8" font-family="Times,serif" font-size="14.00">ConfigService</text>
</g>
<!-- ConfigService&#45;&gt;AppModule -->
<g id="edge23" class="edge">
<title>ConfigService&#45;&gt;AppModule</title>
<path fill="none" stroke="black" d="M91,-122.15C91,-145.76 91,-184 91,-184 91,-184 1493.05,-184 1493.05,-184"/>
<polygon fill="black" stroke="black" points="1493.05,-187.5 1503.05,-184 1493.05,-180.5 1493.05,-187.5"/>
</g>
</g>
</svg>
