<?xml version="1.0" encoding="UTF-8" standalone="no"?>
<!DOCTYPE svg PUBLIC "-//W3C//DTD SVG 1.1//EN"
 "http://www.w3.org/Graphics/SVG/1.1/DTD/svg11.dtd">
<!-- Generated by graphviz version 2.40.1 (20161225.0304)
 -->
<!-- Title: dependencies Pages: 1 -->
<svg width="2549pt" height="284pt"
 viewBox="0.00 0.00 2549.00 284.00" xmlns="http://www.w3.org/2000/svg" xmlns:xlink="http://www.w3.org/1999/xlink">
<g id="graph0" class="graph" transform="scale(1 1) rotate(0) translate(4 280)">
<title>dependencies</title>
<polygon fill="#ffffff" stroke="transparent" points="-4,4 -4,-280 2545,-280 2545,4 -4,4"/>
<text text-anchor="start" x="1249.5091" y="-42.4" font-family="sans-serif" font-weight="bold" font-size="14.00" fill="#000000">Legend</text>
<polygon fill="#ffffb3" stroke="transparent" points="1036.5,-10 1036.5,-30 1056.5,-30 1056.5,-10 1036.5,-10"/>
<text text-anchor="start" x="1060.129" y="-15.4" font-family="sans-serif" font-size="14.00" fill="#000000"> &#160;Declarations</text>
<polygon fill="#8dd3c7" stroke="transparent" points="1149.5,-10 1149.5,-30 1169.5,-30 1169.5,-10 1149.5,-10"/>
<text text-anchor="start" x="1173.2251" y="-15.4" font-family="sans-serif" font-size="14.00" fill="#000000"> &#160;Module</text>
<polygon fill="#80b1d3" stroke="transparent" points="1235.5,-10 1235.5,-30 1255.5,-30 1255.5,-10 1235.5,-10"/>
<text text-anchor="start" x="1259.2812" y="-15.4" font-family="sans-serif" font-size="14.00" fill="#000000"> &#160;Bootstrap</text>
<polygon fill="#fdb462" stroke="transparent" points="1332.5,-10 1332.5,-30 1352.5,-30 1352.5,-10 1332.5,-10"/>
<text text-anchor="start" x="1356.1732" y="-15.4" font-family="sans-serif" font-size="14.00" fill="#000000"> &#160;Providers</text>
<polygon fill="#fb8072" stroke="transparent" points="1428.5,-10 1428.5,-30 1448.5,-30 1448.5,-10 1428.5,-10"/>
<text text-anchor="start" x="1452.2258" y="-15.4" font-family="sans-serif" font-size="14.00" fill="#000000"> &#160;Exports</text>
<g id="clust1" class="cluster">
<title>cluster_AppModule</title>
<polygon fill="none" stroke="#000000" stroke-dasharray="1,5" points="8,-70 8,-268 2533,-268 2533,-70 8,-70"/>
</g>
<g id="clust2" class="cluster">
<title>cluster_AppModule_declarations</title>
<polygon fill="none" stroke="#000000" points="2403,-78 2403,-130 2525,-130 2525,-78 2403,-78"/>
</g>
<g id="clust4" class="cluster">
<title>cluster_AppModule_imports</title>
<polygon fill="none" stroke="#000000" points="194,-78 194,-130 2395,-130 2395,-78 194,-78"/>
</g>
<g id="clust6" class="cluster">
<title>cluster_AppModule_bootstrap</title>
<polygon fill="none" stroke="#000000" points="1186,-208 1186,-260 1310,-260 1310,-208 1186,-208"/>
</g>
<g id="clust7" class="cluster">
<title>cluster_AppModule_providers</title>
<polygon fill="none" stroke="#000000" points="16,-78 16,-130 186,-130 186,-78 16,-78"/>
</g>
<!-- AppComponent -->
<g id="node1" class="node">
<title>AppComponent</title>
<polygon fill="#ffffb3" stroke="#000000" points="2516.9399,-122 2411.0601,-122 2411.0601,-86 2516.9399,-86 2516.9399,-122"/>
<text text-anchor="middle" x="2464" y="-99.8" font-family="Times,serif" font-size="14.00" fill="#000000">AppComponent</text>
</g>
<!-- AppModule -->
<g id="node2" class="node">
<title>AppModule</title>
<polygon fill="#8dd3c7" stroke="#000000" points="1289.6571,-187 1286.6571,-191 1265.6571,-191 1262.6571,-187 1206.3429,-187 1206.3429,-151 1289.6571,-151 1289.6571,-187"/>
<text text-anchor="middle" x="1248" y="-164.8" font-family="Times,serif" font-size="14.00" fill="#000000">AppModule</text>
</g>
<!-- AppComponent&#45;&gt;AppModule -->
<g id="edge1" class="edge">
<title>AppComponent&#45;&gt;AppModule</title>
<path fill="none" stroke="#000000" d="M2464,-122.1532C2464,-145.7566 2464,-184 2464,-184 2464,-184 1299.8575,-184 1299.8575,-184"/>
<polygon fill="#000000" stroke="#000000" points="1299.8575,-180.5001 1289.8575,-184 1299.8574,-187.5001 1299.8575,-180.5001"/>
</g>
<!-- AppComponent  -->
<g id="node20" class="node">
<title>AppComponent </title>
<polygon fill="#80b1d3" stroke="#000000" points="1302.439,-252 1193.561,-252 1193.561,-216 1302.439,-216 1302.439,-252"/>
<text text-anchor="middle" x="1248" y="-229.8" font-family="Times,serif" font-size="14.00" fill="#000000">AppComponent </text>
</g>
<!-- AppModule&#45;&gt;AppComponent  -->
<g id="edge19" class="edge">
<title>AppModule&#45;&gt;AppComponent </title>
<path fill="none" stroke="#000000" stroke-dasharray="1,5" d="M1248,-187.1061C1248,-187.1061 1248,-205.991 1248,-205.991"/>
<polygon fill="#000000" stroke="#000000" points="1244.5001,-205.9909 1248,-215.991 1251.5001,-205.991 1244.5001,-205.9909"/>
</g>
<!-- AdminModule -->
<g id="node3" class="node">
<title>AdminModule</title>
<polygon fill="#8dd3c7" stroke="#000000" points="2387.4386,-122 2384.4386,-126 2363.4386,-126 2360.4386,-122 2288.5614,-122 2288.5614,-86 2387.4386,-86 2387.4386,-122"/>
<text text-anchor="middle" x="2338" y="-99.8" font-family="Times,serif" font-size="14.00" fill="#000000">AdminModule</text>
</g>
<!-- AdminModule&#45;&gt;AppModule -->
<g id="edge2" class="edge">
<title>AdminModule&#45;&gt;AppModule</title>
<path fill="none" stroke="#000000" d="M2338,-122.0109C2338,-144.4852 2338,-180 2338,-180 2338,-180 1299.7293,-180 1299.7293,-180"/>
<polygon fill="#000000" stroke="#000000" points="1299.7293,-176.5001 1289.7293,-180 1299.7292,-183.5001 1299.7293,-176.5001"/>
</g>
<!-- AlertsModule -->
<g id="node4" class="node">
<title>AlertsModule</title>
<polygon fill="#8dd3c7" stroke="#000000" points="2270.7577,-122 2267.7577,-126 2246.7577,-126 2243.7577,-122 2177.2423,-122 2177.2423,-86 2270.7577,-86 2270.7577,-122"/>
<text text-anchor="middle" x="2224" y="-99.8" font-family="Times,serif" font-size="14.00" fill="#000000">AlertsModule</text>
</g>
<!-- AlertsModule&#45;&gt;AppModule -->
<g id="edge3" class="edge">
<title>AlertsModule&#45;&gt;AppModule</title>
<path fill="none" stroke="#000000" d="M2224,-122.0449C2224,-143.6623 2224,-177 2224,-177 2224,-177 1299.9375,-177 1299.9375,-177"/>
<polygon fill="#000000" stroke="#000000" points="1299.9375,-173.5001 1289.9375,-177 1299.9375,-180.5001 1299.9375,-173.5001"/>
</g>
<!-- AppConfigModule -->
<g id="node5" class="node">
<title>AppConfigModule</title>
<polygon fill="#8dd3c7" stroke="#000000" points="2159.045,-122 2156.045,-126 2135.045,-126 2132.045,-122 2036.955,-122 2036.955,-86 2159.045,-86 2159.045,-122"/>
<text text-anchor="middle" x="2098" y="-99.8" font-family="Times,serif" font-size="14.00" fill="#000000">AppConfigModule</text>
</g>
<!-- AppConfigModule&#45;&gt;AppModule -->
<g id="edge4" class="edge">
<title>AppConfigModule&#45;&gt;AppModule</title>
<path fill="none" stroke="#000000" d="M2098,-122.1289C2098,-142.5724 2098,-173 2098,-173 2098,-173 1299.8617,-173 1299.8617,-173"/>
<polygon fill="#000000" stroke="#000000" points="1299.8617,-169.5001 1289.8617,-173 1299.8617,-176.5001 1299.8617,-169.5001"/>
</g>
<!-- ChildrenModule -->
<g id="node6" class="node">
<title>ChildrenModule</title>
<polygon fill="#8dd3c7" stroke="#000000" points="2018.0438,-122 2015.0438,-126 1994.0438,-126 1991.0438,-122 1909.9562,-122 1909.9562,-86 2018.0438,-86 2018.0438,-122"/>
<text text-anchor="middle" x="1964" y="-99.8" font-family="Times,serif" font-size="14.00" fill="#000000">ChildrenModule</text>
</g>
<!-- ChildrenModule&#45;&gt;AppModule -->
<g id="edge5" class="edge">
<title>ChildrenModule&#45;&gt;AppModule</title>
<path fill="none" stroke="#000000" d="M1964,-122.1061C1964,-141.3391 1964,-169 1964,-169 1964,-169 1299.8526,-169 1299.8526,-169"/>
<polygon fill="#000000" stroke="#000000" points="1299.8527,-165.5001 1289.8526,-169 1299.8526,-172.5001 1299.8527,-165.5001"/>
</g>
<!-- ConfirmationDialogModule -->
<g id="node7" class="node">
<title>ConfirmationDialogModule</title>
<polygon fill="#8dd3c7" stroke="#000000" points="1891.587,-122 1888.587,-126 1867.587,-126 1864.587,-122 1718.413,-122 1718.413,-86 1891.587,-86 1891.587,-122"/>
<text text-anchor="middle" x="1805" y="-99.8" font-family="Times,serif" font-size="14.00" fill="#000000">ConfirmationDialogModule</text>
</g>
<!-- ConfirmationDialogModule&#45;&gt;AppModule -->
<g id="edge6" class="edge">
<title>ConfirmationDialogModule&#45;&gt;AppModule</title>
<path fill="none" stroke="#000000" d="M1805,-122.2667C1805,-140.5552 1805,-166 1805,-166 1805,-166 1299.8655,-166 1299.8655,-166"/>
<polygon fill="#000000" stroke="#000000" points="1299.8656,-162.5001 1289.8655,-166 1299.8655,-169.5001 1299.8656,-162.5001"/>
</g>
<!-- DashboardModule -->
<g id="node8" class="node">
<title>DashboardModule</title>
<polygon fill="#8dd3c7" stroke="#000000" points="1700.191,-122 1697.191,-126 1676.191,-126 1673.191,-122 1579.809,-122 1579.809,-86 1700.191,-86 1700.191,-122"/>
<text text-anchor="middle" x="1640" y="-99.8" font-family="Times,serif" font-size="14.00" fill="#000000">DashboardModule</text>
</g>
<!-- DashboardModule&#45;&gt;AppModule -->
<g id="edge7" class="edge">
<title>DashboardModule&#45;&gt;AppModule</title>
<path fill="none" stroke="#000000" d="M1640,-122.0336C1640,-139.0597 1640,-162 1640,-162 1640,-162 1299.9509,-162 1299.9509,-162"/>
<polygon fill="#000000" stroke="#000000" points="1299.9509,-158.5001 1289.9509,-162 1299.9508,-165.5001 1299.9509,-158.5001"/>
</g>
<!-- DemoDataModule -->
<g id="node9" class="node">
<title>DemoDataModule</title>
<polygon fill="#8dd3c7" stroke="#000000" points="1562.1881,-122 1559.1881,-126 1538.1881,-126 1535.1881,-122 1441.8119,-122 1441.8119,-86 1562.1881,-86 1562.1881,-122"/>
<text text-anchor="middle" x="1502" y="-99.8" font-family="Times,serif" font-size="14.00" fill="#000000">DemoDataModule</text>
</g>
<!-- DemoDataModule&#45;&gt;AppModule -->
<g id="edge8" class="edge">
<title>DemoDataModule&#45;&gt;AppModule</title>
<path fill="none" stroke="#000000" d="M1502,-122.0091C1502,-138.0494 1502,-159 1502,-159 1502,-159 1299.6585,-159 1299.6585,-159"/>
<polygon fill="#000000" stroke="#000000" points="1299.6585,-155.5001 1289.6585,-159 1299.6585,-162.5001 1299.6585,-155.5001"/>
</g>
<!-- EntityModule -->
<g id="node10" class="node">
<title>EntityModule</title>
<polygon fill="#8dd3c7" stroke="#000000" points="1423.7745,-122 1420.7745,-126 1399.7745,-126 1396.7745,-122 1330.2255,-122 1330.2255,-86 1423.7745,-86 1423.7745,-122"/>
<text text-anchor="middle" x="1377" y="-99.8" font-family="Times,serif" font-size="14.00" fill="#000000">EntityModule</text>
</g>
<!-- EntityModule&#45;&gt;AppModule -->
<g id="edge9" class="edge">
<title>EntityModule&#45;&gt;AppModule</title>
<path fill="none" stroke="#000000" d="M1377,-122.1243C1377,-136.7832 1377,-155 1377,-155 1377,-155 1299.8826,-155 1299.8826,-155"/>
<polygon fill="#000000" stroke="#000000" points="1299.8826,-151.5001 1289.8826,-155 1299.8826,-158.5001 1299.8826,-151.5001"/>
</g>
<!-- FormDialogModule -->
<g id="node11" class="node">
<title>FormDialogModule</title>
<polygon fill="#8dd3c7" stroke="#000000" points="1311.986,-122 1308.986,-126 1287.986,-126 1284.986,-122 1184.014,-122 1184.014,-86 1311.986,-86 1311.986,-122"/>
<text text-anchor="middle" x="1248" y="-99.8" font-family="Times,serif" font-size="14.00" fill="#000000">FormDialogModule</text>
</g>
<!-- FormDialogModule&#45;&gt;AppModule -->
<g id="edge10" class="edge">
<title>FormDialogModule&#45;&gt;AppModule</title>
<path fill="none" stroke="#000000" d="M1248,-122.1061C1248,-122.1061 1248,-140.991 1248,-140.991"/>
<polygon fill="#000000" stroke="#000000" points="1244.5001,-140.9909 1248,-150.991 1251.5001,-140.991 1244.5001,-140.9909"/>
</g>
<!-- HelpModule -->
<g id="node12" class="node">
<title>HelpModule</title>
<polygon fill="#8dd3c7" stroke="#000000" points="1166.2619,-122 1163.2619,-126 1142.2619,-126 1139.2619,-122 1079.7381,-122 1079.7381,-86 1166.2619,-86 1166.2619,-122"/>
<text text-anchor="middle" x="1123" y="-99.8" font-family="Times,serif" font-size="14.00" fill="#000000">HelpModule</text>
</g>
<!-- HelpModule&#45;&gt;AppModule -->
<g id="edge11" class="edge">
<title>HelpModule&#45;&gt;AppModule</title>
<path fill="none" stroke="#000000" d="M1123,-122.1243C1123,-136.7832 1123,-155 1123,-155 1123,-155 1196.0291,-155 1196.0291,-155"/>
<polygon fill="#000000" stroke="#000000" points="1196.0291,-158.5001 1206.0291,-155 1196.029,-151.5001 1196.0291,-158.5001"/>
</g>
<!-- LatestChangesModule -->
<g id="node13" class="node">
<title>LatestChangesModule</title>
<polygon fill="#8dd3c7" stroke="#000000" points="1061.9678,-122 1058.9678,-126 1037.9678,-126 1034.9678,-122 920.0322,-122 920.0322,-86 1061.9678,-86 1061.9678,-122"/>
<text text-anchor="middle" x="991" y="-99.8" font-family="Times,serif" font-size="14.00" fill="#000000">LatestChangesModule</text>
</g>
<!-- LatestChangesModule&#45;&gt;AppModule -->
<g id="edge12" class="edge">
<title>LatestChangesModule&#45;&gt;AppModule</title>
<path fill="none" stroke="#000000" d="M991,-122.0091C991,-138.0494 991,-159 991,-159 991,-159 1196.1365,-159 1196.1365,-159"/>
<polygon fill="#000000" stroke="#000000" points="1196.1366,-162.5001 1206.1365,-159 1196.1365,-155.5001 1196.1366,-162.5001"/>
</g>
<!-- NavigationModule -->
<g id="node14" class="node">
<title>NavigationModule</title>
<polygon fill="#8dd3c7" stroke="#000000" points="901.7576,-122 898.7576,-126 877.7576,-126 874.7576,-122 780.2424,-122 780.2424,-86 901.7576,-86 901.7576,-122"/>
<text text-anchor="middle" x="841" y="-99.8" font-family="Times,serif" font-size="14.00" fill="#000000">NavigationModule</text>
</g>
<!-- NavigationModule&#45;&gt;AppModule -->
<g id="edge13" class="edge">
<title>NavigationModule&#45;&gt;AppModule</title>
<path fill="none" stroke="#000000" d="M841,-122.0336C841,-139.0597 841,-162 841,-162 841,-162 1195.9768,-162 1195.9768,-162"/>
<polygon fill="#000000" stroke="#000000" points="1195.9768,-165.5001 1205.9768,-162 1195.9768,-158.5001 1195.9768,-165.5001"/>
</g>
<!-- SchoolsModule -->
<g id="node15" class="node">
<title>SchoolsModule</title>
<polygon fill="#8dd3c7" stroke="#000000" points="761.8823,-122 758.8823,-126 737.8823,-126 734.8823,-122 658.1177,-122 658.1177,-86 761.8823,-86 761.8823,-122"/>
<text text-anchor="middle" x="710" y="-99.8" font-family="Times,serif" font-size="14.00" fill="#000000">SchoolsModule</text>
</g>
<!-- SchoolsModule&#45;&gt;AppModule -->
<g id="edge14" class="edge">
<title>SchoolsModule&#45;&gt;AppModule</title>
<path fill="none" stroke="#000000" d="M710,-122.2667C710,-140.5552 710,-166 710,-166 710,-166 1196.2317,-166 1196.2317,-166"/>
<polygon fill="#000000" stroke="#000000" points="1196.2318,-169.5001 1206.2317,-166 1196.2317,-162.5001 1196.2318,-169.5001"/>
</g>
<!-- SessionModule -->
<g id="node16" class="node">
<title>SessionModule</title>
<polygon fill="#8dd3c7" stroke="#000000" points="640.3273,-122 637.3273,-126 616.3273,-126 613.3273,-122 537.6727,-122 537.6727,-86 640.3273,-86 640.3273,-122"/>
<text text-anchor="middle" x="589" y="-99.8" font-family="Times,serif" font-size="14.00" fill="#000000">SessionModule</text>
</g>
<!-- SessionModule&#45;&gt;AppModule -->
<g id="edge15" class="edge">
<title>SessionModule&#45;&gt;AppModule</title>
<path fill="none" stroke="#000000" d="M589,-122.1061C589,-141.3391 589,-169 589,-169 589,-169 1196.2767,-169 1196.2767,-169"/>
<polygon fill="#000000" stroke="#000000" points="1196.2767,-172.5001 1206.2767,-169 1196.2766,-165.5001 1196.2767,-172.5001"/>
</g>
<!-- SyncStatusModule -->
<g id="node17" class="node">
<title>SyncStatusModule</title>
<polygon fill="#8dd3c7" stroke="#000000" points="519.7702,-122 516.7702,-126 495.7702,-126 492.7702,-122 398.2298,-122 398.2298,-86 519.7702,-86 519.7702,-122"/>
<text text-anchor="middle" x="459" y="-99.8" font-family="Times,serif" font-size="14.00" fill="#000000">SyncStatusModule</text>
</g>
<!-- SyncStatusModule&#45;&gt;AppModule -->
<g id="edge16" class="edge">
<title>SyncStatusModule&#45;&gt;AppModule</title>
<path fill="none" stroke="#000000" d="M459,-122.1289C459,-142.5724 459,-173 459,-173 459,-173 1196.137,-173 1196.137,-173"/>
<polygon fill="#000000" stroke="#000000" points="1196.137,-176.5001 1206.137,-173 1196.137,-169.5001 1196.137,-176.5001"/>
</g>
<!-- UiModule -->
<g id="node18" class="node">
<title>UiModule</title>
<polygon fill="#8dd3c7" stroke="#000000" points="379.5484,-122 376.5484,-126 355.5484,-126 352.5484,-122 306.4516,-122 306.4516,-86 379.5484,-86 379.5484,-122"/>
<text text-anchor="middle" x="343" y="-99.8" font-family="Times,serif" font-size="14.00" fill="#000000">UiModule</text>
</g>
<!-- UiModule&#45;&gt;AppModule -->
<g id="edge17" class="edge">
<title>UiModule&#45;&gt;AppModule</title>
<path fill="none" stroke="#000000" d="M343,-122.0449C343,-143.6623 343,-177 343,-177 343,-177 1196.165,-177 1196.165,-177"/>
<polygon fill="#000000" stroke="#000000" points="1196.165,-180.5001 1206.165,-177 1196.165,-173.5001 1196.165,-180.5001"/>
</g>
<!-- UserModule -->
<g id="node19" class="node">
<title>UserModule</title>
<polygon fill="#8dd3c7" stroke="#000000" points="287.9762,-122 284.9762,-126 263.9762,-126 260.9762,-122 202.0238,-122 202.0238,-86 287.9762,-86 287.9762,-122"/>
<text text-anchor="middle" x="245" y="-99.8" font-family="Times,serif" font-size="14.00" fill="#000000">UserModule</text>
</g>
<!-- UserModule&#45;&gt;AppModule -->
<g id="edge18" class="edge">
<title>UserModule&#45;&gt;AppModule</title>
<path fill="none" stroke="#000000" d="M245,-122.0109C245,-144.4852 245,-180 245,-180 245,-180 1196.1793,-180 1196.1793,-180"/>
<polygon fill="#000000" stroke="#000000" points="1196.1793,-183.5001 1206.1793,-180 1196.1793,-176.5001 1196.1793,-183.5001"/>
</g>
<!-- AnalyticsService -->
<g id="node21" class="node">
<title>AnalyticsService</title>
<ellipse fill="#fdb462" stroke="#000000" cx="101" cy="-104" rx="77.0004" ry="18"/>
<text text-anchor="middle" x="101" y="-99.8" font-family="Times,serif" font-size="14.00" fill="#000000">AnalyticsService</text>
</g>
<!-- AnalyticsService&#45;&gt;AppModule -->
<g id="edge20" class="edge">
<title>AnalyticsService&#45;&gt;AppModule</title>
<path fill="none" stroke="#000000" d="M101,-122.1532C101,-145.7566 101,-184 101,-184 101,-184 1196.1593,-184 1196.1593,-184"/>
<polygon fill="#000000" stroke="#000000" points="1196.1594,-187.5001 1206.1593,-184 1196.1593,-180.5001 1196.1594,-187.5001"/>
</g>
</g>
</svg>
