<?xml version="1.0" encoding="UTF-8" standalone="no"?>
<!DOCTYPE svg PUBLIC "-//W3C//DTD SVG 1.1//EN"
 "http://www.w3.org/Graphics/SVG/1.1/DTD/svg11.dtd">
<!-- Generated by graphviz version 2.40.1 (20161225.0304)
 -->
<!-- Title: dependencies Pages: 1 -->
<svg width="2371pt" height="284pt"
 viewBox="0.00 0.00 2371.00 284.00" xmlns="http://www.w3.org/2000/svg" xmlns:xlink="http://www.w3.org/1999/xlink">
<g id="graph0" class="graph" transform="scale(1 1) rotate(0) translate(4 280)">
<title>dependencies</title>
<polygon fill="#ffffff" stroke="transparent" points="-4,4 -4,-280 2367,-280 2367,4 -4,4"/>
<text text-anchor="start" x="1160.5091" y="-42.4" font-family="sans-serif" font-weight="bold" font-size="14.00" fill="#000000">Legend</text>
<polygon fill="#ffffb3" stroke="transparent" points="947.5,-10 947.5,-30 967.5,-30 967.5,-10 947.5,-10"/>
<text text-anchor="start" x="971.129" y="-15.4" font-family="sans-serif" font-size="14.00" fill="#000000"> &#160;Declarations</text>
<polygon fill="#8dd3c7" stroke="transparent" points="1060.5,-10 1060.5,-30 1080.5,-30 1080.5,-10 1060.5,-10"/>
<text text-anchor="start" x="1084.2251" y="-15.4" font-family="sans-serif" font-size="14.00" fill="#000000"> &#160;Module</text>
<polygon fill="#80b1d3" stroke="transparent" points="1146.5,-10 1146.5,-30 1166.5,-30 1166.5,-10 1146.5,-10"/>
<text text-anchor="start" x="1170.2812" y="-15.4" font-family="sans-serif" font-size="14.00" fill="#000000"> &#160;Bootstrap</text>
<polygon fill="#fdb462" stroke="transparent" points="1243.5,-10 1243.5,-30 1263.5,-30 1263.5,-10 1243.5,-10"/>
<text text-anchor="start" x="1267.1732" y="-15.4" font-family="sans-serif" font-size="14.00" fill="#000000"> &#160;Providers</text>
<polygon fill="#fb8072" stroke="transparent" points="1339.5,-10 1339.5,-30 1359.5,-30 1359.5,-10 1339.5,-10"/>
<text text-anchor="start" x="1363.2258" y="-15.4" font-family="sans-serif" font-size="14.00" fill="#000000"> &#160;Exports</text>
<g id="clust1" class="cluster">
<title>cluster_AppModule</title>
<polygon fill="none" stroke="#000000" stroke-dasharray="1,5" points="8,-70 8,-268 2355,-268 2355,-70 8,-70"/>
</g>
<g id="clust2" class="cluster">
<title>cluster_AppModule_declarations</title>
<polygon fill="none" stroke="#000000" points="2225,-78 2225,-130 2347,-130 2347,-78 2225,-78"/>
</g>
<g id="clust4" class="cluster">
<title>cluster_AppModule_imports</title>
<polygon fill="none" stroke="#000000" points="16,-78 16,-130 2217,-130 2217,-78 16,-78"/>
</g>
<g id="clust6" class="cluster">
<title>cluster_AppModule_bootstrap</title>
<polygon fill="none" stroke="#000000" points="1072,-208 1072,-260 1196,-260 1196,-208 1072,-208"/>
</g>
<!-- AppComponent -->
<g id="node1" class="node">
<title>AppComponent</title>
<polygon fill="#ffffb3" stroke="#000000" points="2338.9399,-122 2233.0601,-122 2233.0601,-86 2338.9399,-86 2338.9399,-122"/>
<text text-anchor="middle" x="2286" y="-99.8" font-family="Times,serif" font-size="14.00" fill="#000000">AppComponent</text>
</g>
<!-- AppModule -->
<g id="node2" class="node">
<title>AppModule</title>
<polygon fill="#8dd3c7" stroke="#000000" points="1175.6571,-187 1172.6571,-191 1151.6571,-191 1148.6571,-187 1092.3429,-187 1092.3429,-151 1175.6571,-151 1175.6571,-187"/>
<text text-anchor="middle" x="1134" y="-164.8" font-family="Times,serif" font-size="14.00" fill="#000000">AppModule</text>
</g>
<!-- AppComponent&#45;&gt;AppModule -->
<g id="edge1" class="edge">
<title>AppComponent&#45;&gt;AppModule</title>
<path fill="none" stroke="#000000" d="M2286,-122.3228C2286,-145.6602 2286,-183 2286,-183 2286,-183 1185.6809,-183 1185.6809,-183"/>
<polygon fill="#000000" stroke="#000000" points="1185.6809,-179.5001 1175.6809,-183 1185.6808,-186.5001 1185.6809,-179.5001"/>
</g>
<!-- AppComponent  -->
<g id="node20" class="node">
<title>AppComponent </title>
<polygon fill="#80b1d3" stroke="#000000" points="1188.439,-252 1079.561,-252 1079.561,-216 1188.439,-216 1188.439,-252"/>
<text text-anchor="middle" x="1134" y="-229.8" font-family="Times,serif" font-size="14.00" fill="#000000">AppComponent </text>
</g>
<!-- AppModule&#45;&gt;AppComponent  -->
<g id="edge19" class="edge">
<title>AppModule&#45;&gt;AppComponent </title>
<path fill="none" stroke="#000000" stroke-dasharray="1,5" d="M1134,-187.1061C1134,-187.1061 1134,-205.991 1134,-205.991"/>
<polygon fill="#000000" stroke="#000000" points="1130.5001,-205.9909 1134,-215.991 1137.5001,-205.991 1130.5001,-205.9909"/>
</g>
<!-- AdminModule -->
<g id="node3" class="node">
<title>AdminModule</title>
<polygon fill="#8dd3c7" stroke="#000000" points="2209.4386,-122 2206.4386,-126 2185.4386,-126 2182.4386,-122 2110.5614,-122 2110.5614,-86 2209.4386,-86 2209.4386,-122"/>
<text text-anchor="middle" x="2160" y="-99.8" font-family="Times,serif" font-size="14.00" fill="#000000">AdminModule</text>
</g>
<!-- AdminModule&#45;&gt;AppModule -->
<g id="edge2" class="edge">
<title>AdminModule&#45;&gt;AppModule</title>
<path fill="none" stroke="#000000" d="M2160,-122.1554C2160,-144.3519 2160,-179 2160,-179 2160,-179 1185.8116,-179 1185.8116,-179"/>
<polygon fill="#000000" stroke="#000000" points="1185.8117,-175.5001 1175.8116,-179 1185.8116,-182.5001 1185.8117,-175.5001"/>
</g>
<!-- AlertsModule -->
<g id="node4" class="node">
<title>AlertsModule</title>
<polygon fill="#8dd3c7" stroke="#000000" points="2092.7577,-122 2089.7577,-126 2068.7577,-126 2065.7577,-122 1999.2423,-122 1999.2423,-86 2092.7577,-86 2092.7577,-122"/>
<text text-anchor="middle" x="2046" y="-99.8" font-family="Times,serif" font-size="14.00" fill="#000000">AlertsModule</text>
</g>
<!-- AlertsModule&#45;&gt;AppModule -->
<g id="edge3" class="edge">
<title>AlertsModule&#45;&gt;AppModule</title>
<path fill="none" stroke="#000000" d="M2046,-122.2843C2046,-143.3211 2046,-175 2046,-175 2046,-175 1185.8571,-175 1185.8571,-175"/>
<polygon fill="#000000" stroke="#000000" points="1185.8571,-171.5001 1175.8571,-175 1185.8571,-178.5001 1185.8571,-171.5001"/>
</g>
<!-- AppConfigModule -->
<g id="node5" class="node">
<title>AppConfigModule</title>
<polygon fill="#8dd3c7" stroke="#000000" points="1981.045,-122 1978.045,-126 1957.045,-126 1954.045,-122 1858.955,-122 1858.955,-86 1981.045,-86 1981.045,-122"/>
<text text-anchor="middle" x="1920" y="-99.8" font-family="Times,serif" font-size="14.00" fill="#000000">AppConfigModule</text>
</g>
<!-- AppConfigModule&#45;&gt;AppModule -->
<g id="edge4" class="edge">
<title>AppConfigModule&#45;&gt;AppModule</title>
<path fill="none" stroke="#000000" d="M1920,-122.308C1920,-142.1455 1920,-171 1920,-171 1920,-171 1185.7038,-171 1185.7038,-171"/>
<polygon fill="#000000" stroke="#000000" points="1185.7039,-167.5001 1175.7038,-171 1185.7038,-174.5001 1185.7039,-167.5001"/>
</g>
<!-- ChildrenModule -->
<g id="node6" class="node">
<title>ChildrenModule</title>
<polygon fill="#8dd3c7" stroke="#000000" points="1840.0438,-122 1837.0438,-126 1816.0438,-126 1813.0438,-122 1731.9562,-122 1731.9562,-86 1840.0438,-86 1840.0438,-122"/>
<text text-anchor="middle" x="1786" y="-99.8" font-family="Times,serif" font-size="14.00" fill="#000000">ChildrenModule</text>
</g>
<!-- ChildrenModule&#45;&gt;AppModule -->
<g id="edge5" class="edge">
<title>ChildrenModule&#45;&gt;AppModule</title>
<path fill="none" stroke="#000000" d="M1786,-122.2222C1786,-140.8285 1786,-167 1786,-167 1786,-167 1185.7774,-167 1185.7774,-167"/>
<polygon fill="#000000" stroke="#000000" points="1185.7774,-163.5001 1175.7774,-167 1185.7773,-170.5001 1185.7774,-163.5001"/>
</g>
<!-- ConfirmationDialogModule -->
<g id="node7" class="node">
<title>ConfirmationDialogModule</title>
<polygon fill="#8dd3c7" stroke="#000000" points="1713.587,-122 1710.587,-126 1689.587,-126 1686.587,-122 1540.413,-122 1540.413,-86 1713.587,-86 1713.587,-122"/>
<text text-anchor="middle" x="1627" y="-99.8" font-family="Times,serif" font-size="14.00" fill="#000000">ConfirmationDialogModule</text>
</g>
<!-- ConfirmationDialogModule&#45;&gt;AppModule -->
<g id="edge6" class="edge">
<title>ConfirmationDialogModule&#45;&gt;AppModule</title>
<path fill="none" stroke="#000000" d="M1627,-122.0225C1627,-139.3734 1627,-163 1627,-163 1627,-163 1186.0329,-163 1186.0329,-163"/>
<polygon fill="#000000" stroke="#000000" points="1186.0329,-159.5001 1176.0329,-163 1186.0329,-166.5001 1186.0329,-159.5001"/>
</g>
<!-- DashboardModule -->
<g id="node8" class="node">
<title>DashboardModule</title>
<polygon fill="#8dd3c7" stroke="#000000" points="1522.191,-122 1519.191,-126 1498.191,-126 1495.191,-122 1401.809,-122 1401.809,-86 1522.191,-86 1522.191,-122"/>
<text text-anchor="middle" x="1462" y="-99.8" font-family="Times,serif" font-size="14.00" fill="#000000">DashboardModule</text>
</g>
<!-- DashboardModule&#45;&gt;AppModule -->
<g id="edge7" class="edge">
<title>DashboardModule&#45;&gt;AppModule</title>
<path fill="none" stroke="#000000" d="M1462,-122.0091C1462,-138.0494 1462,-159 1462,-159 1462,-159 1185.8746,-159 1185.8746,-159"/>
<polygon fill="#000000" stroke="#000000" points="1185.8746,-155.5001 1175.8746,-159 1185.8746,-162.5001 1185.8746,-155.5001"/>
</g>
<!-- DemoDataModule -->
<g id="node9" class="node">
<title>DemoDataModule</title>
<polygon fill="#8dd3c7" stroke="#000000" points="1384.1881,-122 1381.1881,-126 1360.1881,-126 1357.1881,-122 1263.8119,-122 1263.8119,-86 1384.1881,-86 1384.1881,-122"/>
<text text-anchor="middle" x="1324" y="-99.8" font-family="Times,serif" font-size="14.00" fill="#000000">DemoDataModule</text>
</g>
<!-- DemoDataModule&#45;&gt;AppModule -->
<g id="edge8" class="edge">
<title>DemoDataModule&#45;&gt;AppModule</title>
<path fill="none" stroke="#000000" d="M1324,-122.1243C1324,-136.7832 1324,-155 1324,-155 1324,-155 1185.6963,-155 1185.6963,-155"/>
<polygon fill="#000000" stroke="#000000" points="1185.6963,-151.5001 1175.6963,-155 1185.6963,-158.5001 1185.6963,-151.5001"/>
</g>
<!-- EntityModule -->
<g id="node10" class="node">
<title>EntityModule</title>
<polygon fill="#8dd3c7" stroke="#000000" points="1245.7745,-122 1242.7745,-126 1221.7745,-126 1218.7745,-122 1152.2255,-122 1152.2255,-86 1245.7745,-86 1245.7745,-122"/>
<text text-anchor="middle" x="1199" y="-99.8" font-family="Times,serif" font-size="14.00" fill="#000000">EntityModule</text>
</g>
<!-- EntityModule&#45;&gt;AppModule -->
<g id="edge9" class="edge">
<title>EntityModule&#45;&gt;AppModule</title>
<path fill="none" stroke="#000000" d="M1163.9706,-122.1061C1163.9706,-122.1061 1163.9706,-140.991 1163.9706,-140.991"/>
<polygon fill="#000000" stroke="#000000" points="1160.4706,-140.9909 1163.9706,-150.991 1167.4706,-140.991 1160.4706,-140.9909"/>
</g>
<!-- FormDialogModule -->
<g id="node11" class="node">
<title>FormDialogModule</title>
<polygon fill="#8dd3c7" stroke="#000000" points="1133.986,-122 1130.986,-126 1109.986,-126 1106.986,-122 1006.014,-122 1006.014,-86 1133.986,-86 1133.986,-122"/>
<text text-anchor="middle" x="1070" y="-99.8" font-family="Times,serif" font-size="14.00" fill="#000000">FormDialogModule</text>
</g>
<!-- FormDialogModule&#45;&gt;AppModule -->
<g id="edge10" class="edge">
<title>FormDialogModule&#45;&gt;AppModule</title>
<path fill="none" stroke="#000000" d="M1113.0824,-122.1061C1113.0824,-122.1061 1113.0824,-140.991 1113.0824,-140.991"/>
<polygon fill="#000000" stroke="#000000" points="1109.5825,-140.9909 1113.0824,-150.991 1116.5825,-140.991 1109.5825,-140.9909"/>
</g>
<!-- HelpModule -->
<g id="node12" class="node">
<title>HelpModule</title>
<polygon fill="#8dd3c7" stroke="#000000" points="988.2619,-122 985.2619,-126 964.2619,-126 961.2619,-122 901.7381,-122 901.7381,-86 988.2619,-86 988.2619,-122"/>
<text text-anchor="middle" x="945" y="-99.8" font-family="Times,serif" font-size="14.00" fill="#000000">HelpModule</text>
</g>
<!-- HelpModule&#45;&gt;AppModule -->
<g id="edge11" class="edge">
<title>HelpModule&#45;&gt;AppModule</title>
<path fill="none" stroke="#000000" d="M945,-122.1243C945,-136.7832 945,-155 945,-155 945,-155 1082.0548,-155 1082.0548,-155"/>
<polygon fill="#000000" stroke="#000000" points="1082.0548,-158.5001 1092.0548,-155 1082.0547,-151.5001 1082.0548,-158.5001"/>
</g>
<!-- LatestChangesModule -->
<g id="node13" class="node">
<title>LatestChangesModule</title>
<polygon fill="#8dd3c7" stroke="#000000" points="883.9678,-122 880.9678,-126 859.9678,-126 856.9678,-122 742.0322,-122 742.0322,-86 883.9678,-86 883.9678,-122"/>
<text text-anchor="middle" x="813" y="-99.8" font-family="Times,serif" font-size="14.00" fill="#000000">LatestChangesModule</text>
</g>
<!-- LatestChangesModule&#45;&gt;AppModule -->
<g id="edge12" class="edge">
<title>LatestChangesModule&#45;&gt;AppModule</title>
<path fill="none" stroke="#000000" d="M813,-122.0091C813,-138.0494 813,-159 813,-159 813,-159 1082.0349,-159 1082.0349,-159"/>
<polygon fill="#000000" stroke="#000000" points="1082.0349,-162.5001 1092.0349,-159 1082.0348,-155.5001 1082.0349,-162.5001"/>
</g>
<!-- NavigationModule -->
<g id="node14" class="node">
<title>NavigationModule</title>
<polygon fill="#8dd3c7" stroke="#000000" points="723.7576,-122 720.7576,-126 699.7576,-126 696.7576,-122 602.2424,-122 602.2424,-86 723.7576,-86 723.7576,-122"/>
<text text-anchor="middle" x="663" y="-99.8" font-family="Times,serif" font-size="14.00" fill="#000000">NavigationModule</text>
</g>
<!-- NavigationModule&#45;&gt;AppModule -->
<g id="edge13" class="edge">
<title>NavigationModule&#45;&gt;AppModule</title>
<path fill="none" stroke="#000000" d="M663,-122.0225C663,-139.3734 663,-163 663,-163 663,-163 1082.2019,-163 1082.2019,-163"/>
<polygon fill="#000000" stroke="#000000" points="1082.2019,-166.5001 1092.2019,-163 1082.2019,-159.5001 1082.2019,-166.5001"/>
</g>
<!-- SchoolsModule -->
<g id="node15" class="node">
<title>SchoolsModule</title>
<polygon fill="#8dd3c7" stroke="#000000" points="583.8823,-122 580.8823,-126 559.8823,-126 556.8823,-122 480.1177,-122 480.1177,-86 583.8823,-86 583.8823,-122"/>
<text text-anchor="middle" x="532" y="-99.8" font-family="Times,serif" font-size="14.00" fill="#000000">SchoolsModule</text>
</g>
<!-- SchoolsModule&#45;&gt;AppModule -->
<g id="edge14" class="edge">
<title>SchoolsModule&#45;&gt;AppModule</title>
<path fill="none" stroke="#000000" d="M532,-122.2222C532,-140.8285 532,-167 532,-167 532,-167 1082.1465,-167 1082.1465,-167"/>
<polygon fill="#000000" stroke="#000000" points="1082.1465,-170.5001 1092.1465,-167 1082.1464,-163.5001 1082.1465,-170.5001"/>
</g>
<!-- SessionModule -->
<g id="node16" class="node">
<title>SessionModule</title>
<polygon fill="#8dd3c7" stroke="#000000" points="462.3273,-122 459.3273,-126 438.3273,-126 435.3273,-122 359.6727,-122 359.6727,-86 462.3273,-86 462.3273,-122"/>
<text text-anchor="middle" x="411" y="-99.8" font-family="Times,serif" font-size="14.00" fill="#000000">SessionModule</text>
</g>
<!-- SessionModule&#45;&gt;AppModule -->
<g id="edge15" class="edge">
<title>SessionModule&#45;&gt;AppModule</title>
<path fill="none" stroke="#000000" d="M411,-122.308C411,-142.1455 411,-171 411,-171 411,-171 1082.2679,-171 1082.2679,-171"/>
<polygon fill="#000000" stroke="#000000" points="1082.2679,-174.5001 1092.2679,-171 1082.2678,-167.5001 1082.2679,-174.5001"/>
</g>
<!-- SyncStatusModule -->
<g id="node17" class="node">
<title>SyncStatusModule</title>
<polygon fill="#8dd3c7" stroke="#000000" points="341.7702,-122 338.7702,-126 317.7702,-126 314.7702,-122 220.2298,-122 220.2298,-86 341.7702,-86 341.7702,-122"/>
<text text-anchor="middle" x="281" y="-99.8" font-family="Times,serif" font-size="14.00" fill="#000000">SyncStatusModule</text>
</g>
<!-- SyncStatusModule&#45;&gt;AppModule -->
<g id="edge16" class="edge">
<title>SyncStatusModule&#45;&gt;AppModule</title>
<path fill="none" stroke="#000000" d="M281,-122.2843C281,-143.3211 281,-175 281,-175 281,-175 1082.2806,-175 1082.2806,-175"/>
<polygon fill="#000000" stroke="#000000" points="1082.2806,-178.5001 1092.2806,-175 1082.2806,-171.5001 1082.2806,-178.5001"/>
</g>
<!-- UiModule -->
<g id="node18" class="node">
<title>UiModule</title>
<polygon fill="#8dd3c7" stroke="#000000" points="201.5484,-122 198.5484,-126 177.5484,-126 174.5484,-122 128.4516,-122 128.4516,-86 201.5484,-86 201.5484,-122"/>
<text text-anchor="middle" x="165" y="-99.8" font-family="Times,serif" font-size="14.00" fill="#000000">UiModule</text>
</g>
<!-- UiModule&#45;&gt;AppModule -->
<g id="edge17" class="edge">
<title>UiModule&#45;&gt;AppModule</title>
<path fill="none" stroke="#000000" d="M165,-122.1554C165,-144.3519 165,-179 165,-179 165,-179 1082.0523,-179 1082.0523,-179"/>
<polygon fill="#000000" stroke="#000000" points="1082.0523,-182.5001 1092.0523,-179 1082.0522,-175.5001 1082.0523,-182.5001"/>
</g>
<!-- UserModule -->
<g id="node19" class="node">
<title>UserModule</title>
<polygon fill="#8dd3c7" stroke="#000000" points="109.9762,-122 106.9762,-126 85.9762,-126 82.9762,-122 24.0238,-122 24.0238,-86 109.9762,-86 109.9762,-122"/>
<text text-anchor="middle" x="67" y="-99.8" font-family="Times,serif" font-size="14.00" fill="#000000">UserModule</text>
</g>
<!-- UserModule&#45;&gt;AppModule -->
<g id="edge18" class="edge">
<title>UserModule&#45;&gt;AppModule</title>
<path fill="none" stroke="#000000" d="M67,-122.3228C67,-145.6602 67,-183 67,-183 67,-183 1082.1723,-183 1082.1723,-183"/>
<polygon fill="#000000" stroke="#000000" points="1082.1724,-186.5001 1092.1723,-183 1082.1723,-179.5001 1082.1724,-186.5001"/>
</g>
</g>
</svg>
