<?xml version="1.0" encoding="UTF-8" standalone="no"?>
<!DOCTYPE svg PUBLIC "-//W3C//DTD SVG 1.1//EN"
 "http://www.w3.org/Graphics/SVG/1.1/DTD/svg11.dtd">
<!-- Generated by graphviz version 2.40.1 (20161225.0304)
 -->
<!-- Title: dependencies Pages: 1 -->
<svg width="675pt" height="211pt"
 viewBox="0.00 0.00 675.00 211.00" xmlns="http://www.w3.org/2000/svg" xmlns:xlink="http://www.w3.org/1999/xlink">
<g id="graph0" class="graph" transform="scale(1 1) rotate(0) translate(4 207)">
<title>dependencies</title>
<polygon fill="#ffffff" stroke="transparent" points="-4,4 -4,-207 671,-207 671,4 -4,4"/>
<text text-anchor="start" x="312.5091" y="-42.4" font-family="sans-serif" font-weight="bold" font-size="14.00" fill="#000000">Legend</text>
<polygon fill="#ffffb3" stroke="transparent" points="99.5,-10 99.5,-30 119.5,-30 119.5,-10 99.5,-10"/>
<text text-anchor="start" x="123.129" y="-15.4" font-family="sans-serif" font-size="14.00" fill="#000000"> &#160;Declarations</text>
<polygon fill="#8dd3c7" stroke="transparent" points="212.5,-10 212.5,-30 232.5,-30 232.5,-10 212.5,-10"/>
<text text-anchor="start" x="236.2251" y="-15.4" font-family="sans-serif" font-size="14.00" fill="#000000"> &#160;Module</text>
<polygon fill="#80b1d3" stroke="transparent" points="298.5,-10 298.5,-30 318.5,-30 318.5,-10 298.5,-10"/>
<text text-anchor="start" x="322.2812" y="-15.4" font-family="sans-serif" font-size="14.00" fill="#000000"> &#160;Bootstrap</text>
<polygon fill="#fdb462" stroke="transparent" points="395.5,-10 395.5,-30 415.5,-30 415.5,-10 395.5,-10"/>
<text text-anchor="start" x="419.1732" y="-15.4" font-family="sans-serif" font-size="14.00" fill="#000000"> &#160;Providers</text>
<polygon fill="#fb8072" stroke="transparent" points="491.5,-10 491.5,-30 511.5,-30 511.5,-10 491.5,-10"/>
<text text-anchor="start" x="515.2258" y="-15.4" font-family="sans-serif" font-size="14.00" fill="#000000"> &#160;Exports</text>
<g id="clust1" class="cluster">
<title>cluster_ConflictResolutionModule</title>
<polygon fill="none" stroke="#000000" stroke-dasharray="1,5" points="8,-70 8,-195 659,-195 659,-70 8,-70"/>
</g>
<g id="clust2" class="cluster">
<title>cluster_ConflictResolutionModule_declarations</title>
<polygon fill="none" stroke="#000000" points="252,-78 252,-130 651,-130 651,-78 252,-78"/>
</g>
<g id="clust5" class="cluster">
<title>cluster_ConflictResolutionModule_imports</title>
<polygon fill="none" stroke="#000000" points="16,-78 16,-130 244,-130 244,-78 16,-78"/>
</g>
<!-- CompareRevComponent -->
<g id="node1" class="node">
<title>CompareRevComponent</title>
<polygon fill="#ffffb3" stroke="#000000" points="642.7007,-122 487.2993,-122 487.2993,-86 642.7007,-86 642.7007,-122"/>
<text text-anchor="middle" x="565" y="-99.8" font-family="Times,serif" font-size="14.00" fill="#000000">CompareRevComponent</text>
</g>
<!-- ConflictResolutionModule -->
<g id="node3" class="node">
<title>ConflictResolutionModule</title>
<polygon fill="#8dd3c7" stroke="#000000" points="448.101,-187 445.101,-191 424.101,-191 421.101,-187 281.899,-187 281.899,-151 448.101,-151 448.101,-187"/>
<text text-anchor="middle" x="365" y="-164.8" font-family="Times,serif" font-size="14.00" fill="#000000">ConflictResolutionModule</text>
</g>
<!-- CompareRevComponent&#45;&gt;ConflictResolutionModule -->
<g id="edge1" class="edge">
<title>CompareRevComponent&#45;&gt;ConflictResolutionModule</title>
<path fill="none" stroke="#000000" d="M565,-122.1061C565,-141.3391 565,-169 565,-169 565,-169 458.0805,-169 458.0805,-169"/>
<polygon fill="#000000" stroke="#000000" points="458.0805,-165.5001 448.0805,-169 458.0805,-172.5001 458.0805,-165.5001"/>
</g>
<!-- ConflictResolutionListComponent -->
<g id="node2" class="node">
<title>ConflictResolutionListComponent</title>
<polygon fill="#ffffb3" stroke="#000000" points="469.6623,-122 260.3377,-122 260.3377,-86 469.6623,-86 469.6623,-122"/>
<text text-anchor="middle" x="365" y="-99.8" font-family="Times,serif" font-size="14.00" fill="#000000">ConflictResolutionListComponent</text>
</g>
<!-- ConflictResolutionListComponent&#45;&gt;ConflictResolutionModule -->
<g id="edge2" class="edge">
<title>ConflictResolutionListComponent&#45;&gt;ConflictResolutionModule</title>
<path fill="none" stroke="#000000" d="M365,-122.1061C365,-122.1061 365,-140.991 365,-140.991"/>
<polygon fill="#000000" stroke="#000000" points="361.5001,-140.9909 365,-150.991 368.5001,-140.991 361.5001,-140.9909"/>
</g>
<!-- ConflictResolutionRoutingModule -->
<g id="node4" class="node">
<title>ConflictResolutionRoutingModule</title>
<polygon fill="#8dd3c7" stroke="#000000" points="235.7189,-122 232.7189,-126 211.7189,-126 208.7189,-122 24.2811,-122 24.2811,-86 235.7189,-86 235.7189,-122"/>
<text text-anchor="middle" x="130" y="-99.8" font-family="Times,serif" font-size="14.00" fill="#000000">ConflictResolutionRoutingModule</text>
</g>
<!-- ConflictResolutionRoutingModule&#45;&gt;ConflictResolutionModule -->
<g id="edge3" class="edge">
<title>ConflictResolutionRoutingModule&#45;&gt;ConflictResolutionModule</title>
<path fill="none" stroke="#000000" d="M130,-122.1061C130,-141.3391 130,-169 130,-169 130,-169 271.8171,-169 271.8171,-169"/>
<polygon fill="#000000" stroke="#000000" points="271.8171,-172.5001 281.8171,-169 271.817,-165.5001 271.8171,-172.5001"/>
</g>
</g>
</svg>
