<?xml version="1.0" encoding="UTF-8" standalone="no"?>
<!DOCTYPE svg PUBLIC "-//W3C//DTD SVG 1.1//EN"
 "http://www.w3.org/Graphics/SVG/1.1/DTD/svg11.dtd">
<!-- Generated by graphviz version 2.40.1 (20161225.0304)
 -->
<!-- Title: dependencies Pages: 1 -->
<svg width="504pt" height="284pt"
 viewBox="0.00 0.00 504.00 284.00" xmlns="http://www.w3.org/2000/svg" xmlns:xlink="http://www.w3.org/1999/xlink">
<g id="graph0" class="graph" transform="scale(1 1) rotate(0) translate(4 280)">
<title>dependencies</title>
<polygon fill="#ffffff" stroke="transparent" points="-4,4 -4,-280 500,-280 500,4 -4,4"/>
<text text-anchor="start" x="227.0091" y="-42.4" font-family="sans-serif" font-weight="bold" font-size="14.00" fill="#000000">Legend</text>
<polygon fill="#ffffb3" stroke="transparent" points="14,-10 14,-30 34,-30 34,-10 14,-10"/>
<text text-anchor="start" x="37.629" y="-15.4" font-family="sans-serif" font-size="14.00" fill="#000000"> &#160;Declarations</text>
<polygon fill="#8dd3c7" stroke="transparent" points="127,-10 127,-30 147,-30 147,-10 127,-10"/>
<text text-anchor="start" x="150.7251" y="-15.4" font-family="sans-serif" font-size="14.00" fill="#000000"> &#160;Module</text>
<polygon fill="#80b1d3" stroke="transparent" points="213,-10 213,-30 233,-30 233,-10 213,-10"/>
<text text-anchor="start" x="236.7812" y="-15.4" font-family="sans-serif" font-size="14.00" fill="#000000"> &#160;Bootstrap</text>
<polygon fill="#fdb462" stroke="transparent" points="310,-10 310,-30 330,-30 330,-10 310,-10"/>
<text text-anchor="start" x="333.6732" y="-15.4" font-family="sans-serif" font-size="14.00" fill="#000000"> &#160;Providers</text>
<polygon fill="#fb8072" stroke="transparent" points="406,-10 406,-30 426,-30 426,-10 406,-10"/>
<text text-anchor="start" x="429.7258" y="-15.4" font-family="sans-serif" font-size="14.00" fill="#000000"> &#160;Exports</text>
<g id="clust1" class="cluster">
<title>cluster_WebdavModule</title>
<polygon fill="none" stroke="#000000" stroke-dasharray="1,5" points="16,-70 16,-268 480,-268 480,-70 16,-70"/>
</g>
<g id="clust2" class="cluster">
<title>cluster_WebdavModule_declarations</title>
<polygon fill="none" stroke="#000000" points="206,-78 206,-130 472,-130 472,-78 206,-78"/>
</g>
<g id="clust5" class="cluster">
<title>cluster_WebdavModule_exports</title>
<polygon fill="none" stroke="#000000" points="113,-208 113,-260 383,-260 383,-208 113,-208"/>
</g>
<g id="clust7" class="cluster">
<title>cluster_WebdavModule_providers</title>
<polygon fill="none" stroke="#000000" points="24,-78 24,-130 198,-130 198,-78 24,-78"/>
</g>
<!-- CloudFileServiceUserSettingsComponent -->
<g id="node1" class="node">
<title>CloudFileServiceUserSettingsComponent</title>
<polygon fill="#ffffb3" stroke="#000000" points="464.3556,-122 213.6444,-122 213.6444,-86 464.3556,-86 464.3556,-122"/>
<text text-anchor="middle" x="339" y="-99.8" font-family="Times,serif" font-size="14.00" fill="#000000">CloudFileServiceUserSettingsComponent</text>
</g>
<!-- WebdavModule -->
<g id="node2" class="node">
<title>WebdavModule</title>
<polygon fill="#8dd3c7" stroke="#000000" points="301.1938,-187 298.1938,-191 277.1938,-191 274.1938,-187 194.8062,-187 194.8062,-151 301.1938,-151 301.1938,-187"/>
<text text-anchor="middle" x="248" y="-164.8" font-family="Times,serif" font-size="14.00" fill="#000000">WebdavModule</text>
</g>
<!-- CloudFileServiceUserSettingsComponent&#45;&gt;WebdavModule -->
<g id="edge1" class="edge">
<title>CloudFileServiceUserSettingsComponent&#45;&gt;WebdavModule</title>
<path fill="none" stroke="#000000" d="M257.3345,-122.1061C257.3345,-122.1061 257.3345,-140.991 257.3345,-140.991"/>
<polygon fill="#000000" stroke="#000000" points="253.8346,-140.9909 257.3345,-150.991 260.8346,-140.991 253.8346,-140.9909"/>
</g>
<!-- CloudFileServiceUserSettingsComponent  -->
<g id="node3" class="node">
<title>CloudFileServiceUserSettingsComponent </title>
<polygon fill="#fb8072" stroke="#000000" points="375.3558,-252 120.6442,-252 120.6442,-216 375.3558,-216 375.3558,-252"/>
<text text-anchor="middle" x="248" y="-229.8" font-family="Times,serif" font-size="14.00" fill="#000000">CloudFileServiceUserSettingsComponent </text>
</g>
<!-- WebdavModule&#45;&gt;CloudFileServiceUserSettingsComponent  -->
<g id="edge2" class="edge">
<title>WebdavModule&#45;&gt;CloudFileServiceUserSettingsComponent </title>
<path fill="none" stroke="#000000" stroke-dasharray="5,2" d="M248,-187.1061C248,-187.1061 248,-205.991 248,-205.991"/>
<polygon fill="#000000" stroke="#000000" points="244.5001,-205.9909 248,-215.991 251.5001,-205.991 244.5001,-205.9909"/>
</g>
<!-- CloudFileService -->
<g id="node4" class="node">
<title>CloudFileService</title>
<ellipse fill="#fdb462" stroke="#000000" cx="111" cy="-104" rx="78.7473" ry="18"/>
<text text-anchor="middle" x="111" y="-99.8" font-family="Times,serif" font-size="14.00" fill="#000000">CloudFileService</text>
</g>
<!-- CloudFileService&#45;&gt;WebdavModule -->
<g id="edge3" class="edge">
<title>CloudFileService&#45;&gt;WebdavModule</title>
<path fill="none" stroke="#000000" d="M189.6693,-104C198.4103,-104 204.2377,-104 204.2377,-104 204.2377,-104 204.2377,-140.8939 204.2377,-140.8939"/>
<polygon fill="#000000" stroke="#000000" points="200.7378,-140.8938 204.2377,-150.8939 207.7378,-140.8939 200.7378,-140.8938"/>
</g>
</g>
</svg>
