<?xml version="1.0" encoding="UTF-8" standalone="no"?>
<!DOCTYPE svg PUBLIC "-//W3C//DTD SVG 1.1//EN"
 "http://www.w3.org/Graphics/SVG/1.1/DTD/svg11.dtd">
<!-- Generated by graphviz version 2.44.1 (20200629.0846)
 -->
<!-- Title: dependencies Pages: 1 -->
<svg width="504pt" height="284pt"
 viewBox="0.00 0.00 504.00 284.00" xmlns="http://www.w3.org/2000/svg" xmlns:xlink="http://www.w3.org/1999/xlink">
<g id="graph0" class="graph" transform="scale(1 1) rotate(0) translate(4 280)">
<title>dependencies</title>
<polygon fill="white" stroke="transparent" points="-4,4 -4,-280 500,-280 500,4 -4,4"/>
<text text-anchor="start" x="227.01" y="-42.4" font-family="sans-serif" font-weight="bold" font-size="14.00">Legend</text>
<polygon fill="#ffffb3" stroke="transparent" points="14,-10 14,-30 34,-30 34,-10 14,-10"/>
<text text-anchor="start" x="37.63" y="-15.4" font-family="sans-serif" font-size="14.00"> &#160;Declarations</text>
<polygon fill="#8dd3c7" stroke="transparent" points="127,-10 127,-30 147,-30 147,-10 127,-10"/>
<text text-anchor="start" x="150.73" y="-15.4" font-family="sans-serif" font-size="14.00"> &#160;Module</text>
<polygon fill="#80b1d3" stroke="transparent" points="213,-10 213,-30 233,-30 233,-10 213,-10"/>
<text text-anchor="start" x="236.78" y="-15.4" font-family="sans-serif" font-size="14.00"> &#160;Bootstrap</text>
<polygon fill="#fdb462" stroke="transparent" points="310,-10 310,-30 330,-30 330,-10 310,-10"/>
<text text-anchor="start" x="333.67" y="-15.4" font-family="sans-serif" font-size="14.00"> &#160;Providers</text>
<polygon fill="#fb8072" stroke="transparent" points="406,-10 406,-30 426,-30 426,-10 406,-10"/>
<text text-anchor="start" x="429.73" y="-15.4" font-family="sans-serif" font-size="14.00"> &#160;Exports</text>
<g id="clust1" class="cluster">
<title>cluster_WebdavModule</title>
<polygon fill="none" stroke="black" stroke-dasharray="1,5" points="16,-70 16,-268 480,-268 480,-70 16,-70"/>
</g>
<g id="clust7" class="cluster">
<title>cluster_WebdavModule_providers</title>
<polygon fill="none" stroke="black" points="298,-78 298,-130 472,-130 472,-78 298,-78"/>
</g>
<g id="clust2" class="cluster">
<title>cluster_WebdavModule_declarations</title>
<polygon fill="none" stroke="black" points="24,-78 24,-130 290,-130 290,-78 24,-78"/>
</g>
<g id="clust5" class="cluster">
<title>cluster_WebdavModule_exports</title>
<polygon fill="none" stroke="black" points="113,-208 113,-260 383,-260 383,-208 113,-208"/>
</g>
<!-- CloudFileServiceUserSettingsComponent -->
<g id="node1" class="node">
<title>CloudFileServiceUserSettingsComponent</title>
<polygon fill="#ffffb3" stroke="black" points="282.36,-122 31.64,-122 31.64,-86 282.36,-86 282.36,-122"/>
<text text-anchor="middle" x="157" y="-99.8" font-family="Times,serif" font-size="14.00">CloudFileServiceUserSettingsComponent</text>
</g>
<!-- WebdavModule -->
<g id="node2" class="node">
<title>WebdavModule</title>
<polygon fill="#8dd3c7" stroke="black" points="301.19,-187 298.19,-191 277.19,-191 274.19,-187 194.81,-187 194.81,-151 301.19,-151 301.19,-187"/>
<text text-anchor="middle" x="248" y="-164.8" font-family="Times,serif" font-size="14.00">WebdavModule</text>
</g>
<!-- CloudFileServiceUserSettingsComponent&#45;&gt;WebdavModule -->
<g id="edge1" class="edge">
<title>CloudFileServiceUserSettingsComponent&#45;&gt;WebdavModule</title>
<path fill="none" stroke="black" d="M238.67,-122.11C238.67,-122.11 238.67,-140.99 238.67,-140.99"/>
<polygon fill="black" stroke="black" points="235.17,-140.99 238.67,-150.99 242.17,-140.99 235.17,-140.99"/>
</g>
<!-- CloudFileServiceUserSettingsComponent  -->
<g id="node3" class="node">
<title>CloudFileServiceUserSettingsComponent </title>
<polygon fill="#fb8072" stroke="black" points="375.36,-252 120.64,-252 120.64,-216 375.36,-216 375.36,-252"/>
<text text-anchor="middle" x="248" y="-229.8" font-family="Times,serif" font-size="14.00">CloudFileServiceUserSettingsComponent </text>
</g>
<!-- WebdavModule&#45;&gt;CloudFileServiceUserSettingsComponent  -->
<g id="edge2" class="edge">
<title>WebdavModule&#45;&gt;CloudFileServiceUserSettingsComponent </title>
<path fill="none" stroke="black" stroke-dasharray="5,2" d="M248,-187.11C248,-187.11 248,-205.99 248,-205.99"/>
<polygon fill="black" stroke="black" points="244.5,-205.99 248,-215.99 251.5,-205.99 244.5,-205.99"/>
</g>
<!-- CloudFileService -->
<g id="node4" class="node">
<title>CloudFileService</title>
<ellipse fill="#fdb462" stroke="black" cx="385" cy="-104" rx="78.75" ry="18"/>
<text text-anchor="middle" x="385" y="-99.8" font-family="Times,serif" font-size="14.00">CloudFileService</text>
</g>
<!-- CloudFileService&#45;&gt;WebdavModule -->
<g id="edge3" class="edge">
<title>CloudFileService&#45;&gt;WebdavModule</title>
<path fill="none" stroke="black" d="M306.33,-104C297.59,-104 291.76,-104 291.76,-104 291.76,-104 291.76,-140.89 291.76,-140.89"/>
<polygon fill="black" stroke="black" points="288.26,-140.89 291.76,-150.89 295.26,-140.89 288.26,-140.89"/>
</g>
</g>
</svg>
