<?xml version="1.0" encoding="UTF-8" standalone="no"?>
<!DOCTYPE svg PUBLIC "-//W3C//DTD SVG 1.1//EN"
 "http://www.w3.org/Graphics/SVG/1.1/DTD/svg11.dtd">
<!-- Generated by graphviz version 2.44.1 (20200629.0846)
 -->
<!-- Title: dependencies Pages: 1 -->
<svg width="6995pt" height="284pt"
 viewBox="0.00 0.00 6995.00 284.00" xmlns="http://www.w3.org/2000/svg" xmlns:xlink="http://www.w3.org/1999/xlink">
<g id="graph0" class="graph" transform="scale(1 1) rotate(0) translate(4 280)">
<title>dependencies</title>
<polygon fill="white" stroke="transparent" points="-4,4 -4,-280 6991,-280 6991,4 -4,4"/>
<text text-anchor="start" x="3472.51" y="-42.4" font-family="sans-serif" font-weight="bold" font-size="14.00">Legend</text>
<polygon fill="#ffffb3" stroke="transparent" points="3259.5,-10 3259.5,-30 3279.5,-30 3279.5,-10 3259.5,-10"/>
<text text-anchor="start" x="3283.13" y="-15.4" font-family="sans-serif" font-size="14.00"> &#160;Declarations</text>
<polygon fill="#8dd3c7" stroke="transparent" points="3372.5,-10 3372.5,-30 3392.5,-30 3392.5,-10 3372.5,-10"/>
<text text-anchor="start" x="3396.23" y="-15.4" font-family="sans-serif" font-size="14.00"> &#160;Module</text>
<polygon fill="#80b1d3" stroke="transparent" points="3458.5,-10 3458.5,-30 3478.5,-30 3478.5,-10 3458.5,-10"/>
<text text-anchor="start" x="3482.28" y="-15.4" font-family="sans-serif" font-size="14.00"> &#160;Bootstrap</text>
<polygon fill="#fdb462" stroke="transparent" points="3555.5,-10 3555.5,-30 3575.5,-30 3575.5,-10 3555.5,-10"/>
<text text-anchor="start" x="3579.17" y="-15.4" font-family="sans-serif" font-size="14.00"> &#160;Providers</text>
<polygon fill="#fb8072" stroke="transparent" points="3651.5,-10 3651.5,-30 3671.5,-30 3671.5,-10 3651.5,-10"/>
<text text-anchor="start" x="3675.23" y="-15.4" font-family="sans-serif" font-size="14.00"> &#160;Exports</text>
<g id="clust1" class="cluster">
<title>cluster_ChildrenModule</title>
<polygon fill="none" stroke="black" stroke-dasharray="1,5" points="8,-70 8,-268 6979,-268 6979,-70 8,-70"/>
</g>
<g id="clust32" class="cluster">
<title>cluster_ChildrenModule_imports</title>
<polygon fill="none" stroke="black" points="6104,-78 6104,-130 6971,-130 6971,-78 6104,-78"/>
</g>
<g id="clust33" class="cluster">
<title>cluster_ChildrenModule_exports</title>
<polygon fill="none" stroke="black" points="2418,-208 2418,-260 4497,-260 4497,-208 2418,-208"/>
</g>
<g id="clust2" class="cluster">
<title>cluster_ChildrenModule_declarations</title>
<polygon fill="none" stroke="black" points="188,-78 188,-130 6096,-130 6096,-78 188,-78"/>
</g>
<g id="clust35" class="cluster">
<title>cluster_ChildrenModule_providers</title>
<polygon fill="none" stroke="black" points="16,-78 16,-130 180,-130 180,-78 16,-78"/>
</g>
<!-- AddDayAttendanceComponent -->
<g id="node1" class="node">
<title>AddDayAttendanceComponent</title>
<polygon fill="#ffffb3" stroke="black" points="6088.01,-122 5895.99,-122 5895.99,-86 6088.01,-86 6088.01,-122"/>
<text text-anchor="middle" x="5992" y="-99.8" font-family="Times,serif" font-size="14.00">AddDayAttendanceComponent</text>
</g>
<!-- ChildrenModule -->
<g id="node30" class="node">
<title>ChildrenModule</title>
<polygon fill="#8dd3c7" stroke="black" points="3564.04,-187 3561.04,-191 3540.04,-191 3537.04,-187 3455.96,-187 3455.96,-151 3564.04,-151 3564.04,-187"/>
<text text-anchor="middle" x="3510" y="-164.8" font-family="Times,serif" font-size="14.00">ChildrenModule</text>
</g>
<!-- AddDayAttendanceComponent&#45;&gt;ChildrenModule -->
<g id="edge1" class="edge">
<title>AddDayAttendanceComponent&#45;&gt;ChildrenModule</title>
<path fill="none" stroke="black" d="M5992,-122.11C5992,-141.34 5992,-169 5992,-169 5992,-169 3574.15,-169 3574.15,-169"/>
<polygon fill="black" stroke="black" points="3574.15,-165.5 3564.15,-169 3574.15,-172.5 3574.15,-165.5"/>
</g>
<!-- AddMonthAttendanceComponent -->
<g id="node2" class="node">
<title>AddMonthAttendanceComponent</title>
<polygon fill="#ffffb3" stroke="black" points="5877.02,-122 5670.98,-122 5670.98,-86 5877.02,-86 5877.02,-122"/>
<text text-anchor="middle" x="5774" y="-99.8" font-family="Times,serif" font-size="14.00">AddMonthAttendanceComponent</text>
</g>
<!-- AddMonthAttendanceComponent&#45;&gt;ChildrenModule -->
<g id="edge2" class="edge">
<title>AddMonthAttendanceComponent&#45;&gt;ChildrenModule</title>
<path fill="none" stroke="black" d="M5774,-122.17C5774,-141.09 5774,-168 5774,-168 5774,-168 3574.29,-168 3574.29,-168"/>
<polygon fill="black" stroke="black" points="3574.29,-164.5 3564.29,-168 3574.29,-171.5 3574.29,-164.5"/>
</g>
<!-- AserComponent -->
<g id="node3" class="node">
<title>AserComponent</title>
<polygon fill="#ffffb3" stroke="black" points="5652.76,-122 5545.24,-122 5545.24,-86 5652.76,-86 5652.76,-122"/>
<text text-anchor="middle" x="5599" y="-99.8" font-family="Times,serif" font-size="14.00">AserComponent</text>
</g>
<!-- AserComponent&#45;&gt;ChildrenModule -->
<g id="edge3" class="edge">
<title>AserComponent&#45;&gt;ChildrenModule</title>
<path fill="none" stroke="black" d="M5599,-122.27C5599,-140.56 5599,-166 5599,-166 5599,-166 3574.27,-166 3574.27,-166"/>
<polygon fill="black" stroke="black" points="3574.27,-162.5 3564.27,-166 3574.27,-169.5 3574.27,-162.5"/>
</g>
<!-- AttendanceAnalysisComponent -->
<g id="node4" class="node">
<title>AttendanceAnalysisComponent</title>
<polygon fill="#ffffb3" stroke="black" points="5527.07,-122 5332.93,-122 5332.93,-86 5527.07,-86 5527.07,-122"/>
<text text-anchor="middle" x="5430" y="-99.8" font-family="Times,serif" font-size="14.00">AttendanceAnalysisComponent</text>
</g>
<!-- AttendanceAnalysisComponent&#45;&gt;ChildrenModule -->
<g id="edge4" class="edge">
<title>AttendanceAnalysisComponent&#45;&gt;ChildrenModule</title>
<path fill="none" stroke="black" d="M5430,-122.3C5430,-140.27 5430,-165 5430,-165 5430,-165 3574.11,-165 3574.11,-165"/>
<polygon fill="black" stroke="black" points="3574.11,-161.5 3564.11,-165 3574.11,-168.5 3574.11,-161.5"/>
</g>
<!-- AttendanceAverageDashboardComponent -->
<g id="node5" class="node">
<title>AttendanceAverageDashboardComponent</title>
<polygon fill="#ffffb3" stroke="black" points="5314.63,-122 5061.37,-122 5061.37,-86 5314.63,-86 5314.63,-122"/>
<text text-anchor="middle" x="5188" y="-99.8" font-family="Times,serif" font-size="14.00">AttendanceAverageDashboardComponent</text>
</g>
<!-- AttendanceAverageDashboardComponent&#45;&gt;ChildrenModule -->
<g id="edge5" class="edge">
<title>AttendanceAverageDashboardComponent&#45;&gt;ChildrenModule</title>
<path fill="none" stroke="black" d="M5188,-122.02C5188,-139.37 5188,-163 5188,-163 5188,-163 3574.4,-163 3574.4,-163"/>
<polygon fill="black" stroke="black" points="3574.4,-159.5 3564.4,-163 3574.4,-166.5 3574.4,-159.5"/>
</g>
<!-- AttendanceBlockComponent -->
<g id="node6" class="node">
<title>AttendanceBlockComponent</title>
<polygon fill="#ffffb3" stroke="black" points="5043.02,-122 4864.98,-122 4864.98,-86 5043.02,-86 5043.02,-122"/>
<text text-anchor="middle" x="4954" y="-99.8" font-family="Times,serif" font-size="14.00">AttendanceBlockComponent</text>
</g>
<!-- AttendanceBlockComponent&#45;&gt;ChildrenModule -->
<g id="edge6" class="edge">
<title>AttendanceBlockComponent&#45;&gt;ChildrenModule</title>
<path fill="none" stroke="black" d="M4954,-122.04C4954,-138.73 4954,-161 4954,-161 4954,-161 3574.41,-161 3574.41,-161"/>
<polygon fill="black" stroke="black" points="3574.41,-157.5 3564.41,-161 3574.41,-164.5 3574.41,-157.5"/>
</g>
<!-- AttendanceDayBlockComponent -->
<g id="node7" class="node">
<title>AttendanceDayBlockComponent</title>
<polygon fill="#ffffb3" stroke="black" points="4846.84,-122 4645.16,-122 4645.16,-86 4846.84,-86 4846.84,-122"/>
<text text-anchor="middle" x="4746" y="-99.8" font-family="Times,serif" font-size="14.00">AttendanceDayBlockComponent</text>
</g>
<!-- AttendanceDayBlockComponent&#45;&gt;ChildrenModule -->
<g id="edge7" class="edge">
<title>AttendanceDayBlockComponent&#45;&gt;ChildrenModule</title>
<path fill="none" stroke="black" d="M4746,-122.03C4746,-138.4 4746,-160 4746,-160 4746,-160 3574.3,-160 3574.3,-160"/>
<polygon fill="black" stroke="black" points="3574.3,-156.5 3564.3,-160 3574.3,-163.5 3574.3,-156.5"/>
</g>
<!-- AttendanceDaysComponent -->
<g id="node8" class="node">
<title>AttendanceDaysComponent</title>
<polygon fill="#ffffb3" stroke="black" points="4626.84,-122 4453.16,-122 4453.16,-86 4626.84,-86 4626.84,-122"/>
<text text-anchor="middle" x="4540" y="-99.8" font-family="Times,serif" font-size="14.00">AttendanceDaysComponent</text>
</g>
<!-- AttendanceDaysComponent&#45;&gt;ChildrenModule -->
<g id="edge8" class="edge">
<title>AttendanceDaysComponent&#45;&gt;ChildrenModule</title>
<path fill="none" stroke="black" d="M4471.2,-122.28C4471.2,-137.95 4471.2,-158 4471.2,-158 4471.2,-158 3574.08,-158 3574.08,-158"/>
<polygon fill="black" stroke="black" points="3574.08,-154.5 3564.08,-158 3574.08,-161.5 3574.08,-154.5"/>
</g>
<!-- AttendanceDetailsComponent -->
<g id="node9" class="node">
<title>AttendanceDetailsComponent</title>
<polygon fill="#ffffb3" stroke="black" points="4435.23,-122 4250.77,-122 4250.77,-86 4435.23,-86 4435.23,-122"/>
<text text-anchor="middle" x="4343" y="-99.8" font-family="Times,serif" font-size="14.00">AttendanceDetailsComponent</text>
</g>
<!-- AttendanceDetailsComponent&#45;&gt;ChildrenModule -->
<g id="edge9" class="edge">
<title>AttendanceDetailsComponent&#45;&gt;ChildrenModule</title>
<path fill="none" stroke="black" d="M4343,-122.19C4343,-137.18 4343,-156 4343,-156 4343,-156 3574.33,-156 3574.33,-156"/>
<polygon fill="black" stroke="black" points="3574.33,-152.5 3564.33,-156 3574.33,-159.5 3574.33,-152.5"/>
</g>
<!-- AttendanceManagerComponent -->
<g id="node10" class="node">
<title>AttendanceManagerComponent</title>
<polygon fill="#ffffb3" stroke="black" points="4232.33,-122 4037.67,-122 4037.67,-86 4232.33,-86 4232.33,-122"/>
<text text-anchor="middle" x="4135" y="-99.8" font-family="Times,serif" font-size="14.00">AttendanceManagerComponent</text>
</g>
<!-- AttendanceManagerComponent&#45;&gt;ChildrenModule -->
<g id="edge10" class="edge">
<title>AttendanceManagerComponent&#45;&gt;ChildrenModule</title>
<path fill="none" stroke="black" d="M4096.61,-122.12C4096.61,-136.78 4096.61,-155 4096.61,-155 4096.61,-155 3574.14,-155 3574.14,-155"/>
<polygon fill="black" stroke="black" points="3574.14,-151.5 3564.14,-155 3574.14,-158.5 3574.14,-151.5"/>
</g>
<!-- AttendanceWarningsDashboardComponent -->
<g id="node11" class="node">
<title>AttendanceWarningsDashboardComponent</title>
<polygon fill="#ffffb3" stroke="black" points="4020.14,-122 3759.86,-122 3759.86,-86 4020.14,-86 4020.14,-122"/>
<text text-anchor="middle" x="3890" y="-99.8" font-family="Times,serif" font-size="14.00">AttendanceWarningsDashboardComponent</text>
</g>
<!-- AttendanceWarningsDashboardComponent&#45;&gt;ChildrenModule -->
<g id="edge11" class="edge">
<title>AttendanceWarningsDashboardComponent&#45;&gt;ChildrenModule</title>
<path fill="none" stroke="black" d="M3824.9,-122.25C3824.9,-136.18 3824.9,-153 3824.9,-153 3824.9,-153 3574.13,-153 3574.13,-153"/>
<polygon fill="black" stroke="black" points="3574.13,-149.5 3564.13,-153 3574.13,-156.5 3574.13,-149.5"/>
</g>
<!-- AttendanceWeekDashboardComponent -->
<g id="node12" class="node">
<title>AttendanceWeekDashboardComponent</title>
<polygon fill="#ffffb3" stroke="black" points="3742.36,-122 3503.64,-122 3503.64,-86 3742.36,-86 3742.36,-122"/>
<text text-anchor="middle" x="3623" y="-99.8" font-family="Times,serif" font-size="14.00">AttendanceWeekDashboardComponent</text>
</g>
<!-- AttendanceWeekDashboardComponent&#45;&gt;ChildrenModule -->
<g id="edge12" class="edge">
<title>AttendanceWeekDashboardComponent&#45;&gt;ChildrenModule</title>
<path fill="none" stroke="black" d="M3534.04,-122.11C3534.04,-122.11 3534.04,-140.99 3534.04,-140.99"/>
<polygon fill="black" stroke="black" points="3530.54,-140.99 3534.04,-150.99 3537.54,-140.99 3530.54,-140.99"/>
</g>
<!-- ChildAttendanceComponent -->
<g id="node13" class="node">
<title>ChildAttendanceComponent</title>
<polygon fill="#ffffb3" stroke="black" points="3486.2,-122 3309.8,-122 3309.8,-86 3486.2,-86 3486.2,-122"/>
<text text-anchor="middle" x="3398" y="-99.8" font-family="Times,serif" font-size="14.00">ChildAttendanceComponent</text>
</g>
<!-- ChildAttendanceComponent&#45;&gt;ChildrenModule -->
<g id="edge13" class="edge">
<title>ChildAttendanceComponent&#45;&gt;ChildrenModule</title>
<path fill="none" stroke="black" d="M3470.91,-122.11C3470.91,-122.11 3470.91,-140.99 3470.91,-140.99"/>
<polygon fill="black" stroke="black" points="3467.41,-140.99 3470.91,-150.99 3474.41,-140.99 3467.41,-140.99"/>
</g>
<!-- ChildBlockComponent -->
<g id="node14" class="node">
<title>ChildBlockComponent</title>
<polygon fill="#ffffb3" stroke="black" points="3291.89,-122 3146.11,-122 3146.11,-86 3291.89,-86 3291.89,-122"/>
<text text-anchor="middle" x="3219" y="-99.8" font-family="Times,serif" font-size="14.00">ChildBlockComponent</text>
</g>
<!-- ChildBlockComponent&#45;&gt;ChildrenModule -->
<g id="edge14" class="edge">
<title>ChildBlockComponent&#45;&gt;ChildrenModule</title>
<path fill="none" stroke="black" d="M3225.93,-122.25C3225.93,-136.18 3225.93,-153 3225.93,-153 3225.93,-153 3445.9,-153 3445.9,-153"/>
<polygon fill="black" stroke="black" points="3445.9,-156.5 3455.9,-153 3445.9,-149.5 3445.9,-156.5"/>
</g>
<!-- ChildDetailsComponent -->
<g id="node15" class="node">
<title>ChildDetailsComponent</title>
<polygon fill="#ffffb3" stroke="black" points="3128.1,-122 2975.9,-122 2975.9,-86 3128.1,-86 3128.1,-122"/>
<text text-anchor="middle" x="3052" y="-99.8" font-family="Times,serif" font-size="14.00">ChildDetailsComponent</text>
</g>
<!-- ChildDetailsComponent&#45;&gt;ChildrenModule -->
<g id="edge15" class="edge">
<title>ChildDetailsComponent&#45;&gt;ChildrenModule</title>
<path fill="none" stroke="black" d="M3052,-122.12C3052,-136.78 3052,-155 3052,-155 3052,-155 3445.66,-155 3445.66,-155"/>
<polygon fill="black" stroke="black" points="3445.66,-158.5 3455.66,-155 3445.66,-151.5 3445.66,-158.5"/>
</g>
<!-- ChildSelectComponent -->
<g id="node16" class="node">
<title>ChildSelectComponent</title>
<polygon fill="#ffffb3" stroke="black" points="2958.16,-122 2811.84,-122 2811.84,-86 2958.16,-86 2958.16,-122"/>
<text text-anchor="middle" x="2885" y="-99.8" font-family="Times,serif" font-size="14.00">ChildSelectComponent</text>
</g>
<!-- ChildSelectComponent&#45;&gt;ChildrenModule -->
<g id="edge16" class="edge">
<title>ChildSelectComponent&#45;&gt;ChildrenModule</title>
<path fill="none" stroke="black" d="M2935.99,-122.19C2935.99,-137.18 2935.99,-156 2935.99,-156 2935.99,-156 3445.74,-156 3445.74,-156"/>
<polygon fill="black" stroke="black" points="3445.74,-159.5 3455.74,-156 3445.74,-152.5 3445.74,-159.5"/>
</g>
<!-- ChildrenCountDashboardComponent -->
<g id="node17" class="node">
<title>ChildrenCountDashboardComponent</title>
<polygon fill="#ffffb3" stroke="black" points="2793.69,-122 2568.31,-122 2568.31,-86 2793.69,-86 2793.69,-122"/>
<text text-anchor="middle" x="2681" y="-99.8" font-family="Times,serif" font-size="14.00">ChildrenCountDashboardComponent</text>
</g>
<!-- ChildrenCountDashboardComponent&#45;&gt;ChildrenModule -->
<g id="edge17" class="edge">
<title>ChildrenCountDashboardComponent&#45;&gt;ChildrenModule</title>
<path fill="none" stroke="black" d="M2727.77,-122.28C2727.77,-137.95 2727.77,-158 2727.77,-158 2727.77,-158 3445.93,-158 3445.93,-158"/>
<polygon fill="black" stroke="black" points="3445.93,-161.5 3455.93,-158 3445.93,-154.5 3445.93,-161.5"/>
</g>
<!-- ChildrenListComponent -->
<g id="node18" class="node">
<title>ChildrenListComponent</title>
<polygon fill="#ffffb3" stroke="black" points="2550.1,-122 2397.9,-122 2397.9,-86 2550.1,-86 2550.1,-122"/>
<text text-anchor="middle" x="2474" y="-99.8" font-family="Times,serif" font-size="14.00">ChildrenListComponent</text>
</g>
<!-- ChildrenListComponent&#45;&gt;ChildrenModule -->
<g id="edge18" class="edge">
<title>ChildrenListComponent&#45;&gt;ChildrenModule</title>
<path fill="none" stroke="black" d="M2488.28,-122.03C2488.28,-138.4 2488.28,-160 2488.28,-160 2488.28,-160 3445.79,-160 3445.79,-160"/>
<polygon fill="black" stroke="black" points="3445.79,-163.5 3455.79,-160 3445.79,-156.5 3445.79,-163.5"/>
</g>
<!-- DropoutFormComponent -->
<g id="node19" class="node">
<title>DropoutFormComponent</title>
<polygon fill="#ffffb3" stroke="black" points="2380.32,-122 2221.68,-122 2221.68,-86 2380.32,-86 2380.32,-122"/>
<text text-anchor="middle" x="2301" y="-99.8" font-family="Times,serif" font-size="14.00">DropoutFormComponent</text>
</g>
<!-- DropoutFormComponent&#45;&gt;ChildrenModule -->
<g id="edge19" class="edge">
<title>DropoutFormComponent&#45;&gt;ChildrenModule</title>
<path fill="none" stroke="black" d="M2301,-122.04C2301,-138.73 2301,-161 2301,-161 2301,-161 3445.7,-161 3445.7,-161"/>
<polygon fill="black" stroke="black" points="3445.7,-164.5 3455.7,-161 3445.7,-157.5 3445.7,-164.5"/>
</g>
<!-- EducationalMaterialComponent -->
<g id="node20" class="node">
<title>EducationalMaterialComponent</title>
<polygon fill="#ffffb3" stroke="black" points="2203.62,-122 2008.38,-122 2008.38,-86 2203.62,-86 2203.62,-122"/>
<text text-anchor="middle" x="2106" y="-99.8" font-family="Times,serif" font-size="14.00">EducationalMaterialComponent</text>
</g>
<!-- EducationalMaterialComponent&#45;&gt;ChildrenModule -->
<g id="edge20" class="edge">
<title>EducationalMaterialComponent&#45;&gt;ChildrenModule</title>
<path fill="none" stroke="black" d="M2106,-122.02C2106,-139.37 2106,-163 2106,-163 2106,-163 3445.82,-163 3445.82,-163"/>
<polygon fill="black" stroke="black" points="3445.82,-166.5 3455.82,-163 3445.82,-159.5 3445.82,-166.5"/>
</g>
<!-- GroupedChildAttendanceComponent -->
<g id="node21" class="node">
<title>GroupedChildAttendanceComponent</title>
<polygon fill="#ffffb3" stroke="black" points="1990.68,-122 1765.32,-122 1765.32,-86 1990.68,-86 1990.68,-122"/>
<text text-anchor="middle" x="1878" y="-99.8" font-family="Times,serif" font-size="14.00">GroupedChildAttendanceComponent</text>
</g>
<!-- GroupedChildAttendanceComponent&#45;&gt;ChildrenModule -->
<g id="edge21" class="edge">
<title>GroupedChildAttendanceComponent&#45;&gt;ChildrenModule</title>
<path fill="none" stroke="black" d="M1878,-122.3C1878,-140.27 1878,-165 1878,-165 1878,-165 3445.7,-165 3445.7,-165"/>
<polygon fill="black" stroke="black" points="3445.7,-168.5 3455.7,-165 3445.7,-161.5 3445.7,-168.5"/>
</g>
<!-- HealthCheckupComponent -->
<g id="node22" class="node">
<title>HealthCheckupComponent</title>
<polygon fill="#ffffb3" stroke="black" points="1747.42,-122 1578.58,-122 1578.58,-86 1747.42,-86 1747.42,-122"/>
<text text-anchor="middle" x="1663" y="-99.8" font-family="Times,serif" font-size="14.00">HealthCheckupComponent</text>
</g>
<!-- HealthCheckupComponent&#45;&gt;ChildrenModule -->
<g id="edge22" class="edge">
<title>HealthCheckupComponent&#45;&gt;ChildrenModule</title>
<path fill="none" stroke="black" d="M1663,-122.27C1663,-140.56 1663,-166 1663,-166 1663,-166 3445.72,-166 3445.72,-166"/>
<polygon fill="black" stroke="black" points="3445.72,-169.5 3455.72,-166 3445.72,-162.5 3445.72,-169.5"/>
</g>
<!-- HealthFormComponent -->
<g id="node23" class="node">
<title>HealthFormComponent</title>
<polygon fill="#ffffb3" stroke="black" points="1560.48,-122 1411.52,-122 1411.52,-86 1560.48,-86 1560.48,-122"/>
<text text-anchor="middle" x="1486" y="-99.8" font-family="Times,serif" font-size="14.00">HealthFormComponent</text>
</g>
<!-- HealthFormComponent&#45;&gt;ChildrenModule -->
<g id="edge23" class="edge">
<title>HealthFormComponent&#45;&gt;ChildrenModule</title>
<path fill="none" stroke="black" d="M1486,-122.17C1486,-141.09 1486,-168 1486,-168 1486,-168 3445.86,-168 3445.86,-168"/>
<polygon fill="black" stroke="black" points="3445.86,-171.5 3455.86,-168 3445.86,-164.5 3445.86,-171.5"/>
</g>
<!-- NoRecentNotesDashboardComponent -->
<g id="node24" class="node">
<title>NoRecentNotesDashboardComponent</title>
<polygon fill="#ffffb3" stroke="black" points="1393.11,-122 1162.89,-122 1162.89,-86 1393.11,-86 1393.11,-122"/>
<text text-anchor="middle" x="1278" y="-99.8" font-family="Times,serif" font-size="14.00">NoRecentNotesDashboardComponent</text>
</g>
<!-- NoRecentNotesDashboardComponent&#45;&gt;ChildrenModule -->
<g id="edge24" class="edge">
<title>NoRecentNotesDashboardComponent&#45;&gt;ChildrenModule</title>
<path fill="none" stroke="black" d="M1278,-122.11C1278,-141.34 1278,-169 1278,-169 1278,-169 3445.93,-169 3445.93,-169"/>
<polygon fill="black" stroke="black" points="3445.93,-172.5 3455.93,-169 3445.93,-165.5 3445.93,-172.5"/>
</g>
<!-- NotesOfChildComponent -->
<g id="node25" class="node">
<title>NotesOfChildComponent</title>
<polygon fill="#ffffb3" stroke="black" points="1144.87,-122 985.13,-122 985.13,-86 1144.87,-86 1144.87,-122"/>
<text text-anchor="middle" x="1065" y="-99.8" font-family="Times,serif" font-size="14.00">NotesOfChildComponent</text>
</g>
<!-- NotesOfChildComponent&#45;&gt;ChildrenModule -->
<g id="edge25" class="edge">
<title>NotesOfChildComponent&#45;&gt;ChildrenModule</title>
<path fill="none" stroke="black" d="M1065,-122.31C1065,-142.15 1065,-171 1065,-171 1065,-171 3445.79,-171 3445.79,-171"/>
<polygon fill="black" stroke="black" points="3445.79,-174.5 3455.79,-171 3445.79,-167.5 3445.79,-174.5"/>
</g>
<!-- PreviousSchoolsComponent -->
<g id="node26" class="node">
<title>PreviousSchoolsComponent</title>
<polygon fill="#ffffb3" stroke="black" points="967.16,-122 792.84,-122 792.84,-86 967.16,-86 967.16,-122"/>
<text text-anchor="middle" x="880" y="-99.8" font-family="Times,serif" font-size="14.00">PreviousSchoolsComponent</text>
</g>
<!-- PreviousSchoolsComponent&#45;&gt;ChildrenModule -->
<g id="edge26" class="edge">
<title>PreviousSchoolsComponent&#45;&gt;ChildrenModule</title>
<path fill="none" stroke="black" d="M880,-122.13C880,-142.57 880,-173 880,-173 880,-173 3445.67,-173 3445.67,-173"/>
<polygon fill="black" stroke="black" points="3445.67,-176.5 3455.67,-173 3445.67,-169.5 3445.67,-176.5"/>
</g>
<!-- RecentNotesDashboardComponent -->
<g id="node27" class="node">
<title>RecentNotesDashboardComponent</title>
<polygon fill="#ffffb3" stroke="black" points="774.5,-122 561.5,-122 561.5,-86 774.5,-86 774.5,-122"/>
<text text-anchor="middle" x="668" y="-99.8" font-family="Times,serif" font-size="14.00">RecentNotesDashboardComponent</text>
</g>
<!-- RecentNotesDashboardComponent&#45;&gt;ChildrenModule -->
<g id="edge27" class="edge">
<title>RecentNotesDashboardComponent&#45;&gt;ChildrenModule</title>
<path fill="none" stroke="black" d="M668,-122.03C668,-142.77 668,-174 668,-174 668,-174 3445.77,-174 3445.77,-174"/>
<polygon fill="black" stroke="black" points="3445.77,-177.5 3455.77,-174 3445.76,-170.5 3445.77,-177.5"/>
</g>
<!-- RollCallComponent -->
<g id="node28" class="node">
<title>RollCallComponent</title>
<polygon fill="#ffffb3" stroke="black" points="543.28,-122 414.72,-122 414.72,-86 543.28,-86 543.28,-122"/>
<text text-anchor="middle" x="479" y="-99.8" font-family="Times,serif" font-size="14.00">RollCallComponent</text>
</g>
<!-- RollCallComponent&#45;&gt;ChildrenModule -->
<g id="edge28" class="edge">
<title>RollCallComponent&#45;&gt;ChildrenModule</title>
<path fill="none" stroke="black" d="M479,-122.17C479,-143.5 479,-176 479,-176 479,-176 3445.78,-176 3445.78,-176"/>
<polygon fill="black" stroke="black" points="3445.78,-179.5 3455.78,-176 3445.78,-172.5 3445.78,-179.5"/>
</g>
<!-- SelectGroupChildrenComponent -->
<g id="node29" class="node">
<title>SelectGroupChildrenComponent</title>
<polygon fill="#ffffb3" stroke="black" points="396.3,-122 195.7,-122 195.7,-86 396.3,-86 396.3,-122"/>
<text text-anchor="middle" x="296" y="-99.8" font-family="Times,serif" font-size="14.00">SelectGroupChildrenComponent</text>
</g>
<!-- SelectGroupChildrenComponent&#45;&gt;ChildrenModule -->
<g id="edge29" class="edge">
<title>SelectGroupChildrenComponent&#45;&gt;ChildrenModule</title>
<path fill="none" stroke="black" d="M296,-122.29C296,-144.21 296,-178 296,-178 296,-178 3445.9,-178 3445.9,-178"/>
<polygon fill="black" stroke="black" points="3445.9,-181.5 3455.9,-178 3445.9,-174.5 3445.9,-181.5"/>
</g>
<!-- AttendanceAverageDashboardComponent  -->
<g id="node37" class="node">
<title>AttendanceAverageDashboardComponent </title>
<polygon fill="#fb8072" stroke="black" points="4489.13,-252 4232.87,-252 4232.87,-216 4489.13,-216 4489.13,-252"/>
<text text-anchor="middle" x="4361" y="-229.8" font-family="Times,serif" font-size="14.00">AttendanceAverageDashboardComponent </text>
</g>
<!-- ChildrenModule&#45;&gt;AttendanceAverageDashboardComponent  -->
<g id="edge36" class="edge">
<title>ChildrenModule&#45;&gt;AttendanceAverageDashboardComponent </title>
<path fill="none" stroke="black" stroke-dasharray="5,2" d="M3564.1,-181C3733.36,-181 4241.66,-181 4241.66,-181 4241.66,-181 4241.66,-205.76 4241.66,-205.76"/>
<polygon fill="black" stroke="black" points="4238.16,-205.76 4241.66,-215.76 4245.16,-205.76 4238.16,-205.76"/>
</g>
<!-- AttendanceDaysComponent  -->
<g id="node38" class="node">
<title>AttendanceDaysComponent </title>
<polygon fill="#fb8072" stroke="black" points="4214.84,-252 4037.16,-252 4037.16,-216 4214.84,-216 4214.84,-252"/>
<text text-anchor="middle" x="4126" y="-229.8" font-family="Times,serif" font-size="14.00">AttendanceDaysComponent </text>
</g>
<!-- ChildrenModule&#45;&gt;AttendanceDaysComponent  -->
<g id="edge37" class="edge">
<title>ChildrenModule&#45;&gt;AttendanceDaysComponent </title>
<path fill="none" stroke="black" stroke-dasharray="5,2" d="M3564.21,-183C3719.63,-183 4155.64,-183 4155.64,-183 4155.64,-183 4155.64,-205.88 4155.64,-205.88"/>
<polygon fill="black" stroke="black" points="4152.14,-205.88 4155.64,-215.88 4159.14,-205.88 4152.14,-205.88"/>
</g>
<!-- AttendanceWarningsDashboardComponent  -->
<g id="node39" class="node">
<title>AttendanceWarningsDashboardComponent </title>
<polygon fill="#fb8072" stroke="black" points="4019.64,-252 3756.36,-252 3756.36,-216 4019.64,-216 4019.64,-252"/>
<text text-anchor="middle" x="3888" y="-229.8" font-family="Times,serif" font-size="14.00">AttendanceWarningsDashboardComponent </text>
</g>
<!-- ChildrenModule&#45;&gt;AttendanceWarningsDashboardComponent  -->
<g id="edge38" class="edge">
<title>ChildrenModule&#45;&gt;AttendanceWarningsDashboardComponent </title>
<path fill="none" stroke="black" stroke-dasharray="5,2" d="M3564.1,-184C3682.66,-184 3954.85,-184 3954.85,-184 3954.85,-184 3954.85,-205.95 3954.85,-205.95"/>
<polygon fill="black" stroke="black" points="3951.35,-205.95 3954.85,-215.95 3958.35,-205.95 3951.35,-205.95"/>
</g>
<!-- ChildrenModule&#45;&gt;AttendanceWarningsDashboardComponent  -->
<g id="edge39" class="edge">
<title>ChildrenModule&#45;&gt;AttendanceWarningsDashboardComponent </title>
<path fill="none" stroke="black" stroke-dasharray="5,2" d="M3564.43,-186C3669.47,-186 3889.88,-186 3889.88,-186 3889.88,-186 3889.88,-205.85 3889.88,-205.85"/>
<polygon fill="black" stroke="black" points="3886.38,-205.85 3889.88,-215.85 3893.38,-205.85 3886.38,-205.85"/>
</g>
<!-- AttendanceWeekDashboardComponent  -->
<g id="node40" class="node">
<title>AttendanceWeekDashboardComponent </title>
<polygon fill="#fb8072" stroke="black" points="3737.86,-252 3496.14,-252 3496.14,-216 3737.86,-216 3737.86,-252"/>
<text text-anchor="middle" x="3617" y="-229.8" font-family="Times,serif" font-size="14.00">AttendanceWeekDashboardComponent </text>
</g>
<!-- ChildrenModule&#45;&gt;AttendanceWeekDashboardComponent  -->
<g id="edge40" class="edge">
<title>ChildrenModule&#45;&gt;AttendanceWeekDashboardComponent </title>
<path fill="none" stroke="black" stroke-dasharray="5,2" d="M3530.17,-187.11C3530.17,-187.11 3530.17,-205.99 3530.17,-205.99"/>
<polygon fill="black" stroke="black" points="3526.67,-205.99 3530.17,-215.99 3533.67,-205.99 3526.67,-205.99"/>
</g>
<!-- ChildBlockComponent  -->
<g id="node41" class="node">
<title>ChildBlockComponent </title>
<polygon fill="#fb8072" stroke="black" points="3477.89,-252 3328.11,-252 3328.11,-216 3477.89,-216 3477.89,-252"/>
<text text-anchor="middle" x="3403" y="-229.8" font-family="Times,serif" font-size="14.00">ChildBlockComponent </text>
</g>
<!-- ChildrenModule&#45;&gt;ChildBlockComponent  -->
<g id="edge41" class="edge">
<title>ChildrenModule&#45;&gt;ChildBlockComponent </title>
<path fill="none" stroke="black" stroke-dasharray="5,2" d="M3466.71,-187.11C3466.71,-187.11 3466.71,-205.99 3466.71,-205.99"/>
<polygon fill="black" stroke="black" points="3463.21,-205.99 3466.71,-215.99 3470.21,-205.99 3463.21,-205.99"/>
</g>
<!-- ChildSelectComponent  -->
<g id="node42" class="node">
<title>ChildSelectComponent </title>
<polygon fill="#fb8072" stroke="black" points="3310.16,-252 3159.84,-252 3159.84,-216 3310.16,-216 3310.16,-252"/>
<text text-anchor="middle" x="3235" y="-229.8" font-family="Times,serif" font-size="14.00">ChildSelectComponent </text>
</g>
<!-- ChildrenModule&#45;&gt;ChildSelectComponent  -->
<g id="edge42" class="edge">
<title>ChildrenModule&#45;&gt;ChildSelectComponent </title>
<path fill="none" stroke="black" stroke-dasharray="5,2" d="M3455.89,-186C3393.94,-186 3300.92,-186 3300.92,-186 3300.92,-186 3300.92,-205.85 3300.92,-205.85"/>
<polygon fill="black" stroke="black" points="3297.42,-205.85 3300.92,-215.85 3304.42,-205.85 3297.42,-205.85"/>
</g>
<!-- ChildrenCountDashboardComponent  -->
<g id="node43" class="node">
<title>ChildrenCountDashboardComponent </title>
<polygon fill="#fb8072" stroke="black" points="3142.19,-252 2913.81,-252 2913.81,-216 3142.19,-216 3142.19,-252"/>
<text text-anchor="middle" x="3028" y="-229.8" font-family="Times,serif" font-size="14.00">ChildrenCountDashboardComponent </text>
</g>
<!-- ChildrenModule&#45;&gt;ChildrenCountDashboardComponent  -->
<g id="edge43" class="edge">
<title>ChildrenModule&#45;&gt;ChildrenCountDashboardComponent </title>
<path fill="none" stroke="black" stroke-dasharray="5,2" d="M3455.9,-184C3352.11,-184 3135.2,-184 3135.2,-184 3135.2,-184 3135.2,-205.95 3135.2,-205.95"/>
<polygon fill="black" stroke="black" points="3131.7,-205.95 3135.2,-215.95 3138.7,-205.95 3131.7,-205.95"/>
</g>
<!-- NoRecentNotesDashboardComponent  -->
<g id="node44" class="node">
<title>NoRecentNotesDashboardComponent </title>
<polygon fill="#fb8072" stroke="black" points="2896.11,-252 2661.89,-252 2661.89,-216 2896.11,-216 2896.11,-252"/>
<text text-anchor="middle" x="2779" y="-229.8" font-family="Times,serif" font-size="14.00">NoRecentNotesDashboardComponent </text>
</g>
<!-- ChildrenModule&#45;&gt;NoRecentNotesDashboardComponent  -->
<g id="edge44" class="edge">
<title>ChildrenModule&#45;&gt;NoRecentNotesDashboardComponent </title>
<path fill="none" stroke="black" stroke-dasharray="5,2" d="M3455.75,-183C3298.55,-183 2853.86,-183 2853.86,-183 2853.86,-183 2853.86,-205.88 2853.86,-205.88"/>
<polygon fill="black" stroke="black" points="2850.36,-205.88 2853.86,-215.88 2857.36,-205.88 2850.36,-205.88"/>
</g>
<!-- RecentNotesDashboardComponent  -->
<g id="node45" class="node">
<title>RecentNotesDashboardComponent </title>
<polygon fill="#fb8072" stroke="black" points="2643.5,-252 2426.5,-252 2426.5,-216 2643.5,-216 2643.5,-252"/>
<text text-anchor="middle" x="2535" y="-229.8" font-family="Times,serif" font-size="14.00">RecentNotesDashboardComponent </text>
</g>
<!-- ChildrenModule&#45;&gt;RecentNotesDashboardComponent  -->
<g id="edge45" class="edge">
<title>ChildrenModule&#45;&gt;RecentNotesDashboardComponent </title>
<path fill="none" stroke="black" stroke-dasharray="5,2" d="M3455.82,-181C3260.78,-181 2605.95,-181 2605.95,-181 2605.95,-181 2605.95,-205.76 2605.95,-205.76"/>
<polygon fill="black" stroke="black" points="2602.45,-205.76 2605.95,-215.76 2609.45,-205.76 2602.45,-205.76"/>
</g>
<!-- AdminModule -->
<g id="node31" class="node">
<title>AdminModule</title>
<polygon fill="#8dd3c7" stroke="black" points="6963.44,-122 6960.44,-126 6939.44,-126 6936.44,-122 6864.56,-122 6864.56,-86 6963.44,-86 6963.44,-122"/>
<text text-anchor="middle" x="6914" y="-99.8" font-family="Times,serif" font-size="14.00">AdminModule</text>
</g>
<!-- AdminModule&#45;&gt;ChildrenModule -->
<g id="edge30" class="edge">
<title>AdminModule&#45;&gt;ChildrenModule</title>
<path fill="none" stroke="black" d="M6914,-122.16C6914,-144.35 6914,-179 6914,-179 6914,-179 3574.16,-179 3574.16,-179"/>
<polygon fill="black" stroke="black" points="3574.16,-175.5 3564.16,-179 3574.16,-182.5 3574.16,-175.5"/>
</g>
<!-- ConfirmationDialogModule -->
<g id="node32" class="node">
<title>ConfirmationDialogModule</title>
<polygon fill="#8dd3c7" stroke="black" points="6846.59,-122 6843.59,-126 6822.59,-126 6819.59,-122 6673.41,-122 6673.41,-86 6846.59,-86 6846.59,-122"/>
<text text-anchor="middle" x="6760" y="-99.8" font-family="Times,serif" font-size="14.00">ConfirmationDialogModule</text>
</g>
<!-- ConfirmationDialogModule&#45;&gt;ChildrenModule -->
<g id="edge31" class="edge">
<title>ConfirmationDialogModule&#45;&gt;ChildrenModule</title>
<path fill="none" stroke="black" d="M6760,-122.29C6760,-144.21 6760,-178 6760,-178 6760,-178 3574.37,-178 3574.37,-178"/>
<polygon fill="black" stroke="black" points="3574.37,-174.5 3564.37,-178 3574.37,-181.5 3574.37,-174.5"/>
</g>
<!-- EntitySubrecordModule -->
<g id="node33" class="node">
<title>EntitySubrecordModule</title>
<polygon fill="#8dd3c7" stroke="black" points="6655.81,-122 6652.81,-126 6631.81,-126 6628.81,-122 6504.19,-122 6504.19,-86 6655.81,-86 6655.81,-122"/>
<text text-anchor="middle" x="6580" y="-99.8" font-family="Times,serif" font-size="14.00">EntitySubrecordModule</text>
</g>
<!-- EntitySubrecordModule&#45;&gt;ChildrenModule -->
<g id="edge32" class="edge">
<title>EntitySubrecordModule&#45;&gt;ChildrenModule</title>
<path fill="none" stroke="black" d="M6580,-122.17C6580,-143.5 6580,-176 6580,-176 6580,-176 3574.26,-176 3574.26,-176"/>
<polygon fill="black" stroke="black" points="3574.26,-172.5 3564.26,-176 3574.26,-179.5 3574.26,-172.5"/>
</g>
<!-- FormDialogModule -->
<g id="node34" class="node">
<title>FormDialogModule</title>
<polygon fill="#8dd3c7" stroke="black" points="6485.99,-122 6482.99,-126 6461.99,-126 6458.99,-122 6358.01,-122 6358.01,-86 6485.99,-86 6485.99,-122"/>
<text text-anchor="middle" x="6422" y="-99.8" font-family="Times,serif" font-size="14.00">FormDialogModule</text>
</g>
<!-- FormDialogModule&#45;&gt;ChildrenModule -->
<g id="edge33" class="edge">
<title>FormDialogModule&#45;&gt;ChildrenModule</title>
<path fill="none" stroke="black" d="M6422,-122.03C6422,-142.77 6422,-174 6422,-174 6422,-174 3574.29,-174 3574.29,-174"/>
<polygon fill="black" stroke="black" points="3574.29,-170.5 3564.29,-174 3574.29,-177.5 3574.29,-170.5"/>
</g>
<!-- SchoolsModule -->
<g id="node35" class="node">
<title>SchoolsModule</title>
<polygon fill="#8dd3c7" stroke="black" points="6339.88,-122 6336.88,-126 6315.88,-126 6312.88,-122 6236.12,-122 6236.12,-86 6339.88,-86 6339.88,-122"/>
<text text-anchor="middle" x="6288" y="-99.8" font-family="Times,serif" font-size="14.00">SchoolsModule</text>
</g>
<!-- SchoolsModule&#45;&gt;ChildrenModule -->
<g id="edge34" class="edge">
<title>SchoolsModule&#45;&gt;ChildrenModule</title>
<path fill="none" stroke="black" d="M6288,-122.13C6288,-142.57 6288,-173 6288,-173 6288,-173 3574.25,-173 3574.25,-173"/>
<polygon fill="black" stroke="black" points="3574.25,-169.5 3564.25,-173 3574.25,-176.5 3574.25,-169.5"/>
</g>
<!-- WebdavModule -->
<g id="node36" class="node">
<title>WebdavModule</title>
<polygon fill="#8dd3c7" stroke="black" points="6218.19,-122 6215.19,-126 6194.19,-126 6191.19,-122 6111.81,-122 6111.81,-86 6218.19,-86 6218.19,-122"/>
<text text-anchor="middle" x="6165" y="-99.8" font-family="Times,serif" font-size="14.00">WebdavModule</text>
</g>
<!-- WebdavModule&#45;&gt;ChildrenModule -->
<g id="edge35" class="edge">
<title>WebdavModule&#45;&gt;ChildrenModule</title>
<path fill="none" stroke="black" d="M6165,-122.31C6165,-142.15 6165,-171 6165,-171 6165,-171 3574.24,-171 3574.24,-171"/>
<polygon fill="black" stroke="black" points="3574.24,-167.5 3564.24,-171 3574.24,-174.5 3574.24,-167.5"/>
</g>
<!-- ChildrenService -->
<g id="node46" class="node">
<title>ChildrenService</title>
<ellipse fill="#fdb462" stroke="black" cx="98" cy="-104" rx="73.57" ry="18"/>
<text text-anchor="middle" x="98" y="-99.8" font-family="Times,serif" font-size="14.00">ChildrenService</text>
</g>
<!-- ChildrenService&#45;&gt;ChildrenModule -->
<g id="edge46" class="edge">
<title>ChildrenService&#45;&gt;ChildrenModule</title>
<path fill="none" stroke="black" d="M98,-122.16C98,-144.35 98,-179 98,-179 98,-179 3445.72,-179 3445.72,-179"/>
<polygon fill="black" stroke="black" points="3445.72,-182.5 3455.72,-179 3445.72,-175.5 3445.72,-182.5"/>
</g>
</g>
</svg>
