<?xml version="1.0" encoding="UTF-8" standalone="no"?>
<!DOCTYPE svg PUBLIC "-//W3C//DTD SVG 1.1//EN"
 "http://www.w3.org/Graphics/SVG/1.1/DTD/svg11.dtd">
<!-- Generated by graphviz version 2.40.1 (20161225.0304)
 -->
<!-- Title: dependencies Pages: 1 -->
<svg width="6409pt" height="284pt"
 viewBox="0.00 0.00 6409.00 284.00" xmlns="http://www.w3.org/2000/svg" xmlns:xlink="http://www.w3.org/1999/xlink">
<g id="graph0" class="graph" transform="scale(1 1) rotate(0) translate(4 280)">
<title>dependencies</title>
<polygon fill="#ffffff" stroke="transparent" points="-4,4 -4,-280 6405,-280 6405,4 -4,4"/>
<text text-anchor="start" x="3179.5091" y="-42.4" font-family="sans-serif" font-weight="bold" font-size="14.00" fill="#000000">Legend</text>
<polygon fill="#ffffb3" stroke="transparent" points="2966.5,-10 2966.5,-30 2986.5,-30 2986.5,-10 2966.5,-10"/>
<text text-anchor="start" x="2990.129" y="-15.4" font-family="sans-serif" font-size="14.00" fill="#000000"> &#160;Declarations</text>
<polygon fill="#8dd3c7" stroke="transparent" points="3079.5,-10 3079.5,-30 3099.5,-30 3099.5,-10 3079.5,-10"/>
<text text-anchor="start" x="3103.2251" y="-15.4" font-family="sans-serif" font-size="14.00" fill="#000000"> &#160;Module</text>
<polygon fill="#80b1d3" stroke="transparent" points="3165.5,-10 3165.5,-30 3185.5,-30 3185.5,-10 3165.5,-10"/>
<text text-anchor="start" x="3189.2812" y="-15.4" font-family="sans-serif" font-size="14.00" fill="#000000"> &#160;Bootstrap</text>
<polygon fill="#fdb462" stroke="transparent" points="3262.5,-10 3262.5,-30 3282.5,-30 3282.5,-10 3262.5,-10"/>
<text text-anchor="start" x="3286.1732" y="-15.4" font-family="sans-serif" font-size="14.00" fill="#000000"> &#160;Providers</text>
<polygon fill="#fb8072" stroke="transparent" points="3358.5,-10 3358.5,-30 3378.5,-30 3378.5,-10 3358.5,-10"/>
<text text-anchor="start" x="3382.2258" y="-15.4" font-family="sans-serif" font-size="14.00" fill="#000000"> &#160;Exports</text>
<g id="clust1" class="cluster">
<title>cluster_ChildrenModule</title>
<polygon fill="none" stroke="#000000" stroke-dasharray="1,5" points="8,-70 8,-268 6393,-268 6393,-70 8,-70"/>
</g>
<g id="clust2" class="cluster">
<title>cluster_ChildrenModule_declarations</title>
<polygon fill="none" stroke="#000000" points="1063,-78 1063,-130 6385,-130 6385,-78 1063,-78"/>
</g>
<g id="clust29" class="cluster">
<title>cluster_ChildrenModule_imports</title>
<polygon fill="none" stroke="#000000" points="188,-78 188,-130 1055,-130 1055,-78 188,-78"/>
</g>
<g id="clust30" class="cluster">
<title>cluster_ChildrenModule_exports</title>
<polygon fill="none" stroke="#000000" points="1878,-208 1878,-260 3957,-260 3957,-208 1878,-208"/>
</g>
<g id="clust32" class="cluster">
<title>cluster_ChildrenModule_providers</title>
<polygon fill="none" stroke="#000000" points="16,-78 16,-130 180,-130 180,-78 16,-78"/>
</g>
<!-- AddDayAttendanceComponent -->
<g id="node1" class="node">
<title>AddDayAttendanceComponent</title>
<polygon fill="#ffffb3" stroke="#000000" points="6377.007,-122 6184.993,-122 6184.993,-86 6377.007,-86 6377.007,-122"/>
<text text-anchor="middle" x="6281" y="-99.8" font-family="Times,serif" font-size="14.00" fill="#000000">AddDayAttendanceComponent</text>
</g>
<!-- ChildrenModule -->
<g id="node27" class="node">
<title>ChildrenModule</title>
<polygon fill="#8dd3c7" stroke="#000000" points="3024.0438,-187 3021.0438,-191 3000.0438,-191 2997.0438,-187 2915.9562,-187 2915.9562,-151 3024.0438,-151 3024.0438,-187"/>
<text text-anchor="middle" x="2970" y="-164.8" font-family="Times,serif" font-size="14.00" fill="#000000">ChildrenModule</text>
</g>
<!-- AddDayAttendanceComponent&#45;&gt;ChildrenModule -->
<g id="edge1" class="edge">
<title>AddDayAttendanceComponent&#45;&gt;ChildrenModule</title>
<path fill="none" stroke="#000000" d="M6281,-122.1554C6281,-144.3519 6281,-179 6281,-179 6281,-179 3034.3653,-179 3034.3653,-179"/>
<polygon fill="#000000" stroke="#000000" points="3034.3654,-175.5001 3024.3653,-179 3034.3653,-182.5001 3034.3654,-175.5001"/>
</g>
<!-- AddMonthAttendanceComponent -->
<g id="node2" class="node">
<title>AddMonthAttendanceComponent</title>
<polygon fill="#ffffb3" stroke="#000000" points="6166.021,-122 5959.979,-122 5959.979,-86 6166.021,-86 6166.021,-122"/>
<text text-anchor="middle" x="6063" y="-99.8" font-family="Times,serif" font-size="14.00" fill="#000000">AddMonthAttendanceComponent</text>
</g>
<!-- AddMonthAttendanceComponent&#45;&gt;ChildrenModule -->
<g id="edge2" class="edge">
<title>AddMonthAttendanceComponent&#45;&gt;ChildrenModule</title>
<path fill="none" stroke="#000000" d="M6063,-122.0449C6063,-143.6623 6063,-177 6063,-177 6063,-177 3034.3393,-177 3034.3393,-177"/>
<polygon fill="#000000" stroke="#000000" points="3034.3393,-173.5001 3024.3393,-177 3034.3393,-180.5001 3034.3393,-173.5001"/>
</g>
<!-- AserComponent -->
<g id="node3" class="node">
<title>AserComponent</title>
<polygon fill="#ffffb3" stroke="#000000" points="5941.7591,-122 5834.2409,-122 5834.2409,-86 5941.7591,-86 5941.7591,-122"/>
<text text-anchor="middle" x="5888" y="-99.8" font-family="Times,serif" font-size="14.00" fill="#000000">AserComponent</text>
</g>
<!-- AserComponent&#45;&gt;ChildrenModule -->
<g id="edge3" class="edge">
<title>AserComponent&#45;&gt;ChildrenModule</title>
<path fill="none" stroke="#000000" d="M5888,-122.2843C5888,-143.3211 5888,-175 5888,-175 5888,-175 3034.0869,-175 3034.0869,-175"/>
<polygon fill="#000000" stroke="#000000" points="3034.0869,-171.5001 3024.0869,-175 3034.0868,-178.5001 3034.0869,-171.5001"/>
</g>
<!-- AttendanceAnalysisComponent -->
<g id="node4" class="node">
<title>AttendanceAnalysisComponent</title>
<polygon fill="#ffffb3" stroke="#000000" points="5816.0702,-122 5621.9298,-122 5621.9298,-86 5816.0702,-86 5816.0702,-122"/>
<text text-anchor="middle" x="5719" y="-99.8" font-family="Times,serif" font-size="14.00" fill="#000000">AttendanceAnalysisComponent</text>
</g>
<!-- AttendanceAnalysisComponent&#45;&gt;ChildrenModule -->
<g id="edge4" class="edge">
<title>AttendanceAnalysisComponent&#45;&gt;ChildrenModule</title>
<path fill="none" stroke="#000000" d="M5719,-122.0267C5719,-142.7672 5719,-174 5719,-174 5719,-174 3034.2944,-174 3034.2944,-174"/>
<polygon fill="#000000" stroke="#000000" points="3034.2944,-170.5001 3024.2944,-174 3034.2943,-177.5001 3034.2944,-170.5001"/>
</g>
<!-- AttendanceAverageDashboardComponent -->
<g id="node5" class="node">
<title>AttendanceAverageDashboardComponent</title>
<polygon fill="#ffffb3" stroke="#000000" points="5603.6306,-122 5350.3694,-122 5350.3694,-86 5603.6306,-86 5603.6306,-122"/>
<text text-anchor="middle" x="5477" y="-99.8" font-family="Times,serif" font-size="14.00" fill="#000000">AttendanceAverageDashboardComponent</text>
</g>
<!-- AttendanceAverageDashboardComponent&#45;&gt;ChildrenModule -->
<g id="edge5" class="edge">
<title>AttendanceAverageDashboardComponent&#45;&gt;ChildrenModule</title>
<path fill="none" stroke="#000000" d="M5477,-122.2228C5477,-142.3652 5477,-172 5477,-172 5477,-172 3034.1064,-172 3034.1064,-172"/>
<polygon fill="#000000" stroke="#000000" points="3034.1065,-168.5001 3024.1064,-172 3034.1064,-175.5001 3034.1065,-168.5001"/>
</g>
<!-- AttendanceBlockComponent -->
<g id="node6" class="node">
<title>AttendanceBlockComponent</title>
<polygon fill="#ffffb3" stroke="#000000" points="5332.021,-122 5153.979,-122 5153.979,-86 5332.021,-86 5332.021,-122"/>
<text text-anchor="middle" x="5243" y="-99.8" font-family="Times,serif" font-size="14.00" fill="#000000">AttendanceBlockComponent</text>
</g>
<!-- AttendanceBlockComponent&#45;&gt;ChildrenModule -->
<g id="edge6" class="edge">
<title>AttendanceBlockComponent&#45;&gt;ChildrenModule</title>
<path fill="none" stroke="#000000" d="M5243,-122.0348C5243,-141.5762 5243,-170 5243,-170 5243,-170 3034.2228,-170 3034.2228,-170"/>
<polygon fill="#000000" stroke="#000000" points="3034.2229,-166.5001 3024.2228,-170 3034.2228,-173.5001 3034.2229,-166.5001"/>
</g>
<!-- AttendanceDayBlockComponent -->
<g id="node7" class="node">
<title>AttendanceDayBlockComponent</title>
<polygon fill="#ffffb3" stroke="#000000" points="5135.8417,-122 4934.1583,-122 4934.1583,-86 5135.8417,-86 5135.8417,-122"/>
<text text-anchor="middle" x="5035" y="-99.8" font-family="Times,serif" font-size="14.00" fill="#000000">AttendanceDayBlockComponent</text>
</g>
<!-- AttendanceDayBlockComponent&#45;&gt;ChildrenModule -->
<g id="edge7" class="edge">
<title>AttendanceDayBlockComponent&#45;&gt;ChildrenModule</title>
<path fill="none" stroke="#000000" d="M5035,-122.1061C5035,-141.3391 5035,-169 5035,-169 5035,-169 3034.1723,-169 3034.1723,-169"/>
<polygon fill="#000000" stroke="#000000" points="3034.1723,-165.5001 3024.1723,-169 3034.1723,-172.5001 3034.1723,-165.5001"/>
</g>
<!-- AttendanceDaysComponent -->
<g id="node8" class="node">
<title>AttendanceDaysComponent</title>
<polygon fill="#ffffb3" stroke="#000000" points="4915.8445,-122 4742.1555,-122 4742.1555,-86 4915.8445,-86 4915.8445,-122"/>
<text text-anchor="middle" x="4829" y="-99.8" font-family="Times,serif" font-size="14.00" fill="#000000">AttendanceDaysComponent</text>
</g>
<!-- AttendanceDaysComponent&#45;&gt;ChildrenModule -->
<g id="edge8" class="edge">
<title>AttendanceDaysComponent&#45;&gt;ChildrenModule</title>
<path fill="none" stroke="#000000" d="M4829,-122.2222C4829,-140.8285 4829,-167 4829,-167 4829,-167 3034.1294,-167 3034.1294,-167"/>
<polygon fill="#000000" stroke="#000000" points="3034.1295,-163.5001 3024.1294,-167 3034.1294,-170.5001 3034.1295,-163.5001"/>
</g>
<!-- AttendanceDetailsComponent -->
<g id="node9" class="node">
<title>AttendanceDetailsComponent</title>
<polygon fill="#ffffb3" stroke="#000000" points="4724.231,-122 4539.769,-122 4539.769,-86 4724.231,-86 4724.231,-122"/>
<text text-anchor="middle" x="4632" y="-99.8" font-family="Times,serif" font-size="14.00" fill="#000000">AttendanceDetailsComponent</text>
</g>
<!-- AttendanceDetailsComponent&#45;&gt;ChildrenModule -->
<g id="edge9" class="edge">
<title>AttendanceDetailsComponent&#45;&gt;ChildrenModule</title>
<path fill="none" stroke="#000000" d="M4632,-122.302C4632,-140.2699 4632,-165 4632,-165 4632,-165 3034.3528,-165 3034.3528,-165"/>
<polygon fill="#000000" stroke="#000000" points="3034.3528,-161.5001 3024.3528,-165 3034.3528,-168.5001 3034.3528,-161.5001"/>
</g>
<!-- AttendanceManagerComponent -->
<g id="node10" class="node">
<title>AttendanceManagerComponent</title>
<polygon fill="#ffffb3" stroke="#000000" points="4521.3277,-122 4326.6723,-122 4326.6723,-86 4521.3277,-86 4521.3277,-122"/>
<text text-anchor="middle" x="4424" y="-99.8" font-family="Times,serif" font-size="14.00" fill="#000000">AttendanceManagerComponent</text>
</g>
<!-- AttendanceManagerComponent&#45;&gt;ChildrenModule -->
<g id="edge10" class="edge">
<title>AttendanceManagerComponent&#45;&gt;ChildrenModule</title>
<path fill="none" stroke="#000000" d="M4424,-122.0225C4424,-139.3734 4424,-163 4424,-163 4424,-163 3034.3448,-163 3034.3448,-163"/>
<polygon fill="#000000" stroke="#000000" points="3034.3449,-159.5001 3024.3448,-163 3034.3448,-166.5001 3034.3449,-159.5001"/>
</g>
<!-- AttendanceWarningsDashboardComponent -->
<g id="node11" class="node">
<title>AttendanceWarningsDashboardComponent</title>
<polygon fill="#ffffb3" stroke="#000000" points="4309.1446,-122 4048.8554,-122 4048.8554,-86 4309.1446,-86 4309.1446,-122"/>
<text text-anchor="middle" x="4179" y="-99.8" font-family="Times,serif" font-size="14.00" fill="#000000">AttendanceWarningsDashboardComponent</text>
</g>
<!-- AttendanceWarningsDashboardComponent&#45;&gt;ChildrenModule -->
<g id="edge11" class="edge">
<title>AttendanceWarningsDashboardComponent&#45;&gt;ChildrenModule</title>
<path fill="none" stroke="#000000" d="M4179,-122.0336C4179,-139.0597 4179,-162 4179,-162 4179,-162 3034.2969,-162 3034.2969,-162"/>
<polygon fill="#000000" stroke="#000000" points="3034.297,-158.5001 3024.2969,-162 3034.2969,-165.5001 3034.297,-158.5001"/>
</g>
<!-- AttendanceWeekDashboardComponent -->
<g id="node12" class="node">
<title>AttendanceWeekDashboardComponent</title>
<polygon fill="#ffffb3" stroke="#000000" points="4031.3637,-122 3792.6363,-122 3792.6363,-86 4031.3637,-86 4031.3637,-122"/>
<text text-anchor="middle" x="3912" y="-99.8" font-family="Times,serif" font-size="14.00" fill="#000000">AttendanceWeekDashboardComponent</text>
</g>
<!-- AttendanceWeekDashboardComponent&#45;&gt;ChildrenModule -->
<g id="edge12" class="edge">
<title>AttendanceWeekDashboardComponent&#45;&gt;ChildrenModule</title>
<path fill="none" stroke="#000000" d="M3871.0668,-122.027C3871.0668,-138.3976 3871.0668,-160 3871.0668,-160 3871.0668,-160 3034.3366,-160 3034.3366,-160"/>
<polygon fill="#000000" stroke="#000000" points="3034.3366,-156.5001 3024.3366,-160 3034.3365,-163.5001 3034.3366,-156.5001"/>
</g>
<!-- ChildAttendanceComponent -->
<g id="node13" class="node">
<title>ChildAttendanceComponent</title>
<polygon fill="#ffffb3" stroke="#000000" points="3775.1965,-122 3598.8035,-122 3598.8035,-86 3775.1965,-86 3775.1965,-122"/>
<text text-anchor="middle" x="3687" y="-99.8" font-family="Times,serif" font-size="14.00" fill="#000000">ChildAttendanceComponent</text>
</g>
<!-- ChildAttendanceComponent&#45;&gt;ChildrenModule -->
<g id="edge13" class="edge">
<title>ChildAttendanceComponent&#45;&gt;ChildrenModule</title>
<path fill="none" stroke="#000000" d="M3636.787,-122.2819C3636.787,-137.9478 3636.787,-158 3636.787,-158 3636.787,-158 3034.2833,-158 3034.2833,-158"/>
<polygon fill="#000000" stroke="#000000" points="3034.2833,-154.5001 3024.2833,-158 3034.2832,-161.5001 3034.2833,-154.5001"/>
</g>
<!-- ChildBlockComponent -->
<g id="node14" class="node">
<title>ChildBlockComponent</title>
<polygon fill="#ffffb3" stroke="#000000" points="3580.892,-122 3435.108,-122 3435.108,-86 3580.892,-86 3580.892,-122"/>
<text text-anchor="middle" x="3508" y="-99.8" font-family="Times,serif" font-size="14.00" fill="#000000">ChildBlockComponent</text>
</g>
<!-- ChildBlockComponent&#45;&gt;ChildrenModule -->
<g id="edge14" class="edge">
<title>ChildBlockComponent&#45;&gt;ChildrenModule</title>
<path fill="none" stroke="#000000" d="M3457.4382,-122.2396C3457.4382,-137.5706 3457.4382,-157 3457.4382,-157 3457.4382,-157 3034.4965,-157 3034.4965,-157"/>
<polygon fill="#000000" stroke="#000000" points="3034.4965,-153.5001 3024.4965,-157 3034.4965,-160.5001 3034.4965,-153.5001"/>
</g>
<!-- ChildDetailsComponent -->
<g id="node15" class="node">
<title>ChildDetailsComponent</title>
<polygon fill="#ffffb3" stroke="#000000" points="3417.1024,-122 3264.8976,-122 3264.8976,-86 3417.1024,-86 3417.1024,-122"/>
<text text-anchor="middle" x="3341" y="-99.8" font-family="Times,serif" font-size="14.00" fill="#000000">ChildDetailsComponent</text>
</g>
<!-- ChildDetailsComponent&#45;&gt;ChildrenModule -->
<g id="edge15" class="edge">
<title>ChildDetailsComponent&#45;&gt;ChildrenModule</title>
<path fill="none" stroke="#000000" d="M3341,-122.1243C3341,-136.7832 3341,-155 3341,-155 3341,-155 3034.3439,-155 3034.3439,-155"/>
<polygon fill="#000000" stroke="#000000" points="3034.3439,-151.5001 3024.3439,-155 3034.3439,-158.5001 3034.3439,-151.5001"/>
</g>
<!-- ChildSelectComponent -->
<g id="node16" class="node">
<title>ChildSelectComponent</title>
<polygon fill="#ffffb3" stroke="#000000" points="3247.1582,-122 3100.8418,-122 3100.8418,-86 3247.1582,-86 3247.1582,-122"/>
<text text-anchor="middle" x="3174" y="-99.8" font-family="Times,serif" font-size="14.00" fill="#000000">ChildSelectComponent</text>
</g>
<!-- ChildSelectComponent&#45;&gt;ChildrenModule -->
<g id="edge16" class="edge">
<title>ChildSelectComponent&#45;&gt;ChildrenModule</title>
<path fill="none" stroke="#000000" d="M3149.3014,-122.2458C3149.3014,-136.1772 3149.3014,-153 3149.3014,-153 3149.3014,-153 3034.2829,-153 3034.2829,-153"/>
<polygon fill="#000000" stroke="#000000" points="3034.2829,-149.5001 3024.2829,-153 3034.2829,-156.5001 3034.2829,-149.5001"/>
</g>
<!-- ChildrenCountDashboardComponent -->
<g id="node17" class="node">
<title>ChildrenCountDashboardComponent</title>
<polygon fill="#ffffb3" stroke="#000000" points="3082.6937,-122 2857.3063,-122 2857.3063,-86 3082.6937,-86 3082.6937,-122"/>
<text text-anchor="middle" x="2970" y="-99.8" font-family="Times,serif" font-size="14.00" fill="#000000">ChildrenCountDashboardComponent</text>
</g>
<!-- ChildrenCountDashboardComponent&#45;&gt;ChildrenModule -->
<g id="edge17" class="edge">
<title>ChildrenCountDashboardComponent&#45;&gt;ChildrenModule</title>
<path fill="none" stroke="#000000" d="M2970,-122.1061C2970,-122.1061 2970,-140.991 2970,-140.991"/>
<polygon fill="#000000" stroke="#000000" points="2966.5001,-140.9909 2970,-150.991 2973.5001,-140.991 2966.5001,-140.9909"/>
</g>
<!-- ChildrenListComponent -->
<g id="node18" class="node">
<title>ChildrenListComponent</title>
<polygon fill="#ffffb3" stroke="#000000" points="2839.1038,-122 2686.8962,-122 2686.8962,-86 2839.1038,-86 2839.1038,-122"/>
<text text-anchor="middle" x="2763" y="-99.8" font-family="Times,serif" font-size="14.00" fill="#000000">ChildrenListComponent</text>
</g>
<!-- ChildrenListComponent&#45;&gt;ChildrenModule -->
<g id="edge18" class="edge">
<title>ChildrenListComponent&#45;&gt;ChildrenModule</title>
<path fill="none" stroke="#000000" d="M2813.678,-122.2458C2813.678,-136.1772 2813.678,-153 2813.678,-153 2813.678,-153 2905.7648,-153 2905.7648,-153"/>
<polygon fill="#000000" stroke="#000000" points="2905.7649,-156.5001 2915.7648,-153 2905.7648,-149.5001 2905.7649,-156.5001"/>
</g>
<!-- EducationalMaterialComponent -->
<g id="node19" class="node">
<title>EducationalMaterialComponent</title>
<polygon fill="#ffffb3" stroke="#000000" points="2668.6218,-122 2473.3782,-122 2473.3782,-86 2668.6218,-86 2668.6218,-122"/>
<text text-anchor="middle" x="2571" y="-99.8" font-family="Times,serif" font-size="14.00" fill="#000000">EducationalMaterialComponent</text>
</g>
<!-- EducationalMaterialComponent&#45;&gt;ChildrenModule -->
<g id="edge19" class="edge">
<title>EducationalMaterialComponent&#45;&gt;ChildrenModule</title>
<path fill="none" stroke="#000000" d="M2644.3659,-122.1243C2644.3659,-136.7832 2644.3659,-155 2644.3659,-155 2644.3659,-155 2905.8626,-155 2905.8626,-155"/>
<polygon fill="#000000" stroke="#000000" points="2905.8626,-158.5001 2915.8626,-155 2905.8626,-151.5001 2905.8626,-158.5001"/>
</g>
<!-- HealthCheckupComponent -->
<g id="node20" class="node">
<title>HealthCheckupComponent</title>
<polygon fill="#ffffb3" stroke="#000000" points="2455.4157,-122 2286.5843,-122 2286.5843,-86 2455.4157,-86 2455.4157,-122"/>
<text text-anchor="middle" x="2371" y="-99.8" font-family="Times,serif" font-size="14.00" fill="#000000">HealthCheckupComponent</text>
</g>
<!-- HealthCheckupComponent&#45;&gt;ChildrenModule -->
<g id="edge20" class="edge">
<title>HealthCheckupComponent&#45;&gt;ChildrenModule</title>
<path fill="none" stroke="#000000" d="M2414.4304,-122.2396C2414.4304,-137.5706 2414.4304,-157 2414.4304,-157 2414.4304,-157 2905.7181,-157 2905.7181,-157"/>
<polygon fill="#000000" stroke="#000000" points="2905.7181,-160.5001 2915.7181,-157 2905.7181,-153.5001 2905.7181,-160.5001"/>
</g>
<!-- NoRecentNotesDashboardComponent -->
<g id="node21" class="node">
<title>NoRecentNotesDashboardComponent</title>
<polygon fill="#ffffb3" stroke="#000000" points="2268.1077,-122 2037.8923,-122 2037.8923,-86 2268.1077,-86 2268.1077,-122"/>
<text text-anchor="middle" x="2153" y="-99.8" font-family="Times,serif" font-size="14.00" fill="#000000">NoRecentNotesDashboardComponent</text>
</g>
<!-- NoRecentNotesDashboardComponent&#45;&gt;ChildrenModule -->
<g id="edge21" class="edge">
<title>NoRecentNotesDashboardComponent&#45;&gt;ChildrenModule</title>
<path fill="none" stroke="#000000" d="M2195.125,-122.2819C2195.125,-137.9478 2195.125,-158 2195.125,-158 2195.125,-158 2905.8203,-158 2905.8203,-158"/>
<polygon fill="#000000" stroke="#000000" points="2905.8203,-161.5001 2915.8203,-158 2905.8202,-154.5001 2905.8203,-161.5001"/>
</g>
<!-- NotesOfChildComponent -->
<g id="node22" class="node">
<title>NotesOfChildComponent</title>
<polygon fill="#ffffb3" stroke="#000000" points="2019.8738,-122 1860.1262,-122 1860.1262,-86 2019.8738,-86 2019.8738,-122"/>
<text text-anchor="middle" x="1940" y="-99.8" font-family="Times,serif" font-size="14.00" fill="#000000">NotesOfChildComponent</text>
</g>
<!-- NotesOfChildComponent&#45;&gt;ChildrenModule -->
<g id="edge22" class="edge">
<title>NotesOfChildComponent&#45;&gt;ChildrenModule</title>
<path fill="none" stroke="#000000" d="M1953.2183,-122.027C1953.2183,-138.3976 1953.2183,-160 1953.2183,-160 1953.2183,-160 2905.6929,-160 2905.6929,-160"/>
<polygon fill="#000000" stroke="#000000" points="2905.6929,-163.5001 2915.6929,-160 2905.6928,-156.5001 2905.6929,-163.5001"/>
</g>
<!-- PreviousSchoolsComponent -->
<g id="node23" class="node">
<title>PreviousSchoolsComponent</title>
<polygon fill="#ffffb3" stroke="#000000" points="1842.1581,-122 1667.8419,-122 1667.8419,-86 1842.1581,-86 1842.1581,-122"/>
<text text-anchor="middle" x="1755" y="-99.8" font-family="Times,serif" font-size="14.00" fill="#000000">PreviousSchoolsComponent</text>
</g>
<!-- PreviousSchoolsComponent&#45;&gt;ChildrenModule -->
<g id="edge23" class="edge">
<title>PreviousSchoolsComponent&#45;&gt;ChildrenModule</title>
<path fill="none" stroke="#000000" d="M1755,-122.0336C1755,-139.0597 1755,-162 1755,-162 1755,-162 2905.8301,-162 2905.8301,-162"/>
<polygon fill="#000000" stroke="#000000" points="2905.8301,-165.5001 2915.8301,-162 2905.83,-158.5001 2905.8301,-165.5001"/>
</g>
<!-- RecentNotesDashboardComponent -->
<g id="node24" class="node">
<title>RecentNotesDashboardComponent</title>
<polygon fill="#ffffb3" stroke="#000000" points="1649.5014,-122 1436.4986,-122 1436.4986,-86 1649.5014,-86 1649.5014,-122"/>
<text text-anchor="middle" x="1543" y="-99.8" font-family="Times,serif" font-size="14.00" fill="#000000">RecentNotesDashboardComponent</text>
</g>
<!-- RecentNotesDashboardComponent&#45;&gt;ChildrenModule -->
<g id="edge24" class="edge">
<title>RecentNotesDashboardComponent&#45;&gt;ChildrenModule</title>
<path fill="none" stroke="#000000" d="M1543,-122.0225C1543,-139.3734 1543,-163 1543,-163 1543,-163 2905.8024,-163 2905.8024,-163"/>
<polygon fill="#000000" stroke="#000000" points="2905.8025,-166.5001 2915.8024,-163 2905.8024,-159.5001 2905.8025,-166.5001"/>
</g>
<!-- RollCallComponent -->
<g id="node25" class="node">
<title>RollCallComponent</title>
<polygon fill="#ffffb3" stroke="#000000" points="1418.2828,-122 1289.7172,-122 1289.7172,-86 1418.2828,-86 1418.2828,-122"/>
<text text-anchor="middle" x="1354" y="-99.8" font-family="Times,serif" font-size="14.00" fill="#000000">RollCallComponent</text>
</g>
<!-- RollCallComponent&#45;&gt;ChildrenModule -->
<g id="edge25" class="edge">
<title>RollCallComponent&#45;&gt;ChildrenModule</title>
<path fill="none" stroke="#000000" d="M1354,-122.302C1354,-140.2699 1354,-165 1354,-165 1354,-165 2905.7707,-165 2905.7707,-165"/>
<polygon fill="#000000" stroke="#000000" points="2905.7707,-168.5001 2915.7707,-165 2905.7707,-161.5001 2905.7707,-168.5001"/>
</g>
<!-- SelectGroupChildrenComponent -->
<g id="node26" class="node">
<title>SelectGroupChildrenComponent</title>
<polygon fill="#ffffb3" stroke="#000000" points="1271.3004,-122 1070.6996,-122 1070.6996,-86 1271.3004,-86 1271.3004,-122"/>
<text text-anchor="middle" x="1171" y="-99.8" font-family="Times,serif" font-size="14.00" fill="#000000">SelectGroupChildrenComponent</text>
</g>
<!-- SelectGroupChildrenComponent&#45;&gt;ChildrenModule -->
<g id="edge26" class="edge">
<title>SelectGroupChildrenComponent&#45;&gt;ChildrenModule</title>
<path fill="none" stroke="#000000" d="M1171,-122.2222C1171,-140.8285 1171,-167 1171,-167 1171,-167 2905.6694,-167 2905.6694,-167"/>
<polygon fill="#000000" stroke="#000000" points="2905.6694,-170.5001 2915.6694,-167 2905.6693,-163.5001 2905.6694,-170.5001"/>
</g>
<!-- AttendanceAverageDashboardComponent  -->
<g id="node34" class="node">
<title>AttendanceAverageDashboardComponent </title>
<polygon fill="#fb8072" stroke="#000000" points="3949.1309,-252 3692.8691,-252 3692.8691,-216 3949.1309,-216 3949.1309,-252"/>
<text text-anchor="middle" x="3821" y="-229.8" font-family="Times,serif" font-size="14.00" fill="#000000">AttendanceAverageDashboardComponent </text>
</g>
<!-- ChildrenModule&#45;&gt;AttendanceAverageDashboardComponent  -->
<g id="edge33" class="edge">
<title>ChildrenModule&#45;&gt;AttendanceAverageDashboardComponent </title>
<path fill="none" stroke="#000000" stroke-dasharray="5,2" d="M3024.3248,-181C3198.8427,-181 3733.8915,-181 3733.8915,-181 3733.8915,-181 3733.8915,-205.7604 3733.8915,-205.7604"/>
<polygon fill="#000000" stroke="#000000" points="3730.3915,-205.7604 3733.8915,-215.7604 3737.3915,-205.7604 3730.3915,-205.7604"/>
</g>
<!-- AttendanceDaysComponent  -->
<g id="node35" class="node">
<title>AttendanceDaysComponent </title>
<polygon fill="#fb8072" stroke="#000000" points="3674.8447,-252 3497.1553,-252 3497.1553,-216 3674.8447,-216 3674.8447,-252"/>
<text text-anchor="middle" x="3586" y="-229.8" font-family="Times,serif" font-size="14.00" fill="#000000">AttendanceDaysComponent </text>
</g>
<!-- ChildrenModule&#45;&gt;AttendanceDaysComponent  -->
<g id="edge34" class="edge">
<title>ChildrenModule&#45;&gt;AttendanceDaysComponent </title>
<path fill="none" stroke="#000000" stroke-dasharray="5,2" d="M3024.0561,-182C3166.1222,-182 3539.1369,-182 3539.1369,-182 3539.1369,-182 3539.1369,-205.8129 3539.1369,-205.8129"/>
<polygon fill="#000000" stroke="#000000" points="3535.637,-205.8129 3539.1369,-215.8129 3542.637,-205.813 3535.637,-205.8129"/>
</g>
<!-- AttendanceWarningsDashboardComponent  -->
<g id="node36" class="node">
<title>AttendanceWarningsDashboardComponent </title>
<polygon fill="#fb8072" stroke="#000000" points="3479.6448,-252 3216.3552,-252 3216.3552,-216 3479.6448,-216 3479.6448,-252"/>
<text text-anchor="middle" x="3348" y="-229.8" font-family="Times,serif" font-size="14.00" fill="#000000">AttendanceWarningsDashboardComponent </text>
</g>
<!-- ChildrenModule&#45;&gt;AttendanceWarningsDashboardComponent  -->
<g id="edge35" class="edge">
<title>ChildrenModule&#45;&gt;AttendanceWarningsDashboardComponent </title>
<path fill="none" stroke="#000000" stroke-dasharray="5,2" d="M3024.3421,-184C3102.3929,-184 3236.9452,-184 3236.9452,-184 3236.9452,-184 3236.9452,-205.9489 3236.9452,-205.9489"/>
<polygon fill="#000000" stroke="#000000" points="3233.4453,-205.9488 3236.9452,-215.9489 3240.4453,-205.9489 3233.4453,-205.9488"/>
</g>
<!-- ChildrenModule&#45;&gt;AttendanceWarningsDashboardComponent  -->
<g id="edge36" class="edge">
<title>ChildrenModule&#45;&gt;AttendanceWarningsDashboardComponent </title>
<path fill="none" stroke="#000000" stroke-dasharray="5,2" d="M3024.0966,-186C3099.3688,-186 3226.5614,-186 3226.5614,-186 3226.5614,-186 3226.5614,-205.8533 3226.5614,-205.8533"/>
<polygon fill="#000000" stroke="#000000" points="3223.0615,-205.8532 3226.5614,-215.8533 3230.0615,-205.8533 3223.0615,-205.8532"/>
</g>
<!-- AttendanceWeekDashboardComponent  -->
<g id="node37" class="node">
<title>AttendanceWeekDashboardComponent </title>
<polygon fill="#fb8072" stroke="#000000" points="3197.8634,-252 2956.1366,-252 2956.1366,-216 3197.8634,-216 3197.8634,-252"/>
<text text-anchor="middle" x="3077" y="-229.8" font-family="Times,serif" font-size="14.00" fill="#000000">AttendanceWeekDashboardComponent </text>
</g>
<!-- ChildrenModule&#45;&gt;AttendanceWeekDashboardComponent  -->
<g id="edge37" class="edge">
<title>ChildrenModule&#45;&gt;AttendanceWeekDashboardComponent </title>
<path fill="none" stroke="#000000" stroke-dasharray="5,2" d="M2990.1699,-187.1061C2990.1699,-187.1061 2990.1699,-205.991 2990.1699,-205.991"/>
<polygon fill="#000000" stroke="#000000" points="2986.6699,-205.9909 2990.1699,-215.991 2993.6699,-205.991 2986.6699,-205.9909"/>
</g>
<!-- ChildBlockComponent  -->
<g id="node38" class="node">
<title>ChildBlockComponent </title>
<polygon fill="#fb8072" stroke="#000000" points="2937.8925,-252 2788.1075,-252 2788.1075,-216 2937.8925,-216 2937.8925,-252"/>
<text text-anchor="middle" x="2863" y="-229.8" font-family="Times,serif" font-size="14.00" fill="#000000">ChildBlockComponent </text>
</g>
<!-- ChildrenModule&#45;&gt;ChildBlockComponent  -->
<g id="edge38" class="edge">
<title>ChildrenModule&#45;&gt;ChildBlockComponent </title>
<path fill="none" stroke="#000000" stroke-dasharray="5,2" d="M2926.7123,-187.1061C2926.7123,-187.1061 2926.7123,-205.991 2926.7123,-205.991"/>
<polygon fill="#000000" stroke="#000000" points="2923.2124,-205.9909 2926.7123,-215.991 2930.2124,-205.991 2923.2124,-205.9909"/>
</g>
<!-- ChildSelectComponent  -->
<g id="node39" class="node">
<title>ChildSelectComponent </title>
<polygon fill="#fb8072" stroke="#000000" points="2770.1579,-252 2619.8421,-252 2619.8421,-216 2770.1579,-216 2770.1579,-252"/>
<text text-anchor="middle" x="2695" y="-229.8" font-family="Times,serif" font-size="14.00" fill="#000000">ChildSelectComponent </text>
</g>
<!-- ChildrenModule&#45;&gt;ChildSelectComponent  -->
<g id="edge39" class="edge">
<title>ChildrenModule&#45;&gt;ChildSelectComponent </title>
<path fill="none" stroke="#000000" stroke-dasharray="5,2" d="M2915.8057,-186C2844.6075,-186 2728.5135,-186 2728.5135,-186 2728.5135,-186 2728.5135,-205.8533 2728.5135,-205.8533"/>
<polygon fill="#000000" stroke="#000000" points="2725.0136,-205.8532 2728.5135,-215.8533 2732.0136,-205.8533 2725.0136,-205.8532"/>
</g>
<!-- ChildrenCountDashboardComponent  -->
<g id="node40" class="node">
<title>ChildrenCountDashboardComponent </title>
<polygon fill="#fb8072" stroke="#000000" points="2602.1938,-252 2373.8062,-252 2373.8062,-216 2602.1938,-216 2602.1938,-252"/>
<text text-anchor="middle" x="2488" y="-229.8" font-family="Times,serif" font-size="14.00" fill="#000000">ChildrenCountDashboardComponent </text>
</g>
<!-- ChildrenModule&#45;&gt;ChildrenCountDashboardComponent  -->
<g id="edge40" class="edge">
<title>ChildrenModule&#45;&gt;ChildrenCountDashboardComponent </title>
<path fill="none" stroke="#000000" stroke-dasharray="5,2" d="M2915.6952,-184C2799.6066,-184 2537.768,-184 2537.768,-184 2537.768,-184 2537.768,-205.9489 2537.768,-205.9489"/>
<polygon fill="#000000" stroke="#000000" points="2534.2681,-205.9488 2537.768,-215.9489 2541.2681,-205.9489 2534.2681,-205.9488"/>
</g>
<!-- NoRecentNotesDashboardComponent  -->
<g id="node41" class="node">
<title>NoRecentNotesDashboardComponent </title>
<polygon fill="#fb8072" stroke="#000000" points="2356.1074,-252 2121.8926,-252 2121.8926,-216 2356.1074,-216 2356.1074,-252"/>
<text text-anchor="middle" x="2239" y="-229.8" font-family="Times,serif" font-size="14.00" fill="#000000">NoRecentNotesDashboardComponent </text>
</g>
<!-- ChildrenModule&#45;&gt;NoRecentNotesDashboardComponent  -->
<g id="edge41" class="edge">
<title>ChildrenModule&#45;&gt;NoRecentNotesDashboardComponent </title>
<path fill="none" stroke="#000000" stroke-dasharray="5,2" d="M2915.8182,-182C2759.9394,-182 2321.4231,-182 2321.4231,-182 2321.4231,-182 2321.4231,-205.8129 2321.4231,-205.8129"/>
<polygon fill="#000000" stroke="#000000" points="2317.9231,-205.8129 2321.4231,-215.8129 2324.9231,-205.813 2317.9231,-205.8129"/>
</g>
<!-- RecentNotesDashboardComponent  -->
<g id="node42" class="node">
<title>RecentNotesDashboardComponent </title>
<polygon fill="#fb8072" stroke="#000000" points="2103.5008,-252 1886.4992,-252 1886.4992,-216 2103.5008,-216 2103.5008,-252"/>
<text text-anchor="middle" x="1995" y="-229.8" font-family="Times,serif" font-size="14.00" fill="#000000">RecentNotesDashboardComponent </text>
</g>
<!-- ChildrenModule&#45;&gt;RecentNotesDashboardComponent  -->
<g id="edge42" class="edge">
<title>ChildrenModule&#45;&gt;RecentNotesDashboardComponent </title>
<path fill="none" stroke="#000000" stroke-dasharray="5,2" d="M2915.7639,-181C2721.3122,-181 2070.5984,-181 2070.5984,-181 2070.5984,-181 2070.5984,-205.7604 2070.5984,-205.7604"/>
<polygon fill="#000000" stroke="#000000" points="2067.0984,-205.7604 2070.5984,-215.7604 2074.0984,-205.7604 2067.0984,-205.7604"/>
</g>
<!-- AdminModule -->
<g id="node28" class="node">
<title>AdminModule</title>
<polygon fill="#8dd3c7" stroke="#000000" points="1047.4386,-122 1044.4386,-126 1023.4386,-126 1020.4386,-122 948.5614,-122 948.5614,-86 1047.4386,-86 1047.4386,-122"/>
<text text-anchor="middle" x="998" y="-99.8" font-family="Times,serif" font-size="14.00" fill="#000000">AdminModule</text>
</g>
<!-- AdminModule&#45;&gt;ChildrenModule -->
<g id="edge27" class="edge">
<title>AdminModule&#45;&gt;ChildrenModule</title>
<path fill="none" stroke="#000000" d="M998,-122.1061C998,-141.3391 998,-169 998,-169 998,-169 2905.7163,-169 2905.7163,-169"/>
<polygon fill="#000000" stroke="#000000" points="2905.7163,-172.5001 2915.7163,-169 2905.7162,-165.5001 2905.7163,-172.5001"/>
</g>
<!-- ConfirmationDialogModule -->
<g id="node29" class="node">
<title>ConfirmationDialogModule</title>
<polygon fill="#8dd3c7" stroke="#000000" points="930.587,-122 927.587,-126 906.587,-126 903.587,-122 757.413,-122 757.413,-86 930.587,-86 930.587,-122"/>
<text text-anchor="middle" x="844" y="-99.8" font-family="Times,serif" font-size="14.00" fill="#000000">ConfirmationDialogModule</text>
</g>
<!-- ConfirmationDialogModule&#45;&gt;ChildrenModule -->
<g id="edge28" class="edge">
<title>ConfirmationDialogModule&#45;&gt;ChildrenModule</title>
<path fill="none" stroke="#000000" d="M844,-122.0348C844,-141.5762 844,-170 844,-170 844,-170 2905.8483,-170 2905.8483,-170"/>
<polygon fill="#000000" stroke="#000000" points="2905.8483,-173.5001 2915.8483,-170 2905.8482,-166.5001 2905.8483,-173.5001"/>
</g>
<!-- EntitySubrecordModule -->
<g id="node30" class="node">
<title>EntitySubrecordModule</title>
<polygon fill="#8dd3c7" stroke="#000000" points="739.8075,-122 736.8075,-126 715.8075,-126 712.8075,-122 588.1925,-122 588.1925,-86 739.8075,-86 739.8075,-122"/>
<text text-anchor="middle" x="664" y="-99.8" font-family="Times,serif" font-size="14.00" fill="#000000">EntitySubrecordModule</text>
</g>
<!-- EntitySubrecordModule&#45;&gt;ChildrenModule -->
<g id="edge29" class="edge">
<title>EntitySubrecordModule&#45;&gt;ChildrenModule</title>
<path fill="none" stroke="#000000" d="M664,-122.2228C664,-142.3652 664,-172 664,-172 664,-172 2905.8338,-172 2905.8338,-172"/>
<polygon fill="#000000" stroke="#000000" points="2905.8338,-175.5001 2915.8338,-172 2905.8338,-168.5001 2905.8338,-175.5001"/>
</g>
<!-- FormDialogModule -->
<g id="node31" class="node">
<title>FormDialogModule</title>
<polygon fill="#8dd3c7" stroke="#000000" points="569.986,-122 566.986,-126 545.986,-126 542.986,-122 442.014,-122 442.014,-86 569.986,-86 569.986,-122"/>
<text text-anchor="middle" x="506" y="-99.8" font-family="Times,serif" font-size="14.00" fill="#000000">FormDialogModule</text>
</g>
<!-- FormDialogModule&#45;&gt;ChildrenModule -->
<g id="edge30" class="edge">
<title>FormDialogModule&#45;&gt;ChildrenModule</title>
<path fill="none" stroke="#000000" d="M506,-122.0267C506,-142.7672 506,-174 506,-174 506,-174 2905.9546,-174 2905.9546,-174"/>
<polygon fill="#000000" stroke="#000000" points="2905.9547,-177.5001 2915.9546,-174 2905.9546,-170.5001 2905.9547,-177.5001"/>
</g>
<!-- SchoolsModule -->
<g id="node32" class="node">
<title>SchoolsModule</title>
<polygon fill="#8dd3c7" stroke="#000000" points="423.8823,-122 420.8823,-126 399.8823,-126 396.8823,-122 320.1177,-122 320.1177,-86 423.8823,-86 423.8823,-122"/>
<text text-anchor="middle" x="372" y="-99.8" font-family="Times,serif" font-size="14.00" fill="#000000">SchoolsModule</text>
</g>
<!-- SchoolsModule&#45;&gt;ChildrenModule -->
<g id="edge31" class="edge">
<title>SchoolsModule&#45;&gt;ChildrenModule</title>
<path fill="none" stroke="#000000" d="M372,-122.2843C372,-143.3211 372,-175 372,-175 372,-175 2905.7371,-175 2905.7371,-175"/>
<polygon fill="#000000" stroke="#000000" points="2905.7371,-178.5001 2915.7371,-175 2905.737,-171.5001 2905.7371,-178.5001"/>
</g>
<!-- WebdavModule -->
<g id="node33" class="node">
<title>WebdavModule</title>
<polygon fill="#8dd3c7" stroke="#000000" points="302.1938,-122 299.1938,-126 278.1938,-126 275.1938,-122 195.8062,-122 195.8062,-86 302.1938,-86 302.1938,-122"/>
<text text-anchor="middle" x="249" y="-99.8" font-family="Times,serif" font-size="14.00" fill="#000000">WebdavModule</text>
</g>
<!-- WebdavModule&#45;&gt;ChildrenModule -->
<g id="edge32" class="edge">
<title>WebdavModule&#45;&gt;ChildrenModule</title>
<path fill="none" stroke="#000000" d="M249,-122.0449C249,-143.6623 249,-177 249,-177 249,-177 2905.9532,-177 2905.9532,-177"/>
<polygon fill="#000000" stroke="#000000" points="2905.9533,-180.5001 2915.9532,-177 2905.9532,-173.5001 2905.9533,-180.5001"/>
</g>
<!-- ChildrenService -->
<g id="node43" class="node">
<title>ChildrenService</title>
<ellipse fill="#fdb462" stroke="#000000" cx="98" cy="-104" rx="73.5734" ry="18"/>
<text text-anchor="middle" x="98" y="-99.8" font-family="Times,serif" font-size="14.00" fill="#000000">ChildrenService</text>
</g>
<!-- ChildrenService&#45;&gt;ChildrenModule -->
<g id="edge43" class="edge">
<title>ChildrenService&#45;&gt;ChildrenModule</title>
<path fill="none" stroke="#000000" d="M98,-122.1554C98,-144.3519 98,-179 98,-179 98,-179 2905.8244,-179 2905.8244,-179"/>
<polygon fill="#000000" stroke="#000000" points="2905.8244,-182.5001 2915.8244,-179 2905.8244,-175.5001 2905.8244,-182.5001"/>
</g>
</g>
</svg>
