<?xml version="1.0" encoding="UTF-8" standalone="no"?>
<!DOCTYPE svg PUBLIC "-//W3C//DTD SVG 1.1//EN"
 "http://www.w3.org/Graphics/SVG/1.1/DTD/svg11.dtd">
<!-- Generated by graphviz version 2.44.0 (20200408.0750)
 -->
<!-- Title: dependencies Pages: 1 -->
<svg width="6995pt" height="284pt"
 viewBox="0.00 0.00 6995.00 284.00" xmlns="http://www.w3.org/2000/svg" xmlns:xlink="http://www.w3.org/1999/xlink">
<g id="graph0" class="graph" transform="scale(1 1) rotate(0) translate(4 280)">
<title>dependencies</title>
<polygon fill="white" stroke="transparent" points="-4,4 -4,-280 6991,-280 6991,4 -4,4"/>
<text text-anchor="start" x="3472.51" y="-42.4" font-family="sans-serif" font-weight="bold" font-size="14.00">Legend</text>
<polygon fill="#ffffb3" stroke="transparent" points="3259.5,-10 3259.5,-30 3279.5,-30 3279.5,-10 3259.5,-10"/>
<text text-anchor="start" x="3283.13" y="-15.4" font-family="sans-serif" font-size="14.00"> &#160;Declarations</text>
<polygon fill="#8dd3c7" stroke="transparent" points="3372.5,-10 3372.5,-30 3392.5,-30 3392.5,-10 3372.5,-10"/>
<text text-anchor="start" x="3396.23" y="-15.4" font-family="sans-serif" font-size="14.00"> &#160;Module</text>
<polygon fill="#80b1d3" stroke="transparent" points="3458.5,-10 3458.5,-30 3478.5,-30 3478.5,-10 3458.5,-10"/>
<text text-anchor="start" x="3482.28" y="-15.4" font-family="sans-serif" font-size="14.00"> &#160;Bootstrap</text>
<polygon fill="#fdb462" stroke="transparent" points="3555.5,-10 3555.5,-30 3575.5,-30 3575.5,-10 3555.5,-10"/>
<text text-anchor="start" x="3579.17" y="-15.4" font-family="sans-serif" font-size="14.00"> &#160;Providers</text>
<polygon fill="#fb8072" stroke="transparent" points="3651.5,-10 3651.5,-30 3671.5,-30 3671.5,-10 3651.5,-10"/>
<text text-anchor="start" x="3675.23" y="-15.4" font-family="sans-serif" font-size="14.00"> &#160;Exports</text>
<g id="clust1" class="cluster">
<title>cluster_ChildrenModule</title>
<polygon fill="none" stroke="black" stroke-dasharray="1,5" points="8,-70 8,-268 6979,-268 6979,-70 8,-70"/>
</g>
<g id="clust32" class="cluster">
<title>cluster_ChildrenModule_imports</title>
<polygon fill="none" stroke="black" points="6104,-78 6104,-130 6971,-130 6971,-78 6104,-78"/>
</g>
<g id="clust35" class="cluster">
<title>cluster_ChildrenModule_providers</title>
<polygon fill="none" stroke="black" points="5932,-78 5932,-130 6096,-130 6096,-78 5932,-78"/>
</g>
<g id="clust2" class="cluster">
<title>cluster_ChildrenModule_declarations</title>
<polygon fill="none" stroke="black" points="16,-78 16,-130 5924,-130 5924,-78 16,-78"/>
</g>
<g id="clust33" class="cluster">
<title>cluster_ChildrenModule_exports</title>
<polygon fill="none" stroke="black" points="2492,-208 2492,-260 4571,-260 4571,-208 2492,-208"/>
</g>
<!-- AddDayAttendanceComponent -->
<g id="node1" class="node">
<title>AddDayAttendanceComponent</title>
<polygon fill="#ffffb3" stroke="black" points="5916.01,-122 5723.99,-122 5723.99,-86 5916.01,-86 5916.01,-122"/>
<text text-anchor="middle" x="5820" y="-99.8" font-family="Times,serif" font-size="14.00">AddDayAttendanceComponent</text>
</g>
<!-- ChildrenModule -->
<g id="node30" class="node">
<title>ChildrenModule</title>
<polygon fill="#8dd3c7" stroke="black" points="3638.04,-187 3635.04,-191 3614.04,-191 3611.04,-187 3529.96,-187 3529.96,-151 3638.04,-151 3638.04,-187"/>
<text text-anchor="middle" x="3584" y="-164.8" font-family="Times,serif" font-size="14.00">ChildrenModule</text>
</g>
<!-- AddDayAttendanceComponent&#45;&gt;ChildrenModule -->
<g id="edge1" class="edge">
<title>AddDayAttendanceComponent&#45;&gt;ChildrenModule</title>
<path fill="none" stroke="black" d="M5820,-122.17C5820,-141.09 5820,-168 5820,-168 5820,-168 3648.16,-168 3648.16,-168"/>
<polygon fill="black" stroke="black" points="3648.16,-164.5 3638.16,-168 3648.16,-171.5 3648.16,-164.5"/>
</g>
<!-- AddMonthAttendanceComponent -->
<g id="node2" class="node">
<title>AddMonthAttendanceComponent</title>
<polygon fill="#ffffb3" stroke="black" points="5705.02,-122 5498.98,-122 5498.98,-86 5705.02,-86 5705.02,-122"/>
<text text-anchor="middle" x="5602" y="-99.8" font-family="Times,serif" font-size="14.00">AddMonthAttendanceComponent</text>
</g>
<!-- AddMonthAttendanceComponent&#45;&gt;ChildrenModule -->
<g id="edge2" class="edge">
<title>AddMonthAttendanceComponent&#45;&gt;ChildrenModule</title>
<path fill="none" stroke="black" d="M5602,-122.27C5602,-140.56 5602,-166 5602,-166 5602,-166 3648.24,-166 3648.24,-166"/>
<polygon fill="black" stroke="black" points="3648.24,-162.5 3638.24,-166 3648.24,-169.5 3648.24,-162.5"/>
</g>
<!-- AserComponent -->
<g id="node3" class="node">
<title>AserComponent</title>
<polygon fill="#ffffb3" stroke="black" points="5480.76,-122 5373.24,-122 5373.24,-86 5480.76,-86 5480.76,-122"/>
<text text-anchor="middle" x="5427" y="-99.8" font-family="Times,serif" font-size="14.00">AserComponent</text>
</g>
<!-- AserComponent&#45;&gt;ChildrenModule -->
<g id="edge3" class="edge">
<title>AserComponent&#45;&gt;ChildrenModule</title>
<path fill="none" stroke="black" d="M5427,-122.3C5427,-140.27 5427,-165 5427,-165 5427,-165 3648.16,-165 3648.16,-165"/>
<polygon fill="black" stroke="black" points="3648.16,-161.5 3638.16,-165 3648.16,-168.5 3648.16,-161.5"/>
</g>
<!-- AttendanceAnalysisComponent -->
<g id="node4" class="node">
<title>AttendanceAnalysisComponent</title>
<polygon fill="#ffffb3" stroke="black" points="5355.07,-122 5160.93,-122 5160.93,-86 5355.07,-86 5355.07,-122"/>
<text text-anchor="middle" x="5258" y="-99.8" font-family="Times,serif" font-size="14.00">AttendanceAnalysisComponent</text>
</g>
<!-- AttendanceAnalysisComponent&#45;&gt;ChildrenModule -->
<g id="edge4" class="edge">
<title>AttendanceAnalysisComponent&#45;&gt;ChildrenModule</title>
<path fill="none" stroke="black" d="M5258,-122.02C5258,-139.37 5258,-163 5258,-163 5258,-163 3648.27,-163 3648.27,-163"/>
<polygon fill="black" stroke="black" points="3648.27,-159.5 3638.27,-163 3648.27,-166.5 3648.27,-159.5"/>
</g>
<!-- AttendanceAverageDashboardComponent -->
<g id="node5" class="node">
<title>AttendanceAverageDashboardComponent</title>
<polygon fill="#ffffb3" stroke="black" points="5142.63,-122 4889.37,-122 4889.37,-86 5142.63,-86 5142.63,-122"/>
<text text-anchor="middle" x="5016" y="-99.8" font-family="Times,serif" font-size="14.00">AttendanceAverageDashboardComponent</text>
</g>
<!-- AttendanceAverageDashboardComponent&#45;&gt;ChildrenModule -->
<g id="edge5" class="edge">
<title>AttendanceAverageDashboardComponent&#45;&gt;ChildrenModule</title>
<path fill="none" stroke="black" d="M5016,-122.04C5016,-138.73 5016,-161 5016,-161 5016,-161 3648.39,-161 3648.39,-161"/>
<polygon fill="black" stroke="black" points="3648.39,-157.5 3638.39,-161 3648.39,-164.5 3648.39,-157.5"/>
</g>
<!-- AttendanceBlockComponent -->
<g id="node6" class="node">
<title>AttendanceBlockComponent</title>
<polygon fill="#ffffb3" stroke="black" points="4871.02,-122 4692.98,-122 4692.98,-86 4871.02,-86 4871.02,-122"/>
<text text-anchor="middle" x="4782" y="-99.8" font-family="Times,serif" font-size="14.00">AttendanceBlockComponent</text>
</g>
<!-- AttendanceBlockComponent&#45;&gt;ChildrenModule -->
<g id="edge6" class="edge">
<title>AttendanceBlockComponent&#45;&gt;ChildrenModule</title>
<path fill="none" stroke="black" d="M4782,-122.03C4782,-138.4 4782,-160 4782,-160 4782,-160 3648.2,-160 3648.2,-160"/>
<polygon fill="black" stroke="black" points="3648.2,-156.5 3638.2,-160 3648.2,-163.5 3648.2,-156.5"/>
</g>
<!-- AttendanceDayBlockComponent -->
<g id="node7" class="node">
<title>AttendanceDayBlockComponent</title>
<polygon fill="#ffffb3" stroke="black" points="4674.84,-122 4473.16,-122 4473.16,-86 4674.84,-86 4674.84,-122"/>
<text text-anchor="middle" x="4574" y="-99.8" font-family="Times,serif" font-size="14.00">AttendanceDayBlockComponent</text>
</g>
<!-- AttendanceDayBlockComponent&#45;&gt;ChildrenModule -->
<g id="edge7" class="edge">
<title>AttendanceDayBlockComponent&#45;&gt;ChildrenModule</title>
<path fill="none" stroke="black" d="M4518.2,-122.28C4518.2,-137.95 4518.2,-158 4518.2,-158 4518.2,-158 3648.26,-158 3648.26,-158"/>
<polygon fill="black" stroke="black" points="3648.26,-154.5 3638.26,-158 3648.26,-161.5 3648.26,-154.5"/>
</g>
<!-- AttendanceDaysComponent -->
<g id="node8" class="node">
<title>AttendanceDaysComponent</title>
<polygon fill="#ffffb3" stroke="black" points="4454.84,-122 4281.16,-122 4281.16,-86 4454.84,-86 4454.84,-122"/>
<text text-anchor="middle" x="4368" y="-99.8" font-family="Times,serif" font-size="14.00">AttendanceDaysComponent</text>
</g>
<!-- AttendanceDaysComponent&#45;&gt;ChildrenModule -->
<g id="edge8" class="edge">
<title>AttendanceDaysComponent&#45;&gt;ChildrenModule</title>
<path fill="none" stroke="black" d="M4284.88,-122.19C4284.88,-137.18 4284.88,-156 4284.88,-156 4284.88,-156 3648.12,-156 3648.12,-156"/>
<polygon fill="black" stroke="black" points="3648.12,-152.5 3638.12,-156 3648.12,-159.5 3648.12,-152.5"/>
</g>
<!-- AttendanceDetailsComponent -->
<g id="node9" class="node">
<title>AttendanceDetailsComponent</title>
<polygon fill="#ffffb3" stroke="black" points="4263.23,-122 4078.77,-122 4078.77,-86 4263.23,-86 4263.23,-122"/>
<text text-anchor="middle" x="4171" y="-99.8" font-family="Times,serif" font-size="14.00">AttendanceDetailsComponent</text>
</g>
<!-- AttendanceDetailsComponent&#45;&gt;ChildrenModule -->
<g id="edge9" class="edge">
<title>AttendanceDetailsComponent&#45;&gt;ChildrenModule</title>
<path fill="none" stroke="black" d="M4086.23,-122.12C4086.23,-136.78 4086.23,-155 4086.23,-155 4086.23,-155 3648.22,-155 3648.22,-155"/>
<polygon fill="black" stroke="black" points="3648.22,-151.5 3638.22,-155 3648.22,-158.5 3648.22,-151.5"/>
</g>
<!-- AttendanceManagerComponent -->
<g id="node10" class="node">
<title>AttendanceManagerComponent</title>
<polygon fill="#ffffb3" stroke="black" points="4060.33,-122 3865.67,-122 3865.67,-86 4060.33,-86 4060.33,-122"/>
<text text-anchor="middle" x="3963" y="-99.8" font-family="Times,serif" font-size="14.00">AttendanceManagerComponent</text>
</g>
<!-- AttendanceManagerComponent&#45;&gt;ChildrenModule -->
<g id="edge10" class="edge">
<title>AttendanceManagerComponent&#45;&gt;ChildrenModule</title>
<path fill="none" stroke="black" d="M3963,-122.25C3963,-136.18 3963,-153 3963,-153 3963,-153 3648.3,-153 3648.3,-153"/>
<polygon fill="black" stroke="black" points="3648.3,-149.5 3638.3,-153 3648.3,-156.5 3648.3,-149.5"/>
</g>
<!-- AttendanceWarningsDashboardComponent -->
<g id="node11" class="node">
<title>AttendanceWarningsDashboardComponent</title>
<polygon fill="#ffffb3" stroke="black" points="3848.14,-122 3587.86,-122 3587.86,-86 3848.14,-86 3848.14,-122"/>
<text text-anchor="middle" x="3718" y="-99.8" font-family="Times,serif" font-size="14.00">AttendanceWarningsDashboardComponent</text>
</g>
<!-- AttendanceWarningsDashboardComponent&#45;&gt;ChildrenModule -->
<g id="edge11" class="edge">
<title>AttendanceWarningsDashboardComponent&#45;&gt;ChildrenModule</title>
<path fill="none" stroke="black" d="M3613.1,-122.11C3613.1,-122.11 3613.1,-140.99 3613.1,-140.99"/>
<polygon fill="black" stroke="black" points="3609.6,-140.99 3613.1,-150.99 3616.6,-140.99 3609.6,-140.99"/>
</g>
<!-- AttendanceWeekDashboardComponent -->
<g id="node12" class="node">
<title>AttendanceWeekDashboardComponent</title>
<polygon fill="#ffffb3" stroke="black" points="3570.36,-122 3331.64,-122 3331.64,-86 3570.36,-86 3570.36,-122"/>
<text text-anchor="middle" x="3451" y="-99.8" font-family="Times,serif" font-size="14.00">AttendanceWeekDashboardComponent</text>
</g>
<!-- AttendanceWeekDashboardComponent&#45;&gt;ChildrenModule -->
<g id="edge12" class="edge">
<title>AttendanceWeekDashboardComponent&#45;&gt;ChildrenModule</title>
<path fill="none" stroke="black" d="M3549.96,-122.11C3549.96,-122.11 3549.96,-140.99 3549.96,-140.99"/>
<polygon fill="black" stroke="black" points="3546.46,-140.99 3549.96,-150.99 3553.46,-140.99 3546.46,-140.99"/>
</g>
<!-- ChildAttendanceComponent -->
<g id="node13" class="node">
<title>ChildAttendanceComponent</title>
<polygon fill="#ffffb3" stroke="black" points="3314.2,-122 3137.8,-122 3137.8,-86 3314.2,-86 3314.2,-122"/>
<text text-anchor="middle" x="3226" y="-99.8" font-family="Times,serif" font-size="14.00">ChildAttendanceComponent</text>
</g>
<!-- ChildAttendanceComponent&#45;&gt;ChildrenModule -->
<g id="edge13" class="edge">
<title>ChildAttendanceComponent&#45;&gt;ChildrenModule</title>
<path fill="none" stroke="black" d="M3274.01,-122.25C3274.01,-136.18 3274.01,-153 3274.01,-153 3274.01,-153 3519.65,-153 3519.65,-153"/>
<polygon fill="black" stroke="black" points="3519.65,-156.5 3529.65,-153 3519.65,-149.5 3519.65,-156.5"/>
</g>
<!-- ChildBlockComponent -->
<g id="node14" class="node">
<title>ChildBlockComponent</title>
<polygon fill="#ffffb3" stroke="black" points="3119.89,-122 2974.11,-122 2974.11,-86 3119.89,-86 3119.89,-122"/>
<text text-anchor="middle" x="3047" y="-99.8" font-family="Times,serif" font-size="14.00">ChildBlockComponent</text>
</g>
<!-- ChildBlockComponent&#45;&gt;ChildrenModule -->
<g id="edge14" class="edge">
<title>ChildBlockComponent&#45;&gt;ChildrenModule</title>
<path fill="none" stroke="black" d="M3053.8,-122.12C3053.8,-136.78 3053.8,-155 3053.8,-155 3053.8,-155 3519.75,-155 3519.75,-155"/>
<polygon fill="black" stroke="black" points="3519.75,-158.5 3529.75,-155 3519.75,-151.5 3519.75,-158.5"/>
</g>
<!-- ChildDetailsComponent -->
<g id="node15" class="node">
<title>ChildDetailsComponent</title>
<polygon fill="#ffffb3" stroke="black" points="2956.1,-122 2803.9,-122 2803.9,-86 2956.1,-86 2956.1,-122"/>
<text text-anchor="middle" x="2880" y="-99.8" font-family="Times,serif" font-size="14.00">ChildDetailsComponent</text>
</g>
<!-- ChildDetailsComponent&#45;&gt;ChildrenModule -->
<g id="edge15" class="edge">
<title>ChildDetailsComponent&#45;&gt;ChildrenModule</title>
<path fill="none" stroke="black" d="M2880,-122.19C2880,-137.18 2880,-156 2880,-156 2880,-156 3519.93,-156 3519.93,-156"/>
<polygon fill="black" stroke="black" points="3519.93,-159.5 3529.93,-156 3519.93,-152.5 3519.93,-159.5"/>
</g>
<!-- ChildSelectComponent -->
<g id="node16" class="node">
<title>ChildSelectComponent</title>
<polygon fill="#ffffb3" stroke="black" points="2786.16,-122 2639.84,-122 2639.84,-86 2786.16,-86 2786.16,-122"/>
<text text-anchor="middle" x="2713" y="-99.8" font-family="Times,serif" font-size="14.00">ChildSelectComponent</text>
</g>
<!-- ChildSelectComponent&#45;&gt;ChildrenModule -->
<g id="edge16" class="edge">
<title>ChildSelectComponent&#45;&gt;ChildrenModule</title>
<path fill="none" stroke="black" d="M2761.14,-122.28C2761.14,-137.95 2761.14,-158 2761.14,-158 2761.14,-158 3519.69,-158 3519.69,-158"/>
<polygon fill="black" stroke="black" points="3519.69,-161.5 3529.69,-158 3519.69,-154.5 3519.69,-161.5"/>
</g>
<!-- ChildrenCountDashboardComponent -->
<g id="node17" class="node">
<title>ChildrenCountDashboardComponent</title>
<polygon fill="#ffffb3" stroke="black" points="2621.69,-122 2396.31,-122 2396.31,-86 2621.69,-86 2621.69,-122"/>
<text text-anchor="middle" x="2509" y="-99.8" font-family="Times,serif" font-size="14.00">ChildrenCountDashboardComponent</text>
</g>
<!-- ChildrenCountDashboardComponent&#45;&gt;ChildrenModule -->
<g id="edge17" class="edge">
<title>ChildrenCountDashboardComponent&#45;&gt;ChildrenModule</title>
<path fill="none" stroke="black" d="M2561.05,-122.03C2561.05,-138.4 2561.05,-160 2561.05,-160 2561.05,-160 3519.72,-160 3519.72,-160"/>
<polygon fill="black" stroke="black" points="3519.72,-163.5 3529.72,-160 3519.72,-156.5 3519.72,-163.5"/>
</g>
<!-- ChildrenListComponent -->
<g id="node18" class="node">
<title>ChildrenListComponent</title>
<polygon fill="#ffffb3" stroke="black" points="2378.1,-122 2225.9,-122 2225.9,-86 2378.1,-86 2378.1,-122"/>
<text text-anchor="middle" x="2302" y="-99.8" font-family="Times,serif" font-size="14.00">ChildrenListComponent</text>
</g>
<!-- ChildrenListComponent&#45;&gt;ChildrenModule -->
<g id="edge18" class="edge">
<title>ChildrenListComponent&#45;&gt;ChildrenModule</title>
<path fill="none" stroke="black" d="M2302,-122.04C2302,-138.73 2302,-161 2302,-161 2302,-161 3519.73,-161 3519.73,-161"/>
<polygon fill="black" stroke="black" points="3519.73,-164.5 3529.73,-161 3519.73,-157.5 3519.73,-164.5"/>
</g>
<!-- DropoutFormComponent -->
<g id="node19" class="node">
<title>DropoutFormComponent</title>
<polygon fill="#ffffb3" stroke="black" points="2208.32,-122 2049.68,-122 2049.68,-86 2208.32,-86 2208.32,-122"/>
<text text-anchor="middle" x="2129" y="-99.8" font-family="Times,serif" font-size="14.00">DropoutFormComponent</text>
</g>
<!-- DropoutFormComponent&#45;&gt;ChildrenModule -->
<g id="edge19" class="edge">
<title>DropoutFormComponent&#45;&gt;ChildrenModule</title>
<path fill="none" stroke="black" d="M2129,-122.02C2129,-139.37 2129,-163 2129,-163 2129,-163 3519.62,-163 3519.62,-163"/>
<polygon fill="black" stroke="black" points="3519.62,-166.5 3529.62,-163 3519.62,-159.5 3519.62,-166.5"/>
</g>
<!-- EducationalMaterialComponent -->
<g id="node20" class="node">
<title>EducationalMaterialComponent</title>
<polygon fill="#ffffb3" stroke="black" points="2031.62,-122 1836.38,-122 1836.38,-86 2031.62,-86 2031.62,-122"/>
<text text-anchor="middle" x="1934" y="-99.8" font-family="Times,serif" font-size="14.00">EducationalMaterialComponent</text>
</g>
<!-- EducationalMaterialComponent&#45;&gt;ChildrenModule -->
<g id="edge20" class="edge">
<title>EducationalMaterialComponent&#45;&gt;ChildrenModule</title>
<path fill="none" stroke="black" d="M1934,-122.3C1934,-140.27 1934,-165 1934,-165 1934,-165 3519.57,-165 3519.57,-165"/>
<polygon fill="black" stroke="black" points="3519.57,-168.5 3529.57,-165 3519.57,-161.5 3519.57,-168.5"/>
</g>
<!-- GroupedChildAttendanceComponent -->
<g id="node21" class="node">
<title>GroupedChildAttendanceComponent</title>
<polygon fill="#ffffb3" stroke="black" points="1818.68,-122 1593.32,-122 1593.32,-86 1818.68,-86 1818.68,-122"/>
<text text-anchor="middle" x="1706" y="-99.8" font-family="Times,serif" font-size="14.00">GroupedChildAttendanceComponent</text>
</g>
<!-- GroupedChildAttendanceComponent&#45;&gt;ChildrenModule -->
<g id="edge21" class="edge">
<title>GroupedChildAttendanceComponent&#45;&gt;ChildrenModule</title>
<path fill="none" stroke="black" d="M1706,-122.27C1706,-140.56 1706,-166 1706,-166 1706,-166 3519.82,-166 3519.82,-166"/>
<polygon fill="black" stroke="black" points="3519.82,-169.5 3529.82,-166 3519.82,-162.5 3519.82,-169.5"/>
</g>
<!-- HealthCheckupComponent -->
<g id="node22" class="node">
<title>HealthCheckupComponent</title>
<polygon fill="#ffffb3" stroke="black" points="1575.42,-122 1406.58,-122 1406.58,-86 1575.42,-86 1575.42,-122"/>
<text text-anchor="middle" x="1491" y="-99.8" font-family="Times,serif" font-size="14.00">HealthCheckupComponent</text>
</g>
<!-- HealthCheckupComponent&#45;&gt;ChildrenModule -->
<g id="edge22" class="edge">
<title>HealthCheckupComponent&#45;&gt;ChildrenModule</title>
<path fill="none" stroke="black" d="M1491,-122.17C1491,-141.09 1491,-168 1491,-168 1491,-168 3519.89,-168 3519.89,-168"/>
<polygon fill="black" stroke="black" points="3519.89,-171.5 3529.89,-168 3519.89,-164.5 3519.89,-171.5"/>
</g>
<!-- HealthFormComponent -->
<g id="node23" class="node">
<title>HealthFormComponent</title>
<polygon fill="#ffffb3" stroke="black" points="1388.48,-122 1239.52,-122 1239.52,-86 1388.48,-86 1388.48,-122"/>
<text text-anchor="middle" x="1314" y="-99.8" font-family="Times,serif" font-size="14.00">HealthFormComponent</text>
</g>
<!-- HealthFormComponent&#45;&gt;ChildrenModule -->
<g id="edge23" class="edge">
<title>HealthFormComponent&#45;&gt;ChildrenModule</title>
<path fill="none" stroke="black" d="M1314,-122.11C1314,-141.34 1314,-169 1314,-169 1314,-169 3519.85,-169 3519.85,-169"/>
<polygon fill="black" stroke="black" points="3519.85,-172.5 3529.85,-169 3519.85,-165.5 3519.85,-172.5"/>
</g>
<!-- NoRecentNotesDashboardComponent -->
<g id="node24" class="node">
<title>NoRecentNotesDashboardComponent</title>
<polygon fill="#ffffb3" stroke="black" points="1221.11,-122 990.89,-122 990.89,-86 1221.11,-86 1221.11,-122"/>
<text text-anchor="middle" x="1106" y="-99.8" font-family="Times,serif" font-size="14.00">NoRecentNotesDashboardComponent</text>
</g>
<!-- NoRecentNotesDashboardComponent&#45;&gt;ChildrenModule -->
<g id="edge24" class="edge">
<title>NoRecentNotesDashboardComponent&#45;&gt;ChildrenModule</title>
<path fill="none" stroke="black" d="M1106,-122.31C1106,-142.15 1106,-171 1106,-171 1106,-171 3519.94,-171 3519.94,-171"/>
<polygon fill="black" stroke="black" points="3519.94,-174.5 3529.94,-171 3519.94,-167.5 3519.94,-174.5"/>
</g>
<!-- NotesOfChildComponent -->
<g id="node25" class="node">
<title>NotesOfChildComponent</title>
<polygon fill="#ffffb3" stroke="black" points="972.87,-122 813.13,-122 813.13,-86 972.87,-86 972.87,-122"/>
<text text-anchor="middle" x="893" y="-99.8" font-family="Times,serif" font-size="14.00">NotesOfChildComponent</text>
</g>
<!-- NotesOfChildComponent&#45;&gt;ChildrenModule -->
<g id="edge25" class="edge">
<title>NotesOfChildComponent&#45;&gt;ChildrenModule</title>
<path fill="none" stroke="black" d="M893,-122.13C893,-142.57 893,-173 893,-173 893,-173 3519.94,-173 3519.94,-173"/>
<polygon fill="black" stroke="black" points="3519.94,-176.5 3529.94,-173 3519.94,-169.5 3519.94,-176.5"/>
</g>
<!-- PreviousSchoolsComponent -->
<g id="node26" class="node">
<title>PreviousSchoolsComponent</title>
<polygon fill="#ffffb3" stroke="black" points="795.16,-122 620.84,-122 620.84,-86 795.16,-86 795.16,-122"/>
<text text-anchor="middle" x="708" y="-99.8" font-family="Times,serif" font-size="14.00">PreviousSchoolsComponent</text>
</g>
<!-- PreviousSchoolsComponent&#45;&gt;ChildrenModule -->
<g id="edge26" class="edge">
<title>PreviousSchoolsComponent&#45;&gt;ChildrenModule</title>
<path fill="none" stroke="black" d="M708,-122.03C708,-142.77 708,-174 708,-174 708,-174 3519.75,-174 3519.75,-174"/>
<polygon fill="black" stroke="black" points="3519.75,-177.5 3529.75,-174 3519.75,-170.5 3519.75,-177.5"/>
</g>
<!-- RecentNotesDashboardComponent -->
<g id="node27" class="node">
<title>RecentNotesDashboardComponent</title>
<polygon fill="#ffffb3" stroke="black" points="602.5,-122 389.5,-122 389.5,-86 602.5,-86 602.5,-122"/>
<text text-anchor="middle" x="496" y="-99.8" font-family="Times,serif" font-size="14.00">RecentNotesDashboardComponent</text>
</g>
<!-- RecentNotesDashboardComponent&#45;&gt;ChildrenModule -->
<g id="edge27" class="edge">
<title>RecentNotesDashboardComponent&#45;&gt;ChildrenModule</title>
<path fill="none" stroke="black" d="M496,-122.17C496,-143.5 496,-176 496,-176 496,-176 3519.75,-176 3519.75,-176"/>
<polygon fill="black" stroke="black" points="3519.75,-179.5 3529.75,-176 3519.75,-172.5 3519.75,-179.5"/>
</g>
<!-- RollCallComponent -->
<g id="node28" class="node">
<title>RollCallComponent</title>
<polygon fill="#ffffb3" stroke="black" points="371.28,-122 242.72,-122 242.72,-86 371.28,-86 371.28,-122"/>
<text text-anchor="middle" x="307" y="-99.8" font-family="Times,serif" font-size="14.00">RollCallComponent</text>
</g>
<!-- RollCallComponent&#45;&gt;ChildrenModule -->
<g id="edge28" class="edge">
<title>RollCallComponent&#45;&gt;ChildrenModule</title>
<path fill="none" stroke="black" d="M307,-122.29C307,-144.21 307,-178 307,-178 307,-178 3519.86,-178 3519.86,-178"/>
<polygon fill="black" stroke="black" points="3519.86,-181.5 3529.86,-178 3519.86,-174.5 3519.86,-181.5"/>
</g>
<!-- SelectGroupChildrenComponent -->
<g id="node29" class="node">
<title>SelectGroupChildrenComponent</title>
<polygon fill="#ffffb3" stroke="black" points="224.3,-122 23.7,-122 23.7,-86 224.3,-86 224.3,-122"/>
<text text-anchor="middle" x="124" y="-99.8" font-family="Times,serif" font-size="14.00">SelectGroupChildrenComponent</text>
</g>
<!-- SelectGroupChildrenComponent&#45;&gt;ChildrenModule -->
<g id="edge29" class="edge">
<title>SelectGroupChildrenComponent&#45;&gt;ChildrenModule</title>
<path fill="none" stroke="black" d="M124,-122.16C124,-144.35 124,-179 124,-179 124,-179 3519.65,-179 3519.65,-179"/>
<polygon fill="black" stroke="black" points="3519.65,-182.5 3529.65,-179 3519.65,-175.5 3519.65,-182.5"/>
</g>
<!-- AttendanceAverageDashboardComponent  -->
<g id="node37" class="node">
<title>AttendanceAverageDashboardComponent </title>
<polygon fill="#fb8072" stroke="black" points="4563.13,-252 4306.87,-252 4306.87,-216 4563.13,-216 4563.13,-252"/>
<text text-anchor="middle" x="4435" y="-229.8" font-family="Times,serif" font-size="14.00">AttendanceAverageDashboardComponent </text>
</g>
<!-- ChildrenModule&#45;&gt;AttendanceAverageDashboardComponent  -->
<g id="edge36" class="edge">
<title>ChildrenModule&#45;&gt;AttendanceAverageDashboardComponent </title>
<path fill="none" stroke="black" stroke-dasharray="5,2" d="M3638.14,-181C3817.48,-181 4380.8,-181 4380.8,-181 4380.8,-181 4380.8,-205.76 4380.8,-205.76"/>
<polygon fill="black" stroke="black" points="4377.3,-205.76 4380.8,-215.76 4384.3,-205.76 4377.3,-205.76"/>
</g>
<!-- AttendanceDaysComponent  -->
<g id="node38" class="node">
<title>AttendanceDaysComponent </title>
<polygon fill="#fb8072" stroke="black" points="4288.84,-252 4111.16,-252 4111.16,-216 4288.84,-216 4288.84,-252"/>
<text text-anchor="middle" x="4200" y="-229.8" font-family="Times,serif" font-size="14.00">AttendanceDaysComponent </text>
</g>
<!-- ChildrenModule&#45;&gt;AttendanceDaysComponent  -->
<g id="edge37" class="edge">
<title>ChildrenModule&#45;&gt;AttendanceDaysComponent </title>
<path fill="none" stroke="black" stroke-dasharray="5,2" d="M3638.07,-183C3786.17,-183 4187.35,-183 4187.35,-183 4187.35,-183 4187.35,-205.88 4187.35,-205.88"/>
<polygon fill="black" stroke="black" points="4183.85,-205.88 4187.35,-215.88 4190.85,-205.88 4183.85,-205.88"/>
</g>
<!-- AttendanceWarningsDashboardComponent  -->
<g id="node39" class="node">
<title>AttendanceWarningsDashboardComponent </title>
<polygon fill="#fb8072" stroke="black" points="4093.64,-252 3830.36,-252 3830.36,-216 4093.64,-216 4093.64,-252"/>
<text text-anchor="middle" x="3962" y="-229.8" font-family="Times,serif" font-size="14.00">AttendanceWarningsDashboardComponent </text>
</g>
<!-- ChildrenModule&#45;&gt;AttendanceWarningsDashboardComponent  -->
<g id="edge38" class="edge">
<title>ChildrenModule&#45;&gt;AttendanceWarningsDashboardComponent </title>
<path fill="none" stroke="black" stroke-dasharray="5,2" d="M3638.09,-186C3712.18,-186 3836.14,-186 3836.14,-186 3836.14,-186 3836.14,-205.85 3836.14,-205.85"/>
<polygon fill="black" stroke="black" points="3832.64,-205.85 3836.14,-215.85 3839.64,-205.85 3832.64,-205.85"/>
</g>
<!-- ChildrenModule&#45;&gt;AttendanceWarningsDashboardComponent  -->
<g id="edge39" class="edge">
<title>ChildrenModule&#45;&gt;AttendanceWarningsDashboardComponent </title>
<path fill="none" stroke="black" stroke-dasharray="5,2" d="M3638.11,-184C3713.79,-184 3842.11,-184 3842.11,-184 3842.11,-184 3842.11,-205.95 3842.11,-205.95"/>
<polygon fill="black" stroke="black" points="3838.61,-205.95 3842.11,-215.95 3845.61,-205.95 3838.61,-205.95"/>
</g>
<!-- AttendanceWeekDashboardComponent  -->
<g id="node40" class="node">
<title>AttendanceWeekDashboardComponent </title>
<polygon fill="#fb8072" stroke="black" points="3811.86,-252 3570.14,-252 3570.14,-216 3811.86,-216 3811.86,-252"/>
<text text-anchor="middle" x="3691" y="-229.8" font-family="Times,serif" font-size="14.00">AttendanceWeekDashboardComponent </text>
</g>
<!-- ChildrenModule&#45;&gt;AttendanceWeekDashboardComponent  -->
<g id="edge40" class="edge">
<title>ChildrenModule&#45;&gt;AttendanceWeekDashboardComponent </title>
<path fill="none" stroke="black" stroke-dasharray="5,2" d="M3604.17,-187.11C3604.17,-187.11 3604.17,-205.99 3604.17,-205.99"/>
<polygon fill="black" stroke="black" points="3600.67,-205.99 3604.17,-215.99 3607.67,-205.99 3600.67,-205.99"/>
</g>
<!-- ChildBlockComponent  -->
<g id="node41" class="node">
<title>ChildBlockComponent </title>
<polygon fill="#fb8072" stroke="black" points="3551.89,-252 3402.11,-252 3402.11,-216 3551.89,-216 3551.89,-252"/>
<text text-anchor="middle" x="3477" y="-229.8" font-family="Times,serif" font-size="14.00">ChildBlockComponent </text>
</g>
<!-- ChildrenModule&#45;&gt;ChildBlockComponent  -->
<g id="edge41" class="edge">
<title>ChildrenModule&#45;&gt;ChildBlockComponent </title>
<path fill="none" stroke="black" stroke-dasharray="5,2" d="M3540.71,-187.11C3540.71,-187.11 3540.71,-205.99 3540.71,-205.99"/>
<polygon fill="black" stroke="black" points="3537.21,-205.99 3540.71,-215.99 3544.21,-205.99 3537.21,-205.99"/>
</g>
<!-- ChildSelectComponent  -->
<g id="node42" class="node">
<title>ChildSelectComponent </title>
<polygon fill="#fb8072" stroke="black" points="3384.16,-252 3233.84,-252 3233.84,-216 3384.16,-216 3384.16,-252"/>
<text text-anchor="middle" x="3309" y="-229.8" font-family="Times,serif" font-size="14.00">ChildSelectComponent </text>
</g>
<!-- ChildrenModule&#45;&gt;ChildSelectComponent  -->
<g id="edge42" class="edge">
<title>ChildrenModule&#45;&gt;ChildSelectComponent </title>
<path fill="none" stroke="black" stroke-dasharray="5,2" d="M3529.86,-186C3462.98,-186 3357.95,-186 3357.95,-186 3357.95,-186 3357.95,-205.85 3357.95,-205.85"/>
<polygon fill="black" stroke="black" points="3354.45,-205.85 3357.95,-215.85 3361.45,-205.85 3354.45,-205.85"/>
</g>
<!-- ChildrenCountDashboardComponent  -->
<g id="node43" class="node">
<title>ChildrenCountDashboardComponent </title>
<polygon fill="#fb8072" stroke="black" points="3216.19,-252 2987.81,-252 2987.81,-216 3216.19,-216 3216.19,-252"/>
<text text-anchor="middle" x="3102" y="-229.8" font-family="Times,serif" font-size="14.00">ChildrenCountDashboardComponent </text>
</g>
<!-- ChildrenModule&#45;&gt;ChildrenCountDashboardComponent  -->
<g id="edge43" class="edge">
<title>ChildrenModule&#45;&gt;ChildrenCountDashboardComponent </title>
<path fill="none" stroke="black" stroke-dasharray="5,2" d="M3529.55,-184C3418.68,-184 3177.12,-184 3177.12,-184 3177.12,-184 3177.12,-205.95 3177.12,-205.95"/>
<polygon fill="black" stroke="black" points="3173.62,-205.95 3177.12,-215.95 3180.62,-205.95 3173.62,-205.95"/>
</g>
<!-- NoRecentNotesDashboardComponent  -->
<g id="node44" class="node">
<title>NoRecentNotesDashboardComponent </title>
<polygon fill="#fb8072" stroke="black" points="2970.11,-252 2735.89,-252 2735.89,-216 2970.11,-216 2970.11,-252"/>
<text text-anchor="middle" x="2853" y="-229.8" font-family="Times,serif" font-size="14.00">NoRecentNotesDashboardComponent </text>
</g>
<!-- ChildrenModule&#45;&gt;NoRecentNotesDashboardComponent  -->
<g id="edge44" class="edge">
<title>ChildrenModule&#45;&gt;NoRecentNotesDashboardComponent </title>
<path fill="none" stroke="black" stroke-dasharray="5,2" d="M3529.71,-183C3378.41,-183 2963.05,-183 2963.05,-183 2963.05,-183 2963.05,-205.88 2963.05,-205.88"/>
<polygon fill="black" stroke="black" points="2959.55,-205.88 2963.05,-215.88 2966.55,-205.88 2959.55,-205.88"/>
</g>
<!-- RecentNotesDashboardComponent  -->
<g id="node45" class="node">
<title>RecentNotesDashboardComponent </title>
<polygon fill="#fb8072" stroke="black" points="2717.5,-252 2500.5,-252 2500.5,-216 2717.5,-216 2717.5,-252"/>
<text text-anchor="middle" x="2609" y="-229.8" font-family="Times,serif" font-size="14.00">RecentNotesDashboardComponent </text>
</g>
<!-- ChildrenModule&#45;&gt;RecentNotesDashboardComponent  -->
<g id="edge45" class="edge">
<title>ChildrenModule&#45;&gt;RecentNotesDashboardComponent </title>
<path fill="none" stroke="black" stroke-dasharray="5,2" d="M3529.74,-181C3334.4,-181 2678.59,-181 2678.59,-181 2678.59,-181 2678.59,-205.76 2678.59,-205.76"/>
<polygon fill="black" stroke="black" points="2675.09,-205.76 2678.59,-215.76 2682.09,-205.76 2675.09,-205.76"/>
</g>
<!-- AdminModule -->
<g id="node31" class="node">
<title>AdminModule</title>
<polygon fill="#8dd3c7" stroke="black" points="6963.44,-122 6960.44,-126 6939.44,-126 6936.44,-122 6864.56,-122 6864.56,-86 6963.44,-86 6963.44,-122"/>
<text text-anchor="middle" x="6914" y="-99.8" font-family="Times,serif" font-size="14.00">AdminModule</text>
</g>
<!-- AdminModule&#45;&gt;ChildrenModule -->
<g id="edge30" class="edge">
<title>AdminModule&#45;&gt;ChildrenModule</title>
<path fill="none" stroke="black" d="M6914,-122.16C6914,-144.35 6914,-179 6914,-179 6914,-179 3648.34,-179 3648.34,-179"/>
<polygon fill="black" stroke="black" points="3648.34,-175.5 3638.34,-179 3648.34,-182.5 3648.34,-175.5"/>
</g>
<!-- ConfirmationDialogModule -->
<g id="node32" class="node">
<title>ConfirmationDialogModule</title>
<polygon fill="#8dd3c7" stroke="black" points="6846.59,-122 6843.59,-126 6822.59,-126 6819.59,-122 6673.41,-122 6673.41,-86 6846.59,-86 6846.59,-122"/>
<text text-anchor="middle" x="6760" y="-99.8" font-family="Times,serif" font-size="14.00">ConfirmationDialogModule</text>
</g>
<!-- ConfirmationDialogModule&#45;&gt;ChildrenModule -->
<g id="edge31" class="edge">
<title>ConfirmationDialogModule&#45;&gt;ChildrenModule</title>
<path fill="none" stroke="black" d="M6760,-122.29C6760,-144.21 6760,-178 6760,-178 6760,-178 3648.12,-178 3648.12,-178"/>
<polygon fill="black" stroke="black" points="3648.12,-174.5 3638.12,-178 3648.12,-181.5 3648.12,-174.5"/>
</g>
<!-- EntitySubrecordModule -->
<g id="node33" class="node">
<title>EntitySubrecordModule</title>
<polygon fill="#8dd3c7" stroke="black" points="6655.81,-122 6652.81,-126 6631.81,-126 6628.81,-122 6504.19,-122 6504.19,-86 6655.81,-86 6655.81,-122"/>
<text text-anchor="middle" x="6580" y="-99.8" font-family="Times,serif" font-size="14.00">EntitySubrecordModule</text>
</g>
<!-- EntitySubrecordModule&#45;&gt;ChildrenModule -->
<g id="edge32" class="edge">
<title>EntitySubrecordModule&#45;&gt;ChildrenModule</title>
<path fill="none" stroke="black" d="M6580,-122.17C6580,-143.5 6580,-176 6580,-176 6580,-176 3648.24,-176 3648.24,-176"/>
<polygon fill="black" stroke="black" points="3648.24,-172.5 3638.24,-176 3648.24,-179.5 3648.24,-172.5"/>
</g>
<!-- FormDialogModule -->
<g id="node34" class="node">
<title>FormDialogModule</title>
<polygon fill="#8dd3c7" stroke="black" points="6485.99,-122 6482.99,-126 6461.99,-126 6458.99,-122 6358.01,-122 6358.01,-86 6485.99,-86 6485.99,-122"/>
<text text-anchor="middle" x="6422" y="-99.8" font-family="Times,serif" font-size="14.00">FormDialogModule</text>
</g>
<!-- FormDialogModule&#45;&gt;ChildrenModule -->
<g id="edge33" class="edge">
<title>FormDialogModule&#45;&gt;ChildrenModule</title>
<path fill="none" stroke="black" d="M6422,-122.03C6422,-142.77 6422,-174 6422,-174 6422,-174 3648.16,-174 3648.16,-174"/>
<polygon fill="black" stroke="black" points="3648.16,-170.5 3638.16,-174 3648.16,-177.5 3648.16,-170.5"/>
</g>
<!-- SchoolsModule -->
<g id="node35" class="node">
<title>SchoolsModule</title>
<polygon fill="#8dd3c7" stroke="black" points="6339.88,-122 6336.88,-126 6315.88,-126 6312.88,-122 6236.12,-122 6236.12,-86 6339.88,-86 6339.88,-122"/>
<text text-anchor="middle" x="6288" y="-99.8" font-family="Times,serif" font-size="14.00">SchoolsModule</text>
</g>
<!-- SchoolsModule&#45;&gt;ChildrenModule -->
<g id="edge34" class="edge">
<title>SchoolsModule&#45;&gt;ChildrenModule</title>
<path fill="none" stroke="black" d="M6288,-122.13C6288,-142.57 6288,-173 6288,-173 6288,-173 3648.32,-173 3648.32,-173"/>
<polygon fill="black" stroke="black" points="3648.32,-169.5 3638.32,-173 3648.32,-176.5 3648.32,-169.5"/>
</g>
<!-- WebdavModule -->
<g id="node36" class="node">
<title>WebdavModule</title>
<polygon fill="#8dd3c7" stroke="black" points="6218.19,-122 6215.19,-126 6194.19,-126 6191.19,-122 6111.81,-122 6111.81,-86 6218.19,-86 6218.19,-122"/>
<text text-anchor="middle" x="6165" y="-99.8" font-family="Times,serif" font-size="14.00">WebdavModule</text>
</g>
<!-- WebdavModule&#45;&gt;ChildrenModule -->
<g id="edge35" class="edge">
<title>WebdavModule&#45;&gt;ChildrenModule</title>
<path fill="none" stroke="black" d="M6165,-122.31C6165,-142.15 6165,-171 6165,-171 6165,-171 3648.21,-171 3648.21,-171"/>
<polygon fill="black" stroke="black" points="3648.21,-167.5 3638.21,-171 3648.21,-174.5 3648.21,-167.5"/>
</g>
<!-- ChildrenService -->
<g id="node46" class="node">
<title>ChildrenService</title>
<ellipse fill="#fdb462" stroke="black" cx="6014" cy="-104" rx="73.57" ry="18"/>
<text text-anchor="middle" x="6014" y="-99.8" font-family="Times,serif" font-size="14.00">ChildrenService</text>
</g>
<!-- ChildrenService&#45;&gt;ChildrenModule -->
<g id="edge46" class="edge">
<title>ChildrenService&#45;&gt;ChildrenModule</title>
<path fill="none" stroke="black" d="M6014,-122.11C6014,-141.34 6014,-169 6014,-169 6014,-169 3648.16,-169 3648.16,-169"/>
<polygon fill="black" stroke="black" points="3648.16,-165.5 3638.16,-169 3648.16,-172.5 3648.16,-165.5"/>
</g>
</g>
</svg>
