<?xml version="1.0" encoding="UTF-8" standalone="no"?>
<!DOCTYPE svg PUBLIC "-//W3C//DTD SVG 1.1//EN"
 "http://www.w3.org/Graphics/SVG/1.1/DTD/svg11.dtd">
<!-- Generated by graphviz version 2.44.1 (20200629.0846)
 -->
<!-- Title: dependencies Pages: 1 -->
<svg width="504pt" height="284pt"
 viewBox="0.00 0.00 504.00 284.00" xmlns="http://www.w3.org/2000/svg" xmlns:xlink="http://www.w3.org/1999/xlink">
<g id="graph0" class="graph" transform="scale(1 1) rotate(0) translate(4 280)">
<title>dependencies</title>
<polygon fill="white" stroke="transparent" points="-4,4 -4,-280 500,-280 500,4 -4,4"/>
<text text-anchor="start" x="227.01" y="-42.4" font-family="sans-serif" font-weight="bold" font-size="14.00">Legend</text>
<polygon fill="#ffffb3" stroke="transparent" points="14,-10 14,-30 34,-30 34,-10 14,-10"/>
<text text-anchor="start" x="37.63" y="-15.4" font-family="sans-serif" font-size="14.00"> &#160;Declarations</text>
<polygon fill="#8dd3c7" stroke="transparent" points="127,-10 127,-30 147,-30 147,-10 127,-10"/>
<text text-anchor="start" x="150.73" y="-15.4" font-family="sans-serif" font-size="14.00"> &#160;Module</text>
<polygon fill="#80b1d3" stroke="transparent" points="213,-10 213,-30 233,-30 233,-10 213,-10"/>
<text text-anchor="start" x="236.78" y="-15.4" font-family="sans-serif" font-size="14.00"> &#160;Bootstrap</text>
<polygon fill="#fdb462" stroke="transparent" points="310,-10 310,-30 330,-30 330,-10 310,-10"/>
<text text-anchor="start" x="333.67" y="-15.4" font-family="sans-serif" font-size="14.00"> &#160;Providers</text>
<polygon fill="#fb8072" stroke="transparent" points="406,-10 406,-30 426,-30 426,-10 406,-10"/>
<text text-anchor="start" x="429.73" y="-15.4" font-family="sans-serif" font-size="14.00"> &#160;Exports</text>
<g id="clust1" class="cluster">
<title>cluster_SessionModule</title>
<polygon fill="none" stroke="black" stroke-dasharray="1,5" points="8,-70 8,-268 488,-268 488,-70 8,-70"/>
</g>
<g id="clust2" class="cluster">
<title>cluster_SessionModule_declarations</title>
<polygon fill="none" stroke="black" points="350,-78 350,-130 480,-130 480,-78 350,-78"/>
</g>
<g id="clust4" class="cluster">
<title>cluster_SessionModule_imports</title>
<polygon fill="none" stroke="black" points="16,-78 16,-130 342,-130 342,-78 16,-78"/>
</g>
<g id="clust5" class="cluster">
<title>cluster_SessionModule_exports</title>
<polygon fill="none" stroke="black" points="164,-208 164,-260 298,-260 298,-208 164,-208"/>
</g>
<!-- LoginComponent -->
<g id="node1" class="node">
<title>LoginComponent</title>
<polygon fill="#ffffb3" stroke="black" points="472.28,-122 357.72,-122 357.72,-86 472.28,-86 472.28,-122"/>
<text text-anchor="middle" x="415" y="-99.8" font-family="Times,serif" font-size="14.00">LoginComponent</text>
</g>
<!-- SessionModule -->
<g id="node2" class="node">
<title>SessionModule</title>
<polygon fill="#8dd3c7" stroke="black" points="282.33,-187 279.33,-191 258.33,-191 255.33,-187 179.67,-187 179.67,-151 282.33,-151 282.33,-187"/>
<text text-anchor="middle" x="231" y="-164.8" font-family="Times,serif" font-size="14.00">SessionModule</text>
</g>
<!-- LoginComponent&#45;&gt;SessionModule -->
<g id="edge1" class="edge">
<title>LoginComponent&#45;&gt;SessionModule</title>
<path fill="none" stroke="black" d="M415,-122.11C415,-141.34 415,-169 415,-169 415,-169 292.25,-169 292.25,-169"/>
<polygon fill="black" stroke="black" points="292.25,-165.5 282.25,-169 292.25,-172.5 292.25,-165.5"/>
</g>
<!-- LoginComponent  -->
<g id="node6" class="node">
<title>LoginComponent </title>
<polygon fill="#fb8072" stroke="black" points="290.28,-252 171.72,-252 171.72,-216 290.28,-216 290.28,-252"/>
<text text-anchor="middle" x="231" y="-229.8" font-family="Times,serif" font-size="14.00">LoginComponent </text>
</g>
<!-- SessionModule&#45;&gt;LoginComponent  -->
<g id="edge5" class="edge">
<title>SessionModule&#45;&gt;LoginComponent </title>
<path fill="none" stroke="black" stroke-dasharray="5,2" d="M231,-187.11C231,-187.11 231,-205.99 231,-205.99"/>
<polygon fill="black" stroke="black" points="227.5,-205.99 231,-215.99 234.5,-205.99 227.5,-205.99"/>
</g>
<!-- AlertsModule -->
<g id="node3" class="node">
<title>AlertsModule</title>
<polygon fill="#8dd3c7" stroke="black" points="333.76,-122 330.76,-126 309.76,-126 306.76,-122 240.24,-122 240.24,-86 333.76,-86 333.76,-122"/>
<text text-anchor="middle" x="287" y="-99.8" font-family="Times,serif" font-size="14.00">AlertsModule</text>
</g>
<!-- AlertsModule&#45;&gt;SessionModule -->
<g id="edge2" class="edge">
<title>AlertsModule&#45;&gt;SessionModule</title>
<path fill="none" stroke="black" d="M261.14,-122.11C261.14,-122.11 261.14,-140.99 261.14,-140.99"/>
<polygon fill="black" stroke="black" points="257.64,-140.99 261.14,-150.99 264.64,-140.99 257.64,-140.99"/>
</g>
<!-- EntityModule -->
<g id="node4" class="node">
<title>EntityModule</title>
<polygon fill="#8dd3c7" stroke="black" points="221.77,-122 218.77,-126 197.77,-126 194.77,-122 128.23,-122 128.23,-86 221.77,-86 221.77,-122"/>
<text text-anchor="middle" x="175" y="-99.8" font-family="Times,serif" font-size="14.00">EntityModule</text>
</g>
<!-- EntityModule&#45;&gt;SessionModule -->
<g id="edge3" class="edge">
<title>EntityModule&#45;&gt;SessionModule</title>
<path fill="none" stroke="black" d="M200.86,-122.11C200.86,-122.11 200.86,-140.99 200.86,-140.99"/>
<polygon fill="black" stroke="black" points="197.36,-140.99 200.86,-150.99 204.36,-140.99 197.36,-140.99"/>
</g>
<!-- UserModule -->
<g id="node5" class="node">
<title>UserModule</title>
<polygon fill="#8dd3c7" stroke="black" points="109.98,-122 106.98,-126 85.98,-126 82.98,-122 24.02,-122 24.02,-86 109.98,-86 109.98,-122"/>
<text text-anchor="middle" x="67" y="-99.8" font-family="Times,serif" font-size="14.00">UserModule</text>
</g>
<!-- UserModule&#45;&gt;SessionModule -->
<g id="edge4" class="edge">
<title>UserModule&#45;&gt;SessionModule</title>
<path fill="none" stroke="black" d="M67,-122.11C67,-141.34 67,-169 67,-169 67,-169 169.56,-169 169.56,-169"/>
<polygon fill="black" stroke="black" points="169.56,-172.5 179.56,-169 169.56,-165.5 169.56,-172.5"/>
</g>
</g>
</svg>
