<?xml version="1.0" encoding="UTF-8" standalone="no"?>
<!DOCTYPE svg PUBLIC "-//W3C//DTD SVG 1.1//EN"
 "http://www.w3.org/Graphics/SVG/1.1/DTD/svg11.dtd">
<!-- Generated by graphviz version 2.40.1 (20161225.0304)
 -->
<!-- Title: dependencies Pages: 1 -->
<svg width="1613pt" height="211pt"
 viewBox="0.00 0.00 1613.00 211.00" xmlns="http://www.w3.org/2000/svg" xmlns:xlink="http://www.w3.org/1999/xlink">
<g id="graph0" class="graph" transform="scale(1 1) rotate(0) translate(4 207)">
<title>dependencies</title>
<polygon fill="#ffffff" stroke="transparent" points="-4,4 -4,-207 1609,-207 1609,4 -4,4"/>
<text text-anchor="start" x="781.5091" y="-42.4" font-family="sans-serif" font-weight="bold" font-size="14.00" fill="#000000">Legend</text>
<polygon fill="#ffffb3" stroke="transparent" points="568.5,-10 568.5,-30 588.5,-30 588.5,-10 568.5,-10"/>
<text text-anchor="start" x="592.129" y="-15.4" font-family="sans-serif" font-size="14.00" fill="#000000"> &#160;Declarations</text>
<polygon fill="#8dd3c7" stroke="transparent" points="681.5,-10 681.5,-30 701.5,-30 701.5,-10 681.5,-10"/>
<text text-anchor="start" x="705.2251" y="-15.4" font-family="sans-serif" font-size="14.00" fill="#000000"> &#160;Module</text>
<polygon fill="#80b1d3" stroke="transparent" points="767.5,-10 767.5,-30 787.5,-30 787.5,-10 767.5,-10"/>
<text text-anchor="start" x="791.2812" y="-15.4" font-family="sans-serif" font-size="14.00" fill="#000000"> &#160;Bootstrap</text>
<polygon fill="#fdb462" stroke="transparent" points="864.5,-10 864.5,-30 884.5,-30 884.5,-10 864.5,-10"/>
<text text-anchor="start" x="888.1732" y="-15.4" font-family="sans-serif" font-size="14.00" fill="#000000"> &#160;Providers</text>
<polygon fill="#fb8072" stroke="transparent" points="960.5,-10 960.5,-30 980.5,-30 980.5,-10 960.5,-10"/>
<text text-anchor="start" x="984.2258" y="-15.4" font-family="sans-serif" font-size="14.00" fill="#000000"> &#160;Exports</text>
<g id="clust1" class="cluster">
<title>cluster_NotesModule</title>
<polygon fill="none" stroke="#000000" stroke-dasharray="1,5" points="8,-70 8,-195 1597,-195 1597,-70 8,-70"/>
</g>
<g id="clust2" class="cluster">
<title>cluster_NotesModule_declarations</title>
<polygon fill="none" stroke="#000000" points="777,-78 777,-130 1589,-130 1589,-78 777,-78"/>
</g>
<g id="clust7" class="cluster">
<title>cluster_NotesModule_imports</title>
<polygon fill="none" stroke="#000000" points="16,-78 16,-130 769,-130 769,-78 16,-78"/>
</g>
<!-- ChildMeetingNoteAttendanceComponent -->
<g id="node1" class="node">
<title>ChildMeetingNoteAttendanceComponent</title>
<polygon fill="#ffffb3" stroke="#000000" points="1581.0632,-122 1330.9368,-122 1330.9368,-86 1581.0632,-86 1581.0632,-122"/>
<text text-anchor="middle" x="1456" y="-99.8" font-family="Times,serif" font-size="14.00" fill="#000000">ChildMeetingNoteAttendanceComponent</text>
</g>
<!-- NotesModule -->
<g id="node5" class="node">
<title>NotesModule</title>
<polygon fill="#8dd3c7" stroke="#000000" points="753.2064,-187 750.2064,-191 729.2064,-191 726.2064,-187 660.7936,-187 660.7936,-151 753.2064,-151 753.2064,-187"/>
<text text-anchor="middle" x="707" y="-164.8" font-family="Times,serif" font-size="14.00" fill="#000000">NotesModule</text>
</g>
<!-- ChildMeetingNoteAttendanceComponent&#45;&gt;NotesModule -->
<g id="edge1" class="edge">
<title>ChildMeetingNoteAttendanceComponent&#45;&gt;NotesModule</title>
<path fill="none" stroke="#000000" d="M1456,-122.0109C1456,-144.4852 1456,-180 1456,-180 1456,-180 763.2881,-180 763.2881,-180"/>
<polygon fill="#000000" stroke="#000000" points="763.2881,-176.5001 753.2881,-180 763.288,-183.5001 763.2881,-176.5001"/>
</g>
<!-- NoteDetailsComponent -->
<g id="node2" class="node">
<title>NoteDetailsComponent</title>
<polygon fill="#ffffb3" stroke="#000000" points="1313.1965,-122 1164.8035,-122 1164.8035,-86 1313.1965,-86 1313.1965,-122"/>
<text text-anchor="middle" x="1239" y="-99.8" font-family="Times,serif" font-size="14.00" fill="#000000">NoteDetailsComponent</text>
</g>
<!-- NoteDetailsComponent&#45;&gt;NotesModule -->
<g id="edge2" class="edge">
<title>NoteDetailsComponent&#45;&gt;NotesModule</title>
<path fill="none" stroke="#000000" d="M1239,-122.1289C1239,-142.5724 1239,-173 1239,-173 1239,-173 763.2809,-173 763.2809,-173"/>
<polygon fill="#000000" stroke="#000000" points="763.2809,-169.5001 753.2809,-173 763.2808,-176.5001 763.2809,-169.5001"/>
</g>
<!-- NotePresenceListComponent -->
<g id="node3" class="node">
<title>NotePresenceListComponent</title>
<polygon fill="#ffffb3" stroke="#000000" points="1147.0688,-122 966.9312,-122 966.9312,-86 1147.0688,-86 1147.0688,-122"/>
<text text-anchor="middle" x="1057" y="-99.8" font-family="Times,serif" font-size="14.00" fill="#000000">NotePresenceListComponent</text>
</g>
<!-- NotePresenceListComponent&#45;&gt;NotesModule -->
<g id="edge3" class="edge">
<title>NotePresenceListComponent&#45;&gt;NotesModule</title>
<path fill="none" stroke="#000000" d="M1057,-122.2667C1057,-140.5552 1057,-166 1057,-166 1057,-166 763.1163,-166 763.1163,-166"/>
<polygon fill="#000000" stroke="#000000" points="763.1163,-162.5001 753.1163,-166 763.1163,-169.5001 763.1163,-162.5001"/>
</g>
<!-- NotesManagerComponent -->
<g id="node4" class="node">
<title>NotesManagerComponent</title>
<polygon fill="#ffffb3" stroke="#000000" points="948.738,-122 785.262,-122 785.262,-86 948.738,-86 948.738,-122"/>
<text text-anchor="middle" x="867" y="-99.8" font-family="Times,serif" font-size="14.00" fill="#000000">NotesManagerComponent</text>
</g>
<!-- NotesManagerComponent&#45;&gt;NotesModule -->
<g id="edge4" class="edge">
<title>NotesManagerComponent&#45;&gt;NotesModule</title>
<path fill="none" stroke="#000000" d="M867,-122.0091C867,-138.0494 867,-159 867,-159 867,-159 763.2786,-159 763.2786,-159"/>
<polygon fill="#000000" stroke="#000000" points="763.2787,-155.5001 753.2786,-159 763.2786,-162.5001 763.2787,-155.5001"/>
</g>
<!-- ChildrenModule -->
<g id="node6" class="node">
<title>ChildrenModule</title>
<polygon fill="#8dd3c7" stroke="#000000" points="761.0438,-122 758.0438,-126 737.0438,-126 734.0438,-122 652.9562,-122 652.9562,-86 761.0438,-86 761.0438,-122"/>
<text text-anchor="middle" x="707" y="-99.8" font-family="Times,serif" font-size="14.00" fill="#000000">ChildrenModule</text>
</g>
<!-- ChildrenModule&#45;&gt;NotesModule -->
<g id="edge5" class="edge">
<title>ChildrenModule&#45;&gt;NotesModule</title>
<path fill="none" stroke="#000000" d="M707,-122.1061C707,-122.1061 707,-140.991 707,-140.991"/>
<polygon fill="#000000" stroke="#000000" points="703.5001,-140.9909 707,-150.991 710.5001,-140.991 703.5001,-140.9909"/>
</g>
<!-- ConfirmationDialogModule -->
<g id="node7" class="node">
<title>ConfirmationDialogModule</title>
<polygon fill="#8dd3c7" stroke="#000000" points="634.587,-122 631.587,-126 610.587,-126 607.587,-122 461.413,-122 461.413,-86 634.587,-86 634.587,-122"/>
<text text-anchor="middle" x="548" y="-99.8" font-family="Times,serif" font-size="14.00" fill="#000000">ConfirmationDialogModule</text>
</g>
<!-- ConfirmationDialogModule&#45;&gt;NotesModule -->
<g id="edge6" class="edge">
<title>ConfirmationDialogModule&#45;&gt;NotesModule</title>
<path fill="none" stroke="#000000" d="M548,-122.0091C548,-138.0494 548,-159 548,-159 548,-159 650.5832,-159 650.5832,-159"/>
<polygon fill="#000000" stroke="#000000" points="650.5832,-162.5001 660.5832,-159 650.5832,-155.5001 650.5832,-162.5001"/>
</g>
<!-- EntitySubrecordModule -->
<g id="node8" class="node">
<title>EntitySubrecordModule</title>
<polygon fill="#8dd3c7" stroke="#000000" points="443.8075,-122 440.8075,-126 419.8075,-126 416.8075,-122 292.1925,-122 292.1925,-86 443.8075,-86 443.8075,-122"/>
<text text-anchor="middle" x="368" y="-99.8" font-family="Times,serif" font-size="14.00" fill="#000000">EntitySubrecordModule</text>
</g>
<!-- EntitySubrecordModule&#45;&gt;NotesModule -->
<g id="edge7" class="edge">
<title>EntitySubrecordModule&#45;&gt;NotesModule</title>
<path fill="none" stroke="#000000" d="M368,-122.2667C368,-140.5552 368,-166 368,-166 368,-166 650.5743,-166 650.5743,-166"/>
<polygon fill="#000000" stroke="#000000" points="650.5743,-169.5001 660.5743,-166 650.5743,-162.5001 650.5743,-169.5001"/>
</g>
<!-- FormDialogModule -->
<g id="node9" class="node">
<title>FormDialogModule</title>
<polygon fill="#8dd3c7" stroke="#000000" points="273.986,-122 270.986,-126 249.986,-126 246.986,-122 146.014,-122 146.014,-86 273.986,-86 273.986,-122"/>
<text text-anchor="middle" x="210" y="-99.8" font-family="Times,serif" font-size="14.00" fill="#000000">FormDialogModule</text>
</g>
<!-- FormDialogModule&#45;&gt;NotesModule -->
<g id="edge8" class="edge">
<title>FormDialogModule&#45;&gt;NotesModule</title>
<path fill="none" stroke="#000000" d="M210,-122.1289C210,-142.5724 210,-173 210,-173 210,-173 650.6897,-173 650.6897,-173"/>
<polygon fill="#000000" stroke="#000000" points="650.6898,-176.5001 660.6897,-173 650.6897,-169.5001 650.6898,-176.5001"/>
</g>
<!-- SchoolsModule -->
<g id="node10" class="node">
<title>SchoolsModule</title>
<polygon fill="#8dd3c7" stroke="#000000" points="127.8823,-122 124.8823,-126 103.8823,-126 100.8823,-122 24.1177,-122 24.1177,-86 127.8823,-86 127.8823,-122"/>
<text text-anchor="middle" x="76" y="-99.8" font-family="Times,serif" font-size="14.00" fill="#000000">SchoolsModule</text>
</g>
<!-- SchoolsModule&#45;&gt;NotesModule -->
<g id="edge9" class="edge">
<title>SchoolsModule&#45;&gt;NotesModule</title>
<path fill="none" stroke="#000000" d="M76,-122.0109C76,-144.4852 76,-180 76,-180 76,-180 650.8567,-180 650.8567,-180"/>
<polygon fill="#000000" stroke="#000000" points="650.8567,-183.5001 660.8567,-180 650.8567,-176.5001 650.8567,-183.5001"/>
</g>
</g>
</svg>
