<?xml version="1.0" encoding="UTF-8" standalone="no"?>
<!DOCTYPE svg PUBLIC "-//W3C//DTD SVG 1.1//EN"
 "http://www.w3.org/Graphics/SVG/1.1/DTD/svg11.dtd">
<!-- Generated by graphviz version 2.40.1 (20161225.0304)
 -->
<!-- Title: dependencies Pages: 1 -->
<svg width="910pt" height="211pt"
 viewBox="0.00 0.00 910.00 211.00" xmlns="http://www.w3.org/2000/svg" xmlns:xlink="http://www.w3.org/1999/xlink">
<g id="graph0" class="graph" transform="scale(1 1) rotate(0) translate(4 207)">
<title>dependencies</title>
<polygon fill="#ffffff" stroke="transparent" points="-4,4 -4,-207 906,-207 906,4 -4,4"/>
<text text-anchor="start" x="430.0091" y="-42.4" font-family="sans-serif" font-weight="bold" font-size="14.00" fill="#000000">Legend</text>
<polygon fill="#ffffb3" stroke="transparent" points="217,-10 217,-30 237,-30 237,-10 217,-10"/>
<text text-anchor="start" x="240.629" y="-15.4" font-family="sans-serif" font-size="14.00" fill="#000000"> &#160;Declarations</text>
<polygon fill="#8dd3c7" stroke="transparent" points="330,-10 330,-30 350,-30 350,-10 330,-10"/>
<text text-anchor="start" x="353.7251" y="-15.4" font-family="sans-serif" font-size="14.00" fill="#000000"> &#160;Module</text>
<polygon fill="#80b1d3" stroke="transparent" points="416,-10 416,-30 436,-30 436,-10 416,-10"/>
<text text-anchor="start" x="439.7812" y="-15.4" font-family="sans-serif" font-size="14.00" fill="#000000"> &#160;Bootstrap</text>
<polygon fill="#fdb462" stroke="transparent" points="513,-10 513,-30 533,-30 533,-10 513,-10"/>
<text text-anchor="start" x="536.6732" y="-15.4" font-family="sans-serif" font-size="14.00" fill="#000000"> &#160;Providers</text>
<polygon fill="#fb8072" stroke="transparent" points="609,-10 609,-30 629,-30 629,-10 609,-10"/>
<text text-anchor="start" x="632.7258" y="-15.4" font-family="sans-serif" font-size="14.00" fill="#000000"> &#160;Exports</text>
<g id="clust1" class="cluster">
<title>cluster_AdminModule</title>
<polygon fill="none" stroke="#000000" stroke-dasharray="1,5" points="8,-70 8,-195 894,-195 894,-70 8,-70"/>
</g>
<g id="clust2" class="cluster">
<title>cluster_AdminModule_declarations</title>
<polygon fill="none" stroke="#000000" points="750,-78 750,-130 886,-130 886,-78 750,-78"/>
</g>
<g id="clust4" class="cluster">
<title>cluster_AdminModule_imports</title>
<polygon fill="none" stroke="#000000" points="264,-78 264,-130 742,-130 742,-78 264,-78"/>
</g>
<g id="clust7" class="cluster">
<title>cluster_AdminModule_providers</title>
<polygon fill="none" stroke="#000000" points="16,-78 16,-130 256,-130 256,-78 16,-78"/>
</g>
<!-- AdminComponent -->
<g id="node1" class="node">
<title>AdminComponent</title>
<polygon fill="#ffffb3" stroke="#000000" points="878.2204,-122 757.7796,-122 757.7796,-86 878.2204,-86 878.2204,-122"/>
<text text-anchor="middle" x="818" y="-99.8" font-family="Times,serif" font-size="14.00" fill="#000000">AdminComponent</text>
</g>
<!-- AdminModule -->
<g id="node2" class="node">
<title>AdminModule</title>
<polygon fill="#8dd3c7" stroke="#000000" points="557.4386,-187 554.4386,-191 533.4386,-191 530.4386,-187 458.5614,-187 458.5614,-151 557.4386,-151 557.4386,-187"/>
<text text-anchor="middle" x="508" y="-164.8" font-family="Times,serif" font-size="14.00" fill="#000000">AdminModule</text>
</g>
<!-- AdminComponent&#45;&gt;AdminModule -->
<g id="edge1" class="edge">
<title>AdminComponent&#45;&gt;AdminModule</title>
<path fill="none" stroke="#000000" d="M818,-122.2843C818,-143.3211 818,-175 818,-175 818,-175 567.4632,-175 567.4632,-175"/>
<polygon fill="#000000" stroke="#000000" points="567.4632,-171.5001 557.4632,-175 567.4632,-178.5001 567.4632,-171.5001"/>
</g>
<!-- AlertsModule -->
<g id="node3" class="node">
<title>AlertsModule</title>
<polygon fill="#8dd3c7" stroke="#000000" points="733.7577,-122 730.7577,-126 709.7577,-126 706.7577,-122 640.2423,-122 640.2423,-86 733.7577,-86 733.7577,-122"/>
<text text-anchor="middle" x="687" y="-99.8" font-family="Times,serif" font-size="14.00" fill="#000000">AlertsModule</text>
</g>
<!-- AlertsModule&#45;&gt;AdminModule -->
<g id="edge2" class="edge">
<title>AlertsModule&#45;&gt;AdminModule</title>
<path fill="none" stroke="#000000" d="M687,-122.0225C687,-139.3734 687,-163 687,-163 687,-163 567.3864,-163 567.3864,-163"/>
<polygon fill="#000000" stroke="#000000" points="567.3864,-159.5001 557.3864,-163 567.3863,-166.5001 567.3864,-159.5001"/>
</g>
<!-- ChildrenModule -->
<g id="node4" class="node">
<title>ChildrenModule</title>
<polygon fill="#8dd3c7" stroke="#000000" points="622.0438,-122 619.0438,-126 598.0438,-126 595.0438,-122 513.9562,-122 513.9562,-86 622.0438,-86 622.0438,-122"/>
<text text-anchor="middle" x="568" y="-99.8" font-family="Times,serif" font-size="14.00" fill="#000000">ChildrenModule</text>
</g>
<!-- ChildrenModule&#45;&gt;AdminModule -->
<g id="edge3" class="edge">
<title>ChildrenModule&#45;&gt;AdminModule</title>
<path fill="none" stroke="#000000" d="M535.4737,-122.1061C535.4737,-122.1061 535.4737,-140.991 535.4737,-140.991"/>
<polygon fill="#000000" stroke="#000000" points="531.9738,-140.9909 535.4737,-150.991 538.9738,-140.991 531.9738,-140.9909"/>
</g>
<!-- EntityModule -->
<g id="node5" class="node">
<title>EntityModule</title>
<polygon fill="#8dd3c7" stroke="#000000" points="495.7745,-122 492.7745,-126 471.7745,-126 468.7745,-122 402.2255,-122 402.2255,-86 495.7745,-86 495.7745,-122"/>
<text text-anchor="middle" x="449" y="-99.8" font-family="Times,serif" font-size="14.00" fill="#000000">EntityModule</text>
</g>
<!-- EntityModule&#45;&gt;AdminModule -->
<g id="edge4" class="edge">
<title>EntityModule&#45;&gt;AdminModule</title>
<path fill="none" stroke="#000000" d="M477.3342,-122.1061C477.3342,-122.1061 477.3342,-140.991 477.3342,-140.991"/>
<polygon fill="#000000" stroke="#000000" points="473.8342,-140.9909 477.3342,-150.991 480.8342,-140.991 473.8342,-140.9909"/>
</g>
<!-- UiHelperModule -->
<g id="node6" class="node">
<title>UiHelperModule</title>
<polygon fill="#8dd3c7" stroke="#000000" points="383.6346,-122 380.6346,-126 359.6346,-126 356.6346,-122 272.3654,-122 272.3654,-86 383.6346,-86 383.6346,-122"/>
<text text-anchor="middle" x="328" y="-99.8" font-family="Times,serif" font-size="14.00" fill="#000000">UiHelperModule</text>
</g>
<!-- UiHelperModule&#45;&gt;AdminModule -->
<g id="edge5" class="edge">
<title>UiHelperModule&#45;&gt;AdminModule</title>
<path fill="none" stroke="#000000" d="M328,-122.0225C328,-139.3734 328,-163 328,-163 328,-163 448.3377,-163 448.3377,-163"/>
<polygon fill="#000000" stroke="#000000" points="448.3378,-166.5001 458.3377,-163 448.3377,-159.5001 448.3378,-166.5001"/>
</g>
<!-- ChildPhotoUpdateService -->
<g id="node7" class="node">
<title>ChildPhotoUpdateService</title>
<ellipse fill="#fdb462" stroke="#000000" cx="136" cy="-104" rx="111.7584" ry="18"/>
<text text-anchor="middle" x="136" y="-99.8" font-family="Times,serif" font-size="14.00" fill="#000000">ChildPhotoUpdateService</text>
</g>
<!-- ChildPhotoUpdateService&#45;&gt;AdminModule -->
<g id="edge6" class="edge">
<title>ChildPhotoUpdateService&#45;&gt;AdminModule</title>
<path fill="none" stroke="#000000" d="M136,-122.2843C136,-143.3211 136,-175 136,-175 136,-175 448.6013,-175 448.6013,-175"/>
<polygon fill="#000000" stroke="#000000" points="448.6013,-178.5001 458.6013,-175 448.6012,-171.5001 448.6013,-178.5001"/>
</g>
</g>
</svg>
