<?xml version="1.0" encoding="UTF-8" standalone="no"?>
<!DOCTYPE svg PUBLIC "-//W3C//DTD SVG 1.1//EN"
 "http://www.w3.org/Graphics/SVG/1.1/DTD/svg11.dtd">
<!-- Generated by graphviz version 2.40.1 (20161225.0304)
 -->
<!-- Title: dependencies Pages: 1 -->
<svg width="636pt" height="284pt"
 viewBox="0.00 0.00 636.00 284.00" xmlns="http://www.w3.org/2000/svg" xmlns:xlink="http://www.w3.org/1999/xlink">
<g id="graph0" class="graph" transform="scale(1 1) rotate(0) translate(4 280)">
<title>dependencies</title>
<polygon fill="#ffffff" stroke="transparent" points="-4,4 -4,-280 632,-280 632,4 -4,4"/>
<text text-anchor="start" x="293.0091" y="-42.4" font-family="sans-serif" font-weight="bold" font-size="14.00" fill="#000000">Legend</text>
<polygon fill="#ffffb3" stroke="transparent" points="80,-10 80,-30 100,-30 100,-10 80,-10"/>
<text text-anchor="start" x="103.629" y="-15.4" font-family="sans-serif" font-size="14.00" fill="#000000"> &#160;Declarations</text>
<polygon fill="#8dd3c7" stroke="transparent" points="193,-10 193,-30 213,-30 213,-10 193,-10"/>
<text text-anchor="start" x="216.7251" y="-15.4" font-family="sans-serif" font-size="14.00" fill="#000000"> &#160;Module</text>
<polygon fill="#80b1d3" stroke="transparent" points="279,-10 279,-30 299,-30 299,-10 279,-10"/>
<text text-anchor="start" x="302.7812" y="-15.4" font-family="sans-serif" font-size="14.00" fill="#000000"> &#160;Bootstrap</text>
<polygon fill="#fdb462" stroke="transparent" points="376,-10 376,-30 396,-30 396,-10 376,-10"/>
<text text-anchor="start" x="399.6732" y="-15.4" font-family="sans-serif" font-size="14.00" fill="#000000"> &#160;Providers</text>
<polygon fill="#fb8072" stroke="transparent" points="472,-10 472,-30 492,-30 492,-10 472,-10"/>
<text text-anchor="start" x="495.7258" y="-15.4" font-family="sans-serif" font-size="14.00" fill="#000000"> &#160;Exports</text>
<g id="clust1" class="cluster">
<title>cluster_SyncStatusModule</title>
<polygon fill="none" stroke="#000000" stroke-dasharray="1,5" points="8,-70 8,-268 620,-268 620,-70 8,-70"/>
</g>
<g id="clust2" class="cluster">
<title>cluster_SyncStatusModule_declarations</title>
<polygon fill="none" stroke="#000000" points="254,-78 254,-130 612,-130 612,-78 254,-78"/>
</g>
<g id="clust5" class="cluster">
<title>cluster_SyncStatusModule_imports</title>
<polygon fill="none" stroke="#000000" points="16,-78 16,-130 246,-130 246,-78 16,-78"/>
</g>
<g id="clust6" class="cluster">
<title>cluster_SyncStatusModule_exports</title>
<polygon fill="none" stroke="#000000" points="180,-208 180,-260 344,-260 344,-208 180,-208"/>
</g>
<!-- InitialSyncDialogComponent -->
<g id="node1" class="node">
<title>InitialSyncDialogComponent</title>
<polygon fill="#ffffb3" stroke="#000000" points="604.3696,-122 423.6304,-122 423.6304,-86 604.3696,-86 604.3696,-122"/>
<text text-anchor="middle" x="514" y="-99.8" font-family="Times,serif" font-size="14.00" fill="#000000">InitialSyncDialogComponent</text>
</g>
<!-- SyncStatusModule -->
<g id="node3" class="node">
<title>SyncStatusModule</title>
<polygon fill="#8dd3c7" stroke="#000000" points="322.7702,-187 319.7702,-191 298.7702,-191 295.7702,-187 201.2298,-187 201.2298,-151 322.7702,-151 322.7702,-187"/>
<text text-anchor="middle" x="262" y="-164.8" font-family="Times,serif" font-size="14.00" fill="#000000">SyncStatusModule</text>
</g>
<!-- InitialSyncDialogComponent&#45;&gt;SyncStatusModule -->
<g id="edge1" class="edge">
<title>InitialSyncDialogComponent&#45;&gt;SyncStatusModule</title>
<path fill="none" stroke="#000000" d="M514,-122.1061C514,-141.3391 514,-169 514,-169 514,-169 333.0022,-169 333.0022,-169"/>
<polygon fill="#000000" stroke="#000000" points="333.0022,-165.5001 323.0022,-169 333.0021,-172.5001 333.0022,-165.5001"/>
</g>
<!-- SyncStatusComponent -->
<g id="node2" class="node">
<title>SyncStatusComponent</title>
<polygon fill="#ffffb3" stroke="#000000" points="405.5533,-122 262.4467,-122 262.4467,-86 405.5533,-86 405.5533,-122"/>
<text text-anchor="middle" x="334" y="-99.8" font-family="Times,serif" font-size="14.00" fill="#000000">SyncStatusComponent</text>
</g>
<!-- SyncStatusComponent&#45;&gt;SyncStatusModule -->
<g id="edge2" class="edge">
<title>SyncStatusComponent&#45;&gt;SyncStatusModule</title>
<path fill="none" stroke="#000000" d="M292.5544,-122.1061C292.5544,-122.1061 292.5544,-140.991 292.5544,-140.991"/>
<polygon fill="#000000" stroke="#000000" points="289.0544,-140.9909 292.5544,-150.991 296.0544,-140.991 289.0544,-140.9909"/>
</g>
<!-- SyncStatusComponent  -->
<g id="node6" class="node">
<title>SyncStatusComponent </title>
<polygon fill="#fb8072" stroke="#000000" points="335.5526,-252 188.4474,-252 188.4474,-216 335.5526,-216 335.5526,-252"/>
<text text-anchor="middle" x="262" y="-229.8" font-family="Times,serif" font-size="14.00" fill="#000000">SyncStatusComponent </text>
</g>
<!-- SyncStatusModule&#45;&gt;SyncStatusComponent  -->
<g id="edge5" class="edge">
<title>SyncStatusModule&#45;&gt;SyncStatusComponent </title>
<path fill="none" stroke="#000000" stroke-dasharray="5,2" d="M262,-187.1061C262,-187.1061 262,-205.991 262,-205.991"/>
<polygon fill="#000000" stroke="#000000" points="258.5001,-205.9909 262,-215.991 265.5001,-205.991 258.5001,-205.9909"/>
</g>
<!-- AlertsModule -->
<g id="node4" class="node">
<title>AlertsModule</title>
<polygon fill="#8dd3c7" stroke="#000000" points="237.7577,-122 234.7577,-126 213.7577,-126 210.7577,-122 144.2423,-122 144.2423,-86 237.7577,-86 237.7577,-122"/>
<text text-anchor="middle" x="191" y="-99.8" font-family="Times,serif" font-size="14.00" fill="#000000">AlertsModule</text>
</g>
<!-- AlertsModule&#45;&gt;SyncStatusModule -->
<g id="edge3" class="edge">
<title>AlertsModule&#45;&gt;SyncStatusModule</title>
<path fill="none" stroke="#000000" d="M219.4969,-122.1061C219.4969,-122.1061 219.4969,-140.991 219.4969,-140.991"/>
<polygon fill="#000000" stroke="#000000" points="215.9969,-140.9909 219.4969,-150.991 222.9969,-140.991 215.9969,-140.9909"/>
</g>
<!-- SessionModule -->
<g id="node5" class="node">
<title>SessionModule</title>
<polygon fill="#8dd3c7" stroke="#000000" points="126.3273,-122 123.3273,-126 102.3273,-126 99.3273,-122 23.6727,-122 23.6727,-86 126.3273,-86 126.3273,-122"/>
<text text-anchor="middle" x="75" y="-99.8" font-family="Times,serif" font-size="14.00" fill="#000000">SessionModule</text>
</g>
<!-- SessionModule&#45;&gt;SyncStatusModule -->
<g id="edge4" class="edge">
<title>SessionModule&#45;&gt;SyncStatusModule</title>
<path fill="none" stroke="#000000" d="M75,-122.1061C75,-141.3391 75,-169 75,-169 75,-169 191.028,-169 191.028,-169"/>
<polygon fill="#000000" stroke="#000000" points="191.028,-172.5001 201.028,-169 191.0279,-165.5001 191.028,-172.5001"/>
</g>
</g>
</svg>
